<svg id="Capa_1" data-name="Capa 1" xmlns="http://www.w3.org/2000/svg" viewBox="0 0 17.93 17.93"><defs><style>.cls-1{fill:#174193;}.cls-2{fill:#fff;}</style></defs><title>ayuda</title><circle class="cls-1" cx="8.97" cy="8.97" r="8.97"/><path class="cls-2" d="M395.17,308.39a3.29,3.29,0,0,1,.22-1.39,4,4,0,0,1,1-1.06,6,6,0,0,0,.85-1,1.82,1.82,0,0,0,.31-1.05,1.38,1.38,0,0,0-.35-1,1.35,1.35,0,0,0-1-.37,1.49,1.49,0,0,0-1,.31,1.12,1.12,0,0,0-.4.92h-1.6l0,0a2.28,2.28,0,0,1,.82-1.9,3.34,3.34,0,0,1,2.16-.68,3.23,3.23,0,0,1,2.24.73,2.61,2.61,0,0,1,.81,2,2.77,2.77,0,0,1-.51,1.61,6,6,0,0,1-1.26,1.36,1.56,1.56,0,0,0-.49.65,3,3,0,0,0-.1.9Zm1.68,2.82h-1.69v-1.59h1.69Z" transform="translate(-387.21 -297.19)"/></svg>