<svg id="Capa_1" data-name="Capa 1" xmlns="http://www.w3.org/2000/svg" viewBox="0 0 9.53 13.59"><defs><style>.cls-1{fill:#174193;}.cls-2{fill:#fff;}</style></defs><rect class="cls-1" y="2.34" width="9.41" height="11.25" rx="2.26"/><rect class="cls-2" x="1.88" y="5.33" width="1.02" height="5.26"/><rect class="cls-2" x="4.29" y="5.33" width="1.02" height="5.26"/><rect class="cls-2" x="6.52" y="5.33" width="1.02" height="5.26"/><path class="cls-1" d="M11.72,6.82l-3.29.35h0V7a.2.2,0,0,0-.21-.18h0L6.71,7a.19.19,0,0,0-.17.21h0v.17h0L3.33,7.7a.43.43,0,0,0-.39.47v0L3,8.71a.44.44,0,0,0,.48.39h0l8.42-.88a.46.46,0,0,0,.4-.48l-.06-.52a.45.45,0,0,0-.49-.39Z" transform="translate(-2.76 -6.81)"/></svg>