<svg id="Capa_1" data-name="Capa 1" xmlns="http://www.w3.org/2000/svg" viewBox="0 0 156.69 25.84"><defs><style>.cls-1{fill:#174193;}</style></defs><title>borrar</title><path class="cls-1" d="M298.1,299.85v-12.3h4a5.27,5.27,0,0,1,3.18.84,2.9,2.9,0,0,1,1.15,2.51,2.44,2.44,0,0,1-.46,1.46,2.79,2.79,0,0,1-1.28,1,2.75,2.75,0,0,1,1.82,1,3.06,3.06,0,0,1,.64,1.94,3.18,3.18,0,0,1-1.13,2.64,4.92,4.92,0,0,1-3.13.9Zm2-7.13h2.2a2.32,2.32,0,0,0,1.51-.45,1.81,1.81,0,0,0,0-2.63,2.75,2.75,0,0,0-1.7-.45h-2Zm0,1.53v4h2.77a2.49,2.49,0,0,0,1.64-.49,1.75,1.75,0,0,0,.58-1.41,1.94,1.94,0,0,0-.57-1.47,2.33,2.33,0,0,0-1.59-.59h-2.83Z" transform="translate(-268.58 -279.88)"/><path class="cls-1" d="M308.52,295.19a5,5,0,0,1,1.12-3.35,4.29,4.29,0,0,1,6.15,0,5,5,0,0,1,1.12,3.35v.18a5,5,0,0,1-1.12,3.36,4.3,4.3,0,0,1-6.15,0,5,5,0,0,1-1.12-3.35Zm2.06.18a4.07,4.07,0,0,0,.52,2.18,2,2,0,0,0,3.23,0,3.94,3.94,0,0,0,.54-2.17v-.18a4,4,0,0,0-.54-2.16,1.81,1.81,0,0,0-1.63-.85,1.78,1.78,0,0,0-1.6.85,4.07,4.07,0,0,0-.52,2.16Z" transform="translate(-268.58 -279.88)"/><path class="cls-1" d="M323.25,292.56l-.87,0a1.81,1.81,0,0,0-1,.26,1.62,1.62,0,0,0-.63.71v6.36H318.7v-9.14h1.88l.13,1.32a3,3,0,0,1,.89-1.1,2.12,2.12,0,0,1,1.26-.39,1.79,1.79,0,0,1,.34,0l.3.07Z" transform="translate(-268.58 -279.88)"/><path class="cls-1" d="M329.33,292.56l-.88,0a1.83,1.83,0,0,0-1,.26,1.54,1.54,0,0,0-.62.71v6.36h-2.05v-9.14h1.87l.14,1.32a2.88,2.88,0,0,1,.89-1.1,2.09,2.09,0,0,1,1.25-.39,2,2,0,0,1,.35,0l.29.07Z" transform="translate(-268.58 -279.88)"/><path class="cls-1" d="M336.36,299.85c-.08-.24-.14-.46-.19-.68a5,5,0,0,1-.09-.66,3.58,3.58,0,0,1-1.11,1.08,2.85,2.85,0,0,1-1.55.43,3,3,0,0,1-2.19-.73,2.66,2.66,0,0,1-.76-2,2.39,2.39,0,0,1,1-2.07,5,5,0,0,1,2.94-.74h1.6v-.8a1.48,1.48,0,0,0-.42-1.12,1.67,1.67,0,0,0-1.21-.41,1.7,1.7,0,0,0-1.12.34,1.07,1.07,0,0,0-.41.86h-2v0a2.27,2.27,0,0,1,1-1.92,4.16,4.16,0,0,1,2.68-.83,3.9,3.9,0,0,1,2.57.81,2.84,2.84,0,0,1,1,2.33v4.06a7.66,7.66,0,0,0,.08,1.09,6.28,6.28,0,0,0,.24,1Zm-2.51-1.47a2.58,2.58,0,0,0,1.39-.39,2,2,0,0,0,.82-.89v-1.35h-1.63a2.08,2.08,0,0,0-1.4.44,1.36,1.36,0,0,0-.51,1.05,1.07,1.07,0,0,0,.34.83A1.47,1.47,0,0,0,333.85,298.38Z" transform="translate(-268.58 -279.88)"/><path class="cls-1" d="M344.81,292.56l-.88,0a1.83,1.83,0,0,0-1,.26,1.6,1.6,0,0,0-.62.71v6.36h-2.05v-9.14h1.87l.14,1.32a3,3,0,0,1,.89-1.1,2.09,2.09,0,0,1,1.25-.39,1.9,1.9,0,0,1,.35,0l.3.07Z" transform="translate(-268.58 -279.88)"/><path class="cls-1" d="M358.66,295.58a5.17,5.17,0,0,1-.93,3.22,3.43,3.43,0,0,1-4.13.87,3,3,0,0,1-1.05-1l-.25,1.21h-1.66V286.67h2.05v5.07a3,3,0,0,1,1-.89,2.86,2.86,0,0,1,1.37-.31,3,3,0,0,1,2.65,1.33,6.07,6.07,0,0,1,.93,3.53Zm-2.05-.18a4.65,4.65,0,0,0-.49-2.3,1.64,1.64,0,0,0-1.55-.88,2.07,2.07,0,0,0-1.15.3,2.18,2.18,0,0,0-.73.85v3.83a2,2,0,0,0,.73.85,2.11,2.11,0,0,0,1.16.3,1.71,1.71,0,0,0,1.55-.75,3.7,3.7,0,0,0,.48-2Z" transform="translate(-268.58 -279.88)"/><path class="cls-1" d="M366.14,298.49a3.07,3.07,0,0,1-1.09,1.14,3,3,0,0,1-1.53.39,2.87,2.87,0,0,1-2.3-1,4.59,4.59,0,0,1-.82-3v-5.34h2v5.36a3.06,3.06,0,0,0,.38,1.79,1.39,1.39,0,0,0,1.18.49,2.63,2.63,0,0,0,1.25-.27,1.89,1.89,0,0,0,.79-.77v-6.6h2v9.14h-1.76Z" transform="translate(-268.58 -279.88)"/><path class="cls-1" d="M375.37,297.35a1,1,0,0,0-.4-.79,4.2,4.2,0,0,0-1.52-.55,6.15,6.15,0,0,1-2.46-1,2,2,0,0,1-.86-1.72,2.5,2.5,0,0,1,1-2,3.85,3.85,0,0,1,2.56-.81,4,4,0,0,1,2.64.84,2.43,2.43,0,0,1,.95,2v.05h-2a1.31,1.31,0,0,0-.44-1,1.65,1.65,0,0,0-1.17-.41,1.72,1.72,0,0,0-1.14.34,1.06,1.06,0,0,0-.39.83.89.89,0,0,0,.37.74,3.78,3.78,0,0,0,1.49.5,6.4,6.4,0,0,1,2.54,1,2.1,2.1,0,0,1,.85,1.76,2.42,2.42,0,0,1-1,2,4.29,4.29,0,0,1-2.68.78,4.06,4.06,0,0,1-2.81-.91,2.55,2.55,0,0,1-1-2.09l0-.06h1.9a1.39,1.39,0,0,0,.58,1.16,2.33,2.33,0,0,0,1.32.37,2.06,2.06,0,0,0,1.22-.32A1,1,0,0,0,375.37,297.35Z" transform="translate(-268.58 -279.88)"/><path class="cls-1" d="M378.85,295.4a6,6,0,0,1,.94-3.52,3,3,0,0,1,2.63-1.34,2.94,2.94,0,0,1,1.41.33,3.09,3.09,0,0,1,1,.94l.23-1.1h1.67v12.65h-2.06V299a2.64,2.64,0,0,1-1,.78,3.07,3.07,0,0,1-1.31.26,3.12,3.12,0,0,1-2.62-1.22,5.13,5.13,0,0,1-.94-3.22Zm2,.18a3.85,3.85,0,0,0,.49,2,1.69,1.69,0,0,0,1.54.76,2.05,2.05,0,0,0,1.06-.25,1.91,1.91,0,0,0,.72-.72v-4.25a2,2,0,0,0-1.76-1,1.65,1.65,0,0,0-1.55.9,4.8,4.8,0,0,0-.5,2.32Z" transform="translate(-268.58 -279.88)"/><path class="cls-1" d="M394.73,298.49a3.12,3.12,0,0,1-1.08,1.14,3,3,0,0,1-1.54.39,2.85,2.85,0,0,1-2.29-1,4.53,4.53,0,0,1-.83-3v-5.34h2v5.36a3.06,3.06,0,0,0,.38,1.79,1.4,1.4,0,0,0,1.18.49,2.6,2.6,0,0,0,1.25-.27,1.83,1.83,0,0,0,.79-.77v-6.6h2.05v9.14h-1.76Z" transform="translate(-268.58 -279.88)"/><path class="cls-1" d="M402.71,300a4,4,0,0,1-3.13-1.26,4.68,4.68,0,0,1-1.13-3.27v-.34a4.86,4.86,0,0,1,1.13-3.32,3.62,3.62,0,0,1,2.91-1.29,3.43,3.43,0,0,1,2.78,1.13,4.61,4.61,0,0,1,1,3v1.11h-5.65l0,0a3,3,0,0,0,.59,1.82,2,2,0,0,0,1.68.7,4.5,4.5,0,0,0,1.45-.2,4.09,4.09,0,0,0,1.14-.58l.67,1.34a4.25,4.25,0,0,1-1.39.77A5.76,5.76,0,0,1,402.71,300Zm-.22-7.84a1.61,1.61,0,0,0-1.29.58,2.91,2.91,0,0,0-.6,1.51l0,0h3.57v-.16a2.26,2.26,0,0,0-.41-1.42A1.51,1.51,0,0,0,402.49,292.18Z" transform="translate(-268.58 -279.88)"/><path class="cls-1" d="M407.5,295.4a6,6,0,0,1,.94-3.52,3,3,0,0,1,2.64-1.34,2.89,2.89,0,0,1,1.33.3,2.93,2.93,0,0,1,1,.85v-5h2.06v13.18h-1.67l-.24-1.16a3.06,3.06,0,0,1-1.07,1,2.89,2.89,0,0,1-1.44.34,3.13,3.13,0,0,1-2.62-1.22,5.2,5.2,0,0,1-.94-3.22Zm2.06.18a3.73,3.73,0,0,0,.48,2,1.71,1.71,0,0,0,1.54.75,1.95,1.95,0,0,0,1.84-1.07v-4a2.09,2.09,0,0,0-.74-.79,2,2,0,0,0-1.08-.28,1.66,1.66,0,0,0-1.55.88,4.7,4.7,0,0,0-.49,2.3Z" transform="translate(-268.58 -279.88)"/><path class="cls-1" d="M423.19,299.85c-.07-.24-.13-.46-.18-.68a5,5,0,0,1-.1-.66,3.48,3.48,0,0,1-1.11,1.08,2.82,2.82,0,0,1-1.54.43,3,3,0,0,1-2.19-.73,2.67,2.67,0,0,1-.77-2,2.39,2.39,0,0,1,1.05-2.07,5.08,5.08,0,0,1,2.95-.74h1.59v-.8a1.51,1.51,0,0,0-.41-1.12,1.7,1.7,0,0,0-1.22-.41,1.67,1.67,0,0,0-1.11.34,1,1,0,0,0-.42.86h-2v0a2.26,2.26,0,0,1,1-1.92,4.12,4.12,0,0,1,2.67-.83,3.94,3.94,0,0,1,2.58.81,2.87,2.87,0,0,1,1,2.33v4.06a7.68,7.68,0,0,0,.07,1.09,5.42,5.42,0,0,0,.25,1Zm-2.51-1.47a2.56,2.56,0,0,0,1.39-.39,2,2,0,0,0,.82-.89v-1.35h-1.63a2.1,2.1,0,0,0-1.4.44,1.36,1.36,0,0,0-.51,1.05,1.08,1.08,0,0,0,.35.83A1.42,1.42,0,0,0,420.68,298.38Z" transform="translate(-268.58 -279.88)"/><polygon class="cls-1" points="22.74 12.27 13.26 22.15 1.94 11.68 11.43 1.8 22.74 12.27"/><polygon class="cls-1" points="0 9.88 9.48 0 10.56 1 1.08 10.88 0 9.88"/><polygon class="cls-1" points="14.21 23.03 23.69 13.15 24.77 14.15 15.28 24.03 14.21 23.03"/><path class="cls-1" d="M294.61,298.37,288.24,305a1.72,1.72,0,0,1-2.41.06l-2.17-2,8.71-9.08,2.17,2A1.66,1.66,0,0,1,294.61,298.37Z" transform="translate(-268.58 -279.88)"/><path class="cls-1" d="M285.83,305.72h15.25a.64.64,0,0,0,0-1.28H285.83a.65.65,0,0,0,0,1.29Z" transform="translate(-268.58 -279.88)"/></svg>