<svg width="19.55" height="19.55" version="1.1" viewBox="0 0 5.1726 5.1726" xmlns="http://www.w3.org/2000/svg">
 <g transform="translate(0 -291.83)">
  <g transform="matrix(.35278 0 0 -.35278 4.0503 292.07)">
   <path d="m0 0c-2.045-3.296-4.09-6.593-6.134-9.889-0.726 0.888-1.528 1.712-2.425 2.433-0.614 0.494-1.465 0.6-2.065 0-0.512-0.511-0.618-1.568 0-2.065 1.313-1.057 2.436-2.287 3.324-3.72 0.586-0.944 1.937-0.944 2.522 0 2.433 3.922 4.867 7.845 7.299 11.767 0.995 1.601-1.531 3.07-2.521 1.474" style="fill:#174193"/>
  </g>
 </g>
</svg>
