<svg xmlns="http://www.w3.org/2000/svg" viewBox="0 0 73.4 15.18"><defs><style>.cls-1,.cls-2{fill:#d21e18;}.cls-2{stroke:#fff;stroke-miterlimit:10;stroke-width:0.5px;}.cls-3{fill:#174193;}.cls-4{fill:#fff;}</style></defs><g id="Capa_2" data-name="Capa 2"><g id="Capa_1-2" data-name="Capa 1"><path class="cls-1" d="M19.41,10v0a2.55,2.55,0,0,1-1,1.7,3.17,3.17,0,0,1-2,.65,2.17,2.17,0,0,1-1.82-.86,2.75,2.75,0,0,1-.46-2.16l.2-1.27A3.62,3.62,0,0,1,15.45,5.9a2.94,2.94,0,0,1,2.1-.83,2.4,2.4,0,0,1,1.8.64,1.83,1.83,0,0,1,.46,1.7v0h-.92a1.44,1.44,0,0,0-.26-1.2,1.5,1.5,0,0,0-1.18-.42,1.8,1.8,0,0,0-1.37.66,3,3,0,0,0-.73,1.6l-.19,1.28A2.4,2.4,0,0,0,15.37,11a1.3,1.3,0,0,0,1.2.63,2,2,0,0,0,1.29-.44A1.9,1.9,0,0,0,18.49,10Z"/><path class="cls-1" d="M23.36,7.84l-.48,0a1.25,1.25,0,0,0-.67.19,1.68,1.68,0,0,0-.49.53l-.56,3.75h-1L21,7h.86l0,.75a2.12,2.12,0,0,1,.65-.62,1.45,1.45,0,0,1,.79-.22h.2l.16,0Z"/><path class="cls-1" d="M25.78,12.38a1.91,1.91,0,0,1-1.64-.74,2.46,2.46,0,0,1-.38-1.9l0-.22a3.13,3.13,0,0,1,.93-1.9,2.44,2.44,0,0,1,1.72-.72,1.63,1.63,0,0,1,1.47.67,2.37,2.37,0,0,1,.29,1.74l-.08.51H24.72a2.08,2.08,0,0,0,.16,1.32,1.07,1.07,0,0,0,1,.49,2.75,2.75,0,0,0,.88-.14,2.68,2.68,0,0,0,.69-.38l.28.62a2.61,2.61,0,0,1-.81.46A3.12,3.12,0,0,1,25.78,12.38Zm.56-4.73a1.23,1.23,0,0,0-.88.39,2.2,2.2,0,0,0-.56,1v0h2.38V9a1.47,1.47,0,0,0-.14-1A.89.89,0,0,0,26.34,7.65Z"/><path class="cls-1" d="M32.09,12.28c0-.19,0-.33,0-.44s0-.23,0-.35a2.79,2.79,0,0,1-.8.63,2,2,0,0,1-1,.26A1.48,1.48,0,0,1,29.16,12a1.31,1.31,0,0,1-.27-1.16,1.57,1.57,0,0,1,.78-1.19,3.19,3.19,0,0,1,1.73-.42h1.05l.07-.52a.87.87,0,0,0-.16-.75,1,1,0,0,0-.77-.26,1.33,1.33,0,0,0-.78.24.81.81,0,0,0-.38.56h-.92v0a1.51,1.51,0,0,1,.7-1.07,2.54,2.54,0,0,1,1.55-.46,1.92,1.92,0,0,1,1.36.46,1.43,1.43,0,0,1,.37,1.31l-.38,2.54a3.25,3.25,0,0,0,0,1.07Zm-1.49-.71a1.92,1.92,0,0,0,1-.27,1.68,1.68,0,0,0,.65-.61l.13-.86H31.27a1.6,1.6,0,0,0-1,.3,1.06,1.06,0,0,0-.46.68.66.66,0,0,0,.13.57A.86.86,0,0,0,30.6,11.57Z"/><path class="cls-1" d="M37.51,7.84l-.49,0a1.28,1.28,0,0,0-.67.19,1.68,1.68,0,0,0-.49.53l-.56,3.75h-1L35.13,7H36l0,.75a2.24,2.24,0,0,1,.65-.62,1.45,1.45,0,0,1,.79-.22h.21l.15,0Z"/><path class="cls-1" d="M43.75,12.28l0-.76a2.15,2.15,0,0,1-.74.64,2,2,0,0,1-.94.22,1.48,1.48,0,0,1-1.25-.56,2.33,2.33,0,0,1-.24-1.71L41.1,7h1l-.47,3.13a1.88,1.88,0,0,0,.07,1.18.82.82,0,0,0,.74.3,1.66,1.66,0,0,0,.87-.22,1.7,1.7,0,0,0,.61-.61L44.44,7h1l-.79,5.29Z"/><path class="cls-1" d="M49.31,10.86a.58.58,0,0,0-.17-.53,2.05,2.05,0,0,0-.87-.34,3.48,3.48,0,0,1-1.36-.56,1,1,0,0,1-.36-1,1.61,1.61,0,0,1,.7-1.12,2.41,2.41,0,0,1,1.49-.44,1.89,1.89,0,0,1,1.37.49,1.2,1.2,0,0,1,.39,1.13v0h-.92a.73.73,0,0,0-.21-.62.91.91,0,0,0-.72-.28,1.28,1.28,0,0,0-.79.23.89.89,0,0,0-.34.55.54.54,0,0,0,.15.49,2.25,2.25,0,0,0,.86.31,3.17,3.17,0,0,1,1.39.58,1,1,0,0,1,.37,1A1.65,1.65,0,0,1,49.55,12a2.65,2.65,0,0,1-1.55.43,2,2,0,0,1-1.5-.52,1.28,1.28,0,0,1-.41-1.19v0H47a.79.79,0,0,0,.27.75,1.34,1.34,0,0,0,.81.24,1.52,1.52,0,0,0,.82-.22A.86.86,0,0,0,49.31,10.86Z"/><path class="cls-1" d="M54.66,12.28l.05-.76a2.21,2.21,0,0,1-.73.64,2,2,0,0,1-.94.22,1.45,1.45,0,0,1-1.25-.56,2.24,2.24,0,0,1-.24-1.71L52,7h1l-.46,3.13a1.9,1.9,0,0,0,.06,1.18.83.83,0,0,0,.74.3,1.61,1.61,0,0,0,.87-.22,1.7,1.7,0,0,0,.61-.61L55.35,7h1l-.79,5.29Z"/><path class="cls-1" d="M60.17,12.28c0-.19,0-.33,0-.44s0-.23,0-.35a2.79,2.79,0,0,1-.8.63,2,2,0,0,1-1,.26A1.48,1.48,0,0,1,57.24,12,1.31,1.31,0,0,1,57,10.79a1.57,1.57,0,0,1,.78-1.19,3.21,3.21,0,0,1,1.73-.42h1.05l.08-.52a.91.91,0,0,0-.17-.75,1,1,0,0,0-.77-.26,1.33,1.33,0,0,0-.78.24.81.81,0,0,0-.38.56h-.92v0a1.51,1.51,0,0,1,.7-1.07,2.54,2.54,0,0,1,1.55-.46,1.9,1.9,0,0,1,1.36.46,1.41,1.41,0,0,1,.37,1.31l-.38,2.54a2.89,2.89,0,0,0-.06.56,4.36,4.36,0,0,0,0,.51Zm-1.49-.71a1.92,1.92,0,0,0,1-.27,1.68,1.68,0,0,0,.65-.61l.13-.86H59.35a1.6,1.6,0,0,0-1,.3,1.06,1.06,0,0,0-.46.68.69.69,0,0,0,.13.57A.86.86,0,0,0,58.68,11.57Z"/><path class="cls-1" d="M65.59,7.84l-.49,0a1.28,1.28,0,0,0-.67.19,1.55,1.55,0,0,0-.48.53l-.57,3.75h-1L63.21,7h.86l0,.75a2.24,2.24,0,0,1,.65-.62,1.45,1.45,0,0,1,.79-.22h.21l.15,0Z"/><path class="cls-1" d="M67,12.28H66L66.79,7h1Zm1-6.64H67l.14-1h1Z"/><path class="cls-1" d="M68.62,9.59a3.4,3.4,0,0,1,.92-2,2.52,2.52,0,0,1,1.84-.73,1.82,1.82,0,0,1,1.6.76,2.55,2.55,0,0,1,.37,1.93v.1a3.44,3.44,0,0,1-.93,2,2.49,2.49,0,0,1-1.84.73,1.85,1.85,0,0,1-1.6-.76,2.6,2.6,0,0,1-.37-1.93Zm.95.1a2.26,2.26,0,0,0,.14,1.41,1,1,0,0,0,1,.53,1.42,1.42,0,0,0,1.12-.56,2.78,2.78,0,0,0,.57-1.38l0-.1a2.22,2.22,0,0,0-.15-1.4,1,1,0,0,0-1-.54,1.42,1.42,0,0,0-1.12.56,2.68,2.68,0,0,0-.56,1.38Z"/><rect class="cls-1" y="4.99" width="9.89" height="9.17" rx="3.29"/><circle class="cls-2" cx="4.95" cy="3.43" r="3.18"/><circle class="cls-3" cx="9.01" cy="11.97" r="3.21"/><path class="cls-4" d="M10.39,11.44H9.54V10.6A.52.52,0,0,0,9,10.07a.53.53,0,0,0-.53.53v.84H7.64a.53.53,0,0,0,0,1.06h.84v.85a.53.53,0,0,0,.53.53.53.53,0,0,0,.53-.53V12.5h.85a.53.53,0,0,0,0-1.06Z"/></g></g></svg>