<svg id="Capa_1" data-name="Capa 1" xmlns="http://www.w3.org/2000/svg" viewBox="0 0 15.7 13.58"><defs><style>.cls-1{fill:#d21e18;}.cls-2{fill:#fff;}</style></defs><title>descarga</title><path class="cls-1" d="M404,311.63H388.32v-3.47a.89.89,0,1,1,1.77,0v1.7h12.16v-1.7a.89.89,0,0,1,1.78,0Z" transform="translate(-388.32 -299.37)"/><path class="cls-1" d="M399.54,304.93h-1.07V301.1a1.51,1.51,0,0,0-1.51-1.5h-1.57a1.51,1.51,0,0,0-1.51,1.5v3.83H392.8a1.26,1.26,0,0,0-1.2,1.89l1.68,2.64,1.69,2.63a1.47,1.47,0,0,0,2.41,0l1.69-2.63,1.68-2.64A1.26,1.26,0,0,0,399.54,304.93Z" transform="translate(-388.32 -299.37)"/><path class="cls-2" d="M396.17,313a1.62,1.62,0,0,1-1.39-.73l-3.37-5.28a1.37,1.37,0,0,1-.05-1.42,1.63,1.63,0,0,1,1.44-.82h.86v-3.6a1.73,1.73,0,0,1,1.73-1.73H397a1.74,1.74,0,0,1,1.73,1.73v3.6h.85a1.64,1.64,0,0,1,1.45.82,1.37,1.37,0,0,1-.05,1.42l-3.37,5.28A1.62,1.62,0,0,1,396.17,313Zm-3.37-7.8a1.19,1.19,0,0,0-1.05.59.9.9,0,0,0,0,1l3.37,5.27a1.24,1.24,0,0,0,2,0l3.37-5.27a.92.92,0,0,0,0-1,1.19,1.19,0,0,0-1.06-.59h-1.3v-4a1.28,1.28,0,0,0-1.28-1.28h-1.57a1.28,1.28,0,0,0-1.28,1.28v4Z" transform="translate(-388.32 -299.37)"/></svg>