<svg id="Capa_1" data-name="Capa 1" xmlns="http://www.w3.org/2000/svg" viewBox="0 0 36.74 25.71"><defs><style>.cls-1,.cls-3{fill:#174193;}.cls-2{fill:#fff;}.cls-3{font-size:10px;font-family:Roboto-Italic, Roboto;font-style:italic;}</style></defs><rect class="cls-1" x="13.38" y="2.34" width="9.41" height="11.25" rx="2.26"/><rect class="cls-2" x="15.26" y="5.33" width="1.02" height="5.26"/><rect class="cls-2" x="17.67" y="5.33" width="1.02" height="5.26"/><rect class="cls-2" x="19.9" y="5.33" width="1.02" height="5.26"/><path class="cls-1" d="M33.72,6.82l-3.29.35h0V7a.2.2,0,0,0-.21-.18h0L28.71,7a.19.19,0,0,0-.17.21h0v.17h0l-3.21.34a.43.43,0,0,0-.39.47v0l0,.52a.44.44,0,0,0,.48.39h0l8.42-.88a.46.46,0,0,0,.4-.48l-.06-.52a.45.45,0,0,0-.49-.39Z" transform="translate(-11.38 -6.81)"/><text class="cls-3" transform="translate(0 23)">Eliminar</text></svg>