<svg xmlns="http://www.w3.org/2000/svg" viewBox="0 0 48.28 9.74"><defs><style>.cls-1{fill:#174193;}</style></defs><g id="Capa_2" data-name="Capa 2"><g id="Capa_1-2" data-name="Capa 1"><path class="cls-1" d="M26.49,5.11h-3L23,8.26h-1l1.07-7.11h4.45l-.11.75H24l-.38,2.45h3Z"/><path class="cls-1" d="M28.48,8.26h-1L28.31,3h1Zm1-6.64h-1l.15-1h1Z"/><path class="cls-1" d="M31,8.26H30L31.18.64h1Z"/><path class="cls-1" d="M34.8,1.7,34.61,3h1l-.11.71h-1L34,6.89c0,.26,0,.44.07.53a.5.5,0,0,0,.39.15l.19,0,.17,0,0,.66a1.09,1.09,0,0,1-.34.14,1.64,1.64,0,0,1-.42.06A1.07,1.07,0,0,1,33.25,8a1.32,1.32,0,0,1-.19-1.11l.48-3.21H32.7L32.8,3h.84l.19-1.27Z"/><path class="cls-1" d="M39,3.82l-.49,0a1.14,1.14,0,0,0-.66.19,1.48,1.48,0,0,0-.49.53l-.56,3.75h-1L36.64,3h.86l0,.75a2,2,0,0,1,.64-.62,1.49,1.49,0,0,1,.8-.23l.2,0,.16,0Z"/><path class="cls-1" d="M42.59,8.26c0-.19,0-.33,0-.45s0-.22,0-.34a2.66,2.66,0,0,1-.8.63,2,2,0,0,1-1,.26,1.53,1.53,0,0,1-1.18-.43,1.38,1.38,0,0,1-.27-1.16,1.66,1.66,0,0,1,.78-1.2,3.34,3.34,0,0,1,1.74-.41h1L43,4.64a.87.87,0,0,0-.17-.75,1,1,0,0,0-.76-.26,1.34,1.34,0,0,0-.79.24.81.81,0,0,0-.38.56H40v0a1.51,1.51,0,0,1,.7-1.07,2.57,2.57,0,0,1,1.55-.47,1.9,1.9,0,0,1,1.36.47A1.4,1.4,0,0,1,44,4.65l-.38,2.54c0,.2,0,.38-.06.55a4.41,4.41,0,0,0,0,.52ZM41.1,7.55a1.9,1.9,0,0,0,1-.27,1.63,1.63,0,0,0,.65-.62l.13-.85H41.77a1.57,1.57,0,0,0-1,.3,1,1,0,0,0-.46.68.61.61,0,0,0,.13.56A.78.78,0,0,0,41.1,7.55Z"/><path class="cls-1" d="M48,3.82l-.49,0a1.14,1.14,0,0,0-.66.19,1.48,1.48,0,0,0-.49.53l-.56,3.75h-1L45.64,3h.86l0,.75a2,2,0,0,1,.64-.62,1.49,1.49,0,0,1,.8-.23l.2,0,.16,0Z"/><rect class="cls-1" y="0.82" width="18.25" height="1.58" rx="0.68"/><rect class="cls-1" y="4.07" width="18.25" height="1.58" rx="0.68"/><rect class="cls-1" y="7.22" width="18.25" height="1.58" rx="0.68"/><circle class="cls-1" cx="4.11" cy="1.61" r="1.61"/><circle class="cls-1" cx="4.11" cy="1.61" r="1.13"/><circle class="cls-1" cx="9.72" cy="4.86" r="1.61"/><circle class="cls-1" cx="9.72" cy="4.86" r="1.13"/><circle class="cls-1" cx="14.84" cy="8.13" r="1.61"/><circle class="cls-1" cx="14.84" cy="8.13" r="1.13"/></g></g></svg>