<svg id="Capa_1" data-name="Capa 1" xmlns="http://www.w3.org/2000/svg" viewBox="0 0 51.74 13.44"><defs><style>.cls-1{fill:#d21e18;}.cls-2{fill:#fff;}</style></defs><title>guardar</title><path class="cls-1" d="M388.77,308.14a2.88,2.88,0,0,1-1,.72,3.7,3.7,0,0,1-1.68.34,2.36,2.36,0,0,1-1.89-.83,2.49,2.49,0,0,1-.51-2.1l.22-1.46a3.43,3.43,0,0,1,1.09-2.14,3.12,3.12,0,0,1,2.13-.79,2.33,2.33,0,0,1,1.75.64,1.73,1.73,0,0,1,.45,1.6v0h-.92a1.33,1.33,0,0,0-.26-1.09,1.4,1.4,0,0,0-1.13-.42,1.91,1.91,0,0,0-1.39.61,2.72,2.72,0,0,0-.74,1.55l-.22,1.47a2.07,2.07,0,0,0,.28,1.58,1.45,1.45,0,0,0,1.26.59,2.8,2.8,0,0,0,1-.16,1.89,1.89,0,0,0,.62-.39l.23-1.6h-1.61l.12-.75h2.57Z" transform="translate(-367.62 -299.44)"/><path class="cls-1" d="M393.57,309.09l.06-.75a2.24,2.24,0,0,1-.74.64,2.07,2.07,0,0,1-.94.22,1.48,1.48,0,0,1-1.25-.56,2.31,2.31,0,0,1-.24-1.71l.47-3.12h1l-.47,3.13a1.77,1.77,0,0,0,.07,1.17.83.83,0,0,0,.74.31,1.75,1.75,0,0,0,.87-.22,1.63,1.63,0,0,0,.6-.62l.57-3.77h1l-.79,5.28Z" transform="translate(-367.62 -299.44)"/><path class="cls-1" d="M399.09,309.09c0-.18,0-.33,0-.44a1.94,1.94,0,0,1,0-.34,2.94,2.94,0,0,1-.8.63,2,2,0,0,1-1,.26,1.53,1.53,0,0,1-1.18-.43,1.38,1.38,0,0,1-.27-1.16,1.66,1.66,0,0,1,.78-1.2,3.34,3.34,0,0,1,1.74-.41h1l.08-.52a.87.87,0,0,0-.17-.75,1,1,0,0,0-.76-.26,1.35,1.35,0,0,0-.78.23.82.82,0,0,0-.38.57h-.92v0a1.51,1.51,0,0,1,.7-1.07,2.57,2.57,0,0,1,1.55-.47,1.94,1.94,0,0,1,1.36.46,1.43,1.43,0,0,1,.37,1.32L400.1,308c0,.2-.05.38-.06.55a2.92,2.92,0,0,0,0,.51Zm-1.49-.7a1.89,1.89,0,0,0,1-.27,1.63,1.63,0,0,0,.65-.62l.13-.85h-1.07a1.58,1.58,0,0,0-1,.3,1,1,0,0,0-.46.68.61.61,0,0,0,.13.56A.83.83,0,0,0,397.6,308.39Z" transform="translate(-367.62 -299.44)"/><path class="cls-1" d="M404.5,304.66l-.49,0a1.14,1.14,0,0,0-.66.19,1.48,1.48,0,0,0-.49.53l-.56,3.74h-1l.79-5.28H403l0,.75a2.08,2.08,0,0,1,.64-.62,1.49,1.49,0,0,1,.8-.23l.2,0,.16,0Z" transform="translate(-367.62 -299.44)"/><path class="cls-1" d="M404.91,306.55a4,4,0,0,1,.85-2.08,2.08,2.08,0,0,1,1.64-.76,1.65,1.65,0,0,1,.79.18,1.44,1.44,0,0,1,.54.53l.44-2.94h1L409,309.09h-.73l-.05-.67a2,2,0,0,1-.73.58,2.06,2.06,0,0,1-.91.2,1.56,1.56,0,0,1-1.39-.71,2.59,2.59,0,0,1-.29-1.84Zm.94.1A2.12,2.12,0,0,0,406,308a1,1,0,0,0,.95.47,1.31,1.31,0,0,0,.74-.21,1.88,1.88,0,0,0,.58-.55l.36-2.45a1.16,1.16,0,0,0-.4-.52,1.14,1.14,0,0,0-.68-.2,1.33,1.33,0,0,0-1.1.58,3.23,3.23,0,0,0-.56,1.48Z" transform="translate(-367.62 -299.44)"/><path class="cls-1" d="M413.68,309.09c0-.18,0-.33,0-.44a1.94,1.94,0,0,1,0-.34,2.94,2.94,0,0,1-.8.63,2,2,0,0,1-1,.26,1.53,1.53,0,0,1-1.18-.43,1.38,1.38,0,0,1-.27-1.16,1.66,1.66,0,0,1,.78-1.2A3.34,3.34,0,0,1,413,306h1l.08-.52a.87.87,0,0,0-.17-.75,1,1,0,0,0-.76-.26,1.35,1.35,0,0,0-.78.23.79.79,0,0,0-.38.57h-.92v0a1.51,1.51,0,0,1,.7-1.07,2.57,2.57,0,0,1,1.55-.47,1.94,1.94,0,0,1,1.36.46,1.43,1.43,0,0,1,.37,1.32l-.38,2.54c0,.2-.05.38-.06.55a2.92,2.92,0,0,0,0,.51Zm-1.49-.7a1.89,1.89,0,0,0,1-.27,1.7,1.7,0,0,0,.65-.62l.13-.85h-1.07a1.58,1.58,0,0,0-1,.3,1,1,0,0,0-.46.68.61.61,0,0,0,.13.56A.83.83,0,0,0,412.19,308.39Z" transform="translate(-367.62 -299.44)"/><path class="cls-1" d="M419.09,304.66l-.49,0a1.14,1.14,0,0,0-.66.19,1.48,1.48,0,0,0-.49.53l-.56,3.74h-1l.79-5.28h.86l0,.75a2.08,2.08,0,0,1,.64-.62,1.49,1.49,0,0,1,.8-.23l.2,0,.16,0Z" transform="translate(-367.62 -299.44)"/><path class="cls-1" d="M378.49,299.44a.19.19,0,0,0-.19.18v.1a.19.19,0,0,1-.18.19h-.39a.19.19,0,0,1-.18-.19v-.1a.19.19,0,0,0-.19-.18h-5.83a.18.18,0,0,0-.19.18v.1a.19.19,0,0,1-.18.19h-1.49a.19.19,0,0,1-.19-.19v-.1a.18.18,0,0,0-.18-.18h-1.5a.18.18,0,0,0-.18.18V312.7a.18.18,0,0,0,.18.18h12.53a.18.18,0,0,0,.18-.18V300.9a.54.54,0,0,0-.13-.32l-.95-1a.51.51,0,0,0-.31-.13Z" transform="translate(-367.62 -299.44)"/><rect class="cls-2" x="3.86" y="0.1" width="5.93" height="3.45" rx="0.18"/><rect class="cls-1" x="7.72" y="0.45" width="1.31" height="2.76" rx="0.18"/><rect class="cls-2" x="2" y="5.65" width="8.82" height="7.1" rx="0.18"/><rect class="cls-1" x="3.03" y="7.1" width="6.76" height="0.28"/><rect class="cls-1" x="3.03" y="8.13" width="6.76" height="0.28"/><rect class="cls-1" x="3.03" y="9.17" width="6.76" height="0.28"/><rect class="cls-1" x="3.03" y="10.2" width="6.76" height="0.28"/><rect class="cls-1" x="3.03" y="11.24" width="6.76" height="0.28"/><rect class="cls-2" x="0.34" y="11.37" width="1.24" height="0.69" rx="0.18"/><rect class="cls-2" x="11.24" y="11.37" width="1.24" height="0.69" rx="0.18"/></svg>