<svg id="Capa_1" data-name="Capa 1" xmlns="http://www.w3.org/2000/svg" viewBox="0 0 11.78 18.36"><defs><style>.cls-1{fill:#174193;}</style></defs><title>lupa</title><path class="cls-1" d="M528.44,245.2a5.53,5.53,0,1,0,7.06,3.36A5.53,5.53,0,0,0,528.44,245.2Zm3.21,9a4.05,4.05,0,1,1,2.46-5.18A4.06,4.06,0,0,1,531.65,254.23Z" transform="translate(-524.76 -244.88)"/><path class="cls-1" d="M535.48,263.1h0c-.7.25-1.38.16-1.51-.21l-2.64-7.42c-.12-.36.34-.86,1-1.11h0c.7-.25,1.38-.16,1.5.21l2.64,7.42C536.64,262.35,536.18,262.85,535.48,263.1Z" transform="translate(-524.76 -244.88)"/><path class="cls-1" d="M530.79,248.23a3.73,3.73,0,0,1,.35.34l.15.17s.09.12,0,0l.07.09a4.59,4.59,0,0,1,.48.83c0,.05,0,.07,0,0l0,.11c0,.07.05.14.07.21a4.05,4.05,0,0,1,.12.47c0,.08,0,.17,0,.25h0s0,.08,0,.12a4.35,4.35,0,0,1,0,.51.62.62,0,0,0,.62.62.63.63,0,0,0,.63-.62,5.31,5.31,0,0,0-1.76-4,.65.65,0,0,0-.88,0,.64.64,0,0,0,0,.89Z" transform="translate(-524.76 -244.88)"/></svg>