<svg id="Capa_1" data-name="Capa 1" xmlns="http://www.w3.org/2000/svg" viewBox="0 0 12.05 8.7"><defs><style>.cls-1{fill:#ffffff;}</style></defs><title>ojo gris</title><g id="Oijrqh.tif"><path class="cls-1" d="M391.84,304.34l-.57-.68L392,303l.58.7c.21-.12.41-.26.62-.36l1.09-.46c.09,0,.11-.07.1-.15l-.09-.74c0-.05,0-.1,0-.16l.65-.08a2.13,2.13,0,0,0,.25,0c.07,0,.09,0,.1.08,0,.25.05.49.08.73a.36.36,0,0,0,0,.1,6.35,6.35,0,0,1,1.57,0l.1-.93,1,.11a2.65,2.65,0,0,0,0,.27c0,.22-.05.45-.08.67s0,.11.08.14a5.8,5.8,0,0,1,1.25.55l.45.28.61-.72.77.63-.61.74.12.08a8.78,8.78,0,0,1,1.53,2,.08.08,0,0,1,0,.09,8.58,8.58,0,0,1-1.74,2.19,6.57,6.57,0,0,1-2.93,1.53,6.05,6.05,0,0,1-4-.45,7.32,7.32,0,0,1-3.16-2.9l-.21-.35a.11.11,0,0,1,0-.14,9,9,0,0,1,1.65-2.08Zm4.34-.73h-.34l-.15,0a5,5,0,0,0-2.29.78,6.47,6.47,0,0,0-2,2,.11.11,0,0,0,0,.13,6.63,6.63,0,0,0,1.62,1.76,5.29,5.29,0,0,0,3.7,1.07,5.22,5.22,0,0,0,2.3-.79,6.38,6.38,0,0,0,2-2s0-.08,0-.14a6.55,6.55,0,0,0-1.68-1.8A5.24,5.24,0,0,0,396.18,303.61Z" transform="translate(-390.15 -301.73)"/><path class="cls-1" d="M397.77,306.21a1.6,1.6,0,0,1-.79,1.68,1.64,1.64,0,0,1-2-.26,1.66,1.66,0,0,1-.28-1.95,1.62,1.62,0,0,1,1.55-.82,1.1,1.1,0,0,0,.33,1.12A1.11,1.11,0,0,0,397.77,306.21Z" transform="translate(-390.15 -301.73)"/><path class="cls-1" d="M396.92,304.13l-.36.27a.1.1,0,0,1-.09,0,2,2,0,0,0-2.07,1,2.07,2.07,0,0,0,3.48,2.23,2,2,0,0,0,.32-1.62.18.18,0,0,1,0-.17,3.7,3.7,0,0,0,.21-.33,2.41,2.41,0,0,1-.57,2.73,2.47,2.47,0,0,1-3.77-3.13A2.42,2.42,0,0,1,396.92,304.13Z" transform="translate(-390.15 -301.73)"/></g></svg>