<svg xmlns="http://www.w3.org/2000/svg" viewBox="0 0 31.27 37.08"><defs><style>.cls-1{fill:#eaeaea;}.cls-2{fill:#fff;}.cls-3{fill:#d21e18;}</style></defs><g id="Capa_2" data-name="Capa 2"><g id="Capa_1-2" data-name="Capa 1"><path class="cls-1" d="M4.7,3.17H22.6A5.59,5.59,0,0,1,28.2,8.77V33.91a0,0,0,0,1,0,0H4.7a0,0,0,0,1,0,0V3.17A0,0,0,0,1,4.7,3.17Z" transform="translate(7.67 -4.64) rotate(20.84)"/><path class="cls-2" d="M3.89,5.87h17.9a5.59,5.59,0,0,1,5.59,5.59V36.6a0,0,0,0,1,0,0H3.89a0,0,0,0,1,0,0V5.87A0,0,0,0,1,3.89,5.87Z"/><rect class="cls-3" x="7.76" y="20.22" width="15.76" height="1.33" rx="0.66"/><rect class="cls-3" x="7.76" y="23.69" width="15.76" height="1.33" rx="0.66"/><rect class="cls-3" x="7.76" y="16.57" width="15.76" height="1.33" rx="0.66"/></g></g></svg>