<svg xmlns="http://www.w3.org/2000/svg" viewBox="0 0 59.32 59.32"><defs><style>.cls-1{fill:#174193;}.cls-2{fill:#fff;}.cls-3{fill:#d21e18;}</style></defs><g id="Capa_2" data-name="Capa 2"><g id="Capa_1-2" data-name="Capa 1"><rect class="cls-1" x="4.06" y="4.06" width="51.19" height="51.19" rx="15.79" transform="translate(29.66 -12.29) rotate(45)"/><path class="cls-2" d="M18.59,13.61H36.5a5.59,5.59,0,0,1,5.59,5.59V44.35a0,0,0,0,1,0,0H18.59a0,0,0,0,1,0,0V13.61A0,0,0,0,1,18.59,13.61Z"/><rect class="cls-3" x="22.74" y="33.06" width="15.76" height="1.33" rx="0.66"/><path class="cls-3" d="M29.79,25.17a1.47,1.47,0,0,0,1.16-.4,1.65,1.65,0,0,0,.36-1.13,1.47,1.47,0,0,0-.39-1.06,1.43,1.43,0,0,0-1.1-.4,1.6,1.6,0,0,0-1.12.4,1.3,1.3,0,0,0-.44,1H26.67l0,0a2.36,2.36,0,0,1,.87-1.92,3.43,3.43,0,0,1,2.3-.78,3.44,3.44,0,0,1,2.3.72A2.57,2.57,0,0,1,33,23.64a2.21,2.21,0,0,1-.37,1.25,2.55,2.55,0,0,1-1,.9,2.44,2.44,0,0,1,1.17.9,2.93,2.93,0,0,1-.52,3.61,3.57,3.57,0,0,1-2.38.78,3.71,3.71,0,0,1-2.31-.74,2.28,2.28,0,0,1-1-2v-.05h1.6a1.37,1.37,0,0,0,.46,1.06,1.66,1.66,0,0,0,1.19.43A1.58,1.58,0,0,0,31,29.31a1.55,1.55,0,0,0,.45-1.15,1.47,1.47,0,0,0-1.67-1.68H28.68V25.17Z"/></g></g></svg>