<svg xmlns="http://www.w3.org/2000/svg" viewBox="0 0 59.32 59.32"><defs><style>.cls-1{fill:#174193;}.cls-2{fill:#eaeaea;}.cls-3{fill:#fff;}.cls-4{fill:#d21e18;}</style></defs><g id="Capa_2" data-name="Capa 2"><g id="Capa_1-2" data-name="Capa 1"><rect class="cls-1" x="4.06" y="4.06" width="51.19" height="51.19" rx="15.79" transform="translate(29.66 -12.29) rotate(45)"/><path class="cls-2" d="M18.91,13.29h17.9a5.59,5.59,0,0,1,5.59,5.59V44a0,0,0,0,1,0,0H18.91a0,0,0,0,1,0,0V13.29A0,0,0,0,1,18.91,13.29Z" transform="translate(12.2 -9.03) rotate(20.84)"/><path class="cls-3" d="M18.1,16H36a5.59,5.59,0,0,1,5.59,5.59V46.72a0,0,0,0,1,0,0H18.1a0,0,0,0,1,0,0V16A0,0,0,0,1,18.1,16Z"/><rect class="cls-4" x="21.97" y="30.33" width="15.76" height="1.33" rx="0.66"/><rect class="cls-4" x="21.97" y="33.81" width="15.76" height="1.33" rx="0.66"/><rect class="cls-4" x="21.97" y="26.68" width="15.76" height="1.33" rx="0.66"/></g></g></svg>