<svg xmlns="http://www.w3.org/2000/svg" viewBox="0 0 59.32 59.32"><defs><style>.cls-1{fill:#174193;}.cls-2{fill:#fff;}.cls-3{fill:#d21e18;}</style></defs><g id="Capa_2" data-name="Capa 2"><g id="Capa_1-2" data-name="Capa 1"><rect class="cls-1" x="4.06" y="4.06" width="51.19" height="51.19" rx="15.79" transform="translate(29.66 -12.29) rotate(45)"/><path class="cls-2" d="M18.59,13.61H36.5a5.59,5.59,0,0,1,5.59,5.59V44.35a0,0,0,0,1,0,0H18.59a0,0,0,0,1,0,0V13.61A0,0,0,0,1,18.59,13.61Z"/><rect class="cls-3" x="22.74" y="33.06" width="15.76" height="1.33" rx="0.66"/><path class="cls-3" d="M33.16,30.94H26.74V29.8l3.11-3.6a7.72,7.72,0,0,0,1-1.47,2.45,2.45,0,0,0,.3-1.12,1.47,1.47,0,0,0-.36-1,1.26,1.26,0,0,0-1-.4,1.43,1.43,0,0,0-1.18.5,1.92,1.92,0,0,0-.41,1.25h-1.6l0,0a2.83,2.83,0,0,1,.85-2.16,3.17,3.17,0,0,1,2.36-.89,3.12,3.12,0,0,1,2.24.77,2.67,2.67,0,0,1,.8,2,3,3,0,0,1-.45,1.58,18.38,18.38,0,0,1-1.47,2l-2.1,2.41v0h4.31Z"/></g></g></svg>