<svg xmlns="http://www.w3.org/2000/svg" viewBox="0 0 23.5 30.74"><defs><style>.cls-1{fill:#fff;}.cls-2{fill:#d21e18;}</style></defs><g id="Capa_2" data-name="Capa 2"><g id="Capa_1-2" data-name="Capa 1"><path class="cls-1" d="M0,0H17.9A5.59,5.59,0,0,1,23.5,5.59V30.74a0,0,0,0,1,0,0H0a0,0,0,0,1,0,0V0A0,0,0,0,1,0,0Z"/><rect class="cls-2" x="4.14" y="19.45" width="15.76" height="1.33" rx="0.66"/><path class="cls-2" d="M14.57,17.33H8.15V16.19l3.11-3.6a8.75,8.75,0,0,0,1.05-1.47A2.43,2.43,0,0,0,12.6,10a1.46,1.46,0,0,0-.35-1,1.29,1.29,0,0,0-1-.4,1.41,1.41,0,0,0-1.18.5,1.86,1.86,0,0,0-.41,1.25H8v0a2.83,2.83,0,0,1,.84-2.16,3.21,3.21,0,0,1,2.37-.89A3.1,3.1,0,0,1,13.46,8a2.63,2.63,0,0,1,.8,2,3,3,0,0,1-.44,1.58,17.43,17.43,0,0,1-1.48,2L10.25,16v0h4.31Z"/></g></g></svg>