<svg xmlns="http://www.w3.org/2000/svg" viewBox="0 0 23.5 30.74"><defs><style>.cls-1{fill:#fff;}.cls-2{fill:#d21e18;}</style></defs><g id="Capa_2" data-name="Capa 2"><g id="Capa_1-2" data-name="Capa 1"><path class="cls-1" d="M0,0H17.9A5.59,5.59,0,0,1,23.5,5.59V30.74a0,0,0,0,1,0,0H0a0,0,0,0,1,0,0V0A0,0,0,0,1,0,0Z"/><rect class="cls-2" x="4.14" y="19.45" width="15.76" height="1.33" rx="0.66"/><path class="cls-2" d="M11.2,11.56a1.48,1.48,0,0,0,1.16-.4A1.7,1.7,0,0,0,12.71,10,1.51,1.51,0,0,0,12.33,9a1.45,1.45,0,0,0-1.11-.4,1.58,1.58,0,0,0-1.11.4,1.27,1.27,0,0,0-.45,1H8.07v0A2.3,2.3,0,0,1,8.93,8a3.4,3.4,0,0,1,2.29-.78,3.43,3.43,0,0,1,2.3.72A2.55,2.55,0,0,1,14.37,10,2.22,2.22,0,0,1,14,11.28a2.52,2.52,0,0,1-1,.9,2.46,2.46,0,0,1,1.16.9,2.58,2.58,0,0,1,.4,1.46,2.63,2.63,0,0,1-.92,2.15,3.55,3.55,0,0,1-2.38.78,3.7,3.7,0,0,1-2.3-.74,2.31,2.31,0,0,1-1-2l0-.05h1.6A1.37,1.37,0,0,0,10,15.72a1.63,1.63,0,0,0,1.18.43,1.62,1.62,0,0,0,1.2-.45,1.58,1.58,0,0,0,.44-1.15,1.72,1.72,0,0,0-.41-1.27,1.73,1.73,0,0,0-1.25-.41H10.09V11.56Z"/></g></g></svg>