<svg id="Capa_1" data-name="Capa 1" xmlns="http://www.w3.org/2000/svg" viewBox="0 0 64.37 18.91"><defs><style>.cls-1{fill:#174193;}.cls-2{fill:#fff;}</style></defs><title>regresar</title><rect class="cls-1" width="64.37" height="18.91" rx="9.46"/><path class="cls-2" d="M382.6,304.78V308H382v-7.11h2.36a2.73,2.73,0,0,1,1.76.5,1.83,1.83,0,0,1,.61,1.47,1.67,1.67,0,0,1-.33,1,1.75,1.75,0,0,1-.92.65,1.52,1.52,0,0,1,.95.6,1.8,1.8,0,0,1,.29,1.07v.67a2.1,2.1,0,0,0,.08.59.89.89,0,0,0,.26.43V308h-.6a1,1,0,0,1-.25-.49,3,3,0,0,1-.07-.66v-.65a1.32,1.32,0,0,0-.43-1,1.7,1.7,0,0,0-1.18-.37Zm0-.5h1.72a2.07,2.07,0,0,0,1.4-.39,1.49,1.49,0,0,0,0-2.13,2,2,0,0,0-1.34-.38H382.6Z" transform="translate(-362.88 -295.61)"/><path class="cls-2" d="M390.42,308.09a2.12,2.12,0,0,1-1.66-.72,2.72,2.72,0,0,1-.64-1.87v-.27a2.71,2.71,0,0,1,.65-1.88,2,2,0,0,1,1.6-.74,1.83,1.83,0,0,1,1.49.62,2.46,2.46,0,0,1,.52,1.66v.45h-3.67v.16a2.39,2.39,0,0,0,.45,1.5,1.51,1.51,0,0,0,1.26.6,2.52,2.52,0,0,0,.89-.16A2,2,0,0,0,392,307l.25.4a2.18,2.18,0,0,1-.73.49A2.8,2.8,0,0,1,390.42,308.09Zm-.05-5a1.43,1.43,0,0,0-1.11.48,2.08,2.08,0,0,0-.51,1.22l0,0h3v-.12a1.83,1.83,0,0,0-.37-1.16A1.3,1.3,0,0,0,390.37,303.11Z" transform="translate(-362.88 -295.61)"/><path class="cls-2" d="M393.35,305.39a3.4,3.4,0,0,1,.54-2,1.7,1.7,0,0,1,1.49-.76,1.81,1.81,0,0,1,1.66.93l.08-.83h.48V308a2.11,2.11,0,0,1-.56,1.56,2.18,2.18,0,0,1-1.58.54,4,4,0,0,1-.81-.09,3.29,3.29,0,0,1-.75-.25l.11-.5a2.55,2.55,0,0,0,.67.24,3.79,3.79,0,0,0,.77.08,1.55,1.55,0,0,0,1.17-.4A1.63,1.63,0,0,0,397,308v-.75a1.76,1.76,0,0,1-.69.61,2,2,0,0,1-.95.21,1.72,1.72,0,0,1-1.48-.71,3,3,0,0,1-.54-1.89Zm.59.1a2.67,2.67,0,0,0,.39,1.53,1.3,1.3,0,0,0,1.15.56,1.65,1.65,0,0,0,.94-.25,1.73,1.73,0,0,0,.59-.69v-2.52a1.94,1.94,0,0,0-.57-.72,1.51,1.51,0,0,0-.95-.28,1.28,1.28,0,0,0-1.16.63,3.09,3.09,0,0,0-.39,1.64Z" transform="translate(-362.88 -295.61)"/><path class="cls-2" d="M401.54,303.21l-.41,0a1.32,1.32,0,0,0-.91.31,1.75,1.75,0,0,0-.5.85V308h-.59v-5.28h.51l.08.87v.06a1.86,1.86,0,0,1,.61-.76,1.56,1.56,0,0,1,.92-.27h.2l.17,0Z" transform="translate(-362.88 -295.61)"/><path class="cls-2" d="M404.46,308.09a2.13,2.13,0,0,1-1.67-.72,2.77,2.77,0,0,1-.64-1.87v-.27a2.75,2.75,0,0,1,.65-1.88,2.06,2.06,0,0,1,1.6-.74,1.83,1.83,0,0,1,1.49.62,2.47,2.47,0,0,1,.53,1.66v.45h-3.68v.16a2.33,2.33,0,0,0,.46,1.5,1.48,1.48,0,0,0,1.26.6,2.56,2.56,0,0,0,.89-.16A2,2,0,0,0,406,307l.25.4a2.18,2.18,0,0,1-.73.49A2.71,2.71,0,0,1,404.46,308.09Zm-.06-5a1.43,1.43,0,0,0-1.11.48,2.07,2.07,0,0,0-.5,1.22v0h3v-.12a1.77,1.77,0,0,0-.37-1.16A1.3,1.3,0,0,0,404.4,303.11Z" transform="translate(-362.88 -295.61)"/><path class="cls-2" d="M410.76,306.64a.85.85,0,0,0-.3-.65,2.55,2.55,0,0,0-1.11-.45A3.52,3.52,0,0,1,408,305a1.12,1.12,0,0,1-.46-.95,1.28,1.28,0,0,1,.51-1,2.06,2.06,0,0,1,1.35-.42,2.19,2.19,0,0,1,1.42.44,1.35,1.35,0,0,1,.5,1.11v0h-.54a1,1,0,0,0-.38-.76,1.75,1.75,0,0,0-1.94-.05.85.85,0,0,0-.33.65.78.78,0,0,0,.28.6,2.64,2.64,0,0,0,1.1.42,3.74,3.74,0,0,1,1.41.57,1.19,1.19,0,0,1,.47,1,1.31,1.31,0,0,1-.53,1.07,2.3,2.3,0,0,1-1.42.41,2.27,2.27,0,0,1-1.51-.46,1.3,1.3,0,0,1-.52-1.09v0h.54a1,1,0,0,0,.47.83,1.92,1.92,0,0,0,1,.26,1.57,1.57,0,0,0,1-.29A.8.8,0,0,0,410.76,306.64Z" transform="translate(-362.88 -295.61)"/><path class="cls-2" d="M416,308c0-.19-.06-.35-.08-.48s0-.27,0-.41a2.2,2.2,0,0,1-.77.71,2.23,2.23,0,0,1-1.13.28,1.7,1.7,0,0,1-1.21-.41,1.51,1.51,0,0,1-.42-1.12,1.33,1.33,0,0,1,.62-1.15,2.74,2.74,0,0,1,1.61-.44h1.3v-.65a1.12,1.12,0,0,0-.36-.89,1.76,1.76,0,0,0-2,0,.89.89,0,0,0-.37.74h-.55v0a1.25,1.25,0,0,1,.51-1.05,2.1,2.1,0,0,1,1.4-.45,2.13,2.13,0,0,1,1.4.44,1.59,1.59,0,0,1,.53,1.28v2.59a4.93,4.93,0,0,0,0,.55,4.76,4.76,0,0,0,.1.52Zm-1.94-.42a2.05,2.05,0,0,0,1.17-.32,1.57,1.57,0,0,0,.67-.82v-1h-1.31a1.91,1.91,0,0,0-1.17.34,1,1,0,0,0-.47.82.92.92,0,0,0,.3.72A1.15,1.15,0,0,0,414.09,307.57Z" transform="translate(-362.88 -295.61)"/><path class="cls-2" d="M420.48,303.21l-.42,0a1.28,1.28,0,0,0-.9.31,1.69,1.69,0,0,0-.51.85V308h-.58v-5.28h.51l.07.87v.06a1.88,1.88,0,0,1,.62-.76,1.53,1.53,0,0,1,.91-.27h.21l.16,0Z" transform="translate(-362.88 -295.61)"/><polygon class="cls-2" points="6.61 9.46 11.15 6.83 15.7 4.2 15.7 9.46 15.7 14.71 11.15 12.08 6.61 9.46"/></svg>