<svg id="Capa_1" data-name="Capa 1" xmlns="http://www.w3.org/2000/svg" viewBox="0 0 59.32 59.32"><defs><style>.cls-1{fill:#174193;}.cls-2{fill:#fff;}.cls-3,.cls-4{fill:#d21e18;}.cls-4{font-size:1.95px;font-family:LambresiaRegular, Lambresia;}</style></defs><rect class="cls-1" x="370.29" y="280.71" width="51.19" height="51.19" rx="15.79" transform="translate(-33.68 -466.87) rotate(45)"/><path class="cls-2" d="M18.59,13.61H36.5a5.59,5.59,0,0,1,5.59,5.59V44.35a0,0,0,0,1,0,0H18.59a0,0,0,0,1,0,0V13.61A0,0,0,0,1,18.59,13.61Z"/><rect class="cls-3" x="22.56" y="32.12" width="15.76" height="1.33" rx="0.66"/><circle class="cls-3" cx="30.54" cy="21.5" r="3.49"/><circle class="cls-2" cx="30.54" cy="21.5" r="2.42"/><path class="cls-3" d="M399.66,305.9l-1.19-1.32a.19.19,0,0,0-.36.1l-.28,1.76-1.4-4.71c-.05-.18,0-.35.13-.39l1.39-.41c.12,0,.26.08.31.25Z" transform="translate(-366.23 -276.64)"/><path class="cls-3" d="M395.08,306.09l-.27-1.74a.25.25,0,0,0-.44-.15l-1.28,1.21,1.58-4.62c.06-.19.24-.31.38-.26l1.46.5a.33.33,0,0,1,.15.44Z" transform="translate(-366.23 -276.64)"/><path class="cls-3" d="M390.14,315.42l-.12.11-.12.1-.29.14a1.88,1.88,0,0,1-.62.11,2.57,2.57,0,0,1-.62-.08l-.25-.08a.41.41,0,0,1,0,.16,1.08,1.08,0,0,1,0,.18,1.21,1.21,0,0,1,0,.18,1.4,1.4,0,0,1-.09.17l-.14.14-.05,0-.05,0-.11,0h0l0,0s0,0,0,0,0,0,0,0,0,0,0-.05v-.05s0-.07,0-.1l0-.16.09-.3c0-.1.06-.2.1-.3v0a.09.09,0,0,1,0-.07l0,0,.06-.18.21-.59.12-.3,0-.07,0-.08c0-.05.05-.1.08-.14a.71.71,0,0,1,.1-.14.58.58,0,0,1,.14-.13l.09,0,.11,0h.06l.06,0a.18.18,0,0,1,.06.09.36.36,0,0,1,0,.1v.09s0,.06,0,.08l0,.08a2,2,0,0,1-.14.29l-.18.27-.2.24a2.83,2.83,0,0,1-.3.3l-.06.19h0l.08,0a1.4,1.4,0,0,0,.29.09,2.33,2.33,0,0,0,.59.08,1.65,1.65,0,0,0,.58-.1,1.43,1.43,0,0,0,.49-.32h0a.06.06,0,0,1,.08,0A.05.05,0,0,1,390.14,315.42Zm-2.45,1h0Zm.36-.52a.4.4,0,0,0,0-.15l0-.06h0c0,.09-.07.19-.1.28s-.06.2-.08.29a.83.83,0,0,0,0,.15h0a.28.28,0,0,0,.12-.08.27.27,0,0,0,.09-.12A.88.88,0,0,0,388,316,.42.42,0,0,0,388.05,315.88Zm.12-.73,0,0,.1-.11a3.31,3.31,0,0,0,.36-.5,1.43,1.43,0,0,0,.13-.28.64.64,0,0,0,0-.07.13.13,0,0,0,0-.06V314s0,0,0,0,0,0,0,0h0l0,0-.05,0-.08.1a.54.54,0,0,0-.07.13l-.06.13,0,.07,0,.07c0,.1-.07.19-.1.29S388.21,315,388.17,315.15Z" transform="translate(-366.23 -276.64)"/><path class="cls-3" d="M392.41,315.42l-.12.11-.13.1-.29.14a1.84,1.84,0,0,1-.62.11,2.57,2.57,0,0,1-.62-.08l-.24-.08,0,.16a1.09,1.09,0,0,1,0,.18.61.61,0,0,1-.05.18.7.7,0,0,1-.09.17.62.62,0,0,1-.14.14l0,0,0,0-.12,0h0l0,0,0,0,0,0a.09.09,0,0,1,0-.05v-.05s0-.07,0-.1a1.24,1.24,0,0,1,0-.16c0-.1.05-.2.08-.3s.07-.2.1-.3v0a.06.06,0,0,1,0-.07l0,0,.06-.18.21-.59.11-.3,0-.07,0-.08a.64.64,0,0,1,.08-.14.71.71,0,0,1,.1-.14l.13-.13.09,0,.11,0h.07l.05,0a.31.31,0,0,1,.07.09.36.36,0,0,1,0,.1.28.28,0,0,1,0,.09s0,.06,0,.08l0,.08a1.32,1.32,0,0,1-.15.29,2.11,2.11,0,0,1-.18.27l-.2.24a2.76,2.76,0,0,1-.29.3l-.07.19h0l.07,0a1.61,1.61,0,0,0,.29.09,2.33,2.33,0,0,0,.59.08,1.61,1.61,0,0,0,.58-.1,1.34,1.34,0,0,0,.49-.32h0a.07.07,0,0,1,.09,0A.06.06,0,0,1,392.41,315.42Zm-2.45,1h0Zm.36-.52a.83.83,0,0,0,0-.15.14.14,0,0,0,0-.06h0l-.09.28-.09.29,0,.15h0a.26.26,0,0,0,.13-.08.62.62,0,0,0,.09-.12l.05-.15C390.31,316,390.32,315.94,390.32,315.88Zm.11-.73,0,0,.11-.11a4.2,4.2,0,0,0,.36-.5,2.39,2.39,0,0,0,.13-.28.25.25,0,0,1,0-.07v-.06a.16.16,0,0,0,0-.07.08.08,0,0,0,0,0s0,0,0,0h0l0,0,0,0-.09.1s-.05.08-.07.13l-.06.13a.14.14,0,0,0,0,.07l0,.07-.11.29C390.52,314.9,390.48,315,390.43,315.15Z" transform="translate(-366.23 -276.64)"/><path class="cls-3" d="M394.7,315.43h0c-.22.09-.44.18-.67.25l-.17.05-.17.05-.35.07-.18,0-.18,0h-.18a.69.69,0,0,1-.2,0l-.05,0,0,0,0,0a.25.25,0,0,1-.08-.1.53.53,0,0,1,0-.12.37.37,0,0,1,0-.11v0h0a.11.11,0,0,1,0-.13h0l0-.05,0-.05.07-.11a.12.12,0,0,1,.17,0,.12.12,0,0,1,0,.11h0s0,0,0,0v0s0,0,0,.05v0l0,0a.16.16,0,0,0,0,.07l0,.07a.25.25,0,0,0,0,.12.06.06,0,0,0,0,0h.05l.15,0H393a2,2,0,0,0,.34,0l.34-.06.17-.05.17-.05a4,4,0,0,0,.65-.26.05.05,0,0,1,.08,0A.06.06,0,0,1,394.7,315.43Zm-2-.43a.12.12,0,0,1,0-.17s0,0,0-.06a.12.12,0,0,1,.15-.07.14.14,0,0,1,.07.16.44.44,0,0,1-.12.17l-.07,0A.12.12,0,0,1,392.67,315Z" transform="translate(-366.23 -276.64)"/><path class="cls-3" d="M397.25,315.43h0a4.39,4.39,0,0,1-.47.27l-.24.1-.25.08L396,316l-.26.05-.27,0h-.27A1.27,1.27,0,0,1,395,316l-.14-.08a.43.43,0,0,1-.11-.12.2.2,0,0,1,0-.08s0,0,0,0v0h0a.42.42,0,0,1,0-.16.66.66,0,0,1,0-.15s0,0,0-.08l.05-.06.11-.11.07,0,.08,0h.12a.27.27,0,0,1,.1.06.37.37,0,0,1,.05.11.41.41,0,0,1,0,.11v0s0,0,0,0l-.05.06a.42.42,0,0,1-.14.09.44.44,0,0,1-.16,0h-.05s0,0,0,.07l0,.09a.32.32,0,0,0,.15.13.58.58,0,0,0,.22.08l.12,0h.38l.26,0a1.14,1.14,0,0,0,.25-.06l.24-.08.24-.1a1.94,1.94,0,0,0,.43-.27.06.06,0,0,1,.08.1Zm-2.33-.16a.56.56,0,0,0-.05.08h0a.29.29,0,0,0,.1,0,.13.13,0,0,0,.07-.06l0,0v0h0a0,0,0,0,0,0,0h0l0,0,0,0Z" transform="translate(-366.23 -276.64)"/><path class="cls-3" d="M399.54,315.43h0c-.22.09-.44.18-.67.25l-.17.05-.17.05-.35.07-.18,0-.18,0h-.18a.69.69,0,0,1-.2,0l-.05,0,0,0,0,0a.25.25,0,0,1-.08-.1.53.53,0,0,1,0-.12s0-.08,0-.11v0h0a.11.11,0,0,1,0-.13h0l0-.05,0-.05a.76.76,0,0,1,.08-.11.11.11,0,0,1,.16,0,.12.12,0,0,1,0,.11h0s0,0,0,0v0s0,0,0,.05l0,0,0,0a.43.43,0,0,0,0,.07.14.14,0,0,0,0,.07.17.17,0,0,0,0,.12.06.06,0,0,0,0,0h.05l.15,0h.17a2,2,0,0,0,.34,0l.35-.06.17-.05.16-.05a3.67,3.67,0,0,0,.65-.26.06.06,0,1,1,.06.1Zm-2-.43a.12.12,0,0,1,0-.17s0,0,0-.06a.12.12,0,0,1,.15-.07.13.13,0,0,1,.07.16.41.41,0,0,1-.11.17l-.07,0A.12.12,0,0,1,397.5,315Z" transform="translate(-366.23 -276.64)"/><path class="cls-3" d="M402,315.44a8,8,0,0,1-.81.2l-.42,0h-.43a.63.63,0,0,1-.22-.07l-.09-.08h0v0a1,1,0,0,1-.11.2l0,0,0,0-.06,0-.08,0h0l-.05,0,0,0a.35.35,0,0,1-.05-.08.36.36,0,0,1,0-.14c0-.05,0-.09,0-.13a.13.13,0,0,0,0-.06.14.14,0,0,1,0-.17h0l0,0,0,0v0h0v0h.05l0,0h.07l0,0,0,0h0s0,0,0,0v0s0,0,0,.06l0,.11,0,.1s0,.07,0,.1a.06.06,0,0,0,0,0v.06h0l0,0,0,0,0,0a.56.56,0,0,0,.05-.08.2.2,0,0,0,0-.08s0-.08,0-.13a.25.25,0,0,1,0-.17.49.49,0,0,1,0-.12v0h0v0h.11a.11.11,0,0,1,0,.05.89.89,0,0,1,0,.23v0a.34.34,0,0,0,.12.12.48.48,0,0,0,.18.06h.4a2.85,2.85,0,0,0,.41,0c.27,0,.53-.12.8-.19h0a.05.05,0,0,1,.07,0A.06.06,0,0,1,402,315.44Zm-2.49-.18.06-.09Zm.12.57h0Z" transform="translate(-366.23 -276.64)"/><path class="cls-3" d="M404.48,315.43l-.06.05-.07,0-.14.06a1.59,1.59,0,0,1-.3.06l-.3,0-.3,0a2,2,0,0,1-.58-.15l-.22-.1a.17.17,0,0,1,0,.1h0v.05a.13.13,0,0,0,0,.06l-.05.12a.76.76,0,0,1-.08.11l-.06.05-.08,0h-.09l-.09,0a.31.31,0,0,1-.11-.12.44.44,0,0,1-.05-.15.33.33,0,0,1,0-.14.2.2,0,0,1,0-.07s0,0,0-.06l0-.12.08-.12.06-.06,0,0h.08a.11.11,0,0,1,.12.1l.05,0a.28.28,0,0,1,.07.09,2.29,2.29,0,0,0,.31.16,2.22,2.22,0,0,0,.55.14,2.18,2.18,0,0,0,.57,0,1.27,1.27,0,0,0,.28-.06l.12,0,.06,0,0,0h0a.07.07,0,0,1,.09,0A.06.06,0,0,1,404.48,315.43Zm-2.37-.3h0Zm.3.24s0,0,0-.06l-.09-.07a.15.15,0,0,1-.06.09.16.16,0,0,1-.08.06l0,.11a.29.29,0,0,0,0,.16l0,0,0,0h0l.06,0a.13.13,0,0,0,.07-.06.56.56,0,0,0,.05-.08s0,0,0-.05v0h0Z" transform="translate(-366.23 -276.64)"/><text class="cls-4" transform="translate(30.79 38.74)">ivo</text></svg>