<svg id="Capa_1" data-name="Capa 1" xmlns="http://www.w3.org/2000/svg" viewBox="0 0 59.32 59.32"><defs><style>.cls-1{fill:#174193;}.cls-2{fill:#fff;}.cls-3{fill:#d21e18;}.cls-4{fill:#fefefe;}</style></defs><rect class="cls-1" x="370.29" y="280.71" width="51.19" height="51.19" rx="15.79" transform="translate(-33.68 -466.87) rotate(45)"/><path class="cls-2" d="M409.24,309.78a.88.88,0,0,0,0-.16l-.08-.17c0-.06,0-.09,0-.16s-.05-.1,0-.18,0-.11-.07-.17-.08-.37-.15-.41-.06-.18-.11-.25a.27.27,0,0,1,0-.26.09.09,0,0,0,0-.14.69.69,0,0,1-.17-.2c-.06-.09,0-.13,0-.2s0-.13-.07-.2-.33-.37-.4-.47-.05,0-.21,0-.12-.09-.12-.17a.18.18,0,0,0-.13-.15,1.5,1.5,0,0,1-.22-.11c-.05,0-.13.1-.21.1s-.06,0,0-.14a5.68,5.68,0,0,1,.8-.75c.05-.05.07-.07.22-.1s.14-.11.16-.16a.42.42,0,0,0,0-.17c0-.08,0-.08-.09-.18a.9.9,0,0,1-.11-.34.67.67,0,0,0-.16-.25c-.06,0-.15,0-.21,0s-.05-.1,0-.18-.22-.4-.22-.4l-.05-.06a1.87,1.87,0,0,1-.21-.45c0-.1.08-.13.06-.27s-.1-.21-.11-.29,0-.07.08-.15a1,1,0,0,0,0-.26,1.5,1.5,0,0,0,.08-.27.54.54,0,0,1,.17-.24.39.39,0,0,0,.1-.33c0-.1-.17-.27-.17-.33s.19-.18.34-.23a.29.29,0,0,0,.16-.22s0-.29,0-.37a.58.58,0,0,1,.2-.32,1.49,1.49,0,0,1,.36-.21c.05,0,0-.11,0-.15a.46.46,0,0,1,0-.23c0-.09-.09-.11-.11-.14a.7.7,0,0,0-.18-.11,2.11,2.11,0,0,1-.21,0c-.07,0-.18-.09-.27-.11a.41.41,0,0,0-.25,0c-.06,0-.16.16-.28.17s-.22-.1-.25-.11a.21.21,0,0,0-.15.05,1.35,1.35,0,0,1-.26.09s-.17,0-.25,0-.13.08-.16.08a.71.71,0,0,1-.23-.07c-.08,0-.14.12-.21.13s-.17-.1-.22-.13-.14,0-.2,0a.9.9,0,0,0-.25,0,1.08,1.08,0,0,1-.22,0,.35.35,0,0,0-.21.11,1,1,0,0,1-.24.17c-.09.05-.07,0-.15-.09a.19.19,0,0,0-.18-.05s-1.41-1.75-1.48-1.8-.07,0-.16,0-.09,0-.18,0-.17,0-.22-.07-.1,0-.19,0,0-.07-.12-.13-.11,0-.19,0a1.14,1.14,0,0,1-.24-.05c-.08,0-.09,0-.16.07a.47.47,0,0,1-.2.1c-.07,0,0,.08-.07.1s-.12,0-.19,0-.08-.11-.16-.13-.08,0-.15.08-.09,0-.16,0-.05.08-.14,0-.11,0-.12,0-.08,0-.16,0-.12,0-.16,0-.05-.08-.1-.1a.12.12,0,0,0-.15,0,.13.13,0,0,1-.17,0c-.08-.05,0,0-.21.07s-.19,0-.29,0a.82.82,0,0,1-.19-.09l-.11-.09a.38.38,0,0,0-.15-.21c-.11-.05-.23-.06-.29-.19s-.12-.18-.12-.23,0-.08,0-.11a1.06,1.06,0,0,1-.21-.11c-.06,0-.11,0-.11-.11a.76.76,0,0,0,0-.21.22.22,0,0,1,0-.18,1.08,1.08,0,0,0,.08-.26c0-.05-.08-.05-.06-.15s0-.21.06-.26,0-.07.09-.09.09,0,.09-.15,0-.19,0-.27-.06-.08-.07-.14,0-.12,0-.16-.09,0-.19-.15-.16-.13-.2-.23a.6.6,0,0,0-.15-.23c-.1-.09-.11-.12-.13-.31a1.07,1.07,0,0,0-.15-.45.17.17,0,0,1,0-.17s0-.09-.07-.07l-.19,0s-.06-.13-.11-.18-.06-.08-.14-.06a1.57,1.57,0,0,1-.23.09.94.94,0,0,1-.29.06c-.09,0-.12-.06-.2,0s0-.08.06-.14a.77.77,0,0,0,.26-.25c.09-.13.15-.12.31-.29a.77.77,0,0,0,.18-.38,1.72,1.72,0,0,0,.07-.37,1.08,1.08,0,0,0,0-.43.94.94,0,0,1-.06-.37.91.91,0,0,1,.1-.3c0-.08.11-.15.16-.21a.5.5,0,0,0,0-.26s.13-.11.2-.17l1-.95s.08-.08.15,0,.13,0,.21-.09.73-.88.74-.93.09-.07.15-.09.18,0,.27,0,.1-.07.19-.09.33-.08.42-.12a3.56,3.56,0,0,0,.35-.22,1.59,1.59,0,0,1,.2-.09s.13,0,.17-.09a.78.78,0,0,0,.06-.36c0-.16-.16-.27-.3-.31s-.08-.13-.24-.15-.13-.08-.24-.1a1.43,1.43,0,0,0-.21,0c-.08,0-.17,0-.21,0s0,.05.11.05.07.06,0,.09-.18,0-.19,0,0,.08-.08.09,0-.1-.1-.07a.44.44,0,0,0-.15.12c0,.05,0,.12.07.13s0,.05-.06.08a.23.23,0,0,1-.15,0c-.05,0,0-.07,0-.09s0-.09-.09-.09l-.33,0c-.08,0-.08,0-.09.07s.06.06.07.15-.12.23-.23.36-.1.13-.17.15-.12.07-.19.09a.39.39,0,0,0-.2.14c-.08.09-.11,0-.15,0s-.07.05-.17.05a.37.37,0,0,0-.18,0,.57.57,0,0,0-.22.13l-.2.13c-.07,0-.12,0-.2.1a.91.91,0,0,0-.17.18c-.05,0,0,.17,0,.18s-.11-.09-.16-.05,0,.08,0,.09-.07,0-.12,0-.08,0-.12.09a.35.35,0,0,1-.13.15.41.41,0,0,1-.36,0,.79.79,0,0,0-.24,0,.27.27,0,0,1-.13,0c-.1,0-.07,0-.16,0s-.07,0-.16,0a.29.29,0,0,0-.17,0c-.07,0-.25-.2-.29-.2a.72.72,0,0,0-.27.05c-.13,0-.09-.07-.13,0a4,4,0,0,0-.09.4c0,.14-.06.21-.12.25s-.08.11-.19.11l-.25,0c-.07,0-.17,0-.21,0s-.12-.18-.22-.17a.51.51,0,0,1-.25-.05c-.05,0-.07,0-.07,0h0s-.11,0-.15.06-.18.11-.23.15L392,289a1.59,1.59,0,0,0-.22.13c-.08.05,0,0-.12.07a.5.5,0,0,0-.18.11l-.06.09a1.1,1.1,0,0,1-.14.12.81.81,0,0,0-.14.12.47.47,0,0,1-.12.07c-.07,0,0,.11,0,.14s0,.11,0,.15-.06.07-.09.14a.68.68,0,0,0,0,.25h-.06l-.09,0s-.07.05-.08.07l0,.11c0,.06-.13.12-.13.14s0,0,.07,0,.29-.24.31-.24,0,.09,0,.11-.14.09-.07.09h0c-.09.11,0,.12,0,.19s0,.06-.07.09,0,.08,0,.16,0,.06-.06.15a.34.34,0,0,1-.15.18c-.09.05,0,.05.11.05s0,.07.09.17a.32.32,0,0,1,0,.27.61.61,0,0,1-.19.2l-.19,0c-.09,0-.09.06-.14,0s0-.1-.13-.1-.05,0-.21.11-.2.06-.29.12,0,.16-.1.19-.11,0-.14.15,0,.18-.1.23-.08.08-.13.16a.52.52,0,0,1-.25.21c-.1,0-.08,0-.08.07a.34.34,0,0,0-.1,0,1.11,1.11,0,0,0-.11.11s-.1,0-.15,0-.17.14-.2.2-.11,0-.22.06a.31.31,0,0,0-.15.06c-.05,0-.09.12-.11.17s0,.05.13.05.1.05.1.11a.34.34,0,0,0,.07.19.2.2,0,0,1,0,.22s0,.07,0,.12,0,.1,0,.14,0,.07,0,.14a.44.44,0,0,1-.05.26c0,.11,0,.09-.17.07s-.14,0-.16-.05a.12.12,0,0,1,0-.15c0-.05.1,0,.13-.06s0-.1,0-.17-.09,0-.17-.05,0,0,0-.1,0-.1-.06-.09,0-.07,0-.06-.11,0-.13,0a.66.66,0,0,0-.23-.34A.6.6,0,0,1,387,294c0-.06,0-.06-.07-.16s-.07,0-.08-.07,0-.15,0-.13-.05.07-.08.11a.42.42,0,0,0-.1.12c0,.08-.07.13,0,.17s.14.1.13.15a.29.29,0,0,0,0,.16c0,.05,0,0,0,.1s0,.13.06.17a.19.19,0,0,1,.12.11c0,.06-.05.12,0,.19s.16.23.13.28,0,.1-.11.1-.21,0-.23.07,0,.17-.06.22a.67.67,0,0,1-.13.15s-.17,0-.19.1-.07.27-.14.27-.1-.1-.16-.22-.13-.19-.17-.15-.05.05,0,.15,0,.25,0,.29-.14,0-.18,0a.31.31,0,0,0,0,.15.94.94,0,0,1-.12.26.2.2,0,0,0-.07.1.26.26,0,0,1,.08.08s0,.12.05.16.08,0,.12,0a.66.66,0,0,1,.19.21.28.28,0,0,1,0,.2c0,.05-.12.06-.11.14s.06.14.09.11,0-.08.07-.05.07.06.11.08.07.1.12.15,0,.14.06.17a.17.17,0,0,0,.18,0c.05-.05.1-.05.12,0a.38.38,0,0,0,.08.2s.11.07.09.12a1,1,0,0,1-.06.14s0,.07-.05.09a.08.08,0,0,0,0,.11s0,0-.08,0,0,0,0,.1,0,.07,0,.14,0,.13-.06.09-.05-.12-.11-.07a.3.3,0,0,0-.06.26.56.56,0,0,0,.11.2c.05.07,0,.18.07.17s.05-.07.1-.06,0,.17,0,.23.1.1.09.19,0,.1.05.1,0,.09,0,.11l-.19.17s0,.05-.08,0,0,0-.12,0-.14,0-.14,0a.93.93,0,0,1-.1.2s0,.07.08.09a.27.27,0,0,1,.2.14s0,.14,0,.17.09.07.08.1-.08,0-.08.06a1,1,0,0,0,.07.33s.07.05,0,.09-.14,0-.12.1.08.08.11.12a.07.07,0,0,1,0,.09s0,.07,0,.1,0,.08,0,.09-.07-.05-.06,0,.06.08.13.12.12,0,.08.07-.13,0-.12,0a1,1,0,0,0,0,.21.55.55,0,0,1,0,.31c0,.08,0,.11,0,.12s-.14.05-.16.09a.13.13,0,0,0,0,.12s.16.09.18.12l.06.06a.11.11,0,0,1-.07.1c-.07,0-.09,0-.16,0a.16.16,0,0,0-.11.12c0,.05-.08.09-.08.15s0,.1.06.14.08.1.15,0,.1-.14.15-.18.12-.1.17-.06.07.06.06.1-.07,0-.06.06.05.09,0,.09-.11,0-.15,0-.16.05-.13.09,0,.08.1.11.1.08.21,0,.17,0,.2-.07,0-.11.05-.11.15,0,.15,0,0,.1-.07.12-.12,0-.09.07.08.09,0,.1-.09,0-.13,0-.13.06-.14.09.06.05.1.08.13.06.06.07-.12,0-.13,0,0,.05,0,.08,0,.05-.07,0a.15.15,0,0,0-.12.05s0,0,0,.07.1,0,.07.07,0,.1-.08.14-.09.07-.09,0,0-.13,0-.1a.61.61,0,0,0-.1.18s0,.1,0,.1-.12,0-.13,0a.46.46,0,0,1-.07.1s0,.08-.07.1-.07,0-.07,0,0,.09,0,.08l.08,0s0,.11,0,.11h-.19a.66.66,0,0,0,0,.1c0,.05-.18.14-.15.16a.11.11,0,0,1,0,.11.05.05,0,0,1-.07,0s-.08,0-.11,0a.08.08,0,0,0,0,.11s.24-.06.23,0-.13.06-.15.06,0,.1,0,.1-.13,0-.07.05a.15.15,0,0,1,.08.11s-.11,0-.12,0,0,.06,0,.07-.09,0-.11,0,0,.1,0,.13-.08,0-.13,0,0,.11,0,.14-.11-.09-.2,0,0,.18,0,.2-.06,0-.09-.05-.06-.1-.1-.07,0,.09,0,.14a.24.24,0,0,0-.06.1c0,.06,0,.07-.06.09l-.13.08s-.06,0-.12,0-.1-.11-.15-.1a.35.35,0,0,0-.11.09s-.09,0-.1,0,0,.11,0,.12-.12-.15-.2-.19-.19.12-.21.14-.1.13-.14.12h-.09l.06.12a0,0,0,0,1-.05.07.12.12,0,0,0-.09.1c0,.06,0,.16-.06.19a.09.09,0,0,0,0,.11s0,0,0,.07.07,0,.07.07,0,0,0,.06-.07.05,0,.07.14,0,.17.08,0,.07,0,.09.09,0,.09.05,0,.06,0,.09.08.08.06.11-.09,0-.1,0,0,.11-.05.11,0-.11-.08-.12-.06,0-.09,0-.07,0-.08,0a.11.11,0,0,1-.09,0s-.12,0-.14,0a.15.15,0,0,0-.11-.06c-.05,0-.06,0-.11.11a2.36,2.36,0,0,1-.2.28s0,.06,0,.08,0,0,0,.05-.08,0-.08,0a.12.12,0,0,0,.1.09c.07,0,.09,0,.12,0s.06-.06.09,0,0,.09,0,.11.09.05.1.07a.24.24,0,0,1,0,.1l.22.25a.21.21,0,0,0,.17.08c.06,0,.1.06.13.1s.06,0,.15.05a.45.45,0,0,1,.2.18.2.2,0,0,0,.15.11.42.42,0,0,1,.22.1,3.32,3.32,0,0,0,.27.22c.05,0,.07,0,.18,0a.37.37,0,0,1,.24.12.14.14,0,0,0,.18,0c.1,0,.2-.07.24,0s0,.11.05.13.12.18.21.19.22,0,.26,0a1.46,1.46,0,0,1,0,.3c0,.05,0,.17.07.2a.4.4,0,0,0,.26.13,1.46,1.46,0,0,1,.29,0,.62.62,0,0,0,.16,0,.15.15,0,0,0,.05.19c.05.06.17,0,.32,0s.17.05.22,0,.11-.07.16-.09.19.08.23.1a1.71,1.71,0,0,0,.32,0s.08-.08.12-.12,0-.12,0-.17.09-.09.12-.15.05,0,.11,0,.05,0,.09,0a.14.14,0,0,1,.12,0,.24.24,0,0,0,.12,0s0,0,.08.07,0,0,.09,0,.09,0,.12.05,0,.14.08.19.18.15.24.24.13.09.22.11a.2.2,0,0,0,.16,0c.06,0,.15,0,.19,0s.08.09.13.13.15,0,.24.08l.2.15c.05,0,.13,0,.21-.09a.28.28,0,0,1,.21-.09c.05,0,.12.06.17.09s.07,0,.13,0a.59.59,0,0,1,.17.18c0,.07,0,.05.12.07a.34.34,0,0,0,.18,0s0,0,.08-.07.11.05.13.09,0,.13,0,.17,0,.06.08.09.1,0,.1,0a.13.13,0,0,1,.1,0s.05,0,.1.09.11.05.14.07,0,0,.06.09,0,0,.11,0,0,0,0,.09a.21.21,0,0,0,0,.12l1.06-.44h0l-1.06.43a.26.26,0,0,0,.05.1c0,.06,0,.13.08.15s-.05.06,0,.1.1.07.1.12-.07.07-.07.1.1.05.1.1,0,.13,0,.16.08.12.15.11a.24.24,0,0,1,.12,0,.18.18,0,0,0,.13,0c.06,0,.08-.09.11-.07s0,.08,0,.11,0,.06.07.06.09,0,.11,0,.06,0,.08.08a.22.22,0,0,0,.17.18c.08,0,.07,0,.1.05s0-.05.09-.07.05,0,.1.06.11,0,.13,0,0,.07.06.14.06,0,.07.07,0,.15,0,.18.1.05.14.09.11.07.13.14,0,.13-.05.19-.1.13-.05.19a2,2,0,0,0,.26.2c.05,0,.07,0,.13,0s.07,0,.09,0,0-.07.1,0,.15.05.18.16.07.18.06.23,0,.09,0,.13,0,.07,0,.11-.16.1-.16.2,0,.22,0,.28.11.05.17.08.05,0,.11,0,.11.07.17.13.06.07.13,0,.15,0,.22,0,.06,0,.09,0,.06,0,.09,0,0,0,.06,0,.08,0,.11-.06,0-.12.12-.07.1.08.15.09.14-.07.19,0,.05.15.11.17.09,0,.13,0,.13-.09.16-.08.06.06.12,0,.05-.09.1-.13.17-.17.25-.18.12.1.19.08.1,0,.14-.12.1-.26.21-.27.11,0,.14,0,0,.1.09.09a.39.39,0,0,1,.26,0c.07,0,0,.11.09.15s.13,0,.18,0,0,.18.07.2.09-.06.2,0,.08.06.14.05,0-.1.12-.06.15,0,.17,0,0-.12.12-.13,0-.11.11-.14a.42.42,0,0,1,.35,0c.14.07.16.12.23.11a.13.13,0,0,1,.15.09.19.19,0,0,0,.07.12s0,.18.11.2.1,0,.1-.05,0-.07.09,0,.09.1.16.14.1,0,.16,0,.09,0,.08.05-.07.09-.06.11.05.06.12,0,.08.13.11.16.06-.06.11,0,0,.17.09.15.06-.1.09-.09,0,.1.1.16.09,0,0,.13l-1.5,2.31s0,.06,0,.05.08-.05.17,0,.13,0,.2-.05a2.4,2.4,0,0,1,.37,0h.15s.14.11.16.19a.37.37,0,0,0,.12.26c.09.08.07.19.17.25a.79.79,0,0,1,.24.18l1.33-6s0-.06,0-.07.13,0,.13-.11a.19.19,0,0,0,0-.15.44.44,0,0,1,0-.21.24.24,0,0,0,0-.15l-.08-.12s0-.06,0-.1,0-.06-.06-.09,0-.11-.05-.15a.67.67,0,0,0-.14-.11c-.06,0,0-.09-.05-.1s-.05-.06-.05-.09,0,0,0-.08,0-.13.05-.16,0-.16,0-.2a.24.24,0,0,1,0-.17c0-.07-.06-.07-.15-.09s-.09-.07-.12-.09-.15,0-.17-.07a1.43,1.43,0,0,0-.13-.14l-.35-.29s0-1.51,0-1.56,0-.06,0-.1.08.07.14.07.07-.09.07-.09h0a.25.25,0,0,0,.13,0c.05,0,.05-.05.1,0s.11,0,.18,0,.07,0,.1-.07a.07.07,0,0,1,.11,0s.07.05.19,0a1.44,1.44,0,0,1,.2-.11c.08,0,.08,0,.13.07s.1.13.14.13.08,0,.12,0,0,.06.1.06.07,0,.12-.08.06,0,.07,0a.1.1,0,0,0,.07-.07s0-.11,0-.11.05-.06,0-.09-.06-.07,0-.09,0-.07,0-.07l-.07-.12a.15.15,0,0,1,0-.15c0-.05,0-.1-.08-.14s-.18-.09-.25-.1-.06,0-.1,0-.09,0-.15-.06-.11,0-.21,0a.79.79,0,0,1-.25,0c-.05,0-.05-.08-.11-.09s-.08.05-.12.08-.08,0-.08,0v-1.31h0l.1,0c.09,0,.09,0,.17-.07s.15,0,.19,0,.06,0,.15-.11.17,0,.24.07a.2.2,0,0,0,.14,0l2.47.08c.29,0,.36,0,.36,0s-.06,0-.14-.1-.11-.07-.12-.17,0-.14.07-.2.11-.07.19-.07.06.12.1.23.13.11.33.19.18,0,.3-.09.05-.15.11-.23a2.5,2.5,0,0,1,.18-.23c.09-.12.11-.09.21-.16a.49.49,0,0,1,.37-.07c.17,0,.11.14.14.22a1.66,1.66,0,0,0,.18.42l.2.26c.07.11.17.23.16.28s-.05.16-.07.25,0,.23,0,.25a.41.41,0,0,1-.06.19c0,.05,0,.06,0,.1a.56.56,0,0,1,0,.16l.51-.11A.54.54,0,0,1,409.24,309.78Zm-15.91-19.51c0-.06,0-.09,0-.1s0,.05,0,.11v0Z" transform="translate(-366.23 -276.64)"/><circle class="cls-3" cx="29.66" cy="27.93" r="3.2"/><circle class="cls-2" cx="29.66" cy="27.93" r="2.42"/><circle class="cls-3" cx="29.66" cy="27.93" r="1.73"/><path class="cls-4" d="M386.53,288.48v0a.08.08,0,0,0,0,.07.75.75,0,0,1,0,.15.62.62,0,0,0-.07.19s0,.05,0,.08a.16.16,0,0,1-.05.11h0c-.05,0,0,.08,0,.13a.18.18,0,0,1-.06.14l0,0a.08.08,0,0,1,0,.05.21.21,0,0,0,0,.11l0,0a.32.32,0,0,0-.08.12,1,1,0,0,1-.12.23l0,.05a.38.38,0,0,1-.16.23c-.07,0-.08,0-.1,0s0,0-.07-.05-.06,0,0-.08,0,0,0,0,0,0,0,0,0-.07-.05-.06,0,0,0,0a.94.94,0,0,1,0-.16s0-.05,0-.08,0,0,0,0v-.06h0s0,0,0,0a.48.48,0,0,1,.07-.26l.16-.2a.44.44,0,0,0,.07-.19.2.2,0,0,1,0-.07v0a.33.33,0,0,1,0-.14s0-.06,0-.09a.38.38,0,0,1,0-.1s0,0,0,0a.39.39,0,0,1,0-.15h0a1.49,1.49,0,0,1,0-.21v0a.07.07,0,0,1,0-.08.12.12,0,0,1,.07-.07s0,0,.05-.06,0,0-.06,0a.06.06,0,0,1-.09,0s-.09,0-.12-.08h0a.2.2,0,0,1-.11-.17c0-.05,0-.09,0-.13h0a.17.17,0,0,0,.07-.13.25.25,0,0,1,0-.11v0s0-.07,0-.11a.14.14,0,0,1,0-.06.1.1,0,0,0,0-.1c0-.05,0-.08,0-.12l.05-.05s0,0,0,0a.14.14,0,0,1-.07-.1.56.56,0,0,1-.06-.29.28.28,0,0,1,0-.12.62.62,0,0,1,.14-.18l.07-.09s.05-.08.09-.1l0,0a.15.15,0,0,1,.07-.07s0,0,0-.05,0,0,0-.06h0s0-.07,0-.1a.13.13,0,0,0,0-.12.17.17,0,0,1,0-.12.11.11,0,0,0,0-.11.16.16,0,0,1,0-.12c.05-.06.11-.11.15-.17h0a2.2,2.2,0,0,0,.23-.2.44.44,0,0,0,.08-.1l.07-.07a.81.81,0,0,0,.09-.1.18.18,0,0,1,.07-.05l.17,0s0,0,0,0,.07.08.11.11.05.05.06.08a.28.28,0,0,1,0,.09l0,.06.1.07s0,0,.07,0,.06,0,.09,0,0,0,.07,0a.37.37,0,0,0,.16.09.14.14,0,0,1,.1.12s0,0,0,0l-.06,0s0,0-.07,0l-.18,0a.52.52,0,0,0-.16.06.38.38,0,0,0-.09.09.25.25,0,0,1-.09,0,.43.43,0,0,0-.1.09s0,0,0,.06l.11.08a.09.09,0,0,1,0,.13s0,0-.05,0h0l0,.08,0,0s0,0-.08,0a.13.13,0,0,0-.09,0,.15.15,0,0,0,.12,0c-.09,0-.12-.07-.18-.09a.07.07,0,0,1,0,.06s0,0,0,.05a.54.54,0,0,1,.09.12s0,0,.06,0l0,0h0s0,0,0,.07a.14.14,0,0,0,.11,0,0,0,0,0,1,0,0s0,0,0,.07,0,0-.06,0,0,0,0,0-.07,0-.11,0a.17.17,0,0,0-.14,0s0,.07,0,.1H387s0,0,0,.05,0,.11,0,.16,0,0,0,0,0,0,0,0,0,.11,0,.16a.13.13,0,0,1,0,.06,0,0,0,0,0,0,0,.14.14,0,0,1,0,.11.07.07,0,0,0,0,.09.13.13,0,0,1,0,.06h0v0h0s0,.05,0,.07a.2.2,0,0,1-.13.08.07.07,0,0,0-.06.07.41.41,0,0,0,0,.11s0,.05,0,.08,0,.11,0,.15,0,0,0,0a0,0,0,0,0,0,.07s0,.06,0,.09a.83.83,0,0,1-.08.12.83.83,0,0,0-.08.12.19.19,0,0,1-.11.09.06.06,0,0,0-.05.05.3.3,0,0,0,0,.1s0,0,0,0S386.54,288.38,386.53,288.48Z" transform="translate(-366.23 -276.64)"/><path class="cls-4" d="M390,285.18s-.05,0,0,0a.05.05,0,0,1,0,0,.42.42,0,0,1,0,.1s0,0,0,0h0l.08,0s0,0,.05,0,0,.09,0,.09a.15.15,0,0,0-.07,0s-.07,0-.08.05,0,0,0,0,0,0,0,.05,0,0,0,0a.35.35,0,0,0,0,.11h0s0,.05,0,.08l0,.08a.08.08,0,0,0,0,0,.1.1,0,0,1-.09.06c-.05,0-.09,0-.14,0l0,0a.08.08,0,0,1-.05.05s-.05,0-.05.06a.05.05,0,0,1,0,0,.15.15,0,0,0-.07,0s0,0-.05,0h-.05a.27.27,0,0,0-.13.07s0,0-.08,0,0,0,0,0a.19.19,0,0,0,0-.07,0,0,0,0,1,0,0s0-.07,0-.1,0,0,0,0,0-.09,0-.14,0,0-.05,0,0,0,0,0,0,0,0,0a.07.07,0,0,1,0-.08.06.06,0,0,0,0-.06l0-.07s0,0,0,0a.49.49,0,0,1,0-.12s0-.08,0-.12a.61.61,0,0,0,.09-.18h0s0,0,.07-.06.06-.07.12-.06,0,0,0,0a.16.16,0,0,0,.1,0c.06,0,.07-.05.1-.08a.11.11,0,0,0,0-.11s0-.05,0-.07,0-.05.05-.06,0,0,0,0,0,0,0,0,0,0,0,0h0s.05.05,0,.09,0,.06.06.05h.12s0,0,0,0h0s0,0,0,.07h0l-.07.07h0s0,0,0,0S390,285.16,390,285.18Z" transform="translate(-366.23 -276.64)"/><path class="cls-4" d="M389.7,284.55a.05.05,0,0,1,0,0s0,.12,0,.14l.06,0a.1.1,0,0,0,0,.05c0,.05-.07,0-.11.05a.07.07,0,0,1-.08,0s0,0-.06,0,0-.14,0-.16l.08-.05.12,0Z" transform="translate(-366.23 -276.64)"/></svg>