<svg id="Capa_1" data-name="Capa 1" xmlns="http://www.w3.org/2000/svg" viewBox="0 0 59.32 59.32"><defs><style>.cls-1{fill:#174193;}.cls-2{fill:#eaeaea;}.cls-3{fill:#fff;}.cls-4{fill:#d21e18;}</style></defs><rect class="cls-1" x="357.52" y="266.2" width="51.19" height="51.19" rx="15.79" transform="translate(-34.92 -447.58) rotate(45)"/><path class="cls-2" d="M372.87,277.11h17.9a5.59,5.59,0,0,1,5.59,5.59v25.14a0,0,0,0,1,0,0h-23.5a0,0,0,0,1,0,0V277.11A0,0,0,0,1,372.87,277.11Z" transform="translate(-224.23 -379.84) rotate(20.84)"/><path class="cls-3" d="M18.59,17.67H36.5a5.59,5.59,0,0,1,5.59,5.59V48.41a0,0,0,0,1,0,0H18.59a0,0,0,0,1,0,0V17.67A0,0,0,0,1,18.59,17.67Z"/><rect class="cls-4" x="22.46" y="32.02" width="15.76" height="1.33" rx="0.66"/><rect class="cls-4" x="22.46" y="35.5" width="15.76" height="1.33" rx="0.66"/><rect class="cls-4" x="22.46" y="28.37" width="15.76" height="1.33" rx="0.66"/></svg>