<svg id="Capa_1" data-name="Capa 1" xmlns="http://www.w3.org/2000/svg" viewBox="0 0 161.08 79.49"><defs><style>.cls-1{fill:#174193;}.cls-2{fill:#d21e18;}.cls-3{fill:#a30f0f;}</style></defs><title>logo asi vamos ffie</title><polygon class="cls-1" points="10.06 63.72 20.15 63.72 7.22 50.8 7.22 28.79 0 28.79 0 53.73 0.01 53.73 0 53.73 10.06 63.72"/><polygon class="cls-1" points="38.76 57 45.02 50.8 45.02 28.79 52.24 28.79 52.24 53.73 52.24 53.73 52.24 53.73 49.1 57 38.76 57"/><polyline class="cls-2" points="35.95 59.84 26.09 69.67 26.09 79.49 46.01 59.88"/><polygon class="cls-3" points="26.09 69.67 26.09 79.49 13.3 66.69 22.73 66.56 26.09 69.67"/><rect class="cls-1" x="14.87" y="28.79" width="9.88" height="9.83"/><rect class="cls-1" x="27.23" y="28.79" width="9.88" height="9.83"/><rect class="cls-1" x="14.87" y="41.08" width="9.88" height="9.83"/><rect class="cls-1" x="27.23" y="41.08" width="9.88" height="9.83"/><polygon class="cls-1" points="26.12 0 0 25.96 10.17 25.96 26.12 10.11 26.12 0"/><polygon class="cls-1" points="26.12 0 52.24 25.96 42.07 25.96 26.12 10.11 26.12 0"/><path class="cls-1" d="M377.66,287.84l5.45-14h2l5.43,14h-1.8l-4-10.43-.65-2h-.05l-.61,1.89-4,10.49Zm2.67-5.47h7.49V284h-7.49Z" transform="translate(-316.52 -251.39)"/><path class="cls-1" d="M396.79,288.06a6.22,6.22,0,0,1-2.85-.66,4.73,4.73,0,0,1-2-1.87l1.44-1a3.57,3.57,0,0,0,1.37,1.53,4.08,4.08,0,0,0,2.18.55,3.12,3.12,0,0,0,1.76-.43,1.33,1.33,0,0,0,.63-1.14,1.29,1.29,0,0,0-.28-.81,1.83,1.83,0,0,0-1.1-.54l-2.54-.53a4.12,4.12,0,0,1-2.22-1.06,2.7,2.7,0,0,1-.67-1.85,2.75,2.75,0,0,1,.5-1.59,3.51,3.51,0,0,1,1.42-1.16,5.08,5.08,0,0,1,2.18-.43,5.3,5.3,0,0,1,2.65.61,3.82,3.82,0,0,1,1.61,1.74l-1.42.94a2.49,2.49,0,0,0-1.17-1.37,3.47,3.47,0,0,0-1.67-.44,3.42,3.42,0,0,0-1.31.22,1.82,1.82,0,0,0-.82.58,1.3,1.3,0,0,0-.29.84,1.37,1.37,0,0,0,.32.86,2,2,0,0,0,1.19.56l2.65.55a3.64,3.64,0,0,1,2.07,1,2.44,2.44,0,0,1,.6,1.66,3,3,0,0,1-.53,1.75,3.34,3.34,0,0,1-1.49,1.15,5.57,5.57,0,0,1-2.2.41" transform="translate(-316.52 -251.39)"/><path class="cls-1" d="M405.57,271.94h1.84l-2.08,3.54H404Zm.27,15.9h-1.69v-10.6h1.69Z" transform="translate(-316.52 -251.39)"/><polygon class="cls-1" points="75.98 44.56 67.05 44.56 67.05 47.7 74.21 47.7 74.21 51.88 67.05 51.88 67.05 58.4 61.48 58.4 61.48 40.38 75.98 40.38 75.98 44.56"/><polygon class="cls-1" points="92.73 44.56 83.8 44.56 83.8 47.7 90.95 47.7 90.95 51.88 83.8 51.88 83.8 58.4 78.22 58.4 78.22 40.38 92.73 40.38 92.73 44.56"/><rect class="cls-1" x="94.97" y="40.38" width="5.57" height="18.03"/><polygon class="cls-1" points="103.87 58.4 103.87 40.38 118.4 40.38 118.4 44.56 109.44 44.56 109.44 47.48 116.59 47.48 116.59 51.36 109.44 51.36 109.44 54.22 118.75 54.22 118.75 58.4 103.87 58.4"/><polygon class="cls-1" points="101.09 25.86 105.52 25.86 101.92 36.46 96.68 36.46 93.07 25.86 97.55 25.86 99.31 33.64 101.09 25.86"/><path class="cls-1" d="M428.57,281.16a1.35,1.35,0,0,0-.31-.94,1.13,1.13,0,0,0-.9-.35,1.49,1.49,0,0,0-.94.3,1.57,1.57,0,0,0-.5,1.12l-3.63-.66a3.72,3.72,0,0,1,1.55-2.63,6.4,6.4,0,0,1,3.82-1,7.44,7.44,0,0,1,2.85.48,3.52,3.52,0,0,1,1.73,1.39,4,4,0,0,1,.57,2.18v3.56c0,.57.26.85.78.85a1.21,1.21,0,0,0,.49-.08l-.21,2.31a4.09,4.09,0,0,1-1.74.34,4.24,4.24,0,0,1-1.61-.29,2.46,2.46,0,0,1-1.1-.84,2.39,2.39,0,0,1-.41-1.44v-.17l.43-.06a2.3,2.3,0,0,1-.52,1.48,3.34,3.34,0,0,1-1.36,1,5,5,0,0,1-1.85.34,4.84,4.84,0,0,1-1.89-.34,2.61,2.61,0,0,1-1.2-1,2.74,2.74,0,0,1-.41-1.55,2.64,2.64,0,0,1,.71-1.91,3.9,3.9,0,0,1,2.15-1l3.84-.81,0,1.8-1.57.36a1.53,1.53,0,0,0-.78.35.93.93,0,0,0-.24.67.77.77,0,0,0,.27.63,1.07,1.07,0,0,0,.68.22,1.6,1.6,0,0,0,.51-.08,1.29,1.29,0,0,0,.42-.26,1.15,1.15,0,0,0,.28-.42,1.64,1.64,0,0,0,.11-.62Z" transform="translate(-316.52 -251.39)"/><path class="cls-1" d="M435.12,287.84v-10.6H439l.11,2.19a3.67,3.67,0,0,1,1.4-1.79,3.93,3.93,0,0,1,2.22-.61,3.68,3.68,0,0,1,2,.54,3,3,0,0,1,1.2,1.58,3.56,3.56,0,0,1,.86-1.17,3.6,3.6,0,0,1,1.2-.71,4.46,4.46,0,0,1,1.48-.24,3.89,3.89,0,0,1,1.83.41,2.85,2.85,0,0,1,1.2,1.23,4.36,4.36,0,0,1,.42,2v7.16h-4.28v-6.1a1.91,1.91,0,0,0-.27-1.18,1,1,0,0,0-.79-.33,1.37,1.37,0,0,0-.75.21,1.3,1.3,0,0,0-.5.67,3.38,3.38,0,0,0-.17,1.14v5.59h-4.28v-6.1a1.9,1.9,0,0,0-.28-1.18,1,1,0,0,0-.78-.33,1.36,1.36,0,0,0-.74.21,1.41,1.41,0,0,0-.5.67,3,3,0,0,0-.19,1.16v5.57Z" transform="translate(-316.52 -251.39)"/><path class="cls-1" d="M460.29,277a6.64,6.64,0,0,1,3,.65,4.72,4.72,0,0,1,2,1.87,6.55,6.55,0,0,1,0,6,4.7,4.7,0,0,1-2,1.89,6.77,6.77,0,0,1-3,.65,6.69,6.69,0,0,1-3-.65,4.7,4.7,0,0,1-2-1.89,6.47,6.47,0,0,1,0-6,4.71,4.71,0,0,1,2-1.87,6.56,6.56,0,0,1,3-.65m0,3a1.29,1.29,0,0,0-.79.23,1.43,1.43,0,0,0-.5.81,6.88,6.88,0,0,0,0,3,1.48,1.48,0,0,0,.5.8,1.4,1.4,0,0,0,1.6,0,1.59,1.59,0,0,0,.49-.8,6.88,6.88,0,0,0,0-3,1.54,1.54,0,0,0-.49-.81,1.3,1.3,0,0,0-.81-.23" transform="translate(-316.52 -251.39)"/><path class="cls-1" d="M472.36,288.06a9.33,9.33,0,0,1-3-.47,6.63,6.63,0,0,1-2.4-1.38l1.72-2.27a5.19,5.19,0,0,0,1.48,1,4.42,4.42,0,0,0,1.89.42,2.66,2.66,0,0,0,.86-.12.46.46,0,0,0,.35-.45.42.42,0,0,0-.18-.35,2,2,0,0,0-.75-.24l-1.1-.22a6.38,6.38,0,0,1-3.07-1.24,2.76,2.76,0,0,1-.9-2.15,3,3,0,0,1,.54-1.68,3.88,3.88,0,0,1,1.72-1.35,7.5,7.5,0,0,1,3-.53,9.1,9.1,0,0,1,2.92.43,5.08,5.08,0,0,1,2.05,1.24l-1.68,2.21a4,4,0,0,0-1.44-.87,4.87,4.87,0,0,0-1.66-.32,2.6,2.6,0,0,0-.67.07.91.91,0,0,0-.42.18.37.37,0,0,0-.14.3.45.45,0,0,0,.25.37,2.52,2.52,0,0,0,.9.29l1.7.3a4.28,4.28,0,0,1,2.43,1.1,2.77,2.77,0,0,1,.77,2,3.45,3.45,0,0,1-.55,1.89,3.78,3.78,0,0,1-1.71,1.36,7.42,7.42,0,0,1-3,.51" transform="translate(-316.52 -251.39)"/></svg>