<svg id="Capa_1" data-name="Capa 1" xmlns="http://www.w3.org/2000/svg" viewBox="0 0 73.82 28.09"><defs><style>.cls-1{fill:#174193;}.cls-2{fill:#585656;}.cls-3{fill:#e39e00;}.cls-4{fill:#fdc101;}.cls-5{fill:#868685;}.cls-6{fill:#e20312;}.cls-7{fill:#fff;}</style></defs><title>logo FFIE</title><path class="cls-1" d="M385.23,290.89h-1.07v-5.18h1.07Z" transform="translate(-360.15 -277.03)"/><path class="cls-1" d="M387.14,287.05v.55a1.24,1.24,0,0,1,1.15-.61,1.19,1.19,0,0,1,1.29,1.33v2.57h-1v-2.37c0-.45-.21-.69-.64-.69a.73.73,0,0,0-.8.76v2.3h-1v-3.84Z" transform="translate(-360.15 -277.03)"/><path class="cls-1" d="M392.26,287.79h-.59v3.1h-1v-3.1h-.54v-.66h.54v-.46c0-.65.32-1,1-1,.15,0,.36,0,.57,0v.74l-.29,0q-.27,0-.27.3v.38h.59Z" transform="translate(-360.15 -277.03)"/><path class="cls-1" d="M393.85,287.05v.75a1.17,1.17,0,0,1,1.07-.81H395v1a2,2,0,0,0-.32,0,.78.78,0,0,0-.87.88v2h-1v-3.84Z" transform="translate(-360.15 -277.03)"/><path class="cls-1" d="M398.93,290.89h-1.08a.5.5,0,0,1-.11-.38,1.58,1.58,0,0,1-1.17.54,1.09,1.09,0,0,1-1.16-1.15c0-.69.37-1.08,1.13-1.21l.4-.07c.49-.08.49-.08.62-.15a.33.33,0,0,0,.17-.3c0-.25-.19-.38-.57-.38s-.66.13-.71.53h-1c.07-.89.61-1.33,1.64-1.33s1.58.39,1.58,1.18v2.13a.57.57,0,0,0,.22.47Zm-1.2-1.81a1.36,1.36,0,0,1-.42.12l-.34.06c-.41.09-.57.23-.57.53s.21.46.54.46c.51,0,.79-.33.79-.9Z" transform="translate(-360.15 -277.03)"/><path class="cls-1" d="M400.31,289.28a1.23,1.23,0,0,0,.15.68.74.74,0,0,0,.65.33.78.78,0,0,0,.76-.48h1a1.77,1.77,0,0,1-1.78,1.24c-1.08,0-1.75-.75-1.75-2S400,287,401.1,287a1.69,1.69,0,0,1,1.65,1.11,3.33,3.33,0,0,1,.14,1v.17Zm1.55-.66c-.05-.57-.32-.87-.78-.87s-.69.28-.75.87Z" transform="translate(-360.15 -277.03)"/><path class="cls-1" d="M405.77,288.29c0-.35-.24-.52-.71-.52s-.58.14-.58.35.07.22.35.3l1.26.36a.94.94,0,0,1,.75,1,1.24,1.24,0,0,1-.45,1,1.92,1.92,0,0,1-1.23.34c-1.16,0-1.78-.43-1.81-1.28h1c.05.21.09.29.2.37a1,1,0,0,0,.59.13c.46,0,.74-.14.74-.38s-.09-.23-.34-.31l-1.19-.37a1.23,1.23,0,0,1-.62-.32.9.9,0,0,1-.22-.62c0-.79.61-1.28,1.58-1.28s1.66.49,1.67,1.3Z" transform="translate(-360.15 -277.03)"/><path class="cls-1" d="M409.23,287.79h-.55v2.09c0,.34.06.42.32.42l.23,0v.7a2,2,0,0,1-.58.07c-.65,0-1-.3-1-.9v-2.36h-.49v-.66h.49v-1h1v1h.55Z" transform="translate(-360.15 -277.03)"/><path class="cls-1" d="M410.9,287.05v.75A1.17,1.17,0,0,1,412,287h.12v1l-.31,0a.78.78,0,0,0-.88.88v2h-1v-3.84Z" transform="translate(-360.15 -277.03)"/><path class="cls-1" d="M415.07,290.89v-.46a1.23,1.23,0,0,1-1.15.62,1.18,1.18,0,0,1-1.28-1.33v-2.67h1v2.47c0,.46.21.69.64.69a.73.73,0,0,0,.8-.76v-2.4h1v3.84Z" transform="translate(-360.15 -277.03)"/><path class="cls-1" d="M419.33,288.49c-.12-.51-.31-.7-.71-.7a.64.64,0,0,0-.62.33,2,2,0,0,0-.19.93c0,.75.29,1.2.8,1.2s.6-.19.72-.69h.95a1.57,1.57,0,0,1-1.67,1.49c-1.14,0-1.8-.74-1.8-2s.66-2.06,1.81-2.06a1.53,1.53,0,0,1,1.66,1.5Z" transform="translate(-360.15 -277.03)"/><path class="cls-1" d="M422.67,287.79h-.56v2.09c0,.34.07.42.33.42l.23,0v.7a2.1,2.1,0,0,1-.58.07c-.65,0-1-.3-1-.9v-2.36h-.49v-.66h.49v-1h1v1h.56Z" transform="translate(-360.15 -277.03)"/><path class="cls-1" d="M425.73,290.89v-.46a1.23,1.23,0,0,1-1.15.62,1.19,1.19,0,0,1-1.29-1.33v-2.67h1v2.47c0,.46.21.69.64.69a.73.73,0,0,0,.8-.76v-2.4h1v3.84Z" transform="translate(-360.15 -277.03)"/><path class="cls-1" d="M428.67,287.05v.75a1.17,1.17,0,0,1,1.07-.81h.12v1a2,2,0,0,0-.32,0,.78.78,0,0,0-.87.88v2h-1v-3.84Z" transform="translate(-360.15 -277.03)"/><path class="cls-1" d="M433.75,290.89h-1.08a.5.5,0,0,1-.11-.38,1.58,1.58,0,0,1-1.17.54,1.09,1.09,0,0,1-1.16-1.15c0-.69.37-1.08,1.13-1.21l.4-.07c.49-.08.49-.08.62-.15a.33.33,0,0,0,.17-.3c0-.25-.19-.38-.57-.38s-.66.13-.71.53h-1c.07-.89.61-1.33,1.65-1.33s1.57.39,1.57,1.18v2.13a.57.57,0,0,0,.22.47Zm-1.2-1.81a1.36,1.36,0,0,1-.42.12l-.34.06c-.41.09-.57.23-.57.53s.21.46.54.46c.51,0,.79-.33.79-.9Z" transform="translate(-360.15 -277.03)"/><path class="cls-2" d="M384.59,282.39v.93h1.3v.21h-1.3v1.23h-.24v-2.58H386v.21Z" transform="translate(-360.15 -277.03)"/><path class="cls-2" d="M387.94,283.83a1.21,1.21,0,0,1-.06.38.94.94,0,0,1-.17.31.83.83,0,0,1-.28.22,1,1,0,0,1-.74,0,.83.83,0,0,1-.28-.22.71.71,0,0,1-.15-.3,1.12,1.12,0,0,1-.06-.38,1.44,1.44,0,0,1,.05-.37.77.77,0,0,1,.16-.31.82.82,0,0,1,.67-.3.73.73,0,0,1,.63.29.79.79,0,0,1,.17.31A1.16,1.16,0,0,1,387.94,283.83Zm-.24,0a1,1,0,0,0,0-.3.64.64,0,0,0-.11-.25.56.56,0,0,0-.2-.18.7.7,0,0,0-.28,0,.51.51,0,0,0-.28.07.64.64,0,0,0-.22.19.6.6,0,0,0-.1.23,1.36,1.36,0,0,0,0,.29,1.39,1.39,0,0,0,0,.3.64.64,0,0,0,.1.24.67.67,0,0,0,.22.19.65.65,0,0,0,.29.06.51.51,0,0,0,.27-.06.89.89,0,0,0,.2-.19A.91.91,0,0,0,387.7,283.82Z" transform="translate(-360.15 -277.03)"/><path class="cls-2" d="M389.58,284.76v-1.21a1.23,1.23,0,0,0,0-.2.48.48,0,0,0-.08-.16.33.33,0,0,0-.15-.11.5.5,0,0,0-.23,0,.54.54,0,0,0-.24,0,.7.7,0,0,0-.19.16.63.63,0,0,0-.1.2.85.85,0,0,0,0,.23v1.08h-.22V282.9h.21v.27h0a.46.46,0,0,1,.12-.12l.13-.1a.48.48,0,0,1,.18-.08l.2,0a.66.66,0,0,1,.47.18.59.59,0,0,1,.14.22.9.9,0,0,1,0,.25v1.26Z" transform="translate(-360.15 -277.03)"/><path class="cls-2" d="M391.75,284.76v-.34l-.11.15a.58.58,0,0,1-.14.12.48.48,0,0,1-.21.09.64.64,0,0,1-.2,0l-.22,0a.49.49,0,0,1-.17-.06l-.15-.09-.12-.14a.73.73,0,0,1-.14-.31,1.61,1.61,0,0,1,0-.39,1.06,1.06,0,0,1,.06-.37.87.87,0,0,1,.14-.29.63.63,0,0,1,.26-.21,1,1,0,0,1,.4-.08.73.73,0,0,1,.35.09.8.8,0,0,1,.28.27v-1H392v2.58Zm0-.87a.93.93,0,0,0,0-.31.85.85,0,0,0-.09-.24.54.54,0,0,0-.2-.22.57.57,0,0,0-.29-.07.63.63,0,0,0-.32.07.49.49,0,0,0-.2.18.67.67,0,0,0-.09.21,1.21,1.21,0,0,0,0,.3,1,1,0,0,0,0,.3,1.09,1.09,0,0,0,.1.25.56.56,0,0,0,.49.25.55.55,0,0,0,.46-.21,1,1,0,0,0,.13-.23A.87.87,0,0,0,391.75,283.89Z" transform="translate(-360.15 -277.03)"/><path class="cls-2" d="M394.12,283.83a1.21,1.21,0,0,1-.06.38.94.94,0,0,1-.17.31.83.83,0,0,1-.28.22,1,1,0,0,1-.74,0,.83.83,0,0,1-.28-.22.71.71,0,0,1-.15-.3,1.12,1.12,0,0,1-.06-.38,1.44,1.44,0,0,1,.05-.37.77.77,0,0,1,.16-.31.82.82,0,0,1,.67-.3.73.73,0,0,1,.63.29.79.79,0,0,1,.17.31A1.16,1.16,0,0,1,394.12,283.83Zm-.24,0a1,1,0,0,0,0-.3.64.64,0,0,0-.11-.25.56.56,0,0,0-.2-.18.7.7,0,0,0-.28,0,.51.51,0,0,0-.28.07.64.64,0,0,0-.22.19.6.6,0,0,0-.1.23,1.36,1.36,0,0,0,0,.29,1.39,1.39,0,0,0,0,.3.64.64,0,0,0,.1.24.67.67,0,0,0,.22.19.65.65,0,0,0,.29.06.51.51,0,0,0,.27-.06.89.89,0,0,0,.2-.19A.91.91,0,0,0,393.88,283.82Z" transform="translate(-360.15 -277.03)"/><path class="cls-2" d="M396.93,284.76v-.34l-.11.15-.15.12a.5.5,0,0,1-.2.09.76.76,0,0,1-.21,0l-.21,0a.55.55,0,0,1-.18-.06.67.67,0,0,1-.14-.09.82.82,0,0,1-.27-.45,2.38,2.38,0,0,1,0-.39,1.38,1.38,0,0,1,.05-.37,1.12,1.12,0,0,1,.14-.29.8.8,0,0,1,.26-.21,1,1,0,0,1,.4-.08.7.7,0,0,1,.35.09.72.72,0,0,1,.28.27v-1h.22v2.58Zm0-.87a1.35,1.35,0,0,0,0-.31,1.33,1.33,0,0,0-.1-.24.48.48,0,0,0-.2-.22.54.54,0,0,0-.29-.07.59.59,0,0,0-.31.07.46.46,0,0,0-.21.18l-.09.21a2,2,0,0,0,0,.3,1,1,0,0,0,0,.3,1.12,1.12,0,0,0,.11.25.54.54,0,0,0,.49.25.56.56,0,0,0,.46-.21.71.71,0,0,0,.12-.23A.87.87,0,0,0,396.92,283.89Z" transform="translate(-360.15 -277.03)"/><path class="cls-2" d="M397.82,283.88a.85.85,0,0,0,0,.29.76.76,0,0,0,.3.39.5.5,0,0,0,.27.05.62.62,0,0,0,.2,0,.77.77,0,0,0,.17-.07.43.43,0,0,0,.11-.12c0-.06.06-.11.08-.16h.24a1,1,0,0,1-.11.23.61.61,0,0,1-.15.17.72.72,0,0,1-.21.12.9.9,0,0,1-.3.05,1.23,1.23,0,0,1-.39-.07.74.74,0,0,1-.28-.21,1,1,0,0,1-.22-.67,1.23,1.23,0,0,1,.06-.39.91.91,0,0,1,.43-.54.82.82,0,0,1,.38-.08.82.82,0,0,1,.42.1.66.66,0,0,1,.28.29.91.91,0,0,1,.1.29c0,.1,0,.22,0,.35Zm1.23-.18a.82.82,0,0,0-.18-.49.53.53,0,0,0-.42-.17.65.65,0,0,0-.29.07.52.52,0,0,0-.17.15.82.82,0,0,0-.12.2,1.44,1.44,0,0,0-.05.24Z" transform="translate(-360.15 -277.03)"/><path class="cls-2" d="M400.92,282.39v.93h1.3v.21h-1.3v1.23h-.24v-2.58h1.66v.21Z" transform="translate(-360.15 -277.03)"/><path class="cls-2" d="M402.67,282.48v-.3h.22v.3Zm0,2.28V282.9h.22v1.86Z" transform="translate(-360.15 -277.03)"/><path class="cls-2" d="M404.71,284.76v-1.21a1.23,1.23,0,0,0,0-.2.48.48,0,0,0-.08-.16.33.33,0,0,0-.15-.11.47.47,0,0,0-.23,0,.54.54,0,0,0-.24,0,.55.55,0,0,0-.18.16.49.49,0,0,0-.11.2.85.85,0,0,0,0,.23v1.08h-.22V282.9h.21v.27h0a.43.43,0,0,1,.11-.12l.13-.1a.48.48,0,0,1,.18-.08l.2,0a.64.64,0,0,1,.47.18.59.59,0,0,1,.14.22.9.9,0,0,1,0,.25v1.26Z" transform="translate(-360.15 -277.03)"/><path class="cls-2" d="M407,284.78h-.15a.15.15,0,0,1-.09,0,.3.3,0,0,1,0-.1.57.57,0,0,1,0-.13l-.12.12a.56.56,0,0,1-.14.09.8.8,0,0,1-.21.08.75.75,0,0,1-.22,0,.88.88,0,0,1-.29,0,.44.44,0,0,1-.21-.13l-.09-.14a.46.46,0,0,1,0-.21.76.76,0,0,1,0-.21.37.37,0,0,1,.15-.19,1,1,0,0,1,.28-.13l.36-.06.24,0a.69.69,0,0,0,.17-.05.12.12,0,0,0,.07-.1v-.14a.26.26,0,0,0-.12-.24.58.58,0,0,0-.35-.09.68.68,0,0,0-.34.08.46.46,0,0,0-.18.29h-.22a.9.9,0,0,1,.08-.23.49.49,0,0,1,.14-.18.51.51,0,0,1,.22-.11,1,1,0,0,1,.32,0,1,1,0,0,1,.27,0,.72.72,0,0,1,.2.09.53.53,0,0,1,.16.2.69.69,0,0,1,.05.24v1.09a.08.08,0,0,0,0,0,.05.05,0,0,0,0,0,.11.11,0,0,0,.07,0l.1,0v.18Zm-.3-1a1.3,1.3,0,0,1-.29.08l-.34,0a.48.48,0,0,0-.18,0l-.12.06a.34.34,0,0,0-.12.12.4.4,0,0,0,0,.15.43.43,0,0,0,0,.17.52.52,0,0,0,.1.11.34.34,0,0,0,.12.06l.16,0a.88.88,0,0,0,.24,0,1,1,0,0,0,.21-.1.58.58,0,0,0,.15-.16.41.41,0,0,0,.07-.23Z" transform="translate(-360.15 -277.03)"/><path class="cls-2" d="M408.7,284.76v-1.21a.64.64,0,0,0,0-.2.48.48,0,0,0-.07-.16.33.33,0,0,0-.15-.11.53.53,0,0,0-.23,0,.62.62,0,0,0-.25,0,.86.86,0,0,0-.18.16.64.64,0,0,0-.11.2.85.85,0,0,0,0,.23v1.08h-.22V282.9h.21v.27h0a.43.43,0,0,1,.11-.12l.13-.1a.46.46,0,0,1,.19-.08l.19,0a.64.64,0,0,1,.47.18.48.48,0,0,1,.14.22.9.9,0,0,1,0,.25v1.26Z" transform="translate(-360.15 -277.03)"/><path class="cls-2" d="M410.89,284.43a.6.6,0,0,1-.39.33.85.85,0,0,1-.3.05.81.81,0,0,1-.66-.28,1,1,0,0,1-.2-.67,1.1,1.1,0,0,1,.21-.7.68.68,0,0,1,.28-.23.8.8,0,0,1,.39-.08.78.78,0,0,1,.31,0,.68.68,0,0,1,.23.14.66.66,0,0,1,.12.17,1.55,1.55,0,0,1,.08.23h-.23a.56.56,0,0,0,0-.12,1,1,0,0,0-.08-.11.61.61,0,0,0-.16-.12.52.52,0,0,0-.23,0h-.15l-.12,0a.42.42,0,0,0-.12.08l-.11.12a.72.72,0,0,0-.12.25,1.32,1.32,0,0,0,0,.29,1.39,1.39,0,0,0,0,.3,1,1,0,0,0,.1.23.53.53,0,0,0,.5.25.55.55,0,0,0,.36-.11.67.67,0,0,0,.19-.33H411A.62.62,0,0,1,410.89,284.43Z" transform="translate(-360.15 -277.03)"/><path class="cls-2" d="M411.44,282.48v-.3h.21v.3Zm0,2.28V282.9h.21v1.86Z" transform="translate(-360.15 -277.03)"/><path class="cls-2" d="M413.74,284.78h-.15a.19.19,0,0,1-.1,0,.3.3,0,0,1,0-.1.57.57,0,0,1,0-.13l-.12.12a.56.56,0,0,1-.14.09.6.6,0,0,1-.21.08.72.72,0,0,1-.22,0,.88.88,0,0,1-.29,0,.46.46,0,0,1-.2-.13.71.71,0,0,1-.1-.14.65.65,0,0,1,0-.21.76.76,0,0,1,0-.21.37.37,0,0,1,.15-.19,1,1,0,0,1,.28-.13l.36-.06.24,0a.58.58,0,0,0,.17-.05.1.1,0,0,0,.07-.1v-.14a.26.26,0,0,0-.12-.24A.56.56,0,0,0,413,283a.68.68,0,0,0-.34.08.46.46,0,0,0-.18.29h-.22a.9.9,0,0,1,.08-.23.49.49,0,0,1,.14-.18.51.51,0,0,1,.22-.11,1,1,0,0,1,.32,0,1,1,0,0,1,.27,0,.72.72,0,0,1,.2.09.45.45,0,0,1,.16.2.69.69,0,0,1,0,.24v1.09a.08.08,0,0,0,0,0,.07.07,0,0,0,0,0,.07.07,0,0,0,.06,0l.1,0v.18Zm-.31-1a1.36,1.36,0,0,1-.28.08l-.34,0a.58.58,0,0,0-.19,0l-.12.06a.25.25,0,0,0-.11.12.28.28,0,0,0,0,.15.31.31,0,0,0,0,.17.31.31,0,0,0,.09.11.34.34,0,0,0,.12.06l.16,0a.88.88,0,0,0,.24,0,1,1,0,0,0,.21-.1.46.46,0,0,0,.15-.16.41.41,0,0,0,.07-.23Z" transform="translate(-360.15 -277.03)"/><path class="cls-2" d="M416.49,284.76v-1.25a.62.62,0,0,0,0-.19.34.34,0,0,0-.06-.16.42.42,0,0,0-.14-.09.66.66,0,0,0-.21,0,.41.41,0,0,0-.23.07.61.61,0,0,0-.17.15.48.48,0,0,0-.08.22,1,1,0,0,0,0,.23v1.05h-.21v-1.3a1.15,1.15,0,0,0,0-.16.26.26,0,0,0-.09-.16.37.37,0,0,0-.15-.08l-.16,0a.48.48,0,0,0-.24.06.49.49,0,0,0-.16.16.55.55,0,0,0-.1.22,1.07,1.07,0,0,0,0,.25v1h-.22V282.9h.22v.29h0a.25.25,0,0,1,.07-.12.43.43,0,0,1,.12-.11l.17-.08a.78.78,0,0,1,.22,0,.75.75,0,0,1,.23,0,.38.38,0,0,1,.15.09.31.31,0,0,1,.09.11.75.75,0,0,1,.07.12.42.42,0,0,1,.09-.14l.14-.11a.83.83,0,0,1,.34-.1.79.79,0,0,1,.28,0,.53.53,0,0,1,.2.13.39.39,0,0,1,.06.11.58.58,0,0,1,.05.14.77.77,0,0,1,0,.15.76.76,0,0,1,0,.15v1.19Z" transform="translate(-360.15 -277.03)"/><path class="cls-2" d="M417.22,282.48v-.3h.21v.3Zm0,2.28V282.9h.21v1.86Z" transform="translate(-360.15 -277.03)"/><path class="cls-2" d="M418.12,283.88a1.16,1.16,0,0,0,.05.29.76.76,0,0,0,.3.39.5.5,0,0,0,.27.05.62.62,0,0,0,.2,0,.56.56,0,0,0,.16-.07.34.34,0,0,0,.12-.12l.08-.16h.24a1,1,0,0,1-.11.23.61.61,0,0,1-.15.17.72.72,0,0,1-.21.12.9.9,0,0,1-.3.05,1.23,1.23,0,0,1-.39-.07.74.74,0,0,1-.28-.21,1,1,0,0,1-.22-.67,1.23,1.23,0,0,1,.06-.39.91.91,0,0,1,.43-.54.82.82,0,0,1,.38-.08.82.82,0,0,1,.42.1.66.66,0,0,1,.28.29.91.91,0,0,1,.1.29c0,.1,0,.22,0,.35Zm1.24-.18a.82.82,0,0,0-.18-.49.54.54,0,0,0-.42-.17.65.65,0,0,0-.29.07.52.52,0,0,0-.17.15.82.82,0,0,0-.12.2q0,.1-.06.24Z" transform="translate(-360.15 -277.03)"/><path class="cls-2" d="M421.25,284.76v-1.21a.64.64,0,0,0,0-.2.48.48,0,0,0-.07-.16.33.33,0,0,0-.15-.11.53.53,0,0,0-.23,0,.62.62,0,0,0-.25,0,.86.86,0,0,0-.18.16.47.47,0,0,0-.1.2.59.59,0,0,0,0,.23v1.08H420V282.9h.22v.27h0a.43.43,0,0,1,.11-.12l.13-.1a.46.46,0,0,1,.19-.08l.19,0a.64.64,0,0,1,.47.18.48.48,0,0,1,.14.22.9.9,0,0,1,0,.25v1.26Z" transform="translate(-360.15 -277.03)"/><path class="cls-2" d="M422.52,284.8h-.16a.31.31,0,0,1-.13,0l-.1-.06a.23.23,0,0,1-.06-.13,1.25,1.25,0,0,1,0-.21v-1.3h-.27v-.18h.27v-.51h.22v.51h.33v.18h-.33v1.35a.19.19,0,0,0,0,.08.06.06,0,0,0,0,.06.1.1,0,0,0,.05,0h.26v.17Z" transform="translate(-360.15 -277.03)"/><path class="cls-2" d="M424.58,283.83a1.2,1.2,0,0,1-.05.38,1,1,0,0,1-.18.31.8.8,0,0,1-.27.22,1,1,0,0,1-.36.07.89.89,0,0,1-.38-.08.86.86,0,0,1-.29-.22,1.05,1.05,0,0,1-.15-.3,1.59,1.59,0,0,1,0-.75.94.94,0,0,1,.17-.31.92.92,0,0,1,1-.23,1,1,0,0,1,.27.22.94.94,0,0,1,.17.31A1.17,1.17,0,0,1,424.58,283.83Zm-.24,0a1.45,1.45,0,0,0,0-.3.64.64,0,0,0-.11-.25.56.56,0,0,0-.2-.18.74.74,0,0,0-.28,0,.51.51,0,0,0-.28.07.5.5,0,0,0-.22.19.6.6,0,0,0-.1.23,1.36,1.36,0,0,0,0,.29,1.39,1.39,0,0,0,0,.3.64.64,0,0,0,.1.24.76.76,0,0,0,.21.19.73.73,0,0,0,.3.06.54.54,0,0,0,.27-.06.89.89,0,0,0,.2-.19A.91.91,0,0,0,424.34,283.82Z" transform="translate(-360.15 -277.03)"/><path class="cls-2" d="M427.4,284.76v-.34l-.11.15-.15.12a.48.48,0,0,1-.21.09.64.64,0,0,1-.2,0l-.22,0a.49.49,0,0,1-.17-.06l-.15-.09-.12-.14a.73.73,0,0,1-.14-.31,2.34,2.34,0,0,1,0-.39,1.06,1.06,0,0,1,.06-.37.87.87,0,0,1,.14-.29.71.71,0,0,1,.26-.21,1,1,0,0,1,.4-.08.73.73,0,0,1,.35.09.8.8,0,0,1,.28.27v-1h.22v2.58Zm0-.87a.93.93,0,0,0,0-.31.85.85,0,0,0-.09-.24.54.54,0,0,0-.2-.22.57.57,0,0,0-.29-.07.63.63,0,0,0-.32.07.49.49,0,0,0-.2.18.67.67,0,0,0-.09.21,1.21,1.21,0,0,0,0,.3,1,1,0,0,0,0,.3,1.09,1.09,0,0,0,.1.25.56.56,0,0,0,.49.25.55.55,0,0,0,.46-.21,1,1,0,0,0,.13-.23A.87.87,0,0,0,427.39,283.89Z" transform="translate(-360.15 -277.03)"/><path class="cls-2" d="M428.28,283.88a2,2,0,0,0,0,.29.7.7,0,0,0,.11.21.63.63,0,0,0,.19.18.56.56,0,0,0,.28.05.65.65,0,0,0,.2,0,.56.56,0,0,0,.16-.07.34.34,0,0,0,.12-.12l.08-.16h.24a1.67,1.67,0,0,1-.11.23.61.61,0,0,1-.15.17.66.66,0,0,1-.22.12.84.84,0,0,1-.29.05,1.23,1.23,0,0,1-.39-.07.78.78,0,0,1-.29-.21,1,1,0,0,1-.21-.67,1.6,1.6,0,0,1,0-.39,1.3,1.3,0,0,1,.16-.31,1,1,0,0,1,.28-.23.8.8,0,0,1,.38-.08.76.76,0,0,1,.41.1.68.68,0,0,1,.29.29.89.89,0,0,1,.09.29,3.09,3.09,0,0,1,0,.35Zm1.23-.18a.81.81,0,0,0-.17-.49.54.54,0,0,0-.42-.17.59.59,0,0,0-.29.07.71.71,0,0,0-.18.15.78.78,0,0,0-.11.2.84.84,0,0,0-.06.24Z" transform="translate(-360.15 -277.03)"/><path class="cls-2" d="M431.15,284.76v-2.58h.21v2.58Z" transform="translate(-360.15 -277.03)"/><path class="cls-2" d="M433.45,284.78h-.15a.19.19,0,0,1-.1,0,.3.3,0,0,1,0-.1.57.57,0,0,1,0-.13l-.11.12-.15.09a.6.6,0,0,1-.21.08.72.72,0,0,1-.22,0,.88.88,0,0,1-.29,0,.46.46,0,0,1-.2-.13.71.71,0,0,1-.1-.14.65.65,0,0,1,0-.21.76.76,0,0,1,0-.21.37.37,0,0,1,.15-.19,1,1,0,0,1,.28-.13l.36-.06.24,0a.58.58,0,0,0,.17-.05.1.1,0,0,0,.07-.1v-.14a.26.26,0,0,0-.12-.24.56.56,0,0,0-.35-.09.68.68,0,0,0-.34.08.46.46,0,0,0-.18.29h-.22a.9.9,0,0,1,.08-.23.49.49,0,0,1,.14-.18.51.51,0,0,1,.22-.11,1,1,0,0,1,.32,0,1,1,0,0,1,.27,0,.72.72,0,0,1,.2.09.45.45,0,0,1,.16.2.69.69,0,0,1,.05.24v1.09a.08.08,0,0,0,0,0,.07.07,0,0,0,0,0,.07.07,0,0,0,.06,0l.1,0v.18Zm-.31-1a1.36,1.36,0,0,1-.28.08l-.34,0a.58.58,0,0,0-.19,0l-.12.06a.25.25,0,0,0-.11.12.28.28,0,0,0,0,.15.31.31,0,0,0,0,.17.31.31,0,0,0,.09.11.34.34,0,0,0,.12.06l.16,0a.88.88,0,0,0,.24,0,1,1,0,0,0,.21-.1.46.46,0,0,0,.15-.16.41.41,0,0,0,.07-.23Z" transform="translate(-360.15 -277.03)"/><path class="cls-1" d="M385.77,298.39h4.29v1.36h-5.92v-7.92h5.72v1.36h-4.09V295h3.79v1.36h-3.79Z" transform="translate(-360.15 -277.03)"/><path class="cls-1" d="M394.88,299.15a1.75,1.75,0,0,1-1.62.85,2.29,2.29,0,0,1-1.83-.93,4,4,0,0,1-.63-2.17c0-1.77,1.06-3.11,2.46-3.11a1.75,1.75,0,0,1,1.62.86v-2.82h1.52v7.92h-1.52Zm-2.56-2.25c0,1.08.52,1.83,1.28,1.83s1.28-.74,1.28-1.8-.51-1.87-1.28-1.87S392.32,295.81,392.32,296.9Z" transform="translate(-360.15 -277.03)"/><path class="cls-1" d="M401.47,299.75v-.7a1.9,1.9,0,0,1-1.76.95,1.81,1.81,0,0,1-2-2v-4.08h1.52v3.76c0,.71.32,1.06,1,1.06a1.12,1.12,0,0,0,1.23-1.15v-3.67H403v5.86Z" transform="translate(-360.15 -277.03)"/><path class="cls-1" d="M408,296.08c-.17-.77-.46-1.07-1.08-1.07a1,1,0,0,0-.95.5,3.24,3.24,0,0,0-.29,1.43c0,1.15.46,1.83,1.23,1.83.6,0,.91-.29,1.09-1h1.46a2.41,2.41,0,0,1-2.55,2.28c-1.74,0-2.75-1.13-2.75-3.06s1-3.15,2.77-3.15a2.34,2.34,0,0,1,2.53,2.29Z" transform="translate(-360.15 -277.03)"/><path class="cls-1" d="M415.53,299.75h-1.65a.75.75,0,0,1-.17-.59,2.41,2.41,0,0,1-1.78.84,1.68,1.68,0,0,1-1.79-1.76c0-1.05.57-1.65,1.73-1.85l.61-.1c.75-.12.75-.12,1-.23a.53.53,0,0,0,.26-.46c0-.39-.3-.59-.88-.59-.75,0-1,.2-1.08.81h-1.46c.09-1.36.92-2,2.5-2s2.4.61,2.4,1.8v3.26a.86.86,0,0,0,.35.71ZM413.7,297a1.78,1.78,0,0,1-.64.18l-.53.1c-.63.13-.86.35-.86.81s.31.7.82.7c.77,0,1.21-.5,1.21-1.38Z" transform="translate(-360.15 -277.03)"/><path class="cls-1" d="M419.11,295h-.84v3.2c0,.52.09.64.5.64a2.24,2.24,0,0,0,.34,0v1.06a2.68,2.68,0,0,1-.88.12c-1,0-1.48-.46-1.48-1.38V295H416v-1h.75v-1.57h1.52V294h.84Z" transform="translate(-360.15 -277.03)"/><path class="cls-1" d="M421.69,293.19h-1.52v-1.36h1.52Zm0,6.56h-1.52v-5.86h1.52Z" transform="translate(-360.15 -277.03)"/><path class="cls-1" d="M424.61,299.75l-2.06-5.86h1.61l1.27,4.28,1.19-4.28h1.6l-2,5.86Z" transform="translate(-360.15 -277.03)"/><path class="cls-1" d="M434,299.75h-1.65a.75.75,0,0,1-.18-.59,2.4,2.4,0,0,1-1.78.84,1.67,1.67,0,0,1-1.78-1.76c0-1.05.57-1.65,1.73-1.85l.61-.1c.74-.12.74-.12.95-.23a.53.53,0,0,0,.26-.46c0-.39-.29-.59-.88-.59-.75,0-1,.2-1.07.81h-1.47c.1-1.36.92-2,2.51-2s2.4.61,2.4,1.8v3.26a.86.86,0,0,0,.35.71ZM432.13,297a1.72,1.72,0,0,1-.64.18l-.52.1c-.63.13-.87.35-.87.81s.32.7.83.7c.77,0,1.2-.5,1.2-1.38Z" transform="translate(-360.15 -277.03)"/><polygon class="cls-3" points="9.34 0 9.34 3.6 15.03 9.26 18.67 9.26 9.34 0"/><polygon class="cls-4" points="9.34 0 9.34 3.6 3.64 9.26 0.01 9.26 9.34 0"/><rect class="cls-5" x="5.23" y="10.27" width="3.59" height="3.59"/><rect class="cls-5" x="5.23" y="14.63" width="3.59" height="3.59"/><rect class="cls-5" x="369.84" y="287.3" width="3.59" height="3.59" transform="translate(300.59 -359.58) rotate(90)"/><rect class="cls-5" x="369.84" y="291.66" width="3.59" height="3.59" transform="translate(304.95 -355.22) rotate(90)"/><polygon class="cls-1" points="0.01 10.27 2.56 10.27 2.56 18.22 8.26 23.92 4.67 23.92 0 19.25 0.01 10.27"/><polygon class="cls-6" points="18.66 10.27 16.11 10.27 16.11 18.22 10.41 23.92 14 23.92 18.67 19.25 18.66 10.27"/><path d="M368.68,304.79a1.12,1.12,0,0,0,1.59,0l3.84-3.84h-9.27Z" transform="translate(-360.15 -277.03)"/><polygon class="cls-7" points="10.83 24.59 11.91 24.59 9.7 26.92 10.83 24.59"/></svg>