<svg id="Capa_1" data-name="Capa 1" xmlns="http://www.w3.org/2000/svg" viewBox="0 0 44.34 7.87"><defs><style>.cls-1{fill:#fff;}</style></defs><title>logo ivo</title><path class="cls-1" d="M385.58,304.74,383.64,310H381.8L380,304.74h1.73l.9,3.22a4.29,4.29,0,0,1,.18.93h0a6.39,6.39,0,0,1,.19-.9l.93-3.25Z" transform="translate(-374 -302.23)"/><path class="cls-1" d="M388.13,310.09a2.79,2.79,0,0,1-2.05-.73,2.65,2.65,0,0,1-.75-2,2.62,2.62,0,0,1,.78-2,2.92,2.92,0,0,1,2.09-.74,2.76,2.76,0,0,1,2,.74,2.55,2.55,0,0,1,.74,1.93,2.77,2.77,0,0,1-.76,2.06A2.85,2.85,0,0,1,388.13,310.09Zm0-4.24a1.06,1.06,0,0,0-.88.39,1.73,1.73,0,0,0-.32,1.11c0,1,.4,1.51,1.21,1.51s1.16-.52,1.16-1.55S389,305.85,388.17,305.85Z" transform="translate(-374 -302.23)"/><path class="cls-1" d="M393.07,308.19a.78.78,0,0,0,.15.51.58.58,0,0,0,.43.17l.26,0,.27,0v1.13l-.62.13a4.83,4.83,0,0,1-.67,0,1.59,1.59,0,0,1-.59-.1,1.39,1.39,0,0,1-.45-.31,1.31,1.31,0,0,1-.28-.49,1.83,1.83,0,0,1-.11-.64v-6.32h1.61Z" transform="translate(-374 -302.23)"/><path class="cls-1" d="M399.29,310h-1.6v-.79h0a1.83,1.83,0,0,1-1.59.92c-1.21,0-1.82-.73-1.82-2.2v-3.15h1.61v3q0,1.11.87,1.11a.9.9,0,0,0,.7-.31,1.22,1.22,0,0,0,.26-.82v-3h1.6Z" transform="translate(-374 -302.23)"/><path class="cls-1" d="M404.08,309.77a3.17,3.17,0,0,1-1.57.32,2.66,2.66,0,0,1-1.95-.73,2.5,2.5,0,0,1-.74-1.88,2.77,2.77,0,0,1,.79-2.1,3,3,0,0,1,2.14-.77,2.74,2.74,0,0,1,1.33.25v1.37a1.77,1.77,0,0,0-1.12-.38,1.47,1.47,0,0,0-1.1.4,1.53,1.53,0,0,0-.41,1.12,1.48,1.48,0,0,0,.39,1.09,1.44,1.44,0,0,0,1.07.4,2.11,2.11,0,0,0,1.17-.38Z" transform="translate(-374 -302.23)"/><path class="cls-1" d="M405.4,303.92a.9.9,0,0,1-.67-.25.79.79,0,0,1-.26-.59.76.76,0,0,1,.26-.59,1,1,0,0,1,.67-.23,1,1,0,0,1,.67.23.75.75,0,0,1,.25.59.77.77,0,0,1-.25.6A1,1,0,0,1,405.4,303.92Zm.78,4.27a.78.78,0,0,0,.15.51.58.58,0,0,0,.43.17,1.15,1.15,0,0,0,.26,0l.27,0v1.13l-.62.13a4.83,4.83,0,0,1-.67,0,1.59,1.59,0,0,1-.59-.1,1.25,1.25,0,0,1-.44-.31,1.33,1.33,0,0,1-.29-.49,1.83,1.83,0,0,1-.1-.64v-3.81h1.6Z" transform="translate(-374 -302.23)"/><path class="cls-1" d="M409.93,310.09a2.79,2.79,0,0,1-2.05-.73,2.65,2.65,0,0,1-.75-2,2.62,2.62,0,0,1,.78-2,2.9,2.9,0,0,1,2.09-.74,2.76,2.76,0,0,1,2,.74,2.59,2.59,0,0,1,.74,1.93,2.77,2.77,0,0,1-.76,2.06A2.86,2.86,0,0,1,409.93,310.09Zm0-4.24a1.1,1.1,0,0,0-.89.39,1.73,1.73,0,0,0-.31,1.11c0,1,.4,1.51,1.21,1.51s1.16-.52,1.16-1.55S410.75,305.85,410,305.85Z" transform="translate(-374 -302.23)"/><path class="cls-1" d="M418.35,310h-1.61v-2.9c0-.81-.29-1.21-.87-1.21a.87.87,0,0,0-.69.32,1.23,1.23,0,0,0-.27.82v3H413.3v-5.22h1.61v.83h0a1.86,1.86,0,0,1,1.68-1q1.74,0,1.74,2.16Z" transform="translate(-374 -302.23)"/><path class="cls-1" d="M374.93,303.92a.93.93,0,0,1-.67-.25.79.79,0,0,1-.26-.59.76.76,0,0,1,.26-.59,1,1,0,0,1,.67-.23,1,1,0,0,1,.67.23.81.81,0,0,1,0,1.19A.93.93,0,0,1,374.93,303.92Zm.78,4.27a.73.73,0,0,0,.16.51.56.56,0,0,0,.42.17,1.24,1.24,0,0,0,.27,0l.26,0v1.13l-.61.13a4.94,4.94,0,0,1-.68.05A1.54,1.54,0,0,1,375,310a1.21,1.21,0,0,1-.45-.31,1.48,1.48,0,0,1-.29-.49,1.83,1.83,0,0,1-.1-.64v-3.81h1.6Z" transform="translate(-374 -302.23)"/><path class="cls-1" d="M379,308.48a.23.23,0,0,1-.23.23h-.87a.23.23,0,0,1-.23-.24v-2.73a.23.23,0,0,1,.23-.23h.87a.23.23,0,0,1,.22.24Z" transform="translate(-374 -302.23)"/><path class="cls-1" d="M379.74,306.45a.23.23,0,0,1,.23.23v.87a.23.23,0,0,1-.23.23H377a.23.23,0,0,1-.23-.23v-.87a.23.23,0,0,1,.23-.23Z" transform="translate(-374 -302.23)"/><path class="cls-1" d="M410.76,303.46c-.3.33-.3.41-.67.42h-.56c-.14,0-.2-.09-.1-.22l.54-1.13c.19-.23.32-.29.45-.29l1.14,0c.2,0,.17.12.06.24Z" transform="translate(-374 -302.23)"/></svg>