<svg id="Capa_1" data-name="Capa 1" xmlns="http://www.w3.org/2000/svg" viewBox="0 0 31.57 37.42"><defs><style>.cls-1{fill:#fff;stroke:#174193;stroke-miterlimit:10;stroke-width:0.26px;}.cls-2{fill:#d21e18;}</style></defs><path class="cls-1" d="M371.9,276.43h17.9A5.59,5.59,0,0,1,395.4,282v25.14a0,0,0,0,1,0,0H371.9a0,0,0,0,1,0,0V276.43A0,0,0,0,1,371.9,276.43Z" transform="translate(-238.12 -390.49) rotate(20.84)"/><path class="cls-1" d="M4.05,6H22a5.59,5.59,0,0,1,5.59,5.59V36.77a0,0,0,0,1,0,0H4.05a0,0,0,0,1,0,0V6A0,0,0,0,1,4.05,6Z"/><rect class="cls-2" x="7.92" y="20.38" width="15.76" height="1.33" rx="0.66"/><rect class="cls-2" x="7.92" y="23.86" width="15.76" height="1.33" rx="0.66"/><rect class="cls-2" x="7.92" y="16.73" width="15.76" height="1.33" rx="0.66"/></svg>