<svg id="Capa_1" data-name="Capa 1" xmlns="http://www.w3.org/2000/svg" viewBox="0 0 23.75 30.99"><defs><style>.cls-1,.cls-2{fill:#fff;stroke:#174193;stroke-miterlimit:10;}.cls-1{stroke-width:0.26px;}.cls-2{stroke-width:0.29px;}.cls-3{fill:#d21e18;}</style></defs><path class="cls-1" d="M.13.13H18a5.59,5.59,0,0,1,5.59,5.59V30.86a0,0,0,0,1,0,0H.13a0,0,0,0,1,0,0V.13A0,0,0,0,1,.13.13Z"/><rect class="cls-2" x="8.96" y="8.32" width="4.92" height="4.56" rx="1.51"/><rect class="cls-2" x="8.96" y="20.55" width="4.92" height="4.56" rx="1.51"/><rect class="cls-2" x="8.96" y="14.5" width="4.92" height="4.56" rx="1.51"/><path class="cls-3" d="M387.63,280.91a49.39,49.39,0,0,0-4.69,6c-.43-.48-.87-.95-1.31-1.43s-1.42.29-.88.88l1.83,2a.64.64,0,0,0,1-.13,46.58,46.58,0,0,1,5-6.42C389.06,281.2,388.18,280.32,387.63,280.91Z" transform="translate(-371.25 -276.3)"/></svg>