<svg id="Capa_1" data-name="Capa 1" xmlns="http://www.w3.org/2000/svg" viewBox="0 0 23.75 30.99"><defs><style>.cls-1,.cls-3{fill:#fff;}.cls-1{stroke:#174193;stroke-miterlimit:10;stroke-width:0.26px;}.cls-2{fill:#d21e18;}</style></defs><path class="cls-1" d="M.13.13H18a5.59,5.59,0,0,1,5.59,5.59V30.86a0,0,0,0,1,0,0H.13a0,0,0,0,1,0,0V.13A0,0,0,0,1,.13.13Z"/><rect class="cls-2" x="4.1" y="18.63" width="15.76" height="1.33" rx="0.66"/><circle class="cls-2" cx="12.07" cy="8.02" r="3.49"/><circle class="cls-3" cx="12.07" cy="8.02" r="2.42"/><path class="cls-2" d="M386.21,292.07,385,290.75a.19.19,0,0,0-.36.11l-.28,1.76L383,287.9c-.05-.18,0-.35.13-.38l1.39-.42c.12,0,.26.08.31.25Z" transform="translate(-371.25 -276.3)"/><path class="cls-2" d="M381.63,292.27l-.27-1.75a.25.25,0,0,0-.44-.15l-1.28,1.21,1.58-4.62c.06-.19.24-.31.38-.26l1.46.5a.34.34,0,0,1,.15.45Z" transform="translate(-371.25 -276.3)"/><path class="cls-2" d="M377.41,301.59h0l-.12.1-.13.1a1.47,1.47,0,0,1-.28.14,1.66,1.66,0,0,1-.62.11,2.57,2.57,0,0,1-.62-.08l-.25-.08a.9.9,0,0,1,0,.16,1.09,1.09,0,0,1,0,.18.58.58,0,0,1,0,.18.91.91,0,0,1-.09.17.93.93,0,0,1-.14.14l-.05,0,0,0-.11,0h0l0,0,0,0a.13.13,0,0,1,0-.05s0,0,0,0v-.06s0-.06,0-.09l0-.16.09-.31.09-.3v0a.09.09,0,0,1,0-.07l0,0,.06-.18.21-.59.12-.3,0-.07,0-.07a1.09,1.09,0,0,1,.08-.15.71.71,0,0,1,.1-.14.41.41,0,0,1,.14-.12l.08-.05.12,0h.06l.06,0a.18.18,0,0,1,.06.09.36.36,0,0,1,0,.1v.09s0,.06,0,.09l0,.08a2.44,2.44,0,0,1-.14.28l-.18.27-.2.24a2.83,2.83,0,0,1-.3.3l-.06.19h0l.08,0a1.52,1.52,0,0,0,.28.09,2.47,2.47,0,0,0,.6.08,1.69,1.69,0,0,0,.58-.1,1.31,1.31,0,0,0,.48-.32h0a.06.06,0,1,1,.08.08Zm-2.45,1h0Zm.36-.52a.4.4,0,0,0,0-.15l0-.06h0l-.09.28-.09.3,0,.14h0a.37.37,0,0,0,.12-.07.38.38,0,0,0,.09-.13.53.53,0,0,0,.05-.15A.81.81,0,0,0,375.32,302.05Zm.12-.73,0,0,.1-.11a2.87,2.87,0,0,0,.36-.5,1.43,1.43,0,0,0,.13-.28l0-.06s0-.05,0-.07v-.07s0,0,0-.05l0,0H376l-.05,0a.44.44,0,0,0-.08.11.47.47,0,0,0-.07.12l-.06.13,0,.07,0,.07c0,.1-.07.2-.1.29S375.48,301.19,375.44,301.32Z" transform="translate(-371.25 -276.3)"/><path class="cls-2" d="M379.68,301.59h0l-.12.1-.13.1a1.55,1.55,0,0,1-.29.14,1.66,1.66,0,0,1-.62.11,2.57,2.57,0,0,1-.62-.08l-.25-.08a.45.45,0,0,1,0,.16.54.54,0,0,1,0,.18.61.61,0,0,1-.05.18.56.56,0,0,1-.09.17.62.62,0,0,1-.14.14l0,0-.05,0-.12,0h0l0,0,0,0s0,0,0-.05a.08.08,0,0,1,0,0v-.06s0-.06,0-.09a.75.75,0,0,1,0-.16,2.81,2.81,0,0,1,.08-.31l.1-.3v0a.06.06,0,0,1,0-.07l0,0,.06-.18a5.89,5.89,0,0,1,.21-.59c0-.1.07-.2.11-.3l0-.07a.25.25,0,0,1,0-.07,1.09,1.09,0,0,1,.08-.15.45.45,0,0,1,.1-.14.37.37,0,0,1,.13-.12l.09-.05.11,0h.06l.06,0a.31.31,0,0,1,.07.09s0,.07,0,.1a.28.28,0,0,1,0,.09.29.29,0,0,1,0,.09.31.31,0,0,1,0,.08,1.51,1.51,0,0,1-.15.28,2.53,2.53,0,0,1-.18.27l-.2.24a2.76,2.76,0,0,1-.29.3l-.07.19h0l.07,0a1.61,1.61,0,0,0,.29.09,2.33,2.33,0,0,0,.59.08,1.61,1.61,0,0,0,.58-.1,1.43,1.43,0,0,0,.49-.32h0a.06.06,0,0,1,.08,0A.05.05,0,0,1,379.68,301.59Zm-2.45,1h0Zm.35-.52a.4.4,0,0,0,0-.15l0-.06h0c0,.09-.07.19-.09.28a1.71,1.71,0,0,0-.09.3.58.58,0,0,0,0,.14h0a.24.24,0,0,0,.12-.07.38.38,0,0,0,.09-.13.33.33,0,0,0,.05-.15A.42.42,0,0,0,377.58,302.05Zm.12-.73,0,0,.11-.11a3.52,3.52,0,0,0,.36-.5,1.39,1.39,0,0,0,.12-.28.14.14,0,0,0,0-.06.2.2,0,0,0,0-.07v-.07a.08.08,0,0,0,0-.05l0,0h-.07l-.05,0a1,1,0,0,0-.08.11l-.07.12-.06.13,0,.07,0,.07c0,.1-.07.2-.11.29S377.74,301.19,377.7,301.32Z" transform="translate(-371.25 -276.3)"/><path class="cls-2" d="M382,301.61h0c-.22.09-.44.18-.67.25l-.17.05-.17,0-.35.08-.18,0-.18,0h-.19a.72.72,0,0,1-.19,0l-.05,0,0,0,0,0a.18.18,0,0,1-.07-.1.27.27,0,0,1,0-.12.37.37,0,0,1,0-.11v0h0a.11.11,0,0,1,0-.13h0l0-.05,0-.05a.86.86,0,0,1,.07-.1.12.12,0,0,1,.17,0,.12.12,0,0,1,0,.11h0a.09.09,0,0,1,0,.05v0s0,0,0,.05l0,0v0a.25.25,0,0,0,0,.07l0,.07a.6.6,0,0,0,0,.12s0,0,0,0h0l0,0a.57.57,0,0,0,.15,0h.16a2.07,2.07,0,0,0,.35,0l.34-.06.17-.05.17-.05a4,4,0,0,0,.65-.26s.06,0,.08,0A.07.07,0,0,1,382,301.61Zm-2-.44a.12.12,0,0,1,0-.17s0,0,0-.06a.11.11,0,0,1,.15-.06.12.12,0,0,1,.07.15.38.38,0,0,1-.12.17l-.07,0A.12.12,0,0,1,379.94,301.17Z" transform="translate(-371.25 -276.3)"/><path class="cls-2" d="M384.52,301.6h0a2.64,2.64,0,0,1-.46.27l-.24.1-.25.09-.26.06-.26.05-.27,0h-.28a.88.88,0,0,1-.27-.06.39.39,0,0,1-.14-.08.43.43,0,0,1-.11-.12.25.25,0,0,1,0-.07s0,0,0,0v0h0a.42.42,0,0,1,0-.16.83.83,0,0,1,0-.15.16.16,0,0,1,0-.07.18.18,0,0,1,0-.07.52.52,0,0,1,.11-.1l.07,0,.08,0h.12a.3.3,0,0,1,.1.07.31.31,0,0,1,.05.1.37.37,0,0,1,0,.11v0l0,0-.05.06a.42.42,0,0,1-.14.09.47.47,0,0,1-.16,0h-.05s0,.05,0,.08a.13.13,0,0,0,0,.08.32.32,0,0,0,.15.13.73.73,0,0,0,.22.09l.12,0H383l.26,0,.25-.05.24-.08.24-.11a2.34,2.34,0,0,0,.43-.26.06.06,0,0,1,.09,0A.06.06,0,0,1,384.52,301.6Zm-2.33-.16-.05.08h0a.17.17,0,0,0,.1,0,.18.18,0,0,0,.07-.05l0,0v0h0a0,0,0,0,0,0,0v0h0l0,0,0,0Z" transform="translate(-371.25 -276.3)"/><path class="cls-2" d="M386.8,301.61h0c-.22.09-.44.18-.67.25l-.17.05-.17,0-.35.08-.18,0-.18,0h-.18a.71.71,0,0,1-.2,0l-.05,0,0,0,0,0a.2.2,0,0,1-.08-.1.27.27,0,0,1,0-.12.37.37,0,0,1,0-.11v0h0a.11.11,0,0,1,0-.13h0l0-.05,0-.05a.86.86,0,0,1,.07-.1.11.11,0,0,1,.21.08h0a.09.09,0,0,1,0,.05v0s0,0,0,.05v0l0,0a.25.25,0,0,0,0,.07l0,.07a.26.26,0,0,0,0,.12.06.06,0,0,0,0,0h0l0,0a.57.57,0,0,0,.15,0h.17a2,2,0,0,0,.34,0,3.43,3.43,0,0,0,.34-.06l.17-.05.17-.05a4,4,0,0,0,.65-.26s.06,0,.08,0A.07.07,0,0,1,386.8,301.61Zm-2-.44a.12.12,0,0,1,0-.17s0,0,0-.06a.11.11,0,0,1,.15-.06.12.12,0,0,1,.07.15.38.38,0,0,1-.12.17l-.07,0A.12.12,0,0,1,384.77,301.17Z" transform="translate(-371.25 -276.3)"/><path class="cls-2" d="M389.29,301.61a7.54,7.54,0,0,1-.82.2,2.72,2.72,0,0,1-.42,0h-.42a.57.57,0,0,1-.22-.07.34.34,0,0,1-.09-.08h0v0a.78.78,0,0,1-.11.2s0,0,0,0l0,.05-.06,0-.08,0h0l-.05,0,0,0a.22.22,0,0,1-.05-.08.36.36,0,0,1,0-.14c0-.05,0-.09,0-.13s0,0,0-.06a.14.14,0,0,1,0-.17h0s0,0,0,0l0-.05h.06l0,0H387l0,0,0,0h0a.08.08,0,0,0,0,0v0a.11.11,0,0,1,0,.06l0,.11,0,.1s0,.07,0,.1v.1h0l0,0,0,0,.06-.08a.2.2,0,0,0,0-.08.56.56,0,0,0,0-.12.57.57,0,0,1,0-.18s0-.08,0-.12a0,0,0,0,1,0,0h0v0h.11s0,0,0,.06a.81.81,0,0,1,0,.22v0h0a.28.28,0,0,0,.12.12.49.49,0,0,0,.17.06h.41a2.71,2.71,0,0,0,.4,0,5.18,5.18,0,0,0,.8-.19h0a.06.06,0,0,1,0,.11Zm-2.43-.26h0Zm.11.56h0Z" transform="translate(-371.25 -276.3)"/><path class="cls-2" d="M391.75,301.6l-.06,0-.07,0-.15.06a1.36,1.36,0,0,1-.29.06l-.3,0-.3,0a2.24,2.24,0,0,1-.58-.14l-.22-.11v.1h0v0l0,.06a.56.56,0,0,1,0,.12.44.44,0,0,1-.08.11l-.06.05-.08,0h-.09l-.09,0a.34.34,0,0,1-.12-.12.83.83,0,0,1,0-.15.33.33,0,0,1,0-.14.13.13,0,0,1,0-.06s0-.05,0-.07l.05-.12.08-.12.06-.06,0,0,.07,0h0a.1.1,0,0,1,.12.09.1.1,0,0,1,.05,0,.27.27,0,0,1,.07.08,1.87,1.87,0,0,0,.31.17,2.61,2.61,0,0,0,.55.14,2.18,2.18,0,0,0,.57,0,1.27,1.27,0,0,0,.28-.06l.12-.05.06,0,.05,0h0a.07.07,0,0,1,.09,0A.06.06,0,0,1,391.75,301.6Zm-2.37-.29Zm.3.23a.14.14,0,0,0,0-.06l-.08-.06a.24.24,0,0,1-.06.08.21.21,0,0,1-.08.06.26.26,0,0,0,0,.11.28.28,0,0,0,0,.16.05.05,0,0,0,0,0l0,0h0a.08.08,0,0,0,.06,0,.13.13,0,0,0,.07-.06.2.2,0,0,0,0-.08l0-.05v0h0Z" transform="translate(-371.25 -276.3)"/></svg>