<svg id="Capa_1" data-name="Capa 1" xmlns="http://www.w3.org/2000/svg" viewBox="0 0 29.77 31.01"><defs><style>.cls-1,.cls-4{fill:#fff;}.cls-1,.cls-3,.cls-4{stroke:#174193;stroke-miterlimit:10;}.cls-1{stroke-width:0.26px;}.cls-2{fill:#d21e18;}.cls-3{fill:#174193;stroke-width:0.34px;}.cls-4{stroke-width:0.22px;}</style></defs><path class="cls-1" d="M.13.13H18a5.59,5.59,0,0,1,5.59,5.59V30.86a0,0,0,0,1,0,0H.13a0,0,0,0,1,0,0V.13A0,0,0,0,1,.13.13Z"/><rect class="cls-2" x="4" y="14.47" width="15.76" height="1.33" rx="0.66"/><rect class="cls-2" x="4" y="17.95" width="15.76" height="1.33" rx="0.66"/><rect class="cls-2" x="4" y="10.83" width="15.76" height="1.33" rx="0.66"/><path class="cls-3" d="M392.56,306.47h-.21a5.57,5.57,0,0,1-5.57-5.58V293l6-1.54,6,1.54v7.33A6.16,6.16,0,0,1,392.56,306.47Z" transform="translate(-369.12 -275.62)"/><path class="cls-4" d="M392.58,305.55h-.18a4.89,4.89,0,0,1-4.89-4.9V293.7l5.24-1.35L398,293.7v6.44A5.41,5.41,0,0,1,392.58,305.55Z" transform="translate(-369.12 -275.62)"/><path class="cls-2" d="M395.67,295.07a47.49,47.49,0,0,0-4.69,6l-1.32-1.43c-.54-.6-1.42.29-.88.88l1.83,2a.63.63,0,0,0,1-.12,46.76,46.76,0,0,1,5-6.42C397.09,295.36,396.21,294.47,395.67,295.07Z" transform="translate(-369.12 -275.62)"/></svg>