<svg id="Capa_1" data-name="Capa 1" xmlns="http://www.w3.org/2000/svg" viewBox="0 0 29.75 31.14"><defs><style>.cls-1,.cls-4{fill:#fff;}.cls-1,.cls-3{stroke:#174193;stroke-miterlimit:10;}.cls-1{stroke-width:0.26px;}.cls-2{fill:#d21e18;}.cls-3,.cls-5{fill:#174193;}.cls-3{stroke-width:0.34px;}</style></defs><path class="cls-1" d="M.13.13H18a5.59,5.59,0,0,1,5.59,5.59V30.86a0,0,0,0,1,0,0H.13a0,0,0,0,1,0,0V.13A0,0,0,0,1,.13.13Z"/><rect class="cls-2" x="4" y="14.47" width="15.76" height="1.33" rx="0.66"/><rect class="cls-2" x="4" y="17.95" width="15.76" height="1.33" rx="0.66"/><rect class="cls-2" x="4" y="10.83" width="15.76" height="1.33" rx="0.66"/><circle class="cls-3" cx="23.35" cy="24.74" r="6.22"/><circle class="cls-4" cx="23.35" cy="24.74" r="5.39"/><path class="cls-5" d="M393.52,301.86a.84.84,0,0,0-.24-.61,2.34,2.34,0,0,0-.82-.44,3.56,3.56,0,0,1-1.38-.74,1.6,1.6,0,0,1-.46-1.2,1.66,1.66,0,0,1,.44-1.19,1.87,1.87,0,0,1,1.2-.54v-.94H393v.95a1.7,1.7,0,0,1,1.16.59,2,2,0,0,1,.41,1.31v0h-1a1.22,1.22,0,0,0-.24-.79.85.85,0,0,0-.68-.29.92.92,0,0,0-.68.23.89.89,0,0,0-.22.64.79.79,0,0,0,.23.59,2.37,2.37,0,0,0,.85.46,3.39,3.39,0,0,1,1.36.74,1.56,1.56,0,0,1,.46,1.2,1.63,1.63,0,0,1-.46,1.2,2,2,0,0,1-1.25.52v.85h-.69v-.84a2.14,2.14,0,0,1-1.28-.55,1.77,1.77,0,0,1-.49-1.39v0h1a1,1,0,0,0,.3.85,1.16,1.16,0,0,0,.77.26,1.12,1.12,0,0,0,.75-.23A.81.81,0,0,0,393.52,301.86Z" transform="translate(-369.13 -275.56)"/></svg>