<svg id="Capa_1" data-name="Capa 1" xmlns="http://www.w3.org/2000/svg" viewBox="0 0 23.75 30.99"><defs><style>.cls-1,.cls-4{fill:#fff;}.cls-1{stroke:#174193;stroke-miterlimit:10;stroke-width:0.26px;}.cls-2{fill:#d21e18;}.cls-3{fill:#174193;}</style></defs><path class="cls-1" d="M.13.13H18a5.59,5.59,0,0,1,5.59,5.59V30.86a0,0,0,0,1,0,0H.13a0,0,0,0,1,0,0V.13A0,0,0,0,1,.13.13Z"/><rect class="cls-2" x="4" y="20.47" width="15.76" height="1.33" rx="0.66"/><rect class="cls-2" x="4" y="23.95" width="15.76" height="1.33" rx="0.66"/><rect class="cls-2" x="4" y="16.83" width="15.76" height="1.33" rx="0.66"/><path class="cls-3" d="M387.94,280.9h-7.87a2.22,2.22,0,0,0-2.22,2.22v3.26a2.23,2.23,0,0,0,2.22,2.22h2.1l.85.8,1,.93,1-.93.85-.8h2.1a2.22,2.22,0,0,0,2.22-2.22v-3.26A2.21,2.21,0,0,0,387.94,280.9Z" transform="translate(-372.13 -275.64)"/><path class="cls-4" d="M384.87,287h-.76v-3.88h-1v-.6l1.73-.17Z" transform="translate(-372.13 -275.64)"/></svg>