<svg id="Capa_1" data-name="Capa 1" xmlns="http://www.w3.org/2000/svg" viewBox="0 0 30.02 30.99"><defs><style>.cls-1,.cls-2,.cls-5{fill:#fff;}.cls-1,.cls-2,.cls-4{stroke:#174193;stroke-miterlimit:10;}.cls-1{stroke-width:0.26px;}.cls-2{stroke-width:0.29px;}.cls-3{fill:#d21e18;}.cls-4{fill:#174193;stroke-width:0.34px;}</style></defs><path class="cls-1" d="M.13.13H18a5.59,5.59,0,0,1,5.59,5.59V30.86a0,0,0,0,1,0,0H.13a0,0,0,0,1,0,0V.13A0,0,0,0,1,.13.13Z"/><rect class="cls-2" x="8.96" y="9.32" width="4.92" height="4.56" rx="1.51"/><rect class="cls-2" x="8.96" y="16.11" width="4.92" height="4.56" rx="1.51"/><path class="cls-3" d="M385.39,281.25a47.49,47.49,0,0,0-4.69,6l-1.31-1.43c-.55-.6-1.43.29-.89.88l1.83,2a.63.63,0,0,0,1-.12,46.76,46.76,0,0,1,5-6.42C386.81,281.54,385.93,280.65,385.39,281.25Z" transform="translate(-369 -275.64)"/><path class="cls-3" d="M385.39,288a47.39,47.39,0,0,0-4.69,6l-1.31-1.42c-.55-.6-1.43.29-.89.88l1.83,2a.63.63,0,0,0,1-.12,46.76,46.76,0,0,1,5-6.42C386.81,288.33,385.93,287.44,385.39,288Z" transform="translate(-369 -275.64)"/><circle class="cls-4" cx="23.63" cy="24.5" r="6.22"/><circle class="cls-5" cx="23.63" cy="24.5" r="5.39"/><path class="cls-3" d="M396,302.24c-.81-.78-1.61-1.57-2.41-2.36l1.92-1.91a.57.57,0,0,0-.81-.81l-1.92,1.93-2.25-2.22c-.52-.51-1.33.29-.8.81l2.25,2.21-2.7,2.69a.57.57,0,0,0,.81.81l2.7-2.71,2.4,2.37A.57.57,0,0,0,396,302.24Z" transform="translate(-369 -275.64)"/></svg>