<svg id="Capa_1" data-name="Capa 1" xmlns="http://www.w3.org/2000/svg" viewBox="0 0 30.02 30.99"><defs><style>.cls-1,.cls-3{fill:#fff;}.cls-1,.cls-4{stroke:#174193;stroke-miterlimit:10;}.cls-1{stroke-width:0.26px;}.cls-2{fill:#d21e18;}.cls-4{fill:#174193;stroke-width:0.34px;}.cls-5{fill:#143263;}</style></defs><path class="cls-1" d="M.13.13H18a5.59,5.59,0,0,1,5.59,5.59V30.86a0,0,0,0,1,0,0H.13a0,0,0,0,1,0,0V.13A0,0,0,0,1,.13.13Z"/><rect class="cls-2" x="4.1" y="18.63" width="15.76" height="1.33" rx="0.66"/><rect class="cls-2" x="4.1" y="14.83" width="15.76" height="1.33" rx="0.66"/><rect class="cls-2" x="4.1" y="10.94" width="15.76" height="1.33" rx="0.66"/><circle class="cls-3" cx="12.07" cy="8.02" r="2.42"/><circle class="cls-4" cx="23.63" cy="24.5" r="6.22"/><circle class="cls-3" cx="23.63" cy="24.5" r="5.39"/><polygon class="cls-5" points="18.36 30.7 17.63 30.52 17.4 29.74 23.19 23.95 24.15 24.91 18.36 30.7"/><rect class="cls-5" x="391.82" y="299.23" width="1.65" height="1.72" transform="translate(-466.19 89.88) rotate(-45)"/><rect class="cls-5" x="392.34" y="296.44" width="2.73" height="5.17" transform="translate(-465.13 90.33) rotate(-45)"/><rect class="cls-5" x="390.18" y="296.4" width="3.38" height="1.57" transform="translate(-464.36 88.5) rotate(-45)"/><rect class="cls-5" x="393.86" y="300.08" width="3.38" height="1.57" transform="translate(-465.89 92.18) rotate(-45)"/><rect class="cls-5" x="393.54" y="296.78" width="1.17" height="3.66" transform="translate(-464.71 90.51) rotate(-45)"/><rect class="cls-5" x="393.85" y="296.99" width="0.14" height="2.12" transform="translate(-464.37 90.2) rotate(-45)"/><rect class="cls-5" x="391.7" y="299.82" width="0.59" height="0.13" transform="translate(-466.24 89.38) rotate(-45)"/><rect class="cls-5" x="390.43" y="296.29" width="2.87" height="1.08" transform="translate(-464.11 88.39) rotate(-45)"/><rect class="cls-5" x="394.24" y="300.24" width="2.87" height="0.79" transform="translate(-465.69 92.2) rotate(-45)"/><rect class="cls-5" x="391.62" y="296.18" width="1.16" height="0.12" transform="translate(-463.6 88.46) rotate(-45)"/><rect class="cls-5" x="395.79" y="299.89" width="0.77" height="0.11" transform="translate(-465.05 92.36) rotate(-45)"/><polygon class="cls-5" points="17.4 29.74 17.63 30.52 17.87 30.58 22.98 25.48 22.32 24.82 17.4 29.74"/></svg>