<svg id="Capa_1" data-name="Capa 1" xmlns="http://www.w3.org/2000/svg" viewBox="0 0 30.81 31.81"><defs><style>.cls-1,.cls-4{fill:#fff;}.cls-1,.cls-3{stroke:#174193;stroke-miterlimit:10;}.cls-1{stroke-width:0.26px;}.cls-2{fill:#d21e18;}.cls-3{fill:#174193;stroke-width:0.34px;}</style></defs><path class="cls-1" d="M.13.13H18a5.59,5.59,0,0,1,5.59,5.59V30.86a0,0,0,0,1,0,0H.13a0,0,0,0,1,0,0V.13A0,0,0,0,1,.13.13Z"/><rect class="cls-2" x="4" y="11.47" width="15.76" height="1.33" rx="0.66"/><rect class="cls-2" x="4" y="14.95" width="15.76" height="1.33" rx="0.66"/><rect class="cls-2" x="4" y="18.62" width="15.76" height="1.33" rx="0.66"/><rect class="cls-2" x="4" y="22.09" width="15.76" height="1.33" rx="0.66"/><rect class="cls-2" x="4" y="7.83" width="15.76" height="1.33" rx="0.66"/><circle class="cls-3" cx="23.63" cy="24.63" r="6.22"/><circle class="cls-4" cx="23.63" cy="24.63" r="5.39"/><path class="cls-3" d="M393.74,305.49a5.86,5.86,0,1,1,4.14-7.17A5.87,5.87,0,0,1,393.74,305.49Zm-3-11.15a5.69,5.69,0,1,0,7,4A5.68,5.68,0,0,0,390.75,294.34Z" transform="translate(-368.6 -275.22)"/><path class="cls-3" d="M398.88,298.05h0a.44.44,0,0,1-.18-.56.45.45,0,0,0-.25-.6.45.45,0,0,1-.28-.52.44.44,0,0,0-.35-.54.45.45,0,0,1-.36-.47.45.45,0,0,0-.45-.47.45.45,0,0,1-.44-.39.46.46,0,0,0-.52-.39h0a.44.44,0,0,1-.5-.3.46.46,0,0,0-.58-.29.44.44,0,0,1-.55-.21.46.46,0,0,0-.63-.17.46.46,0,0,1-.58-.11.44.44,0,0,0-.64-.07.44.44,0,0,1-.59,0,.44.44,0,0,0-.64.05.44.44,0,0,1-.58.1.46.46,0,0,0-.63.17.44.44,0,0,1-.55.2.46.46,0,0,0-.59.28.45.45,0,0,1-.51.3.43.43,0,0,0-.52.37.45.45,0,0,1-.45.39.44.44,0,0,0-.45.46.45.45,0,0,1-.37.46.45.45,0,0,0-.36.54.46.46,0,0,1-.29.52.43.43,0,0,0-.25.59.46.46,0,0,1-.19.56h0a.45.45,0,0,0-.15.63.44.44,0,0,1-.08.58.45.45,0,0,0,0,.65.43.43,0,0,1,0,.59.44.44,0,0,0,.09.64.45.45,0,0,1,.12.58h0a.44.44,0,0,0,.2.61.46.46,0,0,1,.23.55.44.44,0,0,0,.3.57h0a.44.44,0,0,1,.32.49.44.44,0,0,0,.4.51.44.44,0,0,1,.4.43.45.45,0,0,0,.49.43.44.44,0,0,1,.47.35h0a.46.46,0,0,0,.56.34.45.45,0,0,1,.53.26.44.44,0,0,0,.6.23.45.45,0,0,1,.57.16.44.44,0,0,0,.63.12h0a.45.45,0,0,1,.59.06.45.45,0,0,0,.65,0,.44.44,0,0,1,.58-.05.44.44,0,0,0,.64-.11.46.46,0,0,1,.57-.15.45.45,0,0,0,.61-.22.45.45,0,0,1,.53-.26.44.44,0,0,0,.56-.32.46.46,0,0,1,.48-.35.44.44,0,0,0,.49-.42.45.45,0,0,1,.41-.42.45.45,0,0,0,.41-.5h0a.44.44,0,0,1,.33-.49.46.46,0,0,0,.31-.57h0a.44.44,0,0,1,.23-.54.46.46,0,0,0,.21-.62.44.44,0,0,1,.13-.57.44.44,0,0,0,.09-.64.47.47,0,0,1,0-.59.45.45,0,0,0,0-.65.43.43,0,0,1-.07-.58A.45.45,0,0,0,398.88,298.05Zm-5.08,7.68a6.11,6.11,0,1,1,4.32-7.48A6.1,6.1,0,0,1,393.8,305.73Z" transform="translate(-368.6 -275.22)"/><path class="cls-3" d="M393.17,303.37a3.67,3.67,0,1,1,2.59-4.49A3.67,3.67,0,0,1,393.17,303.37Zm-1.85-6.91a3.49,3.49,0,1,0,4.28,2.47A3.51,3.51,0,0,0,391.32,296.46Z" transform="translate(-368.6 -275.22)"/><path class="cls-2" d="M396.85,293.61a50.19,50.19,0,0,0-4.69,6l-1.31-1.43c-.54-.59-1.42.29-.88.89l1.83,2a.63.63,0,0,0,1-.13,45.9,45.9,0,0,1,5-6.41C398.28,293.91,397.4,293,396.85,293.61Z" transform="translate(-368.6 -275.22)"/></svg>