<svg xmlns="http://www.w3.org/2000/svg" viewBox="0 0 15.63 14.42"><defs><style>.cls-1{fill:#fff;}</style></defs><g id="Capa_2" data-name="Capa 2"><g id="Capa_1-2" data-name="Capa 1"><path class="cls-1" d="M13.63,5h-.14A5.76,5.76,0,0,0,2.08,5H2A1.83,1.83,0,0,0,0,6.57v6.27a1.83,1.83,0,0,0,2,1.58H13.63a1.83,1.83,0,0,0,2-1.58V6.57A1.83,1.83,0,0,0,13.63,5ZM7.78.91A4.85,4.85,0,0,1,12.56,5H3A4.86,4.86,0,0,1,7.78.91ZM3.74,11A.94.94,0,1,1,4.68,10,.94.94,0,0,1,3.74,11Zm4.2,0A.94.94,0,1,1,8.88,10,.94.94,0,0,1,7.94,11Zm4,0a.94.94,0,1,1,.94-.94A.94.94,0,0,1,12,11Z"/></g></g></svg>