<svg xmlns="http://www.w3.org/2000/svg" viewBox="0 0 15.08 17.86"><defs><style>.cls-1{fill:#fff;}</style></defs><g id="Capa_2" data-name="Capa 2"><g id="Capa_1-2" data-name="Capa 1"><path class="cls-1" d="M10.16,3.48h0a.5.5,0,0,0-.28.5.51.51,0,0,0,.28.51h0A6.57,6.57,0,0,1,14,10.34a6.5,6.5,0,0,1-4.25,6A6.42,6.42,0,0,1,4.93,4.48h0A.49.49,0,0,0,5.2,4a.49.49,0,0,0-.27-.48h0c-.1,0-.2.09-.3.13a7.13,7.13,0,0,0-2.75,2,7.35,7.35,0,0,0,7,11.89,7.43,7.43,0,0,0,6-7.22A7.43,7.43,0,0,0,10.16,3.48Z"/><path class="cls-1" d="M10.36,3.48h0a.2.2,0,0,0-.3-.17h.2a.2.2,0,0,0-.3.17c0-.25-.28.36-.28.51a.76.76,0,0,0,.38.69.2.2,0,0,0,.3-.18h0l-.3.18a6.41,6.41,0,0,1,3.61,4.71,6.3,6.3,0,0,1-2.14,5.73A6.27,6.27,0,0,1,1.35,10.92,6.28,6.28,0,0,1,5,4.65a.21.21,0,0,0,.1-.17c0,.24.27-.34.27-.49s-.27-.72-.27-.49a.2.2,0,0,0-.3-.17A7.94,7.94,0,0,0,1.42,5.92,7.65,7.65,0,0,0,0,10a7.51,7.51,0,0,0,3.86,6.92,7.6,7.6,0,0,0,7.71-.22,7.75,7.75,0,0,0,3.5-6.57,7.74,7.74,0,0,0-4.87-6.85c-.24-.09-.34.29-.1.39a7.29,7.29,0,0,1,4.49,5.7,7.22,7.22,0,0,1-2.5,6.45,7.14,7.14,0,0,1-11.69-5A7.35,7.35,0,0,1,1.52,6.48,7.52,7.52,0,0,1,5,3.67l-.3-.17h0a.18.18,0,0,0,.1.17.36.36,0,0,1,0,.62.18.18,0,0,0-.1.17c0-.16-1.26.65-1.42.78A6.66,6.66,0,0,0,2,6.75a6.55,6.55,0,0,0-1,3.33,6.63,6.63,0,0,0,3.28,6,6.7,6.7,0,0,0,6.68,0,6.77,6.77,0,0,0,3.26-5.5,6.78,6.78,0,0,0-3.89-6.23.2.2,0,0,0-.3.17h0l.3-.17c-.51-.31.1-.55.1-.85l-.3.18a.2.2,0,0,0,.2,0L10,3.47h0A.2.2,0,0,0,10.36,3.48Z"/><rect class="cls-1" x="6.86" y="0.2" width="1.23" height="7.81" rx="0.61"/><path class="cls-1" d="M7.47,7.81c-.49,0-.41-.59-.41-.91V1.53a3.06,3.06,0,0,1,0-.8c.14-.51.77-.35.81.12,0,.11,0,.22,0,.33v5.5c0,.38.13,1.09-.42,1.13-.25,0-.25.42,0,.4.64-.05.82-.54.82-1.08V1.18c0-.47,0-1-.57-1.14S6.67.39,6.66,1c0,1.3,0,2.61,0,3.92V7c0,.54.11,1.19.81,1.19A.2.2,0,0,0,7.47,7.81Z"/></g></g></svg>