<svg xmlns="http://www.w3.org/2000/svg" viewBox="0 0 15.13 17.92"><defs><style>.cls-1{fill:#eaeaea;}.cls-2{fill:#fff;}</style></defs><g id="Capa_2" data-name="Capa 2"><g id="Capa_1-2" data-name="Capa 1"><path class="cls-1" d="M10.66,17.92l-.14-.06L0,13.86,5.28,0l8.05,3.06a2.83,2.83,0,0,1,1.55,1.47,2.74,2.74,0,0,1,.06,2.14ZM.38,13.69l10.11,3.85,4.18-11a2.5,2.5,0,0,0-1.45-3.22L5.44.38Z"/><path class="cls-2" d="M11.23,1.92H2.17V17.47H14.06V4.75A2.83,2.83,0,0,0,11.23,1.92Zm.54,9.69H4.46a.34.34,0,0,1,0-.67h7.31a.34.34,0,0,1,0,.67Zm0-1.76H4.46a.34.34,0,0,1,0-.67h7.31a.34.34,0,0,1,0,.67Zm0-1.85H4.46a.34.34,0,0,1,0-.67h7.31a.34.34,0,0,1,0,.67Z"/></g></g></svg>