<svg xmlns="http://www.w3.org/2000/svg" viewBox="0 0 37.94 31.06"><defs><style>.cls-1,.cls-4{fill:#fff;}.cls-1,.cls-3{stroke:#174193;stroke-miterlimit:10;}.cls-1{stroke-width:0.26px;}.cls-2{fill:#d21e18;}.cls-3,.cls-5{fill:#174193;}.cls-3{stroke-width:0.34px;}</style></defs><g id="Capa_2" data-name="Capa 2"><g id="Capa_1-2" data-name="Capa 1"><path class="cls-1" d="M6.05.13H23.92a5.59,5.59,0,0,1,5.59,5.59h0V30.86H6.05V.13Z"/><rect class="cls-2" x="9.92" y="20.47" width="15.76" height="1.33" rx="0.66"/><rect class="cls-2" x="9.92" y="23.95" width="15.76" height="1.33" rx="0.66"/><rect class="cls-2" x="9.92" y="16.83" width="15.76" height="1.33" rx="0.66"/><circle class="cls-3" cx="29.84" cy="24.67" r="6.22"/><circle class="cls-4" cx="29.84" cy="24.67" r="5.39"/><path class="cls-2" d="M36.45,17.29a67.54,67.54,0,0,0-6.67,8.49l-1.86-2c-.78-.84-2,.41-1.26,1.26l2.6,2.83a.9.9,0,0,0,1.39-.18,67,67,0,0,1,7.05-9.12C38.47,17.7,37.22,16.44,36.45,17.29Z"/><path class="cls-5" d="M18.41,10.61a.84.84,0,0,0-.24-.61,2.25,2.25,0,0,0-.82-.44A3.44,3.44,0,0,1,16,8.82a1.57,1.57,0,0,1-.46-1.21A1.62,1.62,0,0,1,16,6.43a1.86,1.86,0,0,1,1.19-.54V4.94h.69v1A1.74,1.74,0,0,1,19,6.49a2,2,0,0,1,.4,1.31v0h-1A1.2,1.2,0,0,0,18.14,7a.83.83,0,0,0-.68-.29.79.79,0,0,0-.89.87.8.8,0,0,0,.22.59,2.76,2.76,0,0,0,.85.46A3.44,3.44,0,0,1,19,9.4a1.59,1.59,0,0,1,.45,1.2A1.58,1.58,0,0,1,19,11.79a2,2,0,0,1-1.26.53v.84h-.68v-.83a2.18,2.18,0,0,1-1.28-.55,1.77,1.77,0,0,1-.49-1.39v0h1a1,1,0,0,0,.31.85,1.13,1.13,0,0,0,.76.26,1.15,1.15,0,0,0,.76-.23A.84.84,0,0,0,18.41,10.61Z"/><circle class="cls-3" cx="6.4" cy="24.67" r="6.22"/><circle class="cls-4" cx="6.4" cy="24.67" r="5.39"/><g id="tNrt32"><path class="cls-2" d="M10.6,24.65a4.87,4.87,0,0,1-2.75,2.17,4.39,4.39,0,0,1-4.17-.71A4.71,4.71,0,0,1,2.52,25a2.43,2.43,0,0,1-.2-.35v-.18a4.86,4.86,0,0,1,2.54-2.1,4.3,4.3,0,0,1,4,.39A4.94,4.94,0,0,1,10.28,24a5,5,0,0,1,.32.53Zm-4.14-2.1a3.66,3.66,0,0,0-1.27.23A5.09,5.09,0,0,0,3,24.35c-.12.15-.14.27,0,.41a9.78,9.78,0,0,0,.8.78,4,4,0,0,0,4.41.62A5,5,0,0,0,10,24.74a.23.23,0,0,0,0-.35,8.73,8.73,0,0,0-.81-.8A4.33,4.33,0,0,0,6.46,22.55Z"/><path class="cls-2" d="M6.45,26.06A1.5,1.5,0,1,1,8,24.6,1.49,1.49,0,0,1,6.45,26.06Zm-.39-2.77a.64.64,0,1,0,0,1.27.66.66,0,0,0,.65-.62A.64.64,0,0,0,6.06,23.29Z"/></g></g></g></svg>