<svg xmlns="http://www.w3.org/2000/svg" viewBox="0 0 30.02 31.03"><defs><style>.cls-1,.cls-2,.cls-5{fill:#fff;}.cls-1,.cls-2,.cls-4{stroke:#174193;stroke-miterlimit:10;}.cls-1{stroke-width:0.26px;}.cls-2{stroke-width:0.29px;}.cls-3{fill:#d21e18;}.cls-4,.cls-6{fill:#174193;}.cls-4{stroke-width:0.34px;}</style></defs><g id="Capa_2" data-name="Capa 2"><g id="Capa_1-2" data-name="Capa 1"><path class="cls-1" d="M.13.13H18a5.59,5.59,0,0,1,5.59,5.59V30.86a0,0,0,0,1,0,0H.13a0,0,0,0,1,0,0V.13A0,0,0,0,1,.13.13Z"/><rect class="cls-2" x="9.75" y="7.19" width="4.92" height="4.56" rx="1.51"/><path class="cls-3" d="M17.18,3.49a48.42,48.42,0,0,0-4.69,6c-.44-.48-.87-1-1.31-1.43s-1.43.29-.88.88,1.21,1.33,1.82,2a.63.63,0,0,0,1-.12,47.56,47.56,0,0,1,5-6.42C18.61,3.78,17.73,2.89,17.18,3.49Z"/><rect class="cls-2" x="9.75" y="13.95" width="4.92" height="4.56" rx="1.51"/><path class="cls-3" d="M17.18,10.24a48.42,48.42,0,0,0-4.69,6l-1.31-1.43c-.55-.59-1.43.29-.88.88s1.21,1.33,1.82,2a.64.64,0,0,0,1-.13,48.19,48.19,0,0,1,5-6.42C18.61,10.53,17.73,9.65,17.18,10.24Z"/><rect class="cls-2" x="9.75" y="20.92" width="4.92" height="4.56" rx="1.51"/><path class="cls-3" d="M17.18,17.21a49.18,49.18,0,0,0-4.69,6c-.44-.47-.87-1-1.31-1.43s-1.43.3-.88.89l1.82,2a.63.63,0,0,0,1-.13,47.46,47.46,0,0,1,5-6.41C18.61,17.51,17.73,16.62,17.18,17.21Z"/><circle class="cls-4" cx="23.63" cy="24.64" r="6.22"/><circle class="cls-5" cx="23.63" cy="24.64" r="5.39"/><path class="cls-6" d="M24.66,26.19a.81.81,0,0,0-.24-.6,2.34,2.34,0,0,0-.82-.45,3.56,3.56,0,0,1-1.38-.73,1.81,1.81,0,0,1,0-2.39,1.88,1.88,0,0,1,1.2-.55v-.94h.69v.95a1.71,1.71,0,0,1,1.16.6,1.94,1.94,0,0,1,.41,1.31v0h-1a1.23,1.23,0,0,0-.24-.8.85.85,0,0,0-.68-.29.8.8,0,0,0-.9.87.81.81,0,0,0,.23.6,2.38,2.38,0,0,0,.85.45,3.52,3.52,0,0,1,1.36.74,1.58,1.58,0,0,1,.46,1.21,1.62,1.62,0,0,1-.46,1.19,2,2,0,0,1-1.25.53v.84h-.69v-.84A2.09,2.09,0,0,1,22,27.36,1.74,1.74,0,0,1,21.54,26v0h1a1.08,1.08,0,0,0,.3.86,1.15,1.15,0,0,0,.77.25,1.07,1.07,0,0,0,.75-.23A.81.81,0,0,0,24.66,26.19Z"/><path class="cls-6" d="M7,10a.44.44,0,0,0-.13-.33,1.16,1.16,0,0,0-.45-.24A1.82,1.82,0,0,1,5.65,9a.86.86,0,0,1-.25-.66.92.92,0,0,1,.24-.65,1,1,0,0,1,.65-.3V6.91h.38v.52a.94.94,0,0,1,.64.32,1.12,1.12,0,0,1,.22.72H7a.65.65,0,0,0-.14-.43.43.43,0,0,0-.37-.16A.48.48,0,0,0,6.09,8,.5.5,0,0,0,6,8.37a.41.41,0,0,0,.13.32,1.11,1.11,0,0,0,.46.25,2,2,0,0,1,.75.41.86.86,0,0,1,.25.66.89.89,0,0,1-.25.65,1.09,1.09,0,0,1-.69.29v.46H6.24V11a1.09,1.09,0,0,1-.7-.3,1,1,0,0,1-.26-.76h.56a.58.58,0,0,0,.16.47.64.64,0,0,0,.42.14.6.6,0,0,0,.42-.13A.45.45,0,0,0,7,10Z"/><path class="cls-6" d="M7,17.08a.44.44,0,0,0-.13-.33,1.3,1.3,0,0,0-.45-.25,1.82,1.82,0,0,1-.75-.4.86.86,0,0,1-.25-.66.9.9,0,0,1,.24-.65,1,1,0,0,1,.65-.3V14h.38v.52a1,1,0,0,1,.64.33,1.09,1.09,0,0,1,.22.72H7a.63.63,0,0,0-.14-.43A.43.43,0,0,0,6.46,15a.48.48,0,0,0-.37.13.47.47,0,0,0-.12.34.42.42,0,0,0,.13.33,1.24,1.24,0,0,0,.46.25,2,2,0,0,1,.75.4,1,1,0,0,1,0,1.32,1.15,1.15,0,0,1-.69.29v.46H6.24V18a1.21,1.21,0,0,1-.7-.3A1,1,0,0,1,5.28,17h.56a.59.59,0,0,0,.16.47.64.64,0,0,0,.42.14.66.66,0,0,0,.42-.13A.47.47,0,0,0,7,17.08Z"/><path class="cls-6" d="M7,24.05a.44.44,0,0,0-.13-.33,1.16,1.16,0,0,0-.45-.24,1.82,1.82,0,0,1-.75-.41.86.86,0,0,1-.25-.66.92.92,0,0,1,.24-.65,1,1,0,0,1,.65-.3V21h.38v.52a.94.94,0,0,1,.64.32,1.12,1.12,0,0,1,.22.72H7a.65.65,0,0,0-.14-.43.43.43,0,0,0-.37-.16.48.48,0,0,0-.37.13.5.5,0,0,0-.12.35.41.41,0,0,0,.13.32,1.11,1.11,0,0,0,.46.25,2,2,0,0,1,.75.41.86.86,0,0,1,.25.66.89.89,0,0,1-.25.65,1.09,1.09,0,0,1-.69.29v.46H6.24V25a1.09,1.09,0,0,1-.7-.3,1,1,0,0,1-.26-.76h.56a.58.58,0,0,0,.16.47.64.64,0,0,0,.42.14.6.6,0,0,0,.42-.13A.45.45,0,0,0,7,24.05Z"/></g></g></svg>