<svg xmlns="http://www.w3.org/2000/svg" viewBox="0 0 37.53 31.06"><defs><style>.cls-1,.cls-2,.cls-5{fill:#fff;}.cls-1,.cls-2,.cls-4{stroke:#174193;stroke-miterlimit:10;}.cls-1{stroke-width:0.26px;}.cls-2{stroke-width:0.29px;}.cls-3,.cls-4{fill:#174193;}.cls-4{stroke-width:0.34px;}.cls-6{fill:#d21e18;}</style></defs><g id="Capa_2" data-name="Capa 2"><g id="Capa_1-2" data-name="Capa 1"><path class="cls-1" d="M6.4.13H24.3a5.59,5.59,0,0,1,5.59,5.59V30.86a0,0,0,0,1,0,0H6.4a0,0,0,0,1,0,0V.13A0,0,0,0,1,6.4.13Z"/><rect class="cls-2" x="15.65" y="4.64" width="4.92" height="4.56" rx="1.51"/><rect class="cls-2" x="9.05" y="4.64" width="4.92" height="4.56" rx="1.51"/><rect class="cls-2" x="22.14" y="4.64" width="4.92" height="4.56" rx="1.51"/><circle class="cls-3" cx="11.51" cy="6.92" r="1.4"/><circle class="cls-3" cx="18.11" cy="6.92" r="1.4"/><circle class="cls-3" cx="24.6" cy="6.92" r="1.4"/><rect class="cls-2" x="15.65" y="10.52" width="4.92" height="4.56" rx="1.51"/><rect class="cls-2" x="9.05" y="10.52" width="4.92" height="4.56" rx="1.51"/><rect class="cls-2" x="22.14" y="10.52" width="4.92" height="4.56" rx="1.51"/><circle class="cls-3" cx="11.51" cy="12.81" r="1.4"/><circle class="cls-3" cx="18.11" cy="12.81" r="1.4"/><circle class="cls-3" cx="24.6" cy="12.81" r="1.4"/><rect class="cls-2" x="15.65" y="16.3" width="4.92" height="4.56" rx="1.51"/><rect class="cls-2" x="9.05" y="16.3" width="4.92" height="4.56" rx="1.51"/><rect class="cls-2" x="22.14" y="16.3" width="4.92" height="4.56" rx="1.51"/><circle class="cls-3" cx="11.51" cy="18.58" r="1.4"/><circle class="cls-3" cx="18.11" cy="18.58" r="1.4"/><circle class="cls-3" cx="24.6" cy="18.58" r="1.4"/><rect class="cls-2" x="15.65" y="22.04" width="4.92" height="4.56" rx="1.51"/><rect class="cls-2" x="9.05" y="22.04" width="4.92" height="4.56" rx="1.51"/><rect class="cls-2" x="22.14" y="22.04" width="4.92" height="4.56" rx="1.51"/><circle class="cls-3" cx="11.51" cy="24.33" r="1.4"/><circle class="cls-3" cx="18.11" cy="24.33" r="1.4"/><circle class="cls-3" cx="24.6" cy="24.33" r="1.4"/><circle class="cls-4" cx="29.42" cy="24.66" r="6.22"/><circle class="cls-5" cx="29.42" cy="24.66" r="5.39"/><circle class="cls-4" cx="6.4" cy="24.66" r="6.22"/><circle class="cls-5" cx="6.4" cy="24.66" r="5.39"/><g id="tNrt32"><path class="cls-6" d="M10.6,24.65a4.82,4.82,0,0,1-2.75,2.16,4.39,4.39,0,0,1-4.17-.71A4.37,4.37,0,0,1,2.52,25a3,3,0,0,1-.2-.34v-.19a4.8,4.8,0,0,1,2.54-2.09,4.29,4.29,0,0,1,4,.38A4.83,4.83,0,0,1,10.28,24a3.55,3.55,0,0,1,.32.53ZM6.46,22.54a3.66,3.66,0,0,0-1.27.23A5.19,5.19,0,0,0,3,24.35a.25.25,0,0,0,0,.4c.27.26.51.56.8.79a4,4,0,0,0,4.41.61A4.92,4.92,0,0,0,10,24.73a.23.23,0,0,0,0-.35c-.27-.26-.51-.56-.81-.8A4.44,4.44,0,0,0,6.46,22.54Z"/><path class="cls-6" d="M6.45,26.05A1.5,1.5,0,1,1,8,24.59,1.48,1.48,0,0,1,6.45,26.05Zm-.39-2.77a.64.64,0,0,0-.65.63.65.65,0,0,0,.64.65.67.67,0,0,0,.65-.63A.65.65,0,0,0,6.06,23.28Z"/></g><path class="cls-6" d="M36,17.28a69,69,0,0,0-6.67,8.49l-1.86-2c-.77-.84-2,.42-1.26,1.26l2.6,2.83a.9.9,0,0,0,1.4-.18,66.16,66.16,0,0,1,7-9.12C38.06,17.7,36.8,16.44,36,17.28Z"/></g></g></svg>