<svg xmlns="http://www.w3.org/2000/svg" viewBox="0 0 23.75 30.99"><defs><style>.cls-1,.cls-3{fill:#fff;}.cls-1{stroke:#174193;stroke-miterlimit:10;stroke-width:0.26px;}.cls-2{fill:#d21e18;}</style></defs><g id="Capa_2" data-name="Capa 2"><g id="Capa_1-2" data-name="Capa 1"><path class="cls-1" d="M.13.13H18a5.59,5.59,0,0,1,5.59,5.59V30.86a0,0,0,0,1,0,0H.13a0,0,0,0,1,0,0V.13A0,0,0,0,1,.13.13Z"/><circle class="cls-2" cx="11.88" cy="14.01" r="7.08"/><path class="cls-3" d="M12.42,18.09V10a.52.52,0,0,0-1,0v8.14a.52.52,0,0,0,1,0Z"/><path class="cls-3" d="M11.49,9.59,8.56,12.52a.51.51,0,0,0,.72.72l2.93-2.93a.51.51,0,0,0,0-.72.52.52,0,0,0-.72,0Z"/><path class="cls-3" d="M11.54,10.31l2.93,2.93a.52.52,0,0,0,.73,0,.53.53,0,0,0,0-.72L12.27,9.59a.51.51,0,1,0-.73.72Z"/><rect class="cls-2" x="3.67" y="22.91" width="17.09" height="1.27" rx="0.64"/></g></g></svg>