<svg xmlns="http://www.w3.org/2000/svg" viewBox="0 0 40.1 31.9"><defs><style>.cls-1,.cls-2,.cls-6{fill:#fff;}.cls-1,.cls-2,.cls-5{stroke:#174193;stroke-miterlimit:10;}.cls-1{stroke-width:0.26px;}.cls-2{stroke-width:0.29px;}.cls-3{fill:#d21e18;}.cls-4,.cls-5,.cls-7{fill:#174193;}.cls-5{stroke-width:0.34px;}.cls-7{font-size:6.77px;font-family:Roboto-Medium, Roboto;font-weight:500;}</style></defs><g id="Capa_2" data-name="Capa 2"><g id="Capa_1-2" data-name="Capa 1"><path class="cls-1" d="M10.17.13h17.9a5.59,5.59,0,0,1,5.59,5.59V30.86a0,0,0,0,1,0,0H10.17a0,0,0,0,1,0,0V.13A0,0,0,0,1,10.17.13Z"/><rect class="cls-2" x="19" y="14.5" width="4.92" height="4.56" rx="1.51"/><path class="cls-3" d="M26.43,10.67a49.18,49.18,0,0,0-4.69,6c-.44-.47-.88-.95-1.31-1.43s-1.43.29-.89.89l1.83,2a.63.63,0,0,0,1-.13,47.46,47.46,0,0,1,5-6.41C27.86,11,27,10.08,26.43,10.67Z"/><rect class="cls-4" x="14.46" y="8.54" width="14.43" height="1.08" rx="0.54"/><rect class="cls-4" x="14.46" y="22.14" width="14.43" height="1.08" rx="0.54"/><circle class="cls-5" cx="33.71" cy="25.5" r="6.22"/><circle class="cls-6" cx="33.71" cy="25.5" r="5.39"/><text class="cls-7" transform="translate(31.78 27.56)">1</text><path class="cls-6" d="M17.8,24.1H16.65a1,1,0,0,0,.92-1,1,1,0,0,0-.28-.68,1,1,0,0,0-.68-.28H8.92l1.26-1.32a1.7,1.7,0,0,1-.1-1.09,1,1,0,0,1,0-.16V18.15l-.14.1L7.41,20.39c-.69.42-2.34.64-3.09,1.19a3.8,3.8,0,0,1-1.82.88,4.11,4.11,0,0,1-.91.15h0A.79.79,0,0,0,.94,23a4.88,4.88,0,0,0-.7,2.88,6,6,0,0,0,.6,2.91.77.77,0,0,0,.78.43h0a7.6,7.6,0,0,1,1.07,0,11.78,11.78,0,0,1,2.74.5,5.1,5.1,0,0,0,1.3.18H12a.92.92,0,0,0,1-1,.86.86,0,0,0-.28-.68,1,1,0,0,0-.68-.23h.65a1,1,0,0,0,0-1.92H17.8a1,1,0,0,0,.68-.28,1,1,0,0,0,.28-.68A1,1,0,0,0,17.8,24.1Z"/><path class="cls-4" d="M17.8,23.86h-.23a1.2,1.2,0,0,0,.24-.72,1.15,1.15,0,0,0-.35-.84,1.19,1.19,0,0,0-.85-.35H9.47l.84-.88a1.62,1.62,0,0,1-.22-.46L8.74,22a.25.25,0,0,0,0,.26.24.24,0,0,0,.22.14h7.69a.74.74,0,0,1,.51.21.72.72,0,0,1-.47,1.23H10.87a.24.24,0,1,0,0,.48H17.8a.72.72,0,0,1,.51,1.23.68.68,0,0,1-.51.21H10.87a.24.24,0,0,0,0,.48h5.62a.72.72,0,0,1,.72.72.75.75,0,0,1-.21.51.71.71,0,0,1-.51.21H10.87a.24.24,0,0,0,0,.48h5a.79.79,0,0,1,.52.16.66.66,0,0,1,.19.51.67.67,0,0,1-.71.73H6.74a4.45,4.45,0,0,1-1.23-.17,11.42,11.42,0,0,0-2.8-.5H2.4a5.68,5.68,0,0,0-.81.05.56.56,0,0,1-.54-.31,5.76,5.76,0,0,1-.57-2.8,4.69,4.69,0,0,1,.66-2.75.54.54,0,0,1,.45-.25h0a3.77,3.77,0,0,0,1-.15l.33-.09a3.76,3.76,0,0,0,1.56-.83,6.06,6.06,0,0,1,1.68-.66,6.36,6.36,0,0,0,1.4-.52l0,0,2.49-2.12V17.9a1.22,1.22,0,0,0-.29.17L7.27,20.2A6.26,6.26,0,0,1,6,20.65a6.35,6.35,0,0,0-1.82.74,3.32,3.32,0,0,1-1.41.75l-.34.1a4.81,4.81,0,0,1-.84.13,1,1,0,0,0-.84.45,5.11,5.11,0,0,0-.75,3,6.2,6.2,0,0,0,.63,3,1,1,0,0,0,1,.55,6.07,6.07,0,0,1,1,0,11.12,11.12,0,0,1,2.69.49,5.43,5.43,0,0,0,1.36.19H15.8A1.16,1.16,0,0,0,17,28.85a1.21,1.21,0,0,0-.22-.72A1.17,1.17,0,0,0,17.65,27a1.14,1.14,0,0,0-.25-.72h.4a1.23,1.23,0,0,0,.85-.35,1.19,1.19,0,0,0,.35-.85A1.2,1.2,0,0,0,17.8,23.86Z"/></g></g></svg>