<svg xmlns="http://www.w3.org/2000/svg" viewBox="0 0 32.79 38.15"><defs><style>.cls-1,.cls-3{fill:#fff;}.cls-1{stroke:#174193;stroke-miterlimit:10;stroke-width:0.26px;}.cls-2{fill:#d21e18;}</style></defs><g id="Capa_2" data-name="Capa 2"><g id="Capa_1-2" data-name="Capa 1"><path class="cls-1" d="M2.83,3.15h17.9a5.59,5.59,0,0,1,5.59,5.59V33.89a0,0,0,0,1,0,0H2.83a0,0,0,0,1,0,0V3.15A0,0,0,0,1,2.83,3.15Z"/><rect class="cls-2" x="6.8" y="21.66" width="15.76" height="1.33" rx="0.66"/><circle class="cls-2" cx="14.77" cy="11.04" r="3.49"/><circle class="cls-3" cx="14.77" cy="11.04" r="2.42"/><path class="cls-2" d="M17.67,18.8l-1.2-1.32c-.14-.16-.32-.11-.36.1l-.27,1.76-1.4-4.72a.29.29,0,0,1,.12-.38L16,13.83c.12,0,.26.08.32.25Z"/><path class="cls-2" d="M13.09,19l-.28-1.74a.25.25,0,0,0-.44-.15l-1.28,1.21,1.58-4.62a.34.34,0,0,1,.39-.26l1.46.5a.33.33,0,0,1,.14.44Z"/><path class="cls-2" d="M8.86,28.32h0l-.11.11-.13.09a1.59,1.59,0,0,1-.29.15,1.87,1.87,0,0,1-.62.1,2.57,2.57,0,0,1-.62-.08l-.25-.07a.4.4,0,0,1,0,.15.7.7,0,0,1,0,.37.51.51,0,0,1-.09.16.66.66,0,0,1-.14.15l0,0,0,0a.27.27,0,0,1-.12,0h0l0,0,0,0,0,0a.11.11,0,0,1,0-.05s0,0,0-.06a.28.28,0,0,1,0-.09.94.94,0,0,1,0-.16c0-.1,0-.2.08-.3s.07-.21.1-.31v0a.06.06,0,0,1,0-.07l0,0,.06-.17q.09-.3.21-.6c0-.09.07-.19.11-.29l0-.07,0-.08L7,27l.11-.14a.77.77,0,0,1,.13-.12l.09,0a.14.14,0,0,1,.11,0h.06l.06,0a.36.36,0,0,1,.07.1s0,.06,0,.1a.28.28,0,0,1,0,.09.24.24,0,0,1,0,.08.19.19,0,0,1,0,.08,1.59,1.59,0,0,1-.15.29l-.18.26a2.43,2.43,0,0,1-.2.25l-.29.3-.07.19h0l.07,0,.29.09a2.32,2.32,0,0,0,.59.07,1.85,1.85,0,0,0,.58-.09,1.43,1.43,0,0,0,.49-.32h0a.06.06,0,0,1,.08.08Zm-2.45,1h0Zm.36-.52a.37.37,0,0,0,0-.15l0-.06h0c0,.09-.07.18-.1.28s-.06.19-.08.29,0,.1,0,.15h0a.23.23,0,0,0,.12-.08.27.27,0,0,0,.09-.12.44.44,0,0,0,0-.15A.43.43,0,0,0,6.77,28.78ZM6.89,28l0,0L7,27.89a3.43,3.43,0,0,0,.36-.49,1.69,1.69,0,0,0,.12-.28.14.14,0,0,0,0-.07.15.15,0,0,0,0-.07v-.06a.08.08,0,0,0,0-.05l0,0h0l0,0s0,0-.05,0l-.08.1a.75.75,0,0,0-.07.12l-.06.14,0,.07,0,.07c0,.09-.07.19-.11.29Z"/><path class="cls-2" d="M11.13,28.32h0l-.12.11-.13.09a1.51,1.51,0,0,1-.28.15,1.87,1.87,0,0,1-.62.1,2.72,2.72,0,0,1-.63-.08l-.24-.07,0,.15a1.21,1.21,0,0,1,0,.19,1.16,1.16,0,0,1,0,.18.86.86,0,0,1-.1.16.49.49,0,0,1-.14.15l0,0-.05,0a.2.2,0,0,1-.11,0h0l0,0,0,0s0,0,0,0a.11.11,0,0,1,0-.05v-.06s0-.06,0-.09,0-.11,0-.16l.09-.3.09-.31v0s0-.05,0-.07l0,0,.06-.17.21-.6.12-.29,0-.07,0-.08A1.09,1.09,0,0,1,9.31,27l.1-.14.13-.12.09,0a.16.16,0,0,1,.12,0h.06l0,0a.17.17,0,0,1,.07.1.3.3,0,0,1,0,.1V27s0,.05,0,.08l0,.08a1.59,1.59,0,0,1-.15.29,2.33,2.33,0,0,1-.17.26,2.52,2.52,0,0,1-.21.25l-.29.3L9,28.45H9l.08,0,.28.09a2.46,2.46,0,0,0,.6.07,2,2,0,0,0,.58-.09,1.31,1.31,0,0,0,.48-.32h0a.06.06,0,0,1,.09,0A.06.06,0,0,1,11.13,28.32Zm-2.45,1h0ZM9,28.78a.37.37,0,0,0,0-.15l0-.06H9l-.09.28-.09.29,0,.15h0a.28.28,0,0,0,.12-.08L9,29.09a.88.88,0,0,0,0-.15A.86.86,0,0,0,9,28.78ZM9.15,28l0,0,.1-.12a2.8,2.8,0,0,0,.36-.49,1.75,1.75,0,0,0,.13-.28.64.64,0,0,0,0-.07s0,0,0-.07a.13.13,0,0,0,0-.06.43.43,0,0,0,0-.05s0,0,0,0h0l0,0,0,0-.09.1-.06.12a.42.42,0,0,0-.06.14l0,.07,0,.07c0,.09-.07.19-.1.29S9.2,27.92,9.15,28Z"/><path class="cls-2" d="M13.43,28.33h0a6,6,0,0,1-.66.26l-.18.05-.17.05-.35.07-.18,0-.18,0h-.18l-.2,0-.05,0h0l0,0a.39.39,0,0,1-.08-.1.7.7,0,0,1,0-.12s0-.08,0-.12v0l0,0a.09.09,0,0,1,0-.12h0l0-.05,0-.06.08-.1a.11.11,0,0,1,.16,0,.12.12,0,0,1,.05.1v0a.08.08,0,0,0,0,0v0s0,0,0,0l0,.05,0,0a.3.3,0,0,1,0,.08.14.14,0,0,0,0,.07.15.15,0,0,0,0,.11s0,0,0,.05h0l.15,0h.17a2,2,0,0,0,.34,0l.35-.07.17,0,.16-.05a4.2,4.2,0,0,0,.65-.26.06.06,0,1,1,.06.1Zm-2-.43a.12.12,0,0,1,0-.17l0-.06a.13.13,0,0,1,.16-.07.12.12,0,0,1,.06.16.33.33,0,0,1-.11.16.11.11,0,0,1-.07,0A.12.12,0,0,1,11.39,27.9Z"/><path class="cls-2" d="M16,28.33h0a3,3,0,0,1-.46.26l-.25.11-.25.08-.26.07-.26,0-.27,0a.29.29,0,0,1-.13,0H14a1,1,0,0,1-.28-.07.46.46,0,0,1-.14-.07.43.43,0,0,1-.11-.12s0,0,0-.08,0,0,0,0v0h0a.86.86,0,0,1,0-.16.49.49,0,0,1,.05-.16l0-.07.05-.06.11-.11.07,0,.09,0h.11a.21.21,0,0,1,.1.06A.22.22,0,0,1,14,28a.17.17,0,0,1,0,.1v.05l0,0a.18.18,0,0,1-.05.07.42.42,0,0,1-.14.09l-.16,0h0v.07l0,.09a.49.49,0,0,0,.15.13.83.83,0,0,0,.22.08l.13,0h.38l.25,0a1.83,1.83,0,0,0,.25-.06l.25-.08.23-.1a2,2,0,0,0,.44-.27.06.06,0,0,1,.08,0A.06.06,0,0,1,16,28.33Zm-2.33-.16a.2.2,0,0,0,0,.08h0l.1,0a.16.16,0,0,0,.08-.06.05.05,0,0,0,0,0v0h0v0h-.07l0,0A.6.6,0,0,0,13.64,28.17Z"/><path class="cls-2" d="M18.26,28.33h0a5.32,5.32,0,0,1-.66.26l-.17.05-.18.05-.35.07-.17,0-.19,0h-.18l-.2,0,0,0h0l0,0a.39.39,0,0,1-.08-.1.6.6,0,0,1,0-.12.48.48,0,0,1,0-.12v-.05a.08.08,0,0,1,0-.12h0l0-.05,0-.06.08-.1a.11.11,0,0,1,.16,0,.1.1,0,0,1,0,.1v0a.08.08,0,0,0,0,0v0s0,0,0,0l0,.05,0,0,0,.08s0,0,0,.07a.15.15,0,0,0,0,.11s0,0,0,.05h0l.15,0h.17a2,2,0,0,0,.34,0l.35-.07.17,0,.17-.05a4.51,4.51,0,0,0,.64-.26.06.06,0,1,1,.06.1Zm-2-.43a.12.12,0,0,1,0-.17l0-.06a.13.13,0,0,1,.16-.07.12.12,0,0,1,.06.16.33.33,0,0,1-.11.16.11.11,0,0,1-.07,0A.12.12,0,0,1,16.22,27.9Z"/><path class="cls-2" d="M20.74,28.34a5.31,5.31,0,0,1-.81.19,3,3,0,0,1-.42,0h-.43a.63.63,0,0,1-.22-.07l-.09-.07,0,0v0a.52.52,0,0,1-.11.19l0,.05-.05,0-.06,0-.08,0h0l0,0,0,0a.25.25,0,0,1,0-.08.27.27,0,0,1,0-.15.49.49,0,0,1,0-.12.13.13,0,0,1,0-.06.12.12,0,0,1,0-.17h0v0s0,0,0,0,0,0,0-.05v0h0l0,0h.13s0,0,0,0h0v0h0s0,0,0,0v0a.14.14,0,0,0,0,.06l0,.1a.23.23,0,0,0,0,.11.29.29,0,0,0,0,.09s0,0,0,.05a0,0,0,0,0,0,0v0h0l0,0,0,0a.35.35,0,0,0,.05-.08l.05-.09s0-.08,0-.12a.57.57,0,0,1,0-.18.45.45,0,0,1,0-.11s0,0,0,0h.12a.07.07,0,0,1,0,.05.89.89,0,0,1,0,.23v0a.35.35,0,0,0,.3.17h.4l.41,0a7.19,7.19,0,0,0,.8-.2h0a.06.06,0,0,1,.07,0A.06.06,0,0,1,20.74,28.34Zm-2.43-.27Zm.12.56h0Z"/><path class="cls-2" d="M23.2,28.32l-.06.05-.07,0a.42.42,0,0,1-.14.06,1.63,1.63,0,0,1-.3.07h-.3l-.3,0a2,2,0,0,1-.58-.15l-.21-.1v.1h0v.05s0,0,0,.06a.61.61,0,0,1,0,.12.76.76,0,0,1-.08.11l-.06,0a.11.11,0,0,1-.08,0h-.09l-.08,0a.28.28,0,0,1-.12-.12.44.44,0,0,1-.05-.15v-.14s0-.05,0-.07a.14.14,0,0,1,0-.06.69.69,0,0,1,.05-.13.41.41,0,0,1,.07-.11l.06-.06.05,0,.06,0h0a.12.12,0,0,1,.13.1l.05,0a.31.31,0,0,1,.07.09,1.51,1.51,0,0,0,.31.16,2,2,0,0,0,.55.14,2.18,2.18,0,0,0,.57,0,1.31,1.31,0,0,0,.27-.06l.13-.05a.1.1,0,0,0,.05,0l.05,0h0a.05.05,0,0,1,.08,0A.05.05,0,0,1,23.2,28.32ZM20.83,28Zm.3.23s0,0,0-.06L21,28.14l-.07.09-.08.06,0,.11a.35.35,0,0,0,0,.15l0,.05h0s0,0,.07,0,0,0,.06-.06a.41.41,0,0,0,.05-.09s0,0,0,0v0h0A.41.41,0,0,0,21.13,28.26Z"/><path class="cls-1" d="M5.59,3.71h17.9A5.59,5.59,0,0,1,29.09,9.3V34.44a0,0,0,0,1,0,0H5.59a0,0,0,0,1,0,0V3.71a0,0,0,0,1,0,0Z" transform="translate(9.75 -5.56) rotate(25.15)"/><rect class="cls-2" x="7.93" y="21.9" width="15.76" height="1.33" rx="0.66" transform="translate(11.09 -4.58) rotate(25.15)"/><circle class="cls-2" cx="20.69" cy="12.39" r="3.49"/><circle class="cls-3" cx="20.69" cy="12.39" r="2.42"/><path class="cls-2" d="M20,20.64l-.52-1.7c-.06-.21-.25-.23-.37-.06l-1,1.47.74-4.86c0-.18.15-.31.27-.3l1.44.22c.12,0,.2.18.17.36Z"/><path class="cls-2" d="M15.79,18.87l.49-1.7a.25.25,0,0,0-.33-.32l-1.68.55,3.4-3.51a.34.34,0,0,1,.46-.07l1.11,1.07a.35.35,0,0,1-.06.47Z"/><path class="cls-2" d="M8,25.52H8l-.15.05-.16,0H7.37a1.85,1.85,0,0,1-.61-.17,2.59,2.59,0,0,1-.52-.34,1.54,1.54,0,0,1-.19-.17c0,.05,0,.1,0,.15a.7.7,0,0,1-.09.17.76.76,0,0,1-.11.14.91.91,0,0,1-.16.11.62.62,0,0,1-.19.07h-.1l-.12,0,0,0h0l0,0s0,0,0,0a0,0,0,0,1,0,0,.09.09,0,0,1,0-.05l0-.05,0-.07.1-.14.21-.24.22-.23,0,0a0,0,0,0,1,0-.06h0A1.59,1.59,0,0,0,6,24.42L6.43,24l.23-.22.06-.05.06-.06.14-.1.15-.08.17-.05h.1a.2.2,0,0,1,.11,0l0,0,0,.05a.25.25,0,0,1,0,.12.36.36,0,0,1,0,.1.56.56,0,0,0,0,.08l0,.07L7.38,24a2.43,2.43,0,0,1-.25.2l-.28.16-.28.13a2.74,2.74,0,0,1-.4.15L6,24.74H6l.06.07a2.09,2.09,0,0,0,.22.2,2.72,2.72,0,0,0,.51.32,1.8,1.8,0,0,0,.56.16A1.41,1.41,0,0,0,8,25.41H8a.06.06,0,0,1,.08,0A.07.07,0,0,1,8,25.52Zm-2.63-.16,0,0s0,0,0,0Zm.54-.31a.47.47,0,0,0,0-.16v-.06H6L5.74,25a2.2,2.2,0,0,0-.2.23l-.09.11h0a.22.22,0,0,0,.14,0,.37.37,0,0,0,.14-.07.65.65,0,0,0,.11-.12A.54.54,0,0,0,5.91,25.05Zm.42-.62,0,0,.15-.06a3.5,3.5,0,0,0,.54-.29l.23-.2,0-.05,0-.06,0-.06s0,0,0-.06,0,0,0,0a0,0,0,0,0,0,0h-.1l-.12.05-.11.09-.11.09-.06.05,0,.06-.22.22C6.52,24.24,6.42,24.33,6.33,24.43Z"/><path class="cls-2" d="M10.05,26.48h0l-.15.05-.16,0a1.69,1.69,0,0,1-.32,0,1.85,1.85,0,0,1-.61-.17,2.22,2.22,0,0,1-.52-.34,1.54,1.54,0,0,1-.19-.17c0,.05,0,.1,0,.15a.56.56,0,0,1-.09.17.76.76,0,0,1-.11.14.91.91,0,0,1-.16.11.62.62,0,0,1-.19.07h-.1l-.12,0h0l0,0s0,0,0,0,0,0,0,0,0,0,0-.05a.42.42,0,0,1,0-.06l0-.07a1.47,1.47,0,0,1,.1-.13c.07-.09.14-.16.21-.24a2.39,2.39,0,0,1,.22-.23l0,0a.06.06,0,0,1,0-.07h0L8,25.38l.44-.45a2.39,2.39,0,0,0,.23-.22l.06-.05.06-.05.14-.1a1.19,1.19,0,0,1,.15-.09l.17-.05h.1l.11,0,.05,0a.21.21,0,0,1,0,.06.23.23,0,0,1,0,.11.3.3,0,0,1,0,.1l-.05.08,0,.07-.06.06a1.57,1.57,0,0,1-.25.2l-.28.16-.28.14-.4.14-.14.15h0l.06.06a2.09,2.09,0,0,0,.22.2,2.29,2.29,0,0,0,.51.32,1.57,1.57,0,0,0,.56.16,1.41,1.41,0,0,0,.58-.08h0a.06.06,0,0,1,.08,0A.07.07,0,0,1,10.05,26.48Zm-2.63-.15,0,0,0,0ZM8,26a.42.42,0,0,0,0-.15v-.07H8L7.79,26c-.07.08-.14.15-.2.23a.94.94,0,0,0-.09.12h0a.32.32,0,0,0,.14,0l.14-.08a1.14,1.14,0,0,0,.11-.11A.91.91,0,0,0,8,26Zm.42-.62,0,0,.15-.05a3.55,3.55,0,0,0,.54-.3,1.43,1.43,0,0,0,.23-.2.1.1,0,0,0,0-.05l0-.06,0-.06v0s0,0,0,0l0,0h-.1a.34.34,0,0,0-.12.06l-.11.08L9,24.78l-.06,0,0,.06-.22.22Z"/><path class="cls-2" d="M12.13,27.47h0c-.24,0-.47,0-.71-.06l-.18,0-.17,0-.35-.08-.17-.05-.18-.06-.16-.08A.62.62,0,0,1,10,27l0-.05a0,0,0,0,1,0,0l0,0a.4.4,0,0,1,0-.25.7.7,0,0,1,.06-.09l0,0h0a.11.11,0,0,1,.05-.12h0l.06,0,.06,0,.11-.06a.12.12,0,0,1,.16.05.11.11,0,0,1,0,.11h0l0,0,0,0,0,0,0,0,0,0-.06.05-.06.05a.46.46,0,0,0-.07.1v.05h0s0,0,0,0a.63.63,0,0,0,.12.1l.15.08.32.12.34.08.17,0,.17,0a4.17,4.17,0,0,0,.7,0,.06.06,0,0,1,.06.06A.05.05,0,0,1,12.13,27.47Zm-1.66-1.26a.12.12,0,0,1,.09-.14l.06,0a.12.12,0,0,1,.17,0,.12.12,0,0,1,0,.17.32.32,0,0,1-.17.1.11.11,0,0,1-.08,0A.1.1,0,0,1,10.47,26.21Z"/><path class="cls-2" d="M14.43,28.54h0a2.44,2.44,0,0,1-.53.05h-.27l-.26,0-.26-.05-.26-.07-.25-.1-.12,0-.13-.07a1.16,1.16,0,0,1-.22-.18.27.27,0,0,1-.09-.12.3.3,0,0,1,0-.16.25.25,0,0,1,0-.08.09.09,0,0,0,0-.05v0h0a.47.47,0,0,1,.06-.15l.11-.12.06,0,.07,0a.42.42,0,0,1,.15,0h.22l.05,0a.21.21,0,0,1,.06.1.17.17,0,0,1,0,.12.13.13,0,0,1,0,.09v0h0l0,0-.07,0a.49.49,0,0,1-.17,0,.3.3,0,0,1-.15-.05l0,0a.14.14,0,0,0,0,.07.28.28,0,0,0,0,.09.36.36,0,0,0,.08.18.85.85,0,0,0,.16.17l.1.07.11.07.24.1.24.07.25.05.26,0h.26a2.21,2.21,0,0,0,.51-.05.06.06,0,0,1,.07,0S14.46,28.54,14.43,28.54Zm-2-1.13-.07.05h0l.1,0,.1,0,0,0h0v0s0,0,0,0h-.11Z"/><path class="cls-2" d="M16.5,29.52h0a5.81,5.81,0,0,1-.72-.05l-.17,0-.18,0-.35-.08-.17,0-.17-.06-.17-.08a.57.57,0,0,1-.16-.11l0,0,0,0s0,0,0,0a.27.27,0,0,1,0-.12.21.21,0,0,1,0-.12.31.31,0,0,1,.05-.1l0,0v0a.09.09,0,0,1,0-.12h0l0,0,.06,0,.12-.06a.11.11,0,0,1,.15.05.13.13,0,0,1,0,.12h0l0,0,0,0,0,0,0,0,0,0-.06.05-.06.06a.24.24,0,0,0-.06.09.11.11,0,0,0,0,.05h0v0s0,0,0,0a.4.4,0,0,0,.12.1l.15.08a1.75,1.75,0,0,0,.32.12l.34.09.17,0,.18,0a3.2,3.2,0,0,0,.69,0,.07.07,0,0,1,.07.06A.06.06,0,0,1,16.5,29.52Zm-1.66-1.26a.12.12,0,0,1,.09-.14l.06,0a.12.12,0,0,1,.17.17.54.54,0,0,1-.18.11h-.07A.13.13,0,0,1,14.84,28.26Z"/><path class="cls-2" d="M18.75,30.58a5.68,5.68,0,0,1-.82-.17l-.4-.13-.05,0-.05,0-.1,0,0,0-.05,0,0,0-.05,0a.49.49,0,0,1-.16-.16.27.27,0,0,1-.06-.1v0l0,0a.75.75,0,0,1-.18.13l-.06,0-.06,0h-.07l-.08,0h0s0,0,0,0,0,0,0,0a.38.38,0,0,1,0-.1.33.33,0,0,1,0-.14.61.61,0,0,1,.07-.1l0-.05a.13.13,0,0,1,.07-.16h0l0,0a.08.08,0,0,1,0,0h.14l0,0,0,0a.06.06,0,0,1,0,0h0v0h0l0,0,0,0a.08.08,0,0,1,0,0l-.07.09-.07.08-.06.08s0,0,0,0a0,0,0,0,0,0,0v0h.08l0,0,.09,0,.07-.06.09-.1a.48.48,0,0,1,.05-.17l.06-.1,0,0h.1a.09.09,0,0,1,0,.05.75.75,0,0,1-.1.2v0a.28.28,0,0,0,.05.16.58.58,0,0,0,.14.13.05.05,0,0,0,0,0l0,0,.05,0,0,0,.1.05,0,0,.05,0,.39.13a7.08,7.08,0,0,0,.8.16h0a.08.08,0,0,1,.05.07S18.78,30.59,18.75,30.58Zm-2.09-1.27h0Zm-.13.56h0Z"/><path class="cls-2" d="M21,31.62h-.31a1,1,0,0,1-.3-.07l-.28-.11a1.74,1.74,0,0,1-.26-.15,2.07,2.07,0,0,1-.46-.38,1.19,1.19,0,0,1-.15-.18l0,.09h0v0l0,.05L19,31l-.12.06-.08,0h-.08a.11.11,0,0,1-.08,0,.28.28,0,0,1-.12-.23.26.26,0,0,1,0-.15.69.69,0,0,1,.05-.13l0-.05,0-.05a.94.94,0,0,1,.1-.1l.12-.07.08,0h.13a.12.12,0,0,1,.07.14l0,.06,0,.1a1.46,1.46,0,0,0,.21.28,2.11,2.11,0,0,0,.43.36,2.26,2.26,0,0,0,.52.25,1.31,1.31,0,0,0,.27.06h.2l.07,0h0a.06.06,0,0,1,.07,0A.07.07,0,0,1,21,31.62Zm-2-1.28Zm.17.34a.13.13,0,0,0,0-.06l0-.09a.31.31,0,0,1-.1,0l-.1,0-.07.09a.33.33,0,0,0-.06.14v.05a0,0,0,0,0,0,0s0,0,0,0a.06.06,0,0,0,.06,0l.09,0,.07-.06s0,0,0,0v0h0A.41.41,0,0,0,19.13,30.68Z"/></g></g></svg>