<svg xmlns="http://www.w3.org/2000/svg" viewBox="0 0 30.85 30.99"><defs><style>.cls-1,.cls-3{fill:#fff;}.cls-1,.cls-2{stroke:#174193;stroke-miterlimit:10;}.cls-1{stroke-width:0.26px;}.cls-2,.cls-5{fill:#174193;}.cls-2{stroke-width:0.34px;}.cls-4{fill:#d21e18;}</style></defs><g id="Capa_2" data-name="Capa 2"><g id="Capa_1-2" data-name="Capa 1"><path class="cls-1" d="M.13.13H18a5.59,5.59,0,0,1,5.59,5.59V30.86a0,0,0,0,1,0,0H.13a0,0,0,0,1,0,0V.13A0,0,0,0,1,.13.13Z"/><circle class="cls-2" cx="23.63" cy="24.5" r="6.22"/><circle class="cls-3" cx="23.63" cy="24.5" r="5.39"/><path class="cls-4" d="M29.47,17.91a64.09,64.09,0,0,0-6.17,7.86L21.58,23.9c-.72-.79-1.88.38-1.16,1.16l2.4,2.62a.83.83,0,0,0,1.29-.17,61.26,61.26,0,0,1,6.52-8.44C31.35,18.3,30.19,17.13,29.47,17.91Z"/><rect class="cls-5" x="4.07" y="7.47" width="15.15" height="1.55" rx="0.77"/><rect class="cls-5" x="4.07" y="10.24" width="15.15" height="1.55" rx="0.77"/><rect class="cls-5" x="4.07" y="12.88" width="15.15" height="1.55" rx="0.77"/><rect class="cls-5" x="4.07" y="15.63" width="15.15" height="1.55" rx="0.77"/></g></g></svg>