<svg xmlns="http://www.w3.org/2000/svg" viewBox="0 0 30.07 31.9"><defs><style>.cls-1,.cls-4{fill:#fff;}.cls-1,.cls-3{stroke:#174193;}.cls-1,.cls-2,.cls-3{stroke-miterlimit:10;}.cls-1{stroke-width:0.26px;}.cls-2{fill:#d21e18;stroke:#fff;stroke-width:0.5px;}.cls-3,.cls-5{fill:#174193;}.cls-3{stroke-width:0.34px;}</style></defs><g id="Capa_2" data-name="Capa 2"><g id="Capa_1-2" data-name="Capa 1"><path class="cls-1" d="M.13.13H18a5.59,5.59,0,0,1,5.59,5.59V30.86a0,0,0,0,1,0,0H.13a0,0,0,0,1,0,0V.13A0,0,0,0,1,.13.13Z"/><path class="cls-2" d="M6.18,15.19H9A2.82,2.82,0,0,1,11.84,18v4.26a.78.78,0,0,1-.78.78H4.2a.85.85,0,0,1-.84-.84V18A2.82,2.82,0,0,1,6.18,15.19Z"/><circle class="cls-2" cx="7.6" cy="13.86" r="2.72"/><path class="cls-2" d="M14.16,13.88h3.31a3.29,3.29,0,0,1,3.29,3.29v5a.91.91,0,0,1-.91.91h-8a1,1,0,0,1-1-1v-4.9A3.29,3.29,0,0,1,14.16,13.88Z"/><circle class="cls-2" cx="15.82" cy="12.32" r="3.18"/><circle class="cls-3" cx="23.67" cy="25.51" r="6.22"/><circle class="cls-4" cx="23.67" cy="25.5" r="5.39"/><circle class="cls-5" cx="23.67" cy="25.51" r="3.21"/><path class="cls-4" d="M25.05,25H24.2v-.84a.53.53,0,0,0-.51-.53h0a.53.53,0,0,0-.53.53V25H22.3a.53.53,0,1,0,0,1.06h.84v.85a.53.53,0,0,0,.53.53.53.53,0,0,0,.53-.53V26h.85a.53.53,0,0,0,0-1.06Z"/></g></g></svg>