<svg xmlns="http://www.w3.org/2000/svg" viewBox="0 0 33.79 30.99"><defs><style>.cls-1,.cls-3{fill:#fff;}.cls-1{stroke:#174193;stroke-miterlimit:10;stroke-width:0.26px;}.cls-2{fill:#174193;}.cls-4{fill:#d21e18;}</style></defs><g id="Capa_2" data-name="Capa 2"><g id="Capa_1-2" data-name="Capa 1"><path class="cls-1" d="M10.17.13h17.9a5.59,5.59,0,0,1,5.59,5.59V30.86a0,0,0,0,1,0,0H10.17a0,0,0,0,1,0,0V.13A0,0,0,0,1,10.17.13Z"/><rect class="cls-2" x="13.58" y="23.04" width="15.76" height="1.33" rx="0.66"/><rect class="cls-1" x="19" y="17.15" width="4.92" height="4.56" rx="1.51"/><path class="cls-3" d="M17.8,22.93H16.65a1,1,0,0,0,.92-1,1,1,0,0,0-.28-.68,1,1,0,0,0-.68-.28H8.92l1.26-1.33a1.69,1.69,0,0,1-.1-1.09.77.77,0,0,1,0-.15V17l-.14.1L7.41,19.22c-.69.42-2.34.64-3.09,1.18a3.93,3.93,0,0,1-1.82.89,3.68,3.68,0,0,1-.91.14h0a.81.81,0,0,0-.65.35,4.94,4.94,0,0,0-.7,2.89,6,6,0,0,0,.6,2.91.8.8,0,0,0,.78.43h0A6.35,6.35,0,0,1,2.7,28a11.25,11.25,0,0,1,2.74.49,4.68,4.68,0,0,0,1.3.19H12a.93.93,0,0,0,1-1,.88.88,0,0,0-.28-.69,1,1,0,0,0-.68-.23h.65a1,1,0,0,0,1-1,1,1,0,0,0-1-1H17.8a.93.93,0,0,0,.68-.29,1,1,0,0,0-.68-1.63Z"/><path class="cls-2" d="M17.8,22.69h-.23a1.2,1.2,0,0,0-.11-1.57,1.23,1.23,0,0,0-.85-.35H9.47l.84-.87a1.56,1.56,0,0,1-.22-.47L8.74,20.85a.24.24,0,0,0,.18.4h7.69a.69.69,0,0,1,.51.21.72.72,0,0,1-.47,1.23H10.87a.24.24,0,1,0,0,.48H17.8a.73.73,0,0,1,.72.73.72.72,0,0,1-.72.72H10.87a.24.24,0,0,0-.24.24.23.23,0,0,0,.24.23h5.62a.73.73,0,0,1,.72.73.72.72,0,0,1-.72.72H10.87a.24.24,0,1,0,0,.47h5a.79.79,0,0,1,.52.17.63.63,0,0,1,.19.51.68.68,0,0,1-.71.73H6.74a4.86,4.86,0,0,1-1.23-.17,12,12,0,0,0-2.8-.51H2.4a7.65,7.65,0,0,0-.81.05.53.53,0,0,1-.54-.3,5.83,5.83,0,0,1-.57-2.8,4.66,4.66,0,0,1,.66-2.75.54.54,0,0,1,.45-.25h0a4.28,4.28,0,0,0,1-.15l.33-.1a3.84,3.84,0,0,0,1.56-.82,5.77,5.77,0,0,1,1.68-.66,6.36,6.36,0,0,0,1.4-.52l0,0,2.49-2.13v-.55a1.69,1.69,0,0,0-.29.17L7.27,19A6.2,6.2,0,0,1,6,19.48a6.64,6.64,0,0,0-1.82.73A3.2,3.2,0,0,1,2.77,21l-.34.1a3.43,3.43,0,0,1-.84.13,1,1,0,0,0-.84.45,5.13,5.13,0,0,0-.75,3,6.15,6.15,0,0,0,.63,3,1,1,0,0,0,1,.55,6.06,6.06,0,0,1,1,0,11.58,11.58,0,0,1,2.69.48,5,5,0,0,0,1.36.2H15.8A1.16,1.16,0,0,0,17,27.68a1.19,1.19,0,0,0-.22-.72,1.15,1.15,0,0,0,.53-.31,1.22,1.22,0,0,0,.35-.84,1.15,1.15,0,0,0-.25-.73h.4A1.2,1.2,0,0,0,19,23.89,1.2,1.2,0,0,0,17.8,22.69Z"/><rect class="cls-2" x="10.04" y="15.87" width="0.25" height="5.14"/><rect class="cls-2" x="13.58" y="5.38" width="15.76" height="1.33" rx="0.66"/><path class="cls-4" d="M26.06,13a47.49,47.49,0,0,0-4.69,6l-1.32-1.43c-.54-.6-1.42.29-.88.88l1.83,2a.63.63,0,0,0,1-.12,46.76,46.76,0,0,1,5-6.42C27.48,13.31,26.6,12.42,26.06,13Z"/><path class="cls-2" d="M22.49,13.48a.81.81,0,0,0-.24-.6,2.25,2.25,0,0,0-.82-.45,3.51,3.51,0,0,1-1.37-.73,1.6,1.6,0,0,1-.46-1.21A1.64,1.64,0,0,1,20,9.31a1.88,1.88,0,0,1,1.2-.55V7.82h.68v.95a1.79,1.79,0,0,1,1.17.59,2,2,0,0,1,.41,1.31l0,0h-1a1.23,1.23,0,0,0-.24-.8.86.86,0,0,0-.68-.29.88.88,0,0,0-.68.24.85.85,0,0,0-.22.63.78.78,0,0,0,.23.6,2.41,2.41,0,0,0,.84.45,3.57,3.57,0,0,1,1.37.74,1.61,1.61,0,0,1,.45,1.21,1.61,1.61,0,0,1-.45,1.19,2.05,2.05,0,0,1-1.25.53V16h-.69V15.2a2.06,2.06,0,0,1-1.28-.55,1.75,1.75,0,0,1-.49-1.39v0h1a1.08,1.08,0,0,0,.3.86,1.12,1.12,0,0,0,.76.25,1.15,1.15,0,0,0,.76-.23A.8.8,0,0,0,22.49,13.48Z"/></g></g></svg>