<svg xmlns="http://www.w3.org/2000/svg" viewBox="0 0 30.02 31.03"><defs><style>.cls-1,.cls-5{fill:#fff;}.cls-1,.cls-4{stroke:#174193;stroke-miterlimit:10;}.cls-1{stroke-width:0.26px;}.cls-2{fill:#d21e18;}.cls-3,.cls-4{fill:#174193;}.cls-4{stroke-width:0.34px;}</style></defs><g id="Capa_2" data-name="Capa 2"><g id="Capa_1-2" data-name="Capa 1"><path class="cls-1" d="M.13.13H18a5.59,5.59,0,0,1,5.59,5.59V30.86a0,0,0,0,1,0,0H.13a0,0,0,0,1,0,0V.13A0,0,0,0,1,.13.13Z"/><rect class="cls-2" x="4" y="15.45" width="15.76" height="1.33" rx="0.66"/><rect class="cls-2" x="4" y="18.93" width="15.76" height="1.33" rx="0.66"/><rect class="cls-2" x="4" y="22.06" width="15.76" height="1.33" rx="0.66"/><rect class="cls-2" x="4" y="12.19" width="15.76" height="1.33" rx="0.66"/><rect class="cls-2" x="4" y="9.09" width="15.76" height="1.33" rx="0.66"/><rect class="cls-2" x="4" y="25.51" width="15.76" height="1.33" rx="0.66"/><circle class="cls-3" cx="11.88" cy="5.61" r="2.14"/><circle class="cls-4" cx="23.63" cy="24.64" r="6.22"/><circle class="cls-5" cx="23.63" cy="24.64" r="5.39"/><path class="cls-3" d="M24.66,26.19a.81.81,0,0,0-.24-.6,2.34,2.34,0,0,0-.82-.45,3.56,3.56,0,0,1-1.38-.73,1.81,1.81,0,0,1,0-2.39,1.88,1.88,0,0,1,1.2-.55v-.94h.69v.95a1.71,1.71,0,0,1,1.16.6,1.94,1.94,0,0,1,.41,1.31v0h-1a1.23,1.23,0,0,0-.24-.8.85.85,0,0,0-.68-.29.8.8,0,0,0-.9.87.81.81,0,0,0,.23.6,2.38,2.38,0,0,0,.85.45,3.52,3.52,0,0,1,1.36.74,1.58,1.58,0,0,1,.46,1.21,1.62,1.62,0,0,1-.46,1.19,2,2,0,0,1-1.25.53v.84h-.69v-.84A2.09,2.09,0,0,1,22,27.36,1.74,1.74,0,0,1,21.54,26v0h1a1.08,1.08,0,0,0,.3.86,1.15,1.15,0,0,0,.77.25,1.07,1.07,0,0,0,.75-.23A.81.81,0,0,0,24.66,26.19Z"/></g></g></svg>