<svg xmlns="http://www.w3.org/2000/svg" viewBox="0 0 29.77 31.01"><defs><style>.cls-1,.cls-4{fill:#fff;}.cls-1,.cls-3,.cls-4{stroke:#174193;stroke-miterlimit:10;}.cls-1{stroke-width:0.26px;}.cls-2{fill:#d21e18;}.cls-3{fill:#174193;stroke-width:0.34px;}.cls-4{stroke-width:0.22px;}</style></defs><g id="Capa_2" data-name="Capa 2"><g id="Capa_1-2" data-name="Capa 1"><path class="cls-1" d="M.13.13H18a5.59,5.59,0,0,1,5.59,5.59V30.86a0,0,0,0,1,0,0H.13a0,0,0,0,1,0,0V.13A0,0,0,0,1,.13.13Z"/><rect class="cls-2" x="4" y="14.47" width="15.76" height="1.33" rx="0.66"/><rect class="cls-2" x="4" y="17.95" width="15.76" height="1.33" rx="0.66"/><rect class="cls-2" x="4" y="10.83" width="15.76" height="1.33" rx="0.66"/><path class="cls-3" d="M23.43,30.84h-.2a5.57,5.57,0,0,1-5.58-5.57V17.35l6-1.55,6,1.55v7.33A6.16,6.16,0,0,1,23.43,30.84Z"/><path class="cls-4" d="M23.46,29.92h-.18A4.89,4.89,0,0,1,18.38,25v-7l5.25-1.36,5.24,1.36v6.43A5.41,5.41,0,0,1,23.46,29.92Z"/><path class="cls-2" d="M26.54,19.44a49.18,49.18,0,0,0-4.69,6L20.54,24c-.54-.59-1.43.3-.88.89l1.83,2a.63.63,0,0,0,1-.13,45.9,45.9,0,0,1,5-6.41C28,19.74,27.09,18.85,26.54,19.44Z"/></g></g></svg>