<svg xmlns="http://www.w3.org/2000/svg" viewBox="0 0 27.3 34.87"><defs><style>.cls-1,.cls-4{fill:#fff;}.cls-1{stroke:#174193;stroke-miterlimit:10;stroke-width:0.26px;}.cls-2,.cls-5{fill:#174193;}.cls-3{fill:#d21e18;}.cls-5{font-size:9.33px;font-family:Roboto-Medium, Roboto;font-weight:500;}</style></defs><g id="Capa_2" data-name="Capa 2"><g id="Capa_1-2" data-name="Capa 1"><path class="cls-1" d="M.13.13H18a5.59,5.59,0,0,1,5.59,5.59V30.86a0,0,0,0,1,0,0H.13a0,0,0,0,1,0,0V.13A0,0,0,0,1,.13.13Z"/><rect class="cls-2" x="0.01" y="15.87" width="0.25" height="5.14"/><rect class="cls-2" x="3.54" y="14.54" width="15.76" height="1.33" rx="0.66"/><rect class="cls-2" x="3.54" y="11.79" width="15.76" height="1.33" rx="0.66"/><rect class="cls-2" x="3.54" y="8.55" width="15.76" height="1.33" rx="0.66"/><rect class="cls-2" x="3.54" y="5.38" width="15.76" height="1.33" rx="0.66"/><circle class="cls-3" cx="23.82" cy="26.56" r="3.49"/><circle class="cls-4" cx="23.82" cy="26.56" r="2.42"/><path class="cls-3" d="M26.71,34.32,25.52,33a.19.19,0,0,0-.36.11l-.28,1.76-1.4-4.72c-.05-.18,0-.35.13-.38L25,29.35c.12,0,.26.08.31.25Z"/><path class="cls-3" d="M22.13,34.52l-.27-1.75a.25.25,0,0,0-.44-.15l-1.28,1.21,1.58-4.62c.06-.19.24-.31.38-.26l1.47.5a.34.34,0,0,1,.14.45Z"/><text class="cls-5" transform="translate(10.07 25.87)">2</text></g></g></svg>