<svg xmlns="http://www.w3.org/2000/svg" viewBox="0 0 23.75 30.99"><defs><style>.cls-1{fill:#fff;stroke:#174193;stroke-miterlimit:10;stroke-width:0.26px;}.cls-2{fill:#174193;}</style></defs><g id="Capa_2" data-name="Capa 2"><g id="Capa_1-2" data-name="Capa 1"><path class="cls-1" d="M.13.13H18a5.59,5.59,0,0,1,5.59,5.59V30.86a0,0,0,0,1,0,0H.13a0,0,0,0,1,0,0V.13A0,0,0,0,1,.13.13Z"/><path class="cls-2" d="M6.07,10a.5.5,0,0,0-.16-.39,1.35,1.35,0,0,0-.53-.29,2.23,2.23,0,0,1-.89-.48A1,1,0,0,1,4.19,8a1.06,1.06,0,0,1,.28-.77,1.24,1.24,0,0,1,.78-.36V6.3H5.7v.62a1.16,1.16,0,0,1,.76.38,1.3,1.3,0,0,1,.26.86H6.05a.77.77,0,0,0-.16-.52.54.54,0,0,0-.44-.18A.59.59,0,0,0,5,7.62.6.6,0,0,0,4.87,8,.53.53,0,0,0,5,8.42a1.78,1.78,0,0,0,.55.29,2.39,2.39,0,0,1,.89.48,1.08,1.08,0,0,1,.29.79,1,1,0,0,1-.3.77,1.26,1.26,0,0,1-.81.34v.55H5.19V11.1a1.47,1.47,0,0,1-.83-.36,1.11,1.11,0,0,1-.31-.9v0h.66a.69.69,0,0,0,.2.56.73.73,0,0,0,.49.17.7.7,0,0,0,.5-.16A.52.52,0,0,0,6.07,10Z"/><path class="cls-2" d="M6.07,17.11a.5.5,0,0,0-.16-.39,1.35,1.35,0,0,0-.53-.29A2.23,2.23,0,0,1,4.49,16a1,1,0,0,1-.3-.79,1.05,1.05,0,0,1,.28-.76A1.24,1.24,0,0,1,5.25,14v-.61H5.7v.62a1.16,1.16,0,0,1,.76.38,1.3,1.3,0,0,1,.26.86H6.05a.77.77,0,0,0-.16-.52.55.55,0,0,0-.44-.19.59.59,0,0,0-.44.16.6.6,0,0,0-.14.41.53.53,0,0,0,.15.39,1.78,1.78,0,0,0,.55.29,2.39,2.39,0,0,1,.89.48,1.07,1.07,0,0,1,.29.79,1,1,0,0,1-.3.77,1.26,1.26,0,0,1-.81.34v.55H5.19v-.54a1.47,1.47,0,0,1-.83-.36,1.13,1.13,0,0,1-.31-.9v0h.66a.7.7,0,0,0,.2.56.73.73,0,0,0,.49.17.75.75,0,0,0,.5-.16A.52.52,0,0,0,6.07,17.11Z"/><path class="cls-2" d="M6.07,24.54a.5.5,0,0,0-.16-.39,1.35,1.35,0,0,0-.53-.29,2.23,2.23,0,0,1-.89-.48,1,1,0,0,1-.3-.78,1.06,1.06,0,0,1,.28-.77,1.24,1.24,0,0,1,.78-.36v-.61H5.7v.62a1.13,1.13,0,0,1,.76.39,1.25,1.25,0,0,1,.26.85H6.05a.73.73,0,0,0-.16-.51A.52.52,0,0,0,5.45,22a.59.59,0,0,0-.44.15.6.6,0,0,0-.14.41A.53.53,0,0,0,5,23a1.59,1.59,0,0,0,.55.29,2.39,2.39,0,0,1,.89.48,1.08,1.08,0,0,1,.29.79,1,1,0,0,1-.3.77,1.21,1.21,0,0,1-.81.34v.55H5.19v-.54a1.4,1.4,0,0,1-.83-.36,1.11,1.11,0,0,1-.31-.9h.66a.68.68,0,0,0,.2.55.73.73,0,0,0,.49.17A.75.75,0,0,0,5.9,25,.56.56,0,0,0,6.07,24.54Z"/><rect class="cls-2" x="7.95" y="7.79" width="11.36" height="1.18" rx="0.59"/><rect class="cls-2" x="7.95" y="15.51" width="11.36" height="1.18" rx="0.59"/><rect class="cls-2" x="7.95" y="22.94" width="11.36" height="1.18" rx="0.59"/></g></g></svg>