<svg xmlns="http://www.w3.org/2000/svg" viewBox="0 0 31.57 37.42"><defs><style>.cls-1,.cls-4{fill:#fff;}.cls-1{stroke:#174193;stroke-miterlimit:10;stroke-width:0.26px;}.cls-2{fill:#174193;}.cls-3{fill:#d21e18;}</style></defs><g id="Capa_2" data-name="Capa 2"><g id="Capa_1-2" data-name="Capa 1"><path class="cls-1" d="M4,1.67h17.9a5.59,5.59,0,0,1,5.59,5.59V32.41a0,0,0,0,1,0,0H4a0,0,0,0,1,0,0V1.67A0,0,0,0,1,4,1.67Z"/><rect class="cls-2" x="8.34" y="10.09" width="14.43" height="1.08" rx="0.54"/><rect class="cls-2" x="8.34" y="23.69" width="14.43" height="1.08" rx="0.54"/><polygon class="cls-3" points="15.16 12.23 16.76 15.47 20.32 15.98 17.74 18.5 18.35 22.05 15.16 20.37 11.97 22.05 12.58 18.5 10 15.98 13.57 15.47 15.16 12.23"/><path class="cls-4" d="M15.71,18a.44.44,0,0,0-.13-.33,1.2,1.2,0,0,0-.43-.23,1.72,1.72,0,0,1-.73-.39,1,1,0,0,1,0-1.27,1,1,0,0,1,.63-.29V15h.37v.51a.9.9,0,0,1,.61.31,1,1,0,0,1,.22.7h-.55a.66.66,0,0,0-.12-.42.47.47,0,0,0-.36-.16.48.48,0,0,0-.36.13.45.45,0,0,0-.12.34.41.41,0,0,0,.12.31,1.29,1.29,0,0,0,.45.24,2.06,2.06,0,0,1,.73.39.9.9,0,0,1,.23.64.82.82,0,0,1-.24.63,1.06,1.06,0,0,1-.66.28v.45H15v-.44a1.1,1.1,0,0,1-.68-.3.9.9,0,0,1-.26-.73h.54a.58.58,0,0,0,.16.45.62.62,0,0,0,.41.14.55.55,0,0,0,.4-.13A.42.42,0,0,0,15.71,18Z"/><path class="cls-1" d="M4.86,3.34h17.9a5.59,5.59,0,0,1,5.59,5.59V34.08a0,0,0,0,1,0,0H4.86a0,0,0,0,1,0,0V3.34a0,0,0,0,1,0,0Z" transform="translate(7.74 -4.69) rotate(20.84)"/><rect class="cls-2" x="11.45" y="12.09" width="14.43" height="1.08" rx="0.54" transform="translate(5.71 -5.82) rotate(20.84)"/><rect class="cls-2" x="6.62" y="24.8" width="14.43" height="1.08" rx="0.54" transform="translate(9.92 -3.26) rotate(20.84)"/><polygon class="cls-3" points="17.73 13.99 18.07 17.58 21.22 19.33 17.92 20.76 17.22 24.3 14.84 21.6 11.26 22.03 13.09 18.93 11.58 15.66 15.09 16.45 17.73 13.99"/><path class="cls-4" d="M16.21,19.54a.44.44,0,0,0,0-.34,1.26,1.26,0,0,0-.32-.38,1.75,1.75,0,0,1-.54-.62.81.81,0,0,1,0-.68.9.9,0,0,1,.44-.51,1,1,0,0,1,.69,0l.18-.47.34.13-.18.47a1,1,0,0,1,.47.52,1,1,0,0,1-.05.72h0l-.5-.19a.68.68,0,0,0,0-.44.44.44,0,0,0-.28-.27.46.46,0,0,0-.38,0,.45.45,0,0,0-.23.27.4.4,0,0,0,0,.34,1.43,1.43,0,0,0,.33.38,1.83,1.83,0,0,1,.54.62.91.91,0,0,1,0,.69.89.89,0,0,1-.45.5,1.09,1.09,0,0,1-.72,0l-.16.41-.34-.13.16-.41a1.06,1.06,0,0,1-.53-.51.93.93,0,0,1,0-.78h0l.51.19a.54.54,0,0,0,0,.48.57.57,0,0,0,.33.27.6.6,0,0,0,.41,0A.46.46,0,0,0,16.21,19.54Z"/></g></g></svg>