<svg xmlns="http://www.w3.org/2000/svg" viewBox="0 0 23.75 30.99"><defs><style>.cls-1,.cls-3{fill:#fff;stroke:#174193;stroke-miterlimit:10;}.cls-1{stroke-width:0.26px;}.cls-2{fill:#174193;}.cls-3{stroke-width:0.29px;}.cls-4{fill:#d21e18;}</style></defs><g id="Capa_2" data-name="Capa 2"><g id="Capa_1-2" data-name="Capa 1"><path class="cls-1" d="M.13.13H18a5.59,5.59,0,0,1,5.59,5.59V30.86a0,0,0,0,1,0,0H.13a0,0,0,0,1,0,0V.13A0,0,0,0,1,.13.13Z"/><rect class="cls-2" x="0.01" y="15.87" width="0.25" height="5.14"/><rect class="cls-2" x="3.54" y="14.54" width="15.76" height="1.33" rx="0.66"/><rect class="cls-2" x="3.54" y="11.79" width="15.76" height="1.33" rx="0.66"/><rect class="cls-2" x="3.54" y="8.55" width="15.76" height="1.33" rx="0.66"/><rect class="cls-2" x="3.54" y="5.38" width="15.76" height="1.33" rx="0.66"/><rect class="cls-3" x="8.76" y="20.92" width="4.92" height="4.56" rx="1.51"/><path class="cls-4" d="M16.19,17.21a48.22,48.22,0,0,0-4.69,6c-.44-.48-.88-1-1.31-1.43s-1.43.29-.89.89l1.83,2a.63.63,0,0,0,1-.13,46.67,46.67,0,0,1,5-6.41C17.62,17.51,16.73,16.62,16.19,17.21Z"/></g></g></svg>