<svg xmlns="http://www.w3.org/2000/svg" viewBox="0 0 23.75 30.99"><defs><style>.cls-1,.cls-2{fill:#fff;stroke:#174193;}.cls-1,.cls-2,.cls-4{stroke-miterlimit:10;}.cls-1{stroke-width:0.26px;}.cls-2{stroke-width:0.29px;}.cls-3{fill:#d21e18;}.cls-4{fill:#174193;stroke:#fff;stroke-width:0.5px;}</style></defs><g id="Capa_2" data-name="Capa 2"><g id="Capa_1-2" data-name="Capa 1"><path class="cls-1" d="M.13.13H18a5.59,5.59,0,0,1,5.59,5.59V30.86a0,0,0,0,1,0,0H.13a0,0,0,0,1,0,0V.13A0,0,0,0,1,.13.13Z"/><rect class="cls-2" x="9.64" y="7.32" width="4.92" height="4.56" rx="1.51"/><path class="cls-3" d="M17.07,3.61a49.18,49.18,0,0,0-4.69,6L11.07,8.16c-.54-.59-1.43.29-.88.89s1.22,1.32,1.82,2a.64.64,0,0,0,1-.13A45.9,45.9,0,0,1,18,4.5C18.5,3.9,17.62,3,17.07,3.61Z"/><path class="cls-4" d="M10.22,18.39h3.31a3.29,3.29,0,0,1,3.29,3.29v5a.9.9,0,0,1-.91.9h-8a1,1,0,0,1-1-1V21.68A3.29,3.29,0,0,1,10.22,18.39Z"/><circle class="cls-4" cx="11.88" cy="16.83" r="3.18"/></g></g></svg>