<svg xmlns="http://www.w3.org/2000/svg" viewBox="0 0 31.16 31.06"><defs><style>.cls-1,.cls-4{fill:#fff;}.cls-1,.cls-3{stroke:#174193;stroke-miterlimit:10;}.cls-1{stroke-width:0.26px;}.cls-2,.cls-3{fill:#174193;}.cls-3{stroke-width:0.34px;}.cls-5{fill:#d21e18;}</style></defs><g id="Capa_2" data-name="Capa 2"><g id="Capa_1-2" data-name="Capa 1"><path class="cls-1" d="M.13.13H18a5.59,5.59,0,0,1,5.59,5.59V30.86a0,0,0,0,1,0,0H.13a0,0,0,0,1,0,0V.13A0,0,0,0,1,.13.13Z"/><rect class="cls-2" x="5.36" y="8.18" width="12.88" height="1.05" rx="0.53"/><polygon class="cls-2" points="19.17 8.71 18.08 9.34 16.99 9.96 16.99 8.71 16.99 7.45 18.08 8.08 19.17 8.71"/><rect class="cls-2" x="6.29" y="12.31" width="12.88" height="1.05" rx="0.53" transform="translate(25.46 25.67) rotate(-180)"/><polygon class="cls-2" points="5.36 12.84 6.44 12.21 7.53 11.58 7.53 12.84 7.53 14.09 6.44 13.46 5.36 12.84"/><path class="cls-2" d="M13.59,21.32a.82.82,0,0,0-.24-.61,2.11,2.11,0,0,0-.82-.44,3.44,3.44,0,0,1-1.37-.74,1.6,1.6,0,0,1-.46-1.21,1.62,1.62,0,0,1,.44-1.18,1.87,1.87,0,0,1,1.19-.55v-.94H13v1a1.8,1.8,0,0,1,1.17.6,2,2,0,0,1,.4,1.31v0h-1a1.2,1.2,0,0,0-.24-.79.81.81,0,0,0-.68-.3.86.86,0,0,0-.67.24.88.88,0,0,0-.22.63.81.81,0,0,0,.22.6,2.58,2.58,0,0,0,.85.45,3.57,3.57,0,0,1,1.37.74,1.63,1.63,0,0,1,.45,1.21,1.6,1.6,0,0,1-.45,1.19,2.08,2.08,0,0,1-1.26.53v.84h-.68V23A2.06,2.06,0,0,1,11,22.48a1.73,1.73,0,0,1-.49-1.38v0h1a1,1,0,0,0,.31.85,1.13,1.13,0,0,0,.76.26,1.1,1.1,0,0,0,.76-.24A.8.8,0,0,0,13.59,21.32Z"/><circle class="cls-3" cx="23.63" cy="24.66" r="6.22"/><circle class="cls-4" cx="23.63" cy="24.66" r="5.39"/><path class="cls-5" d="M29.75,18a66,66,0,0,0-6.16,7.88l-1.72-1.91c-.71-.77-1.87.38-1.16,1.17l2.41,2.63a.83.83,0,0,0,1.17,0,1.24,1.24,0,0,0,.14-.18A59.22,59.22,0,0,1,31,19.12C31.62,18.34,30.47,17.17,29.75,18Z"/></g></g></svg>