<svg xmlns="http://www.w3.org/2000/svg" viewBox="0 0 30.02 30.99"><defs><style>.cls-1,.cls-4{fill:#fff;}.cls-1,.cls-3{stroke:#174193;stroke-miterlimit:10;}.cls-1{stroke-width:0.26px;}.cls-2{fill:#d21e18;}.cls-3{fill:#174193;stroke-width:0.34px;}.cls-5{fill:#143263;}</style></defs><g id="Capa_2" data-name="Capa 2"><g id="Capa_1-2" data-name="Capa 1"><path class="cls-1" d="M.13.13H18a5.59,5.59,0,0,1,5.59,5.59h0V30.86H.13V.13Z"/><rect class="cls-2" x="4.1" y="18.63" width="15.76" height="1.33" rx="0.66"/><rect class="cls-2" x="4.1" y="14.83" width="15.76" height="1.33" rx="0.66"/><rect class="cls-2" x="4.1" y="10.94" width="15.76" height="1.33" rx="0.66"/><circle class="cls-3" cx="23.63" cy="24.5" r="6.22"/><circle class="cls-4" cx="23.63" cy="24.5" r="5.39"/><polygon class="cls-5" points="18.36 30.7 17.63 30.52 17.4 29.74 23.19 23.95 24.15 24.91 18.36 30.7"/><rect class="cls-5" x="22.82" y="23.57" width="1.65" height="1.72" transform="translate(-10.35 23.88) rotate(-45)"/><rect class="cls-5" x="23.34" y="20.8" width="2.73" height="5.17" transform="translate(-9.3 24.32) rotate(-45)"/><rect class="cls-5" x="21.19" y="20.76" width="3.38" height="1.57" transform="translate(-8.54 22.49) rotate(-45)"/><rect class="cls-5" x="24.86" y="24.44" width="3.38" height="1.57" transform="translate(-10.06 26.16) rotate(-45)"/><rect class="cls-5" x="24.54" y="21.14" width="1.17" height="3.66" transform="translate(-8.88 24.5) rotate(-45)"/><rect class="cls-5" x="24.86" y="21.35" width="0.14" height="2.12" transform="translate(-8.55 24.19) rotate(-45)"/><rect class="cls-5" x="22.7" y="24.18" width="0.59" height="0.13" transform="translate(-10.41 23.36) rotate(-45)"/><rect class="cls-5" x="21.44" y="20.65" width="2.87" height="1.08" transform="translate(-8.28 22.38) rotate(-45)"/><rect class="cls-5" x="25.24" y="24.6" width="2.87" height="0.79" transform="translate(-9.86 26.18) rotate(-45)"/><rect class="cls-5" x="22.62" y="20.55" width="1.16" height="0.12" transform="translate(-7.78 22.44) rotate(-45)"/><rect class="cls-5" x="26.8" y="24.26" width="0.77" height="0.11" transform="translate(-9.23 26.34) rotate(-45)"/><polygon class="cls-5" points="17.4 29.74 17.63 30.52 17.87 30.58 22.98 25.48 22.32 24.82 17.4 29.74"/></g></g></svg>