<svg xmlns="http://www.w3.org/2000/svg" viewBox="0 0 30.06 31.9"><defs><style>.cls-1,.cls-2,.cls-5{fill:#fff;}.cls-1,.cls-2,.cls-4{stroke:#174193;stroke-miterlimit:10;}.cls-1{stroke-width:0.26px;}.cls-2{stroke-width:0.29px;}.cls-3{fill:#d21e18;}.cls-4,.cls-6{fill:#174193;}.cls-4{stroke-width:0.34px;}.cls-6{font-size:6.77px;font-family:Roboto-Medium, Roboto;font-weight:500;}</style></defs><g id="Capa_2" data-name="Capa 2"><g id="Capa_1-2" data-name="Capa 1"><path class="cls-1" d="M.13.13H18a5.59,5.59,0,0,1,5.59,5.59V30.86a0,0,0,0,1,0,0H.13a0,0,0,0,1,0,0V.13A0,0,0,0,1,.13.13Z"/><rect class="cls-2" x="8.96" y="8.32" width="4.92" height="4.56" rx="1.51"/><rect class="cls-2" x="8.96" y="20.55" width="4.92" height="4.56" rx="1.51"/><rect class="cls-2" x="8.96" y="14.5" width="4.92" height="4.56" rx="1.51"/><path class="cls-3" d="M16.39,4.61a49.18,49.18,0,0,0-4.69,6L10.39,9.16c-.55-.59-1.43.29-.89.89l1.83,2a.63.63,0,0,0,1-.13,47.46,47.46,0,0,1,5-6.41C17.82,4.9,16.94,4,16.39,4.61Z"/><circle class="cls-4" cx="23.67" cy="25.5" r="6.22"/><circle class="cls-5" cx="23.67" cy="25.5" r="5.39"/><text class="cls-6" transform="translate(21.75 27.56)">1</text></g></g></svg>