<svg xmlns="http://www.w3.org/2000/svg" viewBox="0 0 36.25 36.85"><defs><style>.cls-1,.cls-3{fill:#fff;}.cls-1{stroke:#174193;stroke-miterlimit:10;stroke-width:0.26px;}.cls-2{fill:#d21e18;}</style></defs><g id="Capa_2" data-name="Capa 2"><g id="Capa_1-2" data-name="Capa 1"><path class="cls-1" d="M6.11,3H24A5.59,5.59,0,0,1,29.6,8.6V33.74a0,0,0,0,1,0,0H6.11a0,0,0,0,1,0,0V3A0,0,0,0,1,6.11,3Z"/><rect class="cls-2" x="10.08" y="21.51" width="15.76" height="1.33" rx="0.66"/><circle class="cls-2" cx="18.05" cy="10.89" r="3.49"/><circle class="cls-3" cx="18.05" cy="10.89" r="2.42"/><path class="cls-2" d="M21,18.65l-1.2-1.33c-.14-.15-.32-.1-.36.11l-.27,1.76-1.4-4.72a.29.29,0,0,1,.12-.38l1.39-.41c.12,0,.26.07.32.25Z"/><path class="cls-2" d="M16.37,18.84l-.28-1.74a.25.25,0,0,0-.44-.15l-1.28,1.21L16,13.54c.07-.2.24-.31.39-.26l1.46.5a.34.34,0,0,1,.15.44Z"/><path class="cls-2" d="M12.14,28.17h0l-.11.11-.13.09a1.59,1.59,0,0,1-.29.15,1.87,1.87,0,0,1-.62.1,2.57,2.57,0,0,1-.62-.08l-.25-.07a.4.4,0,0,1,0,.15.7.7,0,0,1-.05.37.65.65,0,0,1-.09.16.62.62,0,0,1-.14.14l0,0,0,0-.12,0h0l0,0,0,0s0,0,0,0a.11.11,0,0,1,0-.05s0,0,0-.06a.28.28,0,0,1,0-.09.94.94,0,0,1,0-.16c0-.1.05-.21.08-.31s.07-.2.1-.3v0a.06.06,0,0,1,0-.07l0,0L9.86,28q.09-.3.21-.6c0-.1.07-.19.11-.29l0-.07a.2.2,0,0,1,0-.08l.07-.15a1.34,1.34,0,0,1,.11-.14.77.77,0,0,1,.13-.12l.09,0a.2.2,0,0,1,.11,0h.06l.06,0a.36.36,0,0,1,.07.1s0,.06,0,.09a.63.63,0,0,1,0,.18.19.19,0,0,1,0,.08,1.59,1.59,0,0,1-.15.29l-.18.26a2.43,2.43,0,0,1-.2.25l-.29.3L10,28.3h0l.07,0,.29.09a2.32,2.32,0,0,0,.59.07,1.61,1.61,0,0,0,.58-.1,1.41,1.41,0,0,0,.49-.31h0a.06.06,0,0,1,.08.08Zm-2.45,1h0Zm.36-.52a.37.37,0,0,0,0-.15.33.33,0,0,0,0-.06h0c0,.09-.07.18-.1.28a2.45,2.45,0,0,0-.08.29c0,.05,0,.1,0,.14h0a.32.32,0,0,0,.12-.08.34.34,0,0,0,.09-.12.44.44,0,0,0,0-.15A.43.43,0,0,0,10.05,28.63Zm.12-.74,0,0,.11-.11a3,3,0,0,0,.36-.5A1.31,1.31,0,0,0,10.8,27a.19.19,0,0,0,0-.07.17.17,0,0,0,0-.07v-.06a.14.14,0,0,0,0-.06s0,0,0,0h0l0,0s0,0-.05,0l-.08.1a.75.75,0,0,0-.07.12l-.06.13,0,.07,0,.08c0,.09-.07.19-.11.29Z"/><path class="cls-2" d="M14.41,28.17h0l-.12.11-.13.09a1.51,1.51,0,0,1-.28.15,1.87,1.87,0,0,1-.62.1,2.72,2.72,0,0,1-.63-.08l-.24-.07,0,.15a1.28,1.28,0,0,1,0,.19,1.16,1.16,0,0,1,0,.18,1.4,1.4,0,0,1-.1.16.47.47,0,0,1-.14.14l0,0-.05,0a.35.35,0,0,1-.11,0h0l0,0s0,0,0,0l0,0a.11.11,0,0,1,0-.05v-.06s0-.06,0-.09,0-.11,0-.16l.09-.31.09-.3v0s0-.05,0-.07l0,0,.06-.17.21-.6.12-.29,0-.07,0-.08a1.09,1.09,0,0,1,.08-.15l.1-.14.13-.12.09,0a.24.24,0,0,1,.12,0h.06l.05,0a.17.17,0,0,1,.07.1.29.29,0,0,1,0,.09v.1s0,0,0,.08l0,.08a1.59,1.59,0,0,1-.15.29,2.33,2.33,0,0,1-.17.26,2.52,2.52,0,0,1-.21.25l-.29.3-.07.19h0l.08,0,.28.09a2.46,2.46,0,0,0,.6.07,1.69,1.69,0,0,0,.58-.1,1.28,1.28,0,0,0,.48-.31h0a.06.06,0,0,1,.09,0A.06.06,0,0,1,14.41,28.17Zm-2.45,1h0Zm.36-.52a.37.37,0,0,0,0-.15.33.33,0,0,0,0-.06h0l-.09.28-.09.29,0,.14h0a.42.42,0,0,0,.12-.08,1.25,1.25,0,0,0,.09-.12.88.88,0,0,0,.05-.15A.86.86,0,0,0,12.32,28.63Zm.12-.74,0,0,.1-.11a2.54,2.54,0,0,0,.36-.5,1.34,1.34,0,0,0,.13-.27s0,0,0-.07,0,0,0-.07a.13.13,0,0,0,0-.06s0,0,0-.06l0,0h0l0,0,0,0-.09.1-.06.12a.49.49,0,0,0-.06.13l0,.07,0,.08c0,.09-.07.19-.1.29S12.48,27.77,12.44,27.89Z"/><path class="cls-2" d="M16.71,28.18h0c-.22.1-.44.18-.66.26l-.18,0-.17,0-.35.08-.18,0-.18,0H14.8l-.2,0,0,0h0a0,0,0,0,0,0,0,.44.44,0,0,1-.08-.11.53.53,0,0,1,0-.12s0-.07,0-.11v0l0,0a.09.09,0,0,1,0-.12h0l0-.05,0-.05.08-.1a.11.11,0,0,1,.16,0,.12.12,0,0,1,0,.1v0a.08.08,0,0,0,0,0v0l0,0,0,0,0,0a.16.16,0,0,1,0,.07.25.25,0,0,0,0,.07.19.19,0,0,0,0,.12s0,0,0,.05h0l0,0,.15,0H15l.34,0,.35-.07.17,0,.16-.05a4.2,4.2,0,0,0,.65-.26.06.06,0,1,1,.06.1Zm-2-.44a.11.11,0,0,1,0-.16l0-.06a.11.11,0,0,1,.16-.07.11.11,0,0,1,.06.16.33.33,0,0,1-.11.16.1.1,0,0,1-.07,0A.1.1,0,0,1,14.67,27.74Z"/><path class="cls-2" d="M19.25,28.17h0a3,3,0,0,1-.46.26l-.25.11-.25.08L18,28.7l-.26,0-.27,0h-.27a1,1,0,0,1-.28-.07l-.14-.07a.43.43,0,0,1-.11-.12s0-.05,0-.08,0,0,0,0v0h0a.86.86,0,0,1,0-.16.43.43,0,0,1,.05-.16l0-.07.05-.06a.57.57,0,0,1,.11-.11l.07,0a.24.24,0,0,1,.09,0h.11a.21.21,0,0,1,.1.06.22.22,0,0,1,.05.11.17.17,0,0,1,0,.1v0l0,0a.18.18,0,0,1,0,.07.29.29,0,0,1-.14.08.3.3,0,0,1-.16,0h0v.07l0,.08a.41.41,0,0,0,.15.14.83.83,0,0,0,.22.08l.13,0h.12a2.26,2.26,0,0,0,.26,0l.25,0,.25-.06.25-.08.23-.1a2,2,0,0,0,.44-.27.05.05,0,0,1,.08,0A.05.05,0,0,1,19.25,28.17ZM16.92,28a.25.25,0,0,0,0,.07h0l.1,0,.08-.06a.05.05,0,0,0,0,0v0h0v0H17l0,0A.3.3,0,0,0,16.92,28Z"/><path class="cls-2" d="M21.54,28.18h0c-.21.1-.44.18-.66.26l-.17,0-.18,0-.35.08-.17,0-.19,0h-.18l-.2,0-.05,0h0a0,0,0,0,0,0,0,.44.44,0,0,1-.08-.11.5.5,0,0,1,0-.12.4.4,0,0,1,0-.11v-.05a.08.08,0,0,1,0-.12h0l0-.05,0-.05.08-.1a.11.11,0,0,1,.16,0,.1.1,0,0,1,.05.1v0a.08.08,0,0,0,0,0v0l0,0,0,0,0,0,0,.07a.36.36,0,0,0,0,.07.19.19,0,0,0,0,.12s0,0,0,.05h0l0,0,.15,0h.17l.34,0,.35-.07.17,0,.17-.05a4.51,4.51,0,0,0,.64-.26.06.06,0,0,1,.06.1Zm-2-.44a.11.11,0,0,1,0-.16l0-.06a.12.12,0,1,1,.22.09.33.33,0,0,1-.11.16.1.1,0,0,1-.07,0A.1.1,0,0,1,19.5,27.74Z"/><path class="cls-2" d="M24,28.19a5.31,5.31,0,0,1-.81.19,3,3,0,0,1-.42.05h-.43a.63.63,0,0,1-.22-.07l-.09-.07,0,0v0a.52.52,0,0,1-.11.19l0,.05-.05,0-.06,0-.08,0h-.06a.08.08,0,0,1,0,0,.15.15,0,0,1-.05-.07.27.27,0,0,1,0-.15.49.49,0,0,1,0-.12.13.13,0,0,1,0-.06.12.12,0,0,1,0-.17h0v0s0,0,0,0,0,0,0,0v0h0l0,0h.13s0,0,0,0h0v0h0a.06.06,0,0,1,0,0v0a.14.14,0,0,0,0,.06l0,.1a.23.23,0,0,0,0,.11.29.29,0,0,0,0,.09s0,0,0,.05a0,0,0,0,0,0,0v0h0l0,0,0,0a.35.35,0,0,0,.05-.08l.05-.09s0-.08,0-.12a.57.57,0,0,1,0-.18.41.41,0,0,1,0-.11s0,0,0,0h.12a.13.13,0,0,1,0,.06.81.81,0,0,1,0,.22v.05a.34.34,0,0,0,.12.12.48.48,0,0,0,.18.05h.2a.34.34,0,0,0,.1,0h.1a2.87,2.87,0,0,0,.41,0,5.47,5.47,0,0,0,.8-.19h0a.06.06,0,0,1,.07,0A.06.06,0,0,1,24,28.19Zm-2.43-.27Zm.12.56h0Z"/><path class="cls-2" d="M26.48,28.17l-.06,0-.07,0a.42.42,0,0,1-.14.06l-.3.07h-.3l-.3,0a2.36,2.36,0,0,1-.58-.15l-.21-.1v.11h0v0s0,0,0,.06a.61.61,0,0,1-.05.12l-.08.11-.06,0a.11.11,0,0,1-.08,0h-.09l-.08,0a.25.25,0,0,1-.12-.13.34.34,0,0,1-.05-.14v-.14s0,0,0-.07a.14.14,0,0,1,0-.06A.5.5,0,0,1,24,28a.75.75,0,0,1,.07-.12l.06-.05,0,0,.06,0h0a.12.12,0,0,1,.13.1l0,0a.27.27,0,0,1,.07.08,1.17,1.17,0,0,0,.31.17,2,2,0,0,0,.55.14,2.18,2.18,0,0,0,.57,0,1.31,1.31,0,0,0,.27-.06l.13-.05a821056545220.82,821056545220.82,0,0,0,.1-.08h0a.06.06,0,1,1,.07.09Zm-2.37-.29Zm.3.23s0,0,0-.06L24.32,28l-.07.09-.08.06,0,.11a.35.35,0,0,0,0,.15l0,.05a0,0,0,0,0,0,0h0s0,0,.07,0l.06-.06a.41.41,0,0,0,.05-.09s0,0,0,0v0h0v0A.33.33,0,0,0,24.41,28.11Z"/><path class="cls-1" d="M9.95,3h17.9A5.59,5.59,0,0,1,33.45,8.6V33.74a0,0,0,0,1,0,0H9.95a0,0,0,0,1,0,0V3a0,0,0,0,1,0,0Z" transform="translate(6.6 -5.72) rotate(17.67)"/><rect class="cls-2" x="12.76" y="21.36" width="15.76" height="1.33" rx="0.66" transform="translate(7.66 -5.22) rotate(17.67)"/><circle class="cls-2" cx="24.15" cy="11.3" r="3.49"/><circle class="cls-3" cx="24.15" cy="11.3" r="2.42"/><path class="cls-2" d="M24.56,19.57,23.82,18a.19.19,0,0,0-.37,0l-.8,1.6.1-4.93c0-.18.11-.33.23-.32l1.45,0c.13,0,.23.15.23.33Z"/><path class="cls-2" d="M20.14,18.37l.26-1.75a.24.24,0,0,0-.37-.27l-1.59.76,2.91-3.92a.33.33,0,0,1,.45-.13L23,14a.34.34,0,0,1,0,.46Z"/><path class="cls-2" d="M13.28,26h0l-.14.06-.16.05a1.06,1.06,0,0,1-.31.05,1.91,1.91,0,0,1-.63-.08,2.63,2.63,0,0,1-.56-.27.8.8,0,0,1-.21-.15.78.78,0,0,1,0,.16l-.06.17a.72.72,0,0,1-.24.29.51.51,0,0,1-.18.09l0,0h-.17l0,0h0s0,0,0,0l0,0a.11.11,0,0,1,0-.05V26.2s0,0,0-.06,0-.05,0-.08l.08-.14.18-.27L11,25.4l0,0a.06.06,0,0,1,0-.06l0,0,.12-.15c.12-.17.25-.33.38-.5l.19-.24,0-.06.06-.07.12-.11a.71.71,0,0,1,.14-.1.48.48,0,0,1,.16-.08l.1,0a.25.25,0,0,1,.12,0l0,0a.1.1,0,0,1,0,0,.15.15,0,0,1,0,.11.34.34,0,0,1,0,.1l0,.08a.56.56,0,0,1-.05.08l0,.07a2.39,2.39,0,0,1-.22.23l-.25.19-.27.18a2.58,2.58,0,0,1-.37.19l-.12.17h0l.06.06a2.2,2.2,0,0,0,.25.17,2.65,2.65,0,0,0,.54.25,1.66,1.66,0,0,0,.58.08,1.42,1.42,0,0,0,.57-.15h0a.06.06,0,0,1,.08,0A.06.06,0,0,1,13.28,26Zm-2.63.19h0l0,0Zm.5-.38a.88.88,0,0,0,0-.16s0,0,0-.06h0l-.17.24c-.06.09-.12.17-.17.26a.83.83,0,0,0-.08.12h0a.27.27,0,0,0,.14,0,.47.47,0,0,0,.12-.09.54.54,0,0,0,.09-.12A.47.47,0,0,0,11.15,25.78Zm.33-.67,0,0,.14-.08a2.47,2.47,0,0,0,.49-.36,1.51,1.51,0,0,0,.21-.23l0-.06,0-.06a.13.13,0,0,0,0-.06.06.06,0,0,0,0-.06v0l0,0h0l0,0a.26.26,0,0,0-.11.07.87.87,0,0,0-.11.09l-.09.11,0,.06-.05.06-.19.24Z"/><path class="cls-2" d="M15.44,26.66h0l-.15.07-.15.05a1.67,1.67,0,0,1-.31,0,1.69,1.69,0,0,1-.63-.09,2.44,2.44,0,0,1-.57-.26l-.21-.15a.81.81,0,0,1,0,.16.87.87,0,0,1-.07.17.83.83,0,0,1-.09.16.86.86,0,0,1-.14.13.61.61,0,0,1-.18.09l0,0h-.2l0,0a.06.06,0,0,1,0,0,.08.08,0,0,1,0,0v-.05l0-.06a.2.2,0,0,1,0-.08.64.64,0,0,1,.08-.14l.18-.27.18-.26,0,0a.06.06,0,0,1,0-.07h0l.11-.15c.13-.17.25-.34.38-.5a2.43,2.43,0,0,0,.2-.25l0-.06L14,25l.12-.12.14-.1a.46.46,0,0,1,.16-.07l.1,0a.2.2,0,0,1,.11,0,.09.09,0,0,1,.06,0,.1.1,0,0,1,0,.05.21.21,0,0,1,0,.11s0,.06,0,.09a.36.36,0,0,1,0,.09l0,.08-.05.06a1.67,1.67,0,0,1-.23.23,2.43,2.43,0,0,1-.25.2l-.26.17a3.35,3.35,0,0,1-.37.2l-.12.16h0l.06.05a2.27,2.27,0,0,0,.25.18,2.65,2.65,0,0,0,.54.25,1.66,1.66,0,0,0,.58.08,1.33,1.33,0,0,0,.56-.15h0a.06.06,0,1,1,.06.1Zm-2.63.19h0l0,0Zm.5-.39a.77.77,0,0,0,0-.15s0,0,0-.06h0l-.17.24-.18.26-.07.12h0a.33.33,0,0,0,.14,0,.38.38,0,0,0,.13-.09l.09-.13A.52.52,0,0,0,13.31,26.46Zm.33-.66,0,0,.14-.07a3.5,3.5,0,0,0,.49-.37,1.45,1.45,0,0,0,.21-.22l0-.06,0-.06s0,0,0-.06,0,0,0-.06,0,0,0,0h-.07l0,0a.41.41,0,0,0-.11.07l-.11.1-.1.11,0,.05,0,.07-.19.24Z"/><path class="cls-2" d="M17.63,27.37h0a5.63,5.63,0,0,1-.71,0h-.36l-.36,0-.17,0-.18,0-.18-.05a.56.56,0,0,1-.17-.09l-.05,0s0,0,0,0l0,0a.56.56,0,0,1,0-.12.53.53,0,0,1,0-.13l0-.1,0,0v0a.1.1,0,0,1,0-.12h0l0,0,.05,0,.11-.07a.11.11,0,0,1,.16,0,.09.09,0,0,1,0,.11h0l0,0v0l0,0,0,0,0,0-.06.06s0,0-.05,0a.21.21,0,0,0,0,.11v0h0l0,0,.14.08.15.07.34.07.35,0h.35a4.14,4.14,0,0,0,.7-.06.06.06,0,0,1,.06.05A.06.06,0,0,1,17.63,27.37Zm-1.81-1a.11.11,0,0,1,.07-.15l0-.05a.12.12,0,1,1,.19.15.4.4,0,0,1-.16.12.11.11,0,0,1-.08,0A.12.12,0,0,1,15.82,26.34Z"/><path class="cls-2" d="M20.05,28.14h0a3.21,3.21,0,0,1-.52.11l-.27,0H19l-.27,0a2.3,2.3,0,0,1-.26,0l-.26-.06-.13-.05-.13,0a.92.92,0,0,1-.25-.15.52.52,0,0,1-.1-.11.36.36,0,0,1-.08-.15s0-.06,0-.09v-.06h0a.49.49,0,0,1,0-.16.57.57,0,0,1,.08-.13l.06-.06.06,0,.15-.06L18,27h.15l.05,0a.24.24,0,0,1,.08.09.25.25,0,0,1,0,.12.21.21,0,0,1,0,.1h0v0l0,0-.07,0-.16,0a.37.37,0,0,1-.15,0l-.05,0s0,0,0,.07a.27.27,0,0,0,0,.09.33.33,0,0,0,.1.17,1,1,0,0,0,.19.15l.11,0,.12.05.24.07.25,0a1.14,1.14,0,0,0,.26,0h.26l.25,0A2.83,2.83,0,0,0,20,28a.07.07,0,0,1,.08,0A.07.07,0,0,1,20.05,28.14Zm-2.17-.86-.07.06h.12a.32.32,0,0,0,.09,0l0,0v0h0s0,0,0,0H18l-.05,0Z"/><path class="cls-2" d="M22.23,28.84h0a5.54,5.54,0,0,1-.71,0h-.36l-.35,0-.18,0-.18,0-.18-.06a.56.56,0,0,1-.17-.09.08.08,0,0,1,0,0,0,0,0,0,1,0,0l0,0a.17.17,0,0,1,0-.12.25.25,0,0,1,0-.12.3.3,0,0,1,0-.1v0h0a.11.11,0,0,1,0-.13h0l.05,0,.06,0,.1-.07a.11.11,0,0,1,.16,0,.13.13,0,0,1,0,.12h0l0,0,0,0,0,0,0,0,0,0-.06.06,0,.06a.41.41,0,0,0-.06.11.06.06,0,0,0,0,0v0h0l0,0a.41.41,0,0,0,.13.08l.16.06.33.08.35,0h.35a4,4,0,0,0,.7-.05s.06,0,.07.05A.08.08,0,0,1,22.23,28.84Zm-1.81-1a.12.12,0,0,1,.07-.15l.06,0a.12.12,0,0,1,.18.15.34.34,0,0,1-.16.13.09.09,0,0,1-.07,0A.11.11,0,0,1,20.42,27.8Z"/><path class="cls-2" d="M24.6,29.59a4.75,4.75,0,0,1-.84-.06,3.1,3.1,0,0,1-.42-.08h-.05l-.05,0-.1,0-.05,0H23l-.05,0,0,0a.85.85,0,0,1-.19-.14.33.33,0,0,1-.06-.1v0l0,0a.81.81,0,0,1-.16.16l0,0-.06,0h-.16l0,0,0-.05a.29.29,0,0,1,0-.09.59.59,0,0,1,0-.14l.05-.12,0-.05a.12.12,0,0,1,.05-.16h0l0,0,0,0v0h.13l0,0,0,0a.05.05,0,0,1,0,0h0l0,0v0l0,.05-.06.09-.06.09-.05.09v0a.06.06,0,0,0,0,0v0h.05l0,0,0,0,.08-.05.07-.07a.61.61,0,0,0,.07-.1.48.48,0,0,1,0-.18.37.37,0,0,1,0-.11l0,0h.1v0h0v.06a.9.9,0,0,1-.08.21v0a.28.28,0,0,0,.08.15.42.42,0,0,0,.15.11l.05,0h0l.05,0,.05,0,.1,0h0l.05,0,.4.08a5.56,5.56,0,0,0,.82,0h0a.06.06,0,0,1,.06.06A.06.06,0,0,1,24.6,29.59Zm-2.24-1Zm-.06.58h0Z"/><path class="cls-2" d="M26.94,30.33l-.07,0h-.08l-.15,0a1.55,1.55,0,0,1-.31,0L26,30.28l-.28-.11a2,2,0,0,1-.5-.32l-.18-.16,0,.09h0v0s0,0,0,0l0,.05a.39.39,0,0,1-.08.1l-.11.08-.07,0h-.09l-.08,0-.08,0a.37.37,0,0,1-.07-.16.38.38,0,0,1,0-.15.74.74,0,0,1,0-.14l0-.06,0-.05.09-.11a.31.31,0,0,1,.11-.08l.07,0h.05a.08.08,0,0,1,.07,0h0a.11.11,0,0,1,.09.13l0,.05a.3.3,0,0,1,0,.1,1.42,1.42,0,0,0,.24.25,2.41,2.41,0,0,0,.48.3,2.28,2.28,0,0,0,.54.18l.28,0h.14l.07,0,.06,0h0a.05.05,0,0,1,.07,0A.05.05,0,0,1,26.94,30.33Zm-2.17-1Zm.22.31v-.06l-.06-.08a.24.24,0,0,1-.08.06.19.19,0,0,1-.1,0l-.06.1a.31.31,0,0,0,0,.15.43.43,0,0,0,0,.05s0,0,0,0h0a.06.06,0,0,0,.06,0,.2.2,0,0,0,.08,0s.05,0,.07-.06l0,0v0h0A.3.3,0,0,0,25,29.64Z"/><polygon class="cls-2" points="6.55 24.4 8.57 28.5 13.1 29.16 9.82 32.35 10.6 36.85 6.55 34.73 2.5 36.85 3.27 32.35 0 29.16 4.53 28.5 6.55 24.4"/></g></g></svg>