<svg xmlns="http://www.w3.org/2000/svg" viewBox="0 0 23.75 30.99"><defs><style>.cls-1,.cls-2{fill:#fff;stroke:#174193;}.cls-1,.cls-2,.cls-4{stroke-miterlimit:10;}.cls-1{stroke-width:0.26px;}.cls-2{stroke-width:0.29px;}.cls-3{fill:#d21e18;}.cls-4{fill:#174193;stroke:#fff;stroke-width:0.5px;}</style></defs><g id="Capa_2" data-name="Capa 2"><g id="Capa_1-2" data-name="Capa 1"><path class="cls-1" d="M.13.13H18a5.59,5.59,0,0,1,5.59,5.59V30.86a0,0,0,0,1,0,0H.13a0,0,0,0,1,0,0V.13A0,0,0,0,1,.13.13Z"/><rect class="cls-2" x="9.64" y="7.32" width="4.92" height="4.56" rx="1.51"/><rect class="cls-2" x="3.37" y="7.32" width="4.92" height="4.56" rx="1.51"/><rect class="cls-2" x="15.92" y="7.32" width="4.92" height="4.56" rx="1.51"/><rect class="cls-2" x="9.64" y="13.21" width="4.92" height="4.56" rx="1.51"/><rect class="cls-2" x="3.37" y="13.21" width="4.92" height="4.56" rx="1.51"/><rect class="cls-2" x="15.92" y="13.21" width="4.92" height="4.56" rx="1.51"/><path class="cls-3" d="M17.07,3.61a49.18,49.18,0,0,0-4.69,6L11.07,8.16c-.54-.59-1.43.29-.88.89s1.22,1.32,1.82,2a.64.64,0,0,0,1-.13A45.9,45.9,0,0,1,18,4.5C18.5,3.9,17.62,3,17.07,3.61Z"/><path class="cls-4" d="M10.83,20.49h2.55A2.54,2.54,0,0,1,15.92,23v3.83a.7.7,0,0,1-.7.7H9.05a.75.75,0,0,1-.76-.75V23A2.54,2.54,0,0,1,10.83,20.49Z"/><circle class="cls-4" cx="12.11" cy="19.29" r="2.45"/></g></g></svg>