<svg xmlns="http://www.w3.org/2000/svg" viewBox="0 0 29.99 31.16"><defs><style>.cls-1,.cls-3{fill:#fff;}.cls-1,.cls-4{stroke:#174193;stroke-miterlimit:10;}.cls-1{stroke-width:0.26px;}.cls-2{fill:#d21e18;}.cls-4,.cls-5{fill:#174193;}.cls-4{stroke-width:0.34px;}</style></defs><g id="Capa_2" data-name="Capa 2"><g id="Capa_1-2" data-name="Capa 1"><path class="cls-1" d="M.13.13H18a5.59,5.59,0,0,1,5.59,5.59h0V30.86H.13V.13Z"/><rect class="cls-2" x="4.1" y="18.63" width="15.76" height="1.33" rx="0.66"/><circle class="cls-2" cx="12.07" cy="8.02" r="3.49"/><circle class="cls-3" cx="12.07" cy="8.02" r="2.42"/><path class="cls-2" d="M15,15.77l-1.21-1.32a.18.18,0,0,0-.25-.09.19.19,0,0,0-.11.2l-.28,1.76L11.75,11.6c-.05-.18,0-.35.13-.38l1.39-.42a.33.33,0,0,1,.31.25Z"/><path class="cls-2" d="M10.38,16l-.27-1.75A.25.25,0,0,0,9.85,14a.28.28,0,0,0-.18.09L8.39,15.28,10,10.66c.06-.19.24-.31.38-.26l1.46.5a.34.34,0,0,1,.15.45Z"/><path class="cls-2" d="M6.16,25.29h0l-.12.1-.13.1a1.47,1.47,0,0,1-.28.14,1.66,1.66,0,0,1-.62.11,2.57,2.57,0,0,1-.62-.08l-.25-.08v.34a.54.54,0,0,1,0,.18.56.56,0,0,1-.09.17.93.93,0,0,1-.14.14H3.75v-.05h0v-.31l.09-.31.09-.3h0a.09.09,0,0,1,0-.07h0L4,25.19l.21-.59.12-.3v-.14A1.09,1.09,0,0,1,4.4,24a.71.71,0,0,1,.1-.14.41.41,0,0,1,.14-.12l.08-.05H5a.15.15,0,0,1,.06.09v.36a2.44,2.44,0,0,1-.14.28l-.18.27-.2.24a2.13,2.13,0,0,1-.3.3l-.06.19h.08a1.31,1.31,0,0,0,.28.09,2.47,2.47,0,0,0,.6.08,1.65,1.65,0,0,0,.58-.1,1.31,1.31,0,0,0,.48-.32h0a.06.06,0,0,1,.08,0,.07.07,0,0,1,0,.08l0,0Zm-2.09.48a.38.38,0,0,0,0-.15v-.06h0L4,25.84l-.09.3v.14h0L4,26.21a.38.38,0,0,0,.09-.13.88.88,0,0,0,.05-.15,1.42,1.42,0,0,0-.08-.18ZM4.19,25h0l.1-.11a2.54,2.54,0,0,0,.36-.5,1.43,1.43,0,0,0,.13-.28V23.9H4.7a.44.44,0,0,0-.08.11.75.75,0,0,0-.07.12l-.06.13v.14a1,1,0,0,1-.1.29c0,.09-.16.2-.2.33Z"/><path class="cls-2" d="M8.43,25.29h0l-.12.1-.13.1a1.55,1.55,0,0,1-.29.14,1.66,1.66,0,0,1-.62.11,2.57,2.57,0,0,1-.62-.08l-.25-.08a.43.43,0,0,1,0,.16.54.54,0,0,1,0,.18.61.61,0,0,1-.05.18.56.56,0,0,1-.09.17.93.93,0,0,1-.14.14H6v-.05H6v-.15a.43.43,0,0,1,0-.16c0-.1,0-.21.08-.31l.1-.3h0a0,0,0,0,1,0-.07h0l.06-.18a5.89,5.89,0,0,1,.21-.59.91.91,0,0,1,.11-.3v-.14A1.09,1.09,0,0,1,6.59,24a.45.45,0,0,1,.1-.14.37.37,0,0,1,.13-.12l.09-.05h.23l.07.09v.36a1.51,1.51,0,0,1-.15.28,2.11,2.11,0,0,1-.18.27l-.2.24a2.76,2.76,0,0,1-.29.3l-.07.19h.07a1.4,1.4,0,0,0,.29.09,2.33,2.33,0,0,0,.59.08,1.65,1.65,0,0,0,.58-.1,1.43,1.43,0,0,0,.49-.32h0a.06.06,0,0,1,.08,0,.06.06,0,0,1,0,.11Zm-2.1.48a.38.38,0,0,0,0-.15v-.06h0a1.52,1.52,0,0,1-.09.28,1.71,1.71,0,0,0-.09.3.33.33,0,0,0,0,.14h0a.24.24,0,0,0,.12-.07.38.38,0,0,0,.09-.13.3.3,0,0,0,0-.15.37.37,0,0,0-.08-.18ZM6.45,25h0l.11-.11a4.54,4.54,0,0,0,.36-.5A1.39,1.39,0,0,0,7,24.15V24a0,0,0,0,0,0-.05H6.92a.44.44,0,0,0-.08.11l-.07.12-.06.13v.14a.79.79,0,0,1-.11.29,2.63,2.63,0,0,0-.15.33Z"/><path class="cls-2" d="M10.75,25.31h0c-.22.09-.44.18-.67.25l-.17.05H9.74l-.35.08H8.6a.18.18,0,0,1-.07-.1.24.24,0,0,1,0-.12.21.21,0,0,1,0-.11h0a.11.11,0,0,1,0-.13h0v-.1A.61.61,0,0,1,8.6,25a.12.12,0,0,1,.17,0h0a.11.11,0,0,1,0,.11h0v.05h0v0h0v.26h0a.38.38,0,0,0,.15,0h.16a2,2,0,0,0,.35,0l.34-.06.17-.05.17-.05a4,4,0,0,0,.65-.26h.08a.12.12,0,1,1-.09.23Zm-2-.44a.12.12,0,0,1,0-.17h0v-.06a.1.1,0,0,1,.14-.06h0a.12.12,0,0,1,.07.15.3.3,0,0,1-.12.17H8.78a.14.14,0,0,1-.09,0Z"/><path class="cls-2" d="M13.27,25.3h0a2.13,2.13,0,0,1-.46.27l-.24.1-.25.09-.26.06-.26.05h-.55a1.31,1.31,0,0,1-.27-.06.39.39,0,0,1-.14-.08.43.43,0,0,1-.11-.12v-.07h0a.43.43,0,0,1,0-.16v-.15a.09.09,0,0,1,0-.07v-.07a.52.52,0,0,1,.11-.1h.27l.1.07a.31.31,0,0,1,0,.1.21.21,0,0,1,0,.11h0l0,.06a.42.42,0,0,1-.14.09h-.21v.08a.11.11,0,0,0,0,.08.32.32,0,0,0,.15.13.85.85,0,0,0,.22.09H12l.25-.05.24-.08.24-.11a2.34,2.34,0,0,0,.43-.26.06.06,0,0,1,.08,0h0Zm-2.33-.16,0,.08h0a.17.17,0,0,0,.1,0,.18.18,0,0,0,.07,0h0Z"/><path class="cls-2" d="M15.55,25.31h0c-.22.09-.44.18-.67.25l-.17.05h-.17l-.35.08H13.4a.16.16,0,0,1-.08-.1.24.24,0,0,1,0-.12.21.21,0,0,1,0-.11h0a.11.11,0,0,1,0-.13h0v-.1a.61.61,0,0,1,.07-.1.11.11,0,0,1,.14-.07.12.12,0,0,1,.07.15h0v.05h0v.05h0v.14a.24.24,0,0,0,0,.12h0a.38.38,0,0,0,.15,0h.17a1.93,1.93,0,0,0,.34,0,2,2,0,0,0,.34-.06l.17-.05.17-.05a4,4,0,0,0,.65-.26h.08a.14.14,0,0,1-.12.26Zm-2-.44a.12.12,0,0,1,0-.17h0v-.06a.1.1,0,0,1,.14-.06h0a.12.12,0,0,1,.07.15.3.3,0,0,1-.12.17h-.07a.09.09,0,0,1-.06,0Z"/><path class="cls-2" d="M18,25.31a7.54,7.54,0,0,1-.82.2h-.84a.57.57,0,0,1-.22-.07.34.34,0,0,1-.09-.08h0a.78.78,0,0,1-.11.2h0v.05h-.19a.22.22,0,0,1,0-.08.33.33,0,0,1,0-.14V25.2a.14.14,0,0,1,0-.17h0V25h0a.06.06,0,0,1,0,.06v.41h0l.06-.08a.11.11,0,0,0,0-.08v-.12a.54.54,0,0,1,0-.18v-.12h.11v.06a.81.81,0,0,1,0,.22h0a.34.34,0,0,0,.12.12.49.49,0,0,0,.17.06h.41a2.67,2.67,0,0,0,.4,0,5.47,5.47,0,0,0,.8-.19h0a.06.06,0,0,1,0,.08l0,0Z"/><path class="cls-2" d="M20.5,25.3h-.13l-.15.06a1.36,1.36,0,0,1-.29.06h-.6a2.34,2.34,0,0,1-.58-.14l-.22-.11v.1h0v.18a.44.44,0,0,1-.08.11l-.06.05h-.26a.34.34,0,0,1-.12-.12v-.15a.33.33,0,0,1,0-.14v-.13l0-.12.08-.12.06-.06h.07a.1.1,0,0,1,.12.08h.05a.27.27,0,0,1,.07.08,1.87,1.87,0,0,0,.31.17,2.61,2.61,0,0,0,.55.14,2.71,2.71,0,0,0,.57,0,1.27,1.27,0,0,0,.28-.06l.12-.05h.11a.08.08,0,0,1,.09,0,.08.08,0,0,1,0,.16Zm-2.07-.06v-.06l-.08-.06a.35.35,0,0,1-.14.14.21.21,0,0,0,0,.11.22.22,0,0,0,0,.16h.06a.13.13,0,0,0,.07-.06.11.11,0,0,0,0-.08v-.05h0Z"/><circle class="cls-4" cx="23.59" cy="24.77" r="6.22"/><circle class="cls-3" cx="23.59" cy="24.77" r="5.39"/><path class="cls-5" d="M24.59,26.35a.82.82,0,0,0-.25-.63,2.19,2.19,0,0,0-.85-.46,3.69,3.69,0,0,1-1.42-.76,1.67,1.67,0,0,1-.47-1.26A1.72,1.72,0,0,1,22.05,22a1.93,1.93,0,0,1,1.24-.57v-1H24v1a1.85,1.85,0,0,1,1.21.62,2.09,2.09,0,0,1,.42,1.36l0,0H24.56a1.22,1.22,0,0,0-.25-.82.87.87,0,0,0-.7-.3.91.91,0,0,0-.7.24.89.89,0,0,0-.23.66.81.81,0,0,0,.24.61,2.48,2.48,0,0,0,.87.47,3.55,3.55,0,0,1,1.42.77,1.87,1.87,0,0,1,0,2.48,2.13,2.13,0,0,1-1.3.55V29H23.2v-.87a2.16,2.16,0,0,1-1.33-.57,1.8,1.8,0,0,1-.5-1.43v0h1.05a1.08,1.08,0,0,0,.31.88,1.17,1.17,0,0,0,.79.27,1.19,1.19,0,0,0,.79-.25A.83.83,0,0,0,24.59,26.35Z"/></g></g></svg>