<svg xmlns="http://www.w3.org/2000/svg" viewBox="0 0 32.02 31.06"><defs><style>.cls-1,.cls-4{fill:#fff;}.cls-1,.cls-3{stroke:#174193;stroke-miterlimit:10;}.cls-1{stroke-width:0.26px;}.cls-2{fill:#d21e18;}.cls-3,.cls-5{fill:#174193;}.cls-3{stroke-width:0.34px;}</style></defs><g id="Capa_2" data-name="Capa 2"><g id="Capa_1-2" data-name="Capa 1"><path class="cls-1" d="M.13.13H18a5.59,5.59,0,0,1,5.59,5.59h0V30.86H.13V.13Z"/><rect class="cls-2" x="4" y="20.47" width="15.76" height="1.33" rx="0.66"/><rect class="cls-2" x="4" y="23.95" width="15.76" height="1.33" rx="0.66"/><rect class="cls-2" x="4" y="16.83" width="15.76" height="1.33" rx="0.66"/><circle class="cls-3" cx="23.92" cy="24.67" r="6.22"/><circle class="cls-4" cx="23.92" cy="24.67" r="5.39"/><path class="cls-2" d="M30.52,17.29a68.39,68.39,0,0,0-6.66,8.49l-1.87-2c-.77-.84-2,.41-1.25,1.26l2.6,2.83a.9.9,0,0,0,1.39-.18,66.23,66.23,0,0,1,7.05-9.12C32.55,17.7,31.3,16.44,30.52,17.29Z"/><path class="cls-5" d="M12.49,10.61a.84.84,0,0,0-.24-.61,2.34,2.34,0,0,0-.82-.44,3.56,3.56,0,0,1-1.38-.74,1.6,1.6,0,0,1-.46-1.21A1.66,1.66,0,0,1,10,6.43a1.87,1.87,0,0,1,1.2-.54V4.94h.69v1a1.7,1.7,0,0,1,1.16.59,2,2,0,0,1,.41,1.31v0h-1A1.2,1.2,0,0,0,12.22,7a.85.85,0,0,0-.68-.29.92.92,0,0,0-.68.23.89.89,0,0,0-.22.64.81.81,0,0,0,.23.59,2.53,2.53,0,0,0,.85.46,3.39,3.39,0,0,1,1.36.74,1.56,1.56,0,0,1,.46,1.2,1.59,1.59,0,0,1-.46,1.19,2,2,0,0,1-1.25.53v.84h-.69v-.83a2.2,2.2,0,0,1-1.28-.55,1.77,1.77,0,0,1-.49-1.39v0h1a1.06,1.06,0,0,0,.3.85,1.16,1.16,0,0,0,.77.26,1.12,1.12,0,0,0,.75-.23A.81.81,0,0,0,12.49,10.61Z"/></g></g></svg>