<svg xmlns="http://www.w3.org/2000/svg" viewBox="0 0 23.75 30.99"><defs><style>.cls-1{fill:#fff;stroke:#174193;stroke-miterlimit:10;stroke-width:0.26px;}.cls-2{fill:#174193;}.cls-3{fill:#d21e18;}</style></defs><g id="Capa_2" data-name="Capa 2"><g id="Capa_1-2" data-name="Capa 1"><path class="cls-1" d="M.13.13H18a5.59,5.59,0,0,1,5.59,5.59V30.86a0,0,0,0,1,0,0H.13a0,0,0,0,1,0,0V.13A0,0,0,0,1,.13.13Z"/><rect class="cls-2" x="3.52" y="7.77" width="16.81" height="1.55" rx="0.77"/><rect class="cls-2" x="3.52" y="10.43" width="16.81" height="1.55" rx="0.77"/><rect class="cls-2" x="3.52" y="13.42" width="16.81" height="1.55" rx="0.77"/><path class="cls-3" d="M7.94,21.27H5.38v2.08h3v.87H4.28V17.67H8.37v.87h-3v1.85H7.94Z"/><path class="cls-3" d="M14,18.54h-2v5.68h-1.1V18.54h-2v-.87H14Z"/><path class="cls-3" d="M19.45,22.08v0a2,2,0,0,1-.64,1.6,2.52,2.52,0,0,1-1.79.61,2.37,2.37,0,0,1-1.85-.77,2.8,2.8,0,0,1-.71-2V20.32a2.81,2.81,0,0,1,.7-2A2.35,2.35,0,0,1,17,17.57a2.66,2.66,0,0,1,1.82.59,2,2,0,0,1,.65,1.62v0H18.4a1.37,1.37,0,0,0-.35-1A1.46,1.46,0,0,0,17,18.45,1.25,1.25,0,0,0,16,19a2.18,2.18,0,0,0-.39,1.33v1.26A2.19,2.19,0,0,0,16,22.91a1.3,1.3,0,0,0,1.08.53,1.39,1.39,0,0,0,1-.35,1.34,1.34,0,0,0,.35-1Z"/></g></g></svg>