<svg xmlns="http://www.w3.org/2000/svg" viewBox="0 0 30.02 30.99"><defs><style>.cls-1,.cls-2,.cls-5{fill:#fff;}.cls-1,.cls-2,.cls-4{stroke:#174193;stroke-miterlimit:10;}.cls-1{stroke-width:0.26px;}.cls-2{stroke-width:0.29px;}.cls-3{fill:#d21e18;}.cls-4{fill:#174193;stroke-width:0.34px;}</style></defs><g id="Capa_2" data-name="Capa 2"><g id="Capa_1-2" data-name="Capa 1"><path class="cls-1" d="M.13.13H18a5.59,5.59,0,0,1,5.59,5.59h0V30.86H.13V.13Z"/><rect class="cls-2" x="8.96" y="9.32" width="4.92" height="4.56" rx="1.51"/><rect class="cls-2" x="8.96" y="16.11" width="4.92" height="4.56" rx="1.51"/><path class="cls-3" d="M16.39,5.61a47.68,47.68,0,0,0-4.69,6l-1.31-1.43c-.55-.6-1.43.29-.89.88l1.83,2a.63.63,0,0,0,.89,0,.76.76,0,0,0,.11-.14,47,47,0,0,1,5-6.42C17.81,5.9,16.93,5,16.39,5.61Z"/><path class="cls-3" d="M16.39,12.36a47.68,47.68,0,0,0-4.69,6l-1.31-1.42c-.55-.6-1.43.29-.89.88l1.83,2a.63.63,0,0,0,.89,0,.76.76,0,0,0,.11-.14,47,47,0,0,1,5-6.42C17.81,12.69,16.93,11.8,16.39,12.36Z"/><circle class="cls-4" cx="23.63" cy="24.5" r="6.22"/><circle class="cls-5" cx="23.63" cy="24.5" r="5.39"/><path class="cls-3" d="M27,26.6c-.81-.78-1.61-1.57-2.41-2.36l1.92-1.91a.57.57,0,1,0-.81-.81l-1.92,1.93-2.25-2.22c-.52-.51-1.33.29-.8.81L23,24.25l-2.7,2.69a.57.57,0,0,0,.81.81L23.79,25l2.4,2.37A.57.57,0,0,0,27,26.6Z"/></g></g></svg>