<svg xmlns="http://www.w3.org/2000/svg" viewBox="0 0 23.72 30.99"><defs><style>.cls-1,.cls-4{fill:#fff;}.cls-1{stroke:#174193;stroke-miterlimit:10;stroke-width:0.26px;}.cls-2{fill:#d21e18;}.cls-3{fill:#174193;}</style></defs><g id="Capa_2" data-name="Capa 2"><g id="Capa_1-2" data-name="Capa 1"><path class="cls-1" d="M.13.13H18a5.59,5.59,0,0,1,5.59,5.59h0V30.86H.13V.13Z"/><rect class="cls-2" x="4" y="20.47" width="15.76" height="1.33" rx="0.66"/><rect class="cls-2" x="4" y="23.95" width="15.76" height="1.33" rx="0.66"/><rect class="cls-2" x="4" y="16.83" width="15.76" height="1.33" rx="0.66"/><path class="cls-3" d="M15.81,5.26H7.94A2.21,2.21,0,0,0,5.72,7.48h0v3.26A2.24,2.24,0,0,0,7.94,13H10l.85.8,1,.93,1-.93.85-.8h2.1a2.21,2.21,0,0,0,2.22-2.22h0V7.48a2.21,2.21,0,0,0-2.2-2.22Z"/><path class="cls-4" d="M12.74,11.36H12V7.48H11v-.6l1.73-.17Z"/></g></g></svg>