<svg xmlns="http://www.w3.org/2000/svg" viewBox="0 0 31.65 31.06"><defs><style>.cls-1,.cls-2,.cls-5{fill:#fff;}.cls-1,.cls-2,.cls-4{stroke:#174193;stroke-miterlimit:10;}.cls-1{stroke-width:0.26px;}.cls-2{stroke-width:0.29px;}.cls-3,.cls-4{fill:#174193;}.cls-4{stroke-width:0.34px;}.cls-6{fill:#d21e18;}</style></defs><g id="Capa_2" data-name="Capa 2"><g id="Capa_1-2" data-name="Capa 1"><path class="cls-1" d="M.13.13H18a5.59,5.59,0,0,1,5.59,5.59V30.86a0,0,0,0,1,0,0H.13a0,0,0,0,1,0,0V.13A0,0,0,0,1,.13.13Z"/><rect class="cls-2" x="9.38" y="8.9" width="4.92" height="4.56" rx="1.51"/><rect class="cls-2" x="2.78" y="8.9" width="4.92" height="4.56" rx="1.51"/><rect class="cls-2" x="15.87" y="8.9" width="4.92" height="4.56" rx="1.51"/><circle class="cls-3" cx="5.24" cy="11.18" r="1.4"/><circle class="cls-3" cx="11.85" cy="11.18" r="1.4"/><circle class="cls-3" cx="18.33" cy="11.18" r="1.4"/><rect class="cls-2" x="9.38" y="14.78" width="4.92" height="4.56" rx="1.51"/><rect class="cls-2" x="2.78" y="14.78" width="4.92" height="4.56" rx="1.51"/><rect class="cls-2" x="15.87" y="14.78" width="4.92" height="4.56" rx="1.51"/><circle class="cls-3" cx="5.24" cy="17.06" r="1.4"/><circle class="cls-3" cx="11.85" cy="17.06" r="1.4"/><circle class="cls-3" cx="18.33" cy="17.06" r="1.4"/><circle class="cls-4" cx="23.15" cy="24.66" r="6.22"/><circle class="cls-5" cx="23.15" cy="24.66" r="5.39"/><path class="cls-6" d="M30.15,16.9a69.24,69.24,0,0,0-6.66,8.5l-1.86-2c-.78-.85-2,.41-1.26,1.25L23,27.45a.89.89,0,0,0,1.39-.18,66.92,66.92,0,0,1,7.05-9.11C32.18,17.32,30.93,16.06,30.15,16.9Z"/></g></g></svg>