<svg xmlns="http://www.w3.org/2000/svg" viewBox="0 0 29.83 31.02"><defs><style>.cls-1,.cls-4{fill:#fff;}.cls-1,.cls-3,.cls-4{stroke:#174193;stroke-miterlimit:10;}.cls-1{stroke-width:0.26px;}.cls-2{fill:#d21e18;}.cls-3{fill:#174193;stroke-width:0.34px;}.cls-4{stroke-width:0.22px;}</style></defs><g id="Capa_2" data-name="Capa 2"><g id="Capa_1-2" data-name="Capa 1"><path class="cls-1" d="M.13.13H18a5.59,5.59,0,0,1,5.59,5.59h0V30.86H.13V.13Z"/><rect class="cls-2" x="4" y="14.47" width="15.76" height="1.33" rx="0.66"/><rect class="cls-2" x="4" y="17.95" width="15.76" height="1.33" rx="0.66"/><rect class="cls-2" x="4" y="10.83" width="15.76" height="1.33" rx="0.66"/><path class="cls-3" d="M23.44,30.85h-.21a5.57,5.57,0,0,1-5.57-5.57h0V17.38l6-1.54,6,1.54v7.33a6.16,6.16,0,0,1-6.18,6.14Z"/><path class="cls-4" d="M23.46,29.93h-.18A4.89,4.89,0,0,1,18.39,25h0v-7l5.24-1.35,5.25,1.35v6.44a5.41,5.41,0,0,1-5.41,5.41Z"/><path class="cls-2" d="M26.55,19.45a47.68,47.68,0,0,0-4.69,6L20.54,24c-.54-.6-1.42.29-.88.88l1.83,2a.63.63,0,0,0,.89,0,.76.76,0,0,0,.11-.14,47,47,0,0,1,5-6.42C28,19.74,27.09,18.85,26.55,19.45Z"/></g></g></svg>