<svg xmlns="http://www.w3.org/2000/svg" viewBox="0 0 32.14 31.03"><defs><style>.cls-1,.cls-3,.cls-6{fill:#fff;}.cls-1,.cls-2,.cls-6{stroke:#174193;stroke-miterlimit:10;}.cls-1{stroke-width:0.26px;}.cls-2,.cls-5{fill:#174193;}.cls-2{stroke-width:0.34px;}.cls-4{fill:#d21e18;}.cls-6{stroke-width:0.29px;}</style></defs><g id="Capa_2" data-name="Capa 2"><g id="Capa_1-2" data-name="Capa 1"><path class="cls-1" d="M.13.13H18a5.59,5.59,0,0,1,5.59,5.59V30.86a0,0,0,0,1,0,0H.13a0,0,0,0,1,0,0V.13A0,0,0,0,1,.13.13Z"/><circle class="cls-2" cx="23.65" cy="24.63" r="6.22"/><circle class="cls-3" cx="23.65" cy="24.63" r="5.39"/><path class="cls-4" d="M30.64,16.87A68.27,68.27,0,0,0,24,25.36l-1.86-2c-.77-.84-2,.42-1.25,1.26s1.73,1.88,2.59,2.83a.9.9,0,0,0,1.4-.18,66.16,66.16,0,0,1,7-9.12C32.67,17.28,31.41,16,30.64,16.87Z"/><rect class="cls-5" x="4.07" y="13.68" width="16.55" height="2.1" rx="1.05"/><rect class="cls-5" x="4.07" y="17.11" width="16.55" height="2.1" rx="1.05"/><rect class="cls-6" x="9.69" y="7.03" width="4.92" height="4.56" rx="1.51"/><path class="cls-4" d="M17.12,3.32a49.18,49.18,0,0,0-4.69,6c-.44-.47-.87-1-1.31-1.43s-1.43.3-.88.89l1.82,2a.63.63,0,0,0,1-.13,47.46,47.46,0,0,1,5-6.41C18.55,3.62,17.67,2.73,17.12,3.32Z"/></g></g></svg>