<svg xmlns="http://www.w3.org/2000/svg" viewBox="0 0 37.53 31.01"><defs><style>.cls-1,.cls-4{fill:#fff;}.cls-1,.cls-3{stroke:#174193;stroke-miterlimit:10;}.cls-1{stroke-width:0.26px;}.cls-2,.cls-3{fill:#174193;}.cls-3{stroke-width:0.34px;}.cls-5{fill:#d21e18;}</style></defs><g id="Capa_2" data-name="Capa 2"><g id="Capa_1-2" data-name="Capa 1"><path class="cls-1" d="M6.69.13h17.9a5.59,5.59,0,0,1,5.59,5.59V30.86a0,0,0,0,1,0,0H6.69a0,0,0,0,1,0,0V.13A0,0,0,0,1,6.69.13Z"/><path class="cls-2" d="M13.51,8.12a.53.53,0,0,0-.16-.39,1.35,1.35,0,0,0-.53-.29,2.36,2.36,0,0,1-.9-.48,1.07,1.07,0,0,1-.29-.79,1.05,1.05,0,0,1,.28-.76,1.24,1.24,0,0,1,.78-.36V4.44h.44v.62a1.14,1.14,0,0,1,.76.38,1.29,1.29,0,0,1,.27.85v0h-.66a.77.77,0,0,0-.16-.52.55.55,0,0,0-.44-.19.54.54,0,0,0-.44.16.55.55,0,0,0-.14.41.56.56,0,0,0,.14.39,1.86,1.86,0,0,0,.56.29,2.26,2.26,0,0,1,.88.48,1,1,0,0,1,.3.78,1,1,0,0,1-.3.78,1.31,1.31,0,0,1-.81.34v.55h-.45V9.24a1.44,1.44,0,0,1-.83-.36,1.18,1.18,0,0,1-.32-.9V8h.66a.67.67,0,0,0,.2.56.73.73,0,0,0,.49.17.7.7,0,0,0,.49-.16A.51.51,0,0,0,13.51,8.12Z"/><path class="cls-2" d="M13.51,15.29a.58.58,0,0,0-.16-.4,1.35,1.35,0,0,0-.53-.28,2.36,2.36,0,0,1-.9-.48,1.1,1.1,0,0,1-.29-.79,1.07,1.07,0,0,1,.28-.77,1.23,1.23,0,0,1,.78-.35v-.61h.44v.61a1.19,1.19,0,0,1,.76.39,1.29,1.29,0,0,1,.27.85v0h-.66a.77.77,0,0,0-.16-.52.52.52,0,0,0-.44-.19.57.57,0,0,0-.44.15.58.58,0,0,0-.14.42.52.52,0,0,0,.14.38A1.64,1.64,0,0,0,13,14a2.26,2.26,0,0,1,.88.48,1,1,0,0,1,.3.78,1,1,0,0,1-.3.78,1.37,1.37,0,0,1-.81.34V17h-.45V16.4a1.37,1.37,0,0,1-.83-.35,1.19,1.19,0,0,1-.32-.91h.67a.67.67,0,0,0,.2.56.72.72,0,0,0,.49.16.7.7,0,0,0,.49-.15A.51.51,0,0,0,13.51,15.29Z"/><path class="cls-2" d="M13.51,22.59a.58.58,0,0,0-.16-.4,1.35,1.35,0,0,0-.53-.28,2.36,2.36,0,0,1-.9-.48,1.1,1.1,0,0,1-.29-.79,1.07,1.07,0,0,1,.28-.77,1.23,1.23,0,0,1,.78-.35v-.61h.44v.61a1.19,1.19,0,0,1,.76.39,1.29,1.29,0,0,1,.27.85v0h-.66a.77.77,0,0,0-.16-.52.52.52,0,0,0-.44-.19.57.57,0,0,0-.44.15.58.58,0,0,0-.14.42.52.52,0,0,0,.14.38,1.64,1.64,0,0,0,.56.3,2.26,2.26,0,0,1,.88.48,1,1,0,0,1,.3.78,1,1,0,0,1-.3.78,1.37,1.37,0,0,1-.81.34v.55h-.45V23.7a1.37,1.37,0,0,1-.83-.35,1.19,1.19,0,0,1-.32-.91h.67a.67.67,0,0,0,.2.56.72.72,0,0,0,.49.16.7.7,0,0,0,.49-.15A.51.51,0,0,0,13.51,22.59Z"/><circle class="cls-3" cx="6.4" cy="24.61" r="6.22"/><circle class="cls-4" cx="6.4" cy="24.61" r="5.39"/><g id="tNrt32"><path class="cls-5" d="M10.6,24.59a4.87,4.87,0,0,1-2.75,2.17,4.39,4.39,0,0,1-4.17-.71,4.71,4.71,0,0,1-1.16-1.11,2.43,2.43,0,0,1-.2-.35v-.18a4.8,4.8,0,0,1,2.54-2.09,4.27,4.27,0,0,1,4,.38,4.83,4.83,0,0,1,1.44,1.22,3.55,3.55,0,0,1,.32.53Zm-4.14-2.1a3.66,3.66,0,0,0-1.27.23A5.17,5.17,0,0,0,3,24.29c-.12.15-.14.27,0,.41a9.78,9.78,0,0,0,.8.78,4,4,0,0,0,4.41.62A5,5,0,0,0,10,24.68a.23.23,0,0,0,0-.35,10.19,10.19,0,0,0-.81-.8A4.33,4.33,0,0,0,6.46,22.49Z"/><path class="cls-5" d="M6.45,26A1.5,1.5,0,1,1,8,24.54,1.49,1.49,0,0,1,6.45,26Zm-.39-2.77a.64.64,0,0,0-.65.63.66.66,0,0,0,.64.65.67.67,0,0,0,.65-.63A.64.64,0,0,0,6.06,23.23Z"/></g><rect class="cls-2" x="14.56" y="6.74" width="10.62" height="1.22" rx="0.61"/><rect class="cls-2" x="14.77" y="13.67" width="10.62" height="1.22" rx="0.61"/><rect class="cls-2" x="14.77" y="20.97" width="10.62" height="1.22" rx="0.61"/><circle class="cls-3" cx="29.42" cy="24.61" r="6.22"/><circle class="cls-4" cx="29.42" cy="24.61" r="5.39"/><path class="cls-5" d="M36,17.23a68.27,68.27,0,0,0-6.67,8.49l-1.86-2c-.77-.84-2,.42-1.26,1.26s1.74,1.88,2.6,2.83a.9.9,0,0,0,1.4-.18,66.16,66.16,0,0,1,7-9.12C38.06,17.64,36.8,16.38,36,17.23Z"/></g></g></svg>