<svg xmlns="http://www.w3.org/2000/svg" viewBox="0 0 23.75 30.99"><defs><style>.cls-1,.cls-3{fill:#fff;}.cls-1,.cls-2{stroke:#174193;stroke-miterlimit:10;}.cls-1{stroke-width:0.26px;}.cls-2{fill:#174193;stroke-width:0.34px;}.cls-4{fill:#d21e18;}</style></defs><g id="Capa_2" data-name="Capa 2"><g id="Capa_1-2" data-name="Capa 1"><path class="cls-1" d="M.13.13H18a5.59,5.59,0,0,1,5.59,5.59V30.86a0,0,0,0,1,0,0H.13a0,0,0,0,1,0,0V.13A0,0,0,0,1,.13.13Z"/><circle class="cls-2" cx="11.58" cy="6.39" r="3.57"/><circle class="cls-3" cx="11.58" cy="6.39" r="3.09"/><path class="cls-4" d="M14.93,2.62a35.68,35.68,0,0,0-3.53,4.5l-1-1.07c-.41-.45-1.08.21-.67.66l1.38,1.5a.48.48,0,0,0,.74-.09A34.33,34.33,0,0,1,15.6,3.28C16,2.84,15.34,2.17,14.93,2.62Z"/><circle class="cls-2" cx="11.58" cy="15.51" r="3.57"/><circle class="cls-3" cx="11.58" cy="15.51" r="3.09"/><path class="cls-4" d="M14.93,11.74a36.51,36.51,0,0,0-3.53,4.51l-1-1.08c-.41-.45-1.08.22-.67.67l1.38,1.5a.48.48,0,0,0,.74-.1,34.24,34.24,0,0,1,3.74-4.83C16,12,15.34,11.29,14.93,11.74Z"/><circle class="cls-2" cx="11.58" cy="24.31" r="3.57"/><circle class="cls-3" cx="11.58" cy="24.31" r="3.09"/><path class="cls-4" d="M14.93,20.53A36.51,36.51,0,0,0,11.4,25l-1-1.08c-.41-.45-1.08.22-.67.67l1.38,1.5a.48.48,0,0,0,.74-.1A34.83,34.83,0,0,1,15.6,21.2C16,20.75,15.34,20.09,14.93,20.53Z"/></g></g></svg>