<svg xmlns="http://www.w3.org/2000/svg" viewBox="0 0 33.8 30.99"><defs><style>.cls-1,.cls-3{fill:#fff;}.cls-1{stroke:#174193;stroke-miterlimit:10;stroke-width:0.26px;}.cls-2{fill:#d21e18;}.cls-4{fill:#174193;}</style></defs><g id="Capa_2" data-name="Capa 2"><g id="Capa_1-2" data-name="Capa 1"><path class="cls-1" d="M10.17.13h17.9a5.59,5.59,0,0,1,5.59,5.59V30.86a0,0,0,0,1,0,0H10.17a0,0,0,0,1,0,0V.13A0,0,0,0,1,10.17.13Z"/><rect class="cls-2" x="14.14" y="18.63" width="15.76" height="1.33" rx="0.66"/><circle class="cls-2" cx="22.12" cy="8.02" r="3.49"/><circle class="cls-3" cx="22.12" cy="8.02" r="2.42"/><path class="cls-2" d="M25,15.77l-1.19-1.32a.2.2,0,0,0-.36.11l-.28,1.76-1.4-4.72c-.05-.18,0-.35.13-.38l1.39-.42c.12,0,.26.08.31.26Z"/><path class="cls-2" d="M20.43,16l-.27-1.75a.25.25,0,0,0-.44-.15l-1.28,1.22L20,10.67a.33.33,0,0,1,.38-.26l1.47.49a.34.34,0,0,1,.14.45Z"/><path class="cls-2" d="M20.77,25.31h0a5.4,5.4,0,0,1-.67.25l-.17.05-.17.05-.35.08-.18,0h-.36a.71.71,0,0,1-.2,0l-.05,0,0,0a0,0,0,0,1,0,0,.2.2,0,0,1-.08-.1.27.27,0,0,1,0-.12.37.37,0,0,1,0-.11v0h0a.11.11,0,0,1,0-.13h0l0-.05,0-.05.07-.1a.13.13,0,0,1,.17,0,.12.12,0,0,1,0,.11h0a.09.09,0,0,1,0,.05v0a.08.08,0,0,1,0,.05v0l0,0a.25.25,0,0,0,0,.07l0,.07a.74.74,0,0,0,0,.12l0,0h0l0,0a.33.33,0,0,0,.15,0h.17a2,2,0,0,0,.34,0,1.86,1.86,0,0,0,.34-.06l.17,0,.17-.05a5.24,5.24,0,0,0,.65-.27.06.06,0,1,1,.05.11Zm-2-.44a.11.11,0,0,1,0-.16.17.17,0,0,0,0-.07.11.11,0,0,1,.15-.06.12.12,0,0,1,.07.15.38.38,0,0,1-.12.17l-.07,0A.12.12,0,0,1,18.74,24.87Z"/><path class="cls-2" d="M23.32,25.3h0a3.17,3.17,0,0,1-.47.27l-.24.1-.25.09a2.44,2.44,0,0,1-.26.06l-.26.05-.27,0H21.3a.88.88,0,0,1-.28-.06l-.14-.07a.69.69,0,0,1-.11-.13.25.25,0,0,1,0-.07.08.08,0,0,1,0,0v0h0a.45.45,0,0,1,0-.16.75.75,0,0,1,0-.16.43.43,0,0,1,0-.07.18.18,0,0,1,0-.07.52.52,0,0,1,.11-.1l.07-.05.08,0h.12a.27.27,0,0,1,.1.06.47.47,0,0,1,.05.1.37.37,0,0,1,0,.11v0a.08.08,0,0,1,0,0l0,.06a.42.42,0,0,1-.14.09.44.44,0,0,1-.16,0h-.05s0,0,0,.07l0,.08a.32.32,0,0,0,.15.13.73.73,0,0,0,.22.09l.12,0h.13a1,1,0,0,0,.25,0l.26,0,.25-.06.24-.08.24-.1a3.12,3.12,0,0,0,.43-.27.06.06,0,0,1,.09,0A.06.06,0,0,1,23.32,25.3ZM21,25.14l0,.08h0a.17.17,0,0,0,.1,0,.18.18,0,0,0,.07-.05l0,0v0h0s0,0,0,0h0l0,0,0,0Z"/><path class="cls-2" d="M25.61,25.31h0a5.4,5.4,0,0,1-.67.25l-.17.05-.17.05-.35.08-.18,0H23.7a.71.71,0,0,1-.2,0l-.05,0,0,0,0,0a.2.2,0,0,1-.08-.1.53.53,0,0,1,0-.12.37.37,0,0,1,0-.11v0h0a.11.11,0,0,1,0-.13h0l0-.05,0-.05.08-.1a.11.11,0,0,1,.16,0,.12.12,0,0,1,0,.11h0a.09.09,0,0,1,0,.05v0a.43.43,0,0,1,0,.05l0,0,0,0,0,.07,0,.07a.26.26,0,0,0,0,.12s0,0,0,0h0l0,0a.33.33,0,0,0,.15,0h.17a2,2,0,0,0,.34,0,1.86,1.86,0,0,0,.34-.06l.17,0,.17-.05a5.24,5.24,0,0,0,.65-.27.06.06,0,0,1,.08,0S25.63,25.29,25.61,25.31Zm-2-.44a.11.11,0,0,1,0-.16.17.17,0,0,0,0-.07.11.11,0,0,1,.15-.06.12.12,0,0,1,.07.15.45.45,0,0,1-.11.17l-.08,0A.12.12,0,0,1,23.57,24.87Z"/><path class="cls-2" d="M28.09,25.31a8,8,0,0,1-.81.2l-.42,0h-.43a.63.63,0,0,1-.22-.07l-.09-.07,0,0v0a.78.78,0,0,1-.11.2l0,.05,0,0-.06,0h-.1l0,0,0,0a.22.22,0,0,1,0-.08.36.36,0,0,1,0-.14s0-.09,0-.13a.13.13,0,0,0,0-.06.12.12,0,0,1,0-.16h0s0,0,0,0l0,0h.15l0,0,0,0h0s0,0,0,0v0a.43.43,0,0,1,0,.05l0,.11,0,.1a.38.38,0,0,0,0,.1.08.08,0,0,0,0,0v.06h0l0,0,0,0s0-.05.06-.07a.36.36,0,0,0,0-.09.56.56,0,0,0,0-.12.57.57,0,0,1,0-.18S26,25,26,25s0,0,0,0h0v0h.07s0,0,0,0h0s0,0,0,.06a.81.81,0,0,1,0,.22v0h0a.3.3,0,0,0,.12.13l.18.05h.4l.41-.05a5.8,5.8,0,0,0,.8-.19h0a.06.06,0,1,1,0,.11Zm-2.43-.26h0Zm.12.56h0Z"/><path class="cls-2" d="M30.55,25.3l-.06.05-.07,0-.15.06a1.36,1.36,0,0,1-.29.06l-.3,0-.3,0a2.91,2.91,0,0,1-.58-.15l-.22-.11v.1h0v.05s0,0,0,.06a.56.56,0,0,1,0,.12.44.44,0,0,1-.08.11l-.06.05-.08,0h-.09a.16.16,0,0,1-.09,0,.25.25,0,0,1-.11-.12.44.44,0,0,1-.05-.15.33.33,0,0,1,0-.14.13.13,0,0,1,0-.06s0-.05,0-.07l.05-.12.08-.12.06-.06,0,0,.07,0h0a.1.1,0,0,1,.12.09.1.1,0,0,1,.05,0,.18.18,0,0,1,.07.08,1.87,1.87,0,0,0,.31.17,2.61,2.61,0,0,0,.55.14,2.18,2.18,0,0,0,.57,0l.28-.05.12-.06.06,0,0,0h0a.06.06,0,0,1,.09,0A.05.05,0,0,1,30.55,25.3ZM28.18,25Zm.3.23s0,0,0-.06l-.09-.06a.16.16,0,0,1-.06.08l-.08.07a.19.19,0,0,0,0,.1.28.28,0,0,0,0,.16.05.05,0,0,0,0,0s0,0,0,0h0a.08.08,0,0,0,.06,0,.13.13,0,0,0,.07-.06.2.2,0,0,0,0-.08l0-.05v0h0Z"/><path class="cls-3" d="M17.8,22.93H16.65a1,1,0,0,0,.92-1,1,1,0,0,0-.28-.68,1,1,0,0,0-.68-.28H8.92l1.26-1.33a1.69,1.69,0,0,1-.1-1.09.77.77,0,0,1,0-.15V17l-.14.1L7.41,19.22c-.69.42-2.34.64-3.09,1.18a3.93,3.93,0,0,1-1.82.89,3.68,3.68,0,0,1-.91.14h0a.81.81,0,0,0-.65.35,4.94,4.94,0,0,0-.7,2.89,6,6,0,0,0,.6,2.91.8.8,0,0,0,.78.43h0A6.35,6.35,0,0,1,2.7,28a11.25,11.25,0,0,1,2.74.49,4.68,4.68,0,0,0,1.3.19H12a.93.93,0,0,0,1-1,.88.88,0,0,0-.28-.69,1,1,0,0,0-.68-.23h.65a1,1,0,0,0,1-1,1,1,0,0,0-1-1H17.8a.93.93,0,0,0,.68-.29,1,1,0,0,0-.68-1.63Z"/><path class="cls-4" d="M17.8,22.69h-.23a1.2,1.2,0,0,0-.11-1.57,1.23,1.23,0,0,0-.85-.35H9.47l.84-.87a1.56,1.56,0,0,1-.22-.47L8.74,20.85a.24.24,0,0,0,.18.4h7.69a.69.69,0,0,1,.51.21.72.72,0,0,1-.47,1.23H10.87a.24.24,0,1,0,0,.48H17.8a.73.73,0,0,1,.72.73.72.72,0,0,1-.72.72H10.87a.24.24,0,0,0-.24.24.23.23,0,0,0,.24.23h5.62a.73.73,0,0,1,.72.73.72.72,0,0,1-.72.72H10.87a.24.24,0,1,0,0,.47h5a.79.79,0,0,1,.52.17.63.63,0,0,1,.19.51.68.68,0,0,1-.71.73H6.74a4.86,4.86,0,0,1-1.23-.17,12,12,0,0,0-2.8-.51H2.4a7.65,7.65,0,0,0-.81.05.53.53,0,0,1-.54-.3,5.83,5.83,0,0,1-.57-2.8,4.66,4.66,0,0,1,.66-2.75.54.54,0,0,1,.45-.25h0a4.28,4.28,0,0,0,1-.15l.33-.1a3.84,3.84,0,0,0,1.56-.82,5.77,5.77,0,0,1,1.68-.66,6.36,6.36,0,0,0,1.4-.52l0,0,2.49-2.13v-.55a1.69,1.69,0,0,0-.29.17L7.27,19A6.2,6.2,0,0,1,6,19.48a6.64,6.64,0,0,0-1.82.73A3.2,3.2,0,0,1,2.77,21l-.34.1a3.43,3.43,0,0,1-.84.13,1,1,0,0,0-.84.45,5.13,5.13,0,0,0-.75,3,6.15,6.15,0,0,0,.63,3,1,1,0,0,0,1,.55,6.06,6.06,0,0,1,1,0,11.58,11.58,0,0,1,2.69.48,5,5,0,0,0,1.36.2H15.8A1.16,1.16,0,0,0,17,27.68a1.19,1.19,0,0,0-.22-.72,1.15,1.15,0,0,0,.53-.31,1.22,1.22,0,0,0,.35-.84,1.15,1.15,0,0,0-.25-.73h.4A1.2,1.2,0,0,0,19,23.89,1.2,1.2,0,0,0,17.8,22.69Z"/></g></g></svg>