<svg xmlns="http://www.w3.org/2000/svg" viewBox="0 0 33.97 38.72"><defs><style>.cls-1{fill:#fff;stroke:#174193;stroke-miterlimit:10;stroke-width:0.26px;}.cls-2{fill:#174193;}.cls-3{fill:#d21e18;}</style></defs><g id="Capa_2" data-name="Capa 2"><g id="Capa_1-2" data-name="Capa 1"><path class="cls-1" d="M6.28,4h17.9a5.59,5.59,0,0,1,5.59,5.59V34.73a0,0,0,0,1,0,0H6.28a0,0,0,0,1,0,0V4A0,0,0,0,1,6.28,4Z" transform="translate(12.1 -6.42) rotate(30)"/><path class="cls-1" d="M7.49,4.5h17.9A5.59,5.59,0,0,1,31,10.09V35.24a0,0,0,0,1,0,0H7.49a0,0,0,0,1,0,0V4.5A0,0,0,0,1,7.49,4.5Z"/><path class="cls-2" d="M13.43,14.36a.52.52,0,0,0-.16-.4,1.48,1.48,0,0,0-.53-.29,2.07,2.07,0,0,1-.89-.48,1,1,0,0,1-.3-.78,1.07,1.07,0,0,1,.28-.77,1.24,1.24,0,0,1,.78-.36v-.61h.45v.62a1.13,1.13,0,0,1,.76.39,1.27,1.27,0,0,1,.26.85h-.67a.79.79,0,0,0-.15-.51.55.55,0,0,0-.45-.19.51.51,0,0,0-.58.56.53.53,0,0,0,.15.39,1.57,1.57,0,0,0,.55.3,2.07,2.07,0,0,1,.89.48,1.18,1.18,0,0,1,0,1.55,1.32,1.32,0,0,1-.82.35V16h-.44v-.54a1.35,1.35,0,0,1-.84-.36,1.11,1.11,0,0,1-.31-.9h.66a.68.68,0,0,0,.2.55.76.76,0,0,0,.5.17.74.74,0,0,0,.49-.15A.53.53,0,0,0,13.43,14.36Z"/><rect class="cls-2" x="15.31" y="13.17" width="11.36" height="1.18" rx="0.59"/><path class="cls-3" d="M23.19,17.22a49.18,49.18,0,0,0-4.69,6c-.44-.47-.87-.95-1.31-1.43s-1.43.3-.88.89l1.82,2a.64.64,0,0,0,1-.13,46.6,46.6,0,0,1,4.95-6.41C24.62,17.52,23.74,16.63,23.19,17.22Z"/></g></g></svg>