<svg xmlns="http://www.w3.org/2000/svg" viewBox="0 0 31.08 31.03"><defs><style>.cls-1,.cls-4{fill:#fff;}.cls-1,.cls-3{stroke:#174193;stroke-miterlimit:10;}.cls-1{stroke-width:0.26px;}.cls-2,.cls-3{fill:#174193;}.cls-3{stroke-width:0.34px;}.cls-5{fill:#d21e18;}</style></defs><g id="Capa_2" data-name="Capa 2"><g id="Capa_1-2" data-name="Capa 1"><path class="cls-1" d="M.13.13H18a5.59,5.59,0,0,1,5.59,5.59V30.86a0,0,0,0,1,0,0H.13a0,0,0,0,1,0,0V.13A0,0,0,0,1,.13.13Z"/><rect class="cls-2" x="3.54" y="23.04" width="15.76" height="1.33" rx="0.66"/><rect class="cls-2" x="0.01" y="15.87" width="0.25" height="5.14"/><rect class="cls-2" x="3.54" y="5.38" width="15.76" height="1.33" rx="0.66"/><circle class="cls-3" cx="22.98" cy="24.64" r="6.22"/><circle class="cls-4" cx="22.98" cy="24.64" r="5.39"/><path class="cls-5" d="M29.58,17.26a68.39,68.39,0,0,0-6.66,8.49l-1.86-2c-.78-.84-2,.42-1.26,1.26l2.6,2.83a.9.9,0,0,0,1.39-.18,67,67,0,0,1,7.05-9.12C31.61,17.67,30.36,16.41,29.58,17.26Z"/><path class="cls-2" d="M12.45,16.48a.81.81,0,0,0-.24-.6,2.28,2.28,0,0,0-.81-.45A3.48,3.48,0,0,1,10,14.7a1.81,1.81,0,0,1,0-2.39,1.88,1.88,0,0,1,1.2-.55v-.94h.68v.95a1.76,1.76,0,0,1,1.17.59,2,2,0,0,1,.41,1.31l0,0h-1a1.23,1.23,0,0,0-.24-.8.85.85,0,0,0-.68-.29.88.88,0,0,0-.68.24.85.85,0,0,0-.22.63.81.81,0,0,0,.23.6,2.38,2.38,0,0,0,.85.45,3.52,3.52,0,0,1,1.36.74,1.8,1.8,0,0,1,0,2.4,2.05,2.05,0,0,1-1.25.53V19h-.69V18.2a2.06,2.06,0,0,1-1.28-.55,1.75,1.75,0,0,1-.49-1.39v0h1a1.08,1.08,0,0,0,.3.86,1.14,1.14,0,0,0,.76.25,1.13,1.13,0,0,0,.76-.23A.8.8,0,0,0,12.45,16.48Z"/></g></g></svg>