<svg xmlns="http://www.w3.org/2000/svg" viewBox="0 0 37.53 31.03"><defs><style>.cls-1,.cls-2,.cls-5{fill:#fff;}.cls-1,.cls-2,.cls-4{stroke:#174193;stroke-miterlimit:10;}.cls-1{stroke-width:0.26px;}.cls-2{stroke-width:0.29px;}.cls-3,.cls-4{fill:#174193;}.cls-4{stroke-width:0.34px;}.cls-6{fill:#d21e18;}</style></defs><g id="Capa_2" data-name="Capa 2"><g id="Capa_1-2" data-name="Capa 1"><path class="cls-1" d="M6.4.13H24.3a5.59,5.59,0,0,1,5.59,5.59V30.86a0,0,0,0,1,0,0H6.4a0,0,0,0,1,0,0V.13A0,0,0,0,1,6.4.13Z"/><rect class="cls-2" x="15.65" y="9.22" width="4.92" height="4.56" rx="1.51"/><rect class="cls-2" x="9.05" y="9.22" width="4.92" height="4.56" rx="1.51"/><rect class="cls-2" x="22.14" y="9.22" width="4.92" height="4.56" rx="1.51"/><circle class="cls-3" cx="11.51" cy="11.5" r="1.4"/><circle class="cls-3" cx="18.11" cy="11.5" r="1.4"/><circle class="cls-3" cx="24.6" cy="11.5" r="1.4"/><rect class="cls-2" x="15.65" y="15.11" width="4.92" height="4.56" rx="1.51"/><rect class="cls-2" x="9.05" y="15.11" width="4.92" height="4.56" rx="1.51"/><rect class="cls-2" x="22.14" y="15.11" width="4.92" height="4.56" rx="1.51"/><circle class="cls-3" cx="11.51" cy="17.39" r="1.4"/><circle class="cls-3" cx="18.11" cy="17.39" r="1.4"/><circle class="cls-3" cx="24.6" cy="17.39" r="1.4"/><circle class="cls-4" cx="29.42" cy="24.64" r="6.22"/><circle class="cls-5" cx="29.42" cy="24.64" r="5.39"/><circle class="cls-4" cx="6.4" cy="24.64" r="6.22"/><circle class="cls-5" cx="6.4" cy="24.64" r="5.39"/><g id="tNrt32"><path class="cls-6" d="M10.6,24.62a4.87,4.87,0,0,1-2.75,2.17,4.39,4.39,0,0,1-4.17-.71A4.71,4.71,0,0,1,2.52,25a2.43,2.43,0,0,1-.2-.35v-.18a4.86,4.86,0,0,1,2.54-2.1,4.3,4.3,0,0,1,4,.39,4.94,4.94,0,0,1,1.44,1.21,4.25,4.25,0,0,1,.32.54Zm-4.14-2.1a3.66,3.66,0,0,0-1.27.23A5.09,5.09,0,0,0,3,24.32c-.12.15-.14.27,0,.41a9.78,9.78,0,0,0,.8.78,4,4,0,0,0,4.41.62A5,5,0,0,0,10,24.71a.23.23,0,0,0,0-.35,8.73,8.73,0,0,0-.81-.8A4.33,4.33,0,0,0,6.46,22.52Z"/><path class="cls-6" d="M6.45,26A1.5,1.5,0,1,1,8,24.57,1.49,1.49,0,0,1,6.45,26Zm-.39-2.77a.64.64,0,1,0,0,1.27.66.66,0,0,0,.65-.62A.64.64,0,0,0,6.06,23.26Z"/></g><path class="cls-6" d="M36,17.26a67.54,67.54,0,0,0-6.67,8.49l-1.86-2c-.77-.84-2,.42-1.26,1.26s1.74,1.88,2.6,2.83a.91.91,0,0,0,1.4-.18,66.16,66.16,0,0,1,7-9.12C38.06,17.67,36.8,16.41,36,17.26Z"/></g></g></svg>