<svg xmlns="http://www.w3.org/2000/svg" viewBox="0 0 23.75 30.99"><defs><style>.cls-1,.cls-3{fill:#fff;stroke:#174193;stroke-miterlimit:10;}.cls-1{stroke-width:0.26px;}.cls-2{fill:#174193;}.cls-3{stroke-width:0.29px;}.cls-4{fill:#d21e18;}</style></defs><g id="Capa_2" data-name="Capa 2"><g id="Capa_1-2" data-name="Capa 1"><path class="cls-1" d="M.13.13H18a5.59,5.59,0,0,1,5.59,5.59V30.86a0,0,0,0,1,0,0H.13a0,0,0,0,1,0,0V.13A0,0,0,0,1,.13.13Z"/><path class="cls-2" d="M8.07,11a.5.5,0,0,0-.16-.39,1.35,1.35,0,0,0-.53-.29,2.23,2.23,0,0,1-.89-.48A1,1,0,0,1,6.19,9a1.06,1.06,0,0,1,.28-.77,1.24,1.24,0,0,1,.78-.36V7.3H7.7v.62a1.16,1.16,0,0,1,.76.38,1.3,1.3,0,0,1,.26.86H8.05a.77.77,0,0,0-.16-.52.54.54,0,0,0-.44-.18A.59.59,0,0,0,7,8.62.6.6,0,0,0,6.87,9,.53.53,0,0,0,7,9.42a1.78,1.78,0,0,0,.55.29,2.39,2.39,0,0,1,.89.48,1.08,1.08,0,0,1,.29.79,1,1,0,0,1-.3.77,1.26,1.26,0,0,1-.81.34v.55H7.19V12.1a1.47,1.47,0,0,1-.83-.36,1.11,1.11,0,0,1-.31-.9v0h.66a.69.69,0,0,0,.2.56.73.73,0,0,0,.49.17.7.7,0,0,0,.5-.16A.52.52,0,0,0,8.07,11Z"/><path class="cls-2" d="M8.07,17.11a.5.5,0,0,0-.16-.39,1.35,1.35,0,0,0-.53-.29A2.23,2.23,0,0,1,6.49,16a1,1,0,0,1-.3-.79,1.05,1.05,0,0,1,.28-.76A1.24,1.24,0,0,1,7.25,14v-.61H7.7v.62a1.16,1.16,0,0,1,.76.38,1.3,1.3,0,0,1,.26.86H8.05a.77.77,0,0,0-.16-.52.55.55,0,0,0-.44-.19.59.59,0,0,0-.44.16.6.6,0,0,0-.14.41.53.53,0,0,0,.15.39,1.78,1.78,0,0,0,.55.29,2.39,2.39,0,0,1,.89.48,1.07,1.07,0,0,1,.29.79,1,1,0,0,1-.3.77,1.26,1.26,0,0,1-.81.34v.55H7.19v-.54a1.47,1.47,0,0,1-.83-.36,1.13,1.13,0,0,1-.31-.9v0h.66a.7.7,0,0,0,.2.56.73.73,0,0,0,.49.17.75.75,0,0,0,.5-.16A.52.52,0,0,0,8.07,17.11Z"/><rect class="cls-3" x="10.48" y="8.08" width="4.92" height="4.56" rx="1.51"/><rect class="cls-3" x="10.48" y="14.87" width="4.92" height="4.56" rx="1.51"/><path class="cls-4" d="M17.91,4.37a48.22,48.22,0,0,0-4.69,6c-.44-.47-.88-.95-1.31-1.43s-1.43.3-.89.89l1.83,2a.63.63,0,0,0,1-.13,46.67,46.67,0,0,1,5-6.41C19.34,4.67,18.45,3.78,17.91,4.37Z"/><path class="cls-4" d="M17.91,11.16a48.22,48.22,0,0,0-4.69,6c-.44-.47-.88-.95-1.31-1.43s-1.43.29-.89.89l1.83,2a.63.63,0,0,0,1-.13,46.67,46.67,0,0,1,5-6.41C19.34,11.46,18.45,10.57,17.91,11.16Z"/><path class="cls-2" d="M8.07,24a.51.51,0,0,0-.16-.39,1.48,1.48,0,0,0-.53-.29,2.12,2.12,0,0,1-.89-.48,1,1,0,0,1-.3-.78,1.06,1.06,0,0,1,.28-.77,1.24,1.24,0,0,1,.78-.36v-.61H7.7v.62a1.13,1.13,0,0,1,.76.39,1.27,1.27,0,0,1,.26.85H8.05a.74.74,0,0,0-.16-.51.52.52,0,0,0-.44-.19.59.59,0,0,0-.44.15.6.6,0,0,0-.14.41.53.53,0,0,0,.15.39,1.43,1.43,0,0,0,.55.29,2.39,2.39,0,0,1,.89.48,1.1,1.1,0,0,1,.29.79,1,1,0,0,1-.3.77,1.27,1.27,0,0,1-.81.35v.54H7.19v-.54a1.34,1.34,0,0,1-.83-.36,1.11,1.11,0,0,1-.31-.9h.66a.68.68,0,0,0,.2.55.73.73,0,0,0,.49.17.75.75,0,0,0,.5-.15A.54.54,0,0,0,8.07,24Z"/><rect class="cls-3" x="10.48" y="21.05" width="4.92" height="4.56" rx="1.51"/><path class="cls-4" d="M17.91,17.35a47.39,47.39,0,0,0-4.69,6L11.91,21.9c-.55-.6-1.43.29-.89.88l1.83,2a.63.63,0,0,0,1-.12,46.76,46.76,0,0,1,5-6.42C19.34,17.64,18.45,16.75,17.91,17.35Z"/></g></g></svg>