<svg xmlns="http://www.w3.org/2000/svg" viewBox="0 0 32.15 31.9"><defs><style>.cls-1,.cls-3,.cls-6,.cls-8{fill:#fff;}.cls-1,.cls-3,.cls-4,.cls-5,.cls-8{stroke:#174193;stroke-miterlimit:10;}.cls-1{stroke-width:0.26px;}.cls-2,.cls-5{fill:#174193;}.cls-3,.cls-4{stroke-width:0.18px;}.cls-4{fill:none;}.cls-5{stroke-width:0.34px;}.cls-7{fill:#d21e18;}.cls-8{stroke-width:0.29px;}</style></defs><g id="Capa_2" data-name="Capa 2"><g id="Capa_1-2" data-name="Capa 1"><path class="cls-1" d="M.13.13H18a5.59,5.59,0,0,1,5.59,5.59V30.86a0,0,0,0,1,0,0H.13a0,0,0,0,1,0,0V.13A0,0,0,0,1,.13.13Z"/><path class="cls-2" d="M2.81,5H19a2,2,0,0,1,2,2V8.69a0,0,0,0,1,0,0H2.81a0,0,0,0,1,0,0V5A0,0,0,0,1,2.81,5Z"/><rect class="cls-3" x="2.81" y="10.3" width="18.19" height="16.26"/><line class="cls-4" x1="8.02" y1="10.3" x2="8.02" y2="26.55"/><line class="cls-4" x1="13.23" y1="10.3" x2="13.23" y2="26.55"/><line class="cls-4" x1="10.62" y1="10.3" x2="10.62" y2="26.55"/><line class="cls-4" x1="15.83" y1="10.3" x2="15.83" y2="26.55"/><line class="cls-4" x1="18.4" y1="10.3" x2="18.4" y2="26.55"/><line class="cls-4" x1="21" y1="12.62" x2="2.81" y2="12.62"/><line class="cls-4" x1="21" y1="14.94" x2="2.81" y2="14.94"/><line class="cls-4" x1="21" y1="17.26" x2="2.81" y2="17.26"/><line class="cls-4" x1="21" y1="19.59" x2="2.81" y2="19.59"/><line class="cls-4" x1="21" y1="21.91" x2="2.81" y2="21.91"/><line class="cls-4" x1="21" y1="24.23" x2="2.81" y2="24.23"/><line class="cls-4" x1="5.49" y1="10.3" x2="5.49" y2="26.55"/><circle class="cls-5" cx="23.67" cy="25.5" r="6.22"/><circle class="cls-6" cx="23.67" cy="25.5" r="5.39"/><path class="cls-7" d="M30.65,17.74A69.9,69.9,0,0,0,24,26.23l-1.86-2c-.78-.84-2,.42-1.26,1.26l2.6,2.83a.89.89,0,0,0,1.39-.18A66.14,66.14,0,0,1,31.91,19C32.68,18.16,31.43,16.9,30.65,17.74Z"/><rect class="cls-8" x="9.36" y="15.97" width="4.92" height="4.56" rx="1.51"/><path class="cls-7" d="M16.78,12.26a49.18,49.18,0,0,0-4.69,6l-1.31-1.42c-.54-.6-1.43.29-.88.88l1.83,2a.63.63,0,0,0,1-.13,45.9,45.9,0,0,1,5-6.41C18.21,12.56,17.33,11.67,16.78,12.26Z"/></g></g></svg>