<svg xmlns="http://www.w3.org/2000/svg" viewBox="0 0 37.53 31.16"><defs><style>.cls-1,.cls-4{fill:#fff;}.cls-1,.cls-5{stroke:#174193;stroke-miterlimit:10;}.cls-1{stroke-width:0.26px;}.cls-2{fill:#d21e18;}.cls-3,.cls-5{fill:#174193;}.cls-5{stroke-width:0.34px;}</style></defs><g id="Capa_2" data-name="Capa 2"><g id="Capa_1-2" data-name="Capa 1"><path class="cls-1" d="M6.54.13H24.41A5.59,5.59,0,0,1,30,5.72h0V30.86H6.54V.13Z"/><rect class="cls-2" x="10.41" y="20.09" width="15.76" height="1.33" rx="0.66"/><rect class="cls-2" x="10.41" y="23.57" width="15.76" height="1.33" rx="0.66"/><rect class="cls-2" x="10.41" y="16.45" width="15.76" height="1.33" rx="0.66"/><path class="cls-3" d="M22.22,4.88H14.35A2.22,2.22,0,0,0,12.13,7.1h0v3.26a2.24,2.24,0,0,0,2.22,2.22h2.1l.85.8,1,.93,1-.93.85-.8h2.1a2.21,2.21,0,0,0,2.22-2.22h0V7.1a2.2,2.2,0,0,0-2.2-2.22Z"/><path class="cls-4" d="M19.15,11h-.76V7.1h-1V6.5l1.73-.17Z"/><circle class="cls-5" cx="29.42" cy="24.77" r="6.22"/><circle class="cls-4" cx="29.42" cy="24.77" r="5.39"/><circle class="cls-5" cx="6.4" cy="24.77" r="6.22"/><circle class="cls-4" cx="6.4" cy="24.77" r="5.39"/><g id="tNrt32"><path class="cls-2" d="M10.6,24.75a4.87,4.87,0,0,1-2.75,2.17,4.39,4.39,0,0,1-4.17-.71,4.57,4.57,0,0,1-1.16-1.12,1.9,1.9,0,0,1-.2-.34v-.18a4.82,4.82,0,0,1,2.54-2.1,4.32,4.32,0,0,1,4,.38,5.14,5.14,0,0,1,1.44,1.22,5,5,0,0,1,.32.53Zm-4.14-2.1a3.66,3.66,0,0,0-1.27.23A5.09,5.09,0,0,0,3,24.45c-.12.15-.14.27,0,.41s.51.55.8.78a4,4,0,0,0,4.41.62A5,5,0,0,0,10,24.84c.1-.13.11-.24,0-.35a8.73,8.73,0,0,0-.81-.8A4.33,4.33,0,0,0,6.46,22.65Z"/><path class="cls-2" d="M6.45,26.16A1.5,1.5,0,1,1,8,24.7,1.49,1.49,0,0,1,6.45,26.16Zm-.39-2.77a.63.63,0,0,0-.65.63.64.64,0,0,0,.64.64A.66.66,0,0,0,6.7,24,.64.64,0,0,0,6.06,23.39Z"/></g><path class="cls-2" d="M36,17.38a68.37,68.37,0,0,0-6.67,8.5l-1.86-2c-.77-.84-2,.41-1.26,1.25l2.6,2.83a.9.9,0,0,0,1.4-.18,66.67,66.67,0,0,1,7-9.11C38.06,17.8,36.8,16.54,36,17.38Z"/></g></g></svg>