<svg xmlns="http://www.w3.org/2000/svg" viewBox="0 0 25.15 30.99"><defs><style>.cls-1,.cls-3{fill:#fff;stroke:#174193;stroke-miterlimit:10;}.cls-1{stroke-width:0.26px;}.cls-2{fill:#174193;}.cls-3{stroke-width:0.29px;}.cls-4{fill:#d21e18;}</style></defs><g id="Capa_2" data-name="Capa 2"><g id="Capa_1-2" data-name="Capa 1"><g id="Capa_2-2" data-name="Capa 2"><g id="Capa_1-2-2" data-name="Capa 1-2"><path class="cls-1" d="M.13.13H18a5.59,5.59,0,0,1,5.59,5.59h0V30.86H.13V.13Z"/><rect class="cls-2" x="3.49" y="9.19" width="12.2" height="1.49" rx="0.64"/><rect class="cls-2" x="3.49" y="15.1" width="12.2" height="1.49" rx="0.64"/><rect class="cls-2" x="3.49" y="21.02" width="12.2" height="1.49" rx="0.64"/><rect class="cls-3" x="16.65" y="7.65" width="4.92" height="4.56" rx="1.51"/><rect class="cls-3" x="16.65" y="13.56" width="4.92" height="4.56" rx="1.51"/><rect class="cls-3" x="16.65" y="19.48" width="4.92" height="4.56" rx="1.51"/><path class="cls-4" d="M24.07,3.91a50.39,50.39,0,0,0-4.69,6L18.07,8.46c-.54-.59-1.42.29-.88.89l1.83,2a.63.63,0,0,0,.89,0,.76.76,0,0,0,.11-.14A46.13,46.13,0,0,1,25,4.8C25.5,4.21,24.62,3.32,24.07,3.91Z"/><path class="cls-4" d="M24.07,9.73a50.39,50.39,0,0,0-4.69,6l-1.31-1.45c-.54-.59-1.42.29-.88.89l1.83,2a.63.63,0,0,0,.89,0A.76.76,0,0,0,20,17a46.13,46.13,0,0,1,5-6.42C25.5,10,24.62,9.14,24.07,9.73Z"/><path class="cls-4" d="M24.07,15.76a51.21,51.21,0,0,0-4.69,6l-1.31-1.45c-.54-.59-1.42.29-.88.89l1.83,2a.62.62,0,0,0,.89,0,.76.76,0,0,0,.11-.14,46.13,46.13,0,0,1,5-6.42C25.5,16.06,24.62,15.17,24.07,15.76Z"/></g></g></g></g></svg>