<svg xmlns="http://www.w3.org/2000/svg" viewBox="0 0 37.53 31"><defs><style>.cls-1,.cls-3,.cls-6{fill:#fff;}.cls-1,.cls-3,.cls-5{stroke:#174193;stroke-miterlimit:10;}.cls-1{stroke-width:0.26px;}.cls-2,.cls-5{fill:#174193;}.cls-3{stroke-width:0.29px;}.cls-4{fill:#d21e18;}.cls-5{stroke-width:0.34px;}</style></defs><g id="Capa_2" data-name="Capa 2"><g id="Capa_1-2" data-name="Capa 1"><path class="cls-1" d="M5.41.13h17.9a5.59,5.59,0,0,1,5.59,5.59V30.86a0,0,0,0,1,0,0H5.41a0,0,0,0,1,0,0V.13A0,0,0,0,1,5.41.13Z"/><rect class="cls-2" x="9.35" y="13.68" width="16.55" height="2.1" rx="1.05"/><rect class="cls-2" x="9.35" y="17.11" width="16.55" height="2.1" rx="1.05"/><rect class="cls-3" x="14.98" y="7.03" width="4.92" height="4.56" rx="1.51"/><path class="cls-4" d="M22.41,3.32a48.22,48.22,0,0,0-4.69,6L16.4,7.87c-.54-.59-1.42.3-.88.89l1.83,2a.63.63,0,0,0,1-.13,45.9,45.9,0,0,1,5-6.41C23.83,3.62,23,2.73,22.41,3.32Z"/><circle class="cls-5" cx="29.42" cy="24.6" r="6.22"/><circle class="cls-6" cx="29.42" cy="24.6" r="5.39"/><circle class="cls-5" cx="6.4" cy="24.6" r="6.22"/><circle class="cls-6" cx="6.4" cy="24.6" r="5.39"/><g id="tNrt32"><path class="cls-4" d="M10.6,24.59a4.87,4.87,0,0,1-2.75,2.17,4.44,4.44,0,0,1-4.17-.71,4.57,4.57,0,0,1-1.16-1.12,3,3,0,0,1-.2-.34V24.4a4.8,4.8,0,0,1,2.54-2.09,4.32,4.32,0,0,1,4,.38,5,5,0,0,1,1.44,1.22,3.55,3.55,0,0,1,.32.53Zm-4.14-2.1a3.43,3.43,0,0,0-1.27.22A5.19,5.19,0,0,0,3,24.29c-.12.15-.14.27,0,.41s.51.55.8.78a4,4,0,0,0,4.41.61A4.92,4.92,0,0,0,10,24.67a.22.22,0,0,0,0-.34,8.73,8.73,0,0,0-.81-.8A4.33,4.33,0,0,0,6.46,22.49Z"/><path class="cls-4" d="M6.45,26A1.51,1.51,0,1,1,8,24.53,1.5,1.5,0,0,1,6.45,26Zm-.39-2.78a.64.64,0,0,0-.65.63.65.65,0,0,0,.64.65.67.67,0,0,0,.65-.63A.65.65,0,0,0,6.06,23.22Z"/></g><path class="cls-4" d="M36,17.22a69,69,0,0,0-6.67,8.49l-1.86-2c-.77-.85-2,.41-1.26,1.25l2.6,2.83a.9.9,0,0,0,1.4-.18,66.07,66.07,0,0,1,7-9.11C38.06,17.64,36.8,16.38,36,17.22Z"/></g></g></svg>