<svg xmlns="http://www.w3.org/2000/svg" viewBox="0 0 23.75 30.99"><defs><style>.cls-1,.cls-3{fill:#fff;stroke:#174193;stroke-miterlimit:10;}.cls-1{stroke-width:0.26px;}.cls-2{fill:#174193;}.cls-3{stroke-width:0.29px;}.cls-4{fill:#d21e18;}</style></defs><g id="Capa_2" data-name="Capa 2"><g id="Capa_1-2" data-name="Capa 1"><path class="cls-1" d="M.13.13H18a5.59,5.59,0,0,1,5.59,5.59V30.86a0,0,0,0,1,0,0H.13a0,0,0,0,1,0,0V.13A0,0,0,0,1,.13.13Z"/><rect class="cls-2" x="0.01" y="15.87" width="0.25" height="5.14"/><rect class="cls-2" x="4" y="18.44" width="15.76" height="1.33" rx="0.66"/><rect class="cls-2" x="4" y="6" width="15.76" height="1.33" rx="0.66"/><path class="cls-2" d="M12.91,14.11a.82.82,0,0,0-.24-.61,2.19,2.19,0,0,0-.82-.44,3.56,3.56,0,0,1-1.38-.74A1.63,1.63,0,0,1,10,11.11a1.65,1.65,0,0,1,.43-1.18,1.88,1.88,0,0,1,1.2-.55V8.44h.69v1a1.75,1.75,0,0,1,1.16.6,1.91,1.91,0,0,1,.41,1.31v0h-1a1.2,1.2,0,0,0-.24-.79.83.83,0,0,0-.68-.3.89.89,0,0,0-.68.24.93.93,0,0,0-.22.63.81.81,0,0,0,.23.6,2.48,2.48,0,0,0,.85.45,3.57,3.57,0,0,1,1.37.74A1.63,1.63,0,0,1,14,14.1a1.57,1.57,0,0,1-.46,1.19,2,2,0,0,1-1.25.53v.84h-.69v-.84a2.09,2.09,0,0,1-1.28-.55,1.73,1.73,0,0,1-.48-1.38v0h1a1.06,1.06,0,0,0,.3.85,1.16,1.16,0,0,0,.77.26,1.06,1.06,0,0,0,.75-.24A.77.77,0,0,0,12.91,14.11Z"/><rect class="cls-3" x="8.76" y="22.87" width="4.92" height="4.56" rx="1.51"/><path class="cls-4" d="M16.19,19.16a48.22,48.22,0,0,0-4.69,6c-.44-.47-.88-.95-1.31-1.43s-1.43.3-.89.89l1.83,2a.63.63,0,0,0,1-.13,46.67,46.67,0,0,1,5-6.41C17.62,19.46,16.73,18.57,16.19,19.16Z"/></g></g></svg>