<svg xmlns="http://www.w3.org/2000/svg" viewBox="0 0 29.94 31.87"><defs><style>.cls-1,.cls-4{fill:#fff;}.cls-1,.cls-3{stroke:#174193;stroke-miterlimit:10;}.cls-1{stroke-width:0.26px;}.cls-2,.cls-3{fill:#174193;}.cls-3{stroke-width:0.34px;}.cls-5{fill:#d21e18;}</style></defs><g id="Capa_2" data-name="Capa 2"><g id="Capa_1-2" data-name="Capa 1"><path class="cls-1" d="M.13.13H18a5.59,5.59,0,0,1,5.59,5.59V30.86a0,0,0,0,1,0,0H.13a0,0,0,0,1,0,0V.13A0,0,0,0,1,.13.13Z"/><path class="cls-2" d="M13.4,17.55a1.12,1.12,0,0,0-.33-.83,3,3,0,0,0-1.11-.6,4.87,4.87,0,0,1-1.87-1,2.19,2.19,0,0,1-.62-1.64,2.28,2.28,0,0,1,.59-1.61,2.61,2.61,0,0,1,1.63-.74V9.85h.93v1.29a2.4,2.4,0,0,1,1.59.81,2.67,2.67,0,0,1,.55,1.78l0,0H13.36A1.66,1.66,0,0,0,13,12.68a1.13,1.13,0,0,0-.92-.39,1.18,1.18,0,0,0-.92.32,1.2,1.2,0,0,0-.3.86,1.13,1.13,0,0,0,.31.81,3.37,3.37,0,0,0,1.15.61,4.75,4.75,0,0,1,1.86,1,2.17,2.17,0,0,1,.61,1.64,2.19,2.19,0,0,1-.61,1.62,2.76,2.76,0,0,1-1.7.71V21h-.94V19.88a2.89,2.89,0,0,1-1.74-.75,2.41,2.41,0,0,1-.66-1.88v0h1.38A1.46,1.46,0,0,0,11,18.38a1.58,1.58,0,0,0,1,.35,1.51,1.51,0,0,0,1-.32A1.09,1.09,0,0,0,13.4,17.55Z"/><circle class="cls-3" cx="23.55" cy="25.47" r="6.22"/><circle class="cls-4" cx="23.55" cy="25.47" r="5.39"/><g id="tNrt32"><path class="cls-5" d="M27.76,25.46A4.94,4.94,0,0,1,25,27.63a4.44,4.44,0,0,1-4.17-.71,4.61,4.61,0,0,1-1.17-1.12l-.2-.34v-.19A4.86,4.86,0,0,1,22,23.18a4.33,4.33,0,0,1,4,.38,5.11,5.11,0,0,1,1.44,1.22c.12.16.21.35.32.53Zm-4.14-2.1a3.48,3.48,0,0,0-1.28.22,5.1,5.1,0,0,0-2.22,1.58c-.12.15-.15.27,0,.41s.51.55.8.78a4,4,0,0,0,4.42.61,4.88,4.88,0,0,0,1.8-1.42c.1-.12.12-.23,0-.34a8.63,8.63,0,0,0-.8-.8A4.35,4.35,0,0,0,23.62,23.36Z"/><path class="cls-5" d="M23.6,26.87a1.51,1.51,0,1,1,1.51-1.47A1.5,1.5,0,0,1,23.6,26.87Zm-.38-2.78a.64.64,0,0,0-.65.63.64.64,0,0,0,1.28,0A.64.64,0,0,0,23.22,24.09Z"/></g></g></g></svg>