<svg xmlns="http://www.w3.org/2000/svg" viewBox="0 0 30.02 31.06"><defs><style>.cls-1,.cls-3,.cls-6{fill:#fff;}.cls-1,.cls-3,.cls-5{stroke:#174193;stroke-miterlimit:10;}.cls-1{stroke-width:0.26px;}.cls-2,.cls-5{fill:#174193;}.cls-3{stroke-width:0.29px;}.cls-4{fill:#d21e18;}.cls-5{stroke-width:0.34px;}</style></defs><g id="Capa_2" data-name="Capa 2"><g id="Capa_1-2" data-name="Capa 1"><path class="cls-1" d="M.13.13H18a5.59,5.59,0,0,1,5.59,5.59V30.86a0,0,0,0,1,0,0H.13a0,0,0,0,1,0,0V.13A0,0,0,0,1,.13.13Z"/><rect class="cls-2" x="4.07" y="13.68" width="16.55" height="2.1" rx="1.05"/><rect class="cls-2" x="4.07" y="17.11" width="16.55" height="2.1" rx="1.05"/><rect class="cls-3" x="9.69" y="7.03" width="4.92" height="4.56" rx="1.51"/><path class="cls-4" d="M17.12,3.32a49.18,49.18,0,0,0-4.69,6c-.44-.47-.87-1-1.31-1.43s-1.43.3-.88.89l1.82,2a.63.63,0,0,0,1-.13,47.46,47.46,0,0,1,5-6.41C18.55,3.62,17.67,2.73,17.12,3.32Z"/><circle class="cls-5" cx="23.63" cy="24.66" r="6.22"/><circle class="cls-6" cx="23.63" cy="24.66" r="5.39"/><g id="tNrt32"><path class="cls-4" d="M27.83,24.65a4.82,4.82,0,0,1-2.75,2.16,4.39,4.39,0,0,1-4.17-.71A4.37,4.37,0,0,1,19.75,25a3,3,0,0,1-.2-.34v-.19a4.8,4.8,0,0,1,2.54-2.09,4.29,4.29,0,0,1,4,.38A4.83,4.83,0,0,1,27.51,24a3.55,3.55,0,0,1,.32.53Zm-4.14-2.11a3.66,3.66,0,0,0-1.27.23,5.19,5.19,0,0,0-2.23,1.58.25.25,0,0,0,0,.4c.27.26.51.56.8.79a4,4,0,0,0,4.41.61,4.92,4.92,0,0,0,1.81-1.42.23.23,0,0,0,0-.35c-.27-.26-.51-.56-.81-.8A4.44,4.44,0,0,0,23.69,22.54Z"/><path class="cls-4" d="M23.68,26.05a1.5,1.5,0,1,1,1.51-1.46A1.48,1.48,0,0,1,23.68,26.05Zm-.39-2.77a.64.64,0,0,0-.65.63.65.65,0,0,0,.64.65.67.67,0,0,0,.65-.63A.65.65,0,0,0,23.29,23.28Z"/></g></g></g></svg>