<svg xmlns="http://www.w3.org/2000/svg" viewBox="0 0 30.02 31.06"><defs><style>.cls-1,.cls-4{fill:#fff;}.cls-1,.cls-3{stroke:#174193;stroke-miterlimit:10;}.cls-1{stroke-width:0.26px;}.cls-2,.cls-3{fill:#174193;}.cls-3{stroke-width:0.34px;}.cls-5{fill:#d21e18;}</style></defs><g id="Capa_2" data-name="Capa 2"><g id="Capa_1-2" data-name="Capa 1"><path class="cls-1" d="M.13.13H18a5.59,5.59,0,0,1,5.59,5.59V30.86a0,0,0,0,1,0,0H.13a0,0,0,0,1,0,0V.13A0,0,0,0,1,.13.13Z"/><path class="cls-2" d="M17.48,11.72a6.44,6.44,0,1,1-8.33-1.28l-.72-.73a7.36,7.36,0,0,0-3.3,6.12,7.43,7.43,0,1,0,14.86,0A7.29,7.29,0,0,0,18.18,11Z"/><polygon class="cls-2" points="9.93 9.19 9.38 10.47 8.83 11.74 8 10.63 7.17 9.51 8.55 9.35 9.93 9.19"/><path class="cls-2" d="M13.59,17.25a.82.82,0,0,0-.24-.61,2.11,2.11,0,0,0-.82-.44,3.44,3.44,0,0,1-1.37-.74,1.6,1.6,0,0,1-.46-1.21,1.62,1.62,0,0,1,.44-1.18,1.87,1.87,0,0,1,1.19-.55v-.94H13v.95a1.8,1.8,0,0,1,1.17.6,2,2,0,0,1,.4,1.31v0h-1a1.18,1.18,0,0,0-.24-.79.81.81,0,0,0-.68-.3.86.86,0,0,0-.67.24.88.88,0,0,0-.22.63.81.81,0,0,0,.22.6,2.58,2.58,0,0,0,.85.45,3.57,3.57,0,0,1,1.37.74,1.63,1.63,0,0,1,.45,1.21,1.6,1.6,0,0,1-.45,1.19,2.08,2.08,0,0,1-1.26.53v.84h-.68V19A2.06,2.06,0,0,1,11,18.41,1.73,1.73,0,0,1,10.48,17v0h1a1,1,0,0,0,.31.85,1.13,1.13,0,0,0,.76.26,1.1,1.1,0,0,0,.76-.24A.8.8,0,0,0,13.59,17.25Z"/><circle class="cls-3" cx="23.63" cy="24.66" r="6.22"/><circle class="cls-4" cx="23.63" cy="24.66" r="5.39"/><g id="tNrt32"><path class="cls-5" d="M27.83,24.65a4.82,4.82,0,0,1-2.75,2.16,4.39,4.39,0,0,1-4.17-.71A4.37,4.37,0,0,1,19.75,25a3,3,0,0,1-.2-.34v-.19a4.8,4.8,0,0,1,2.54-2.09,4.29,4.29,0,0,1,4,.38A4.83,4.83,0,0,1,27.51,24a3.55,3.55,0,0,1,.32.53Zm-4.14-2.11a3.66,3.66,0,0,0-1.27.23,5.19,5.19,0,0,0-2.23,1.58.25.25,0,0,0,0,.4c.27.26.51.56.8.79a4,4,0,0,0,4.41.61,4.92,4.92,0,0,0,1.81-1.42.23.23,0,0,0,0-.35c-.27-.26-.51-.56-.81-.8A4.44,4.44,0,0,0,23.69,22.54Z"/><path class="cls-5" d="M23.68,26.05a1.5,1.5,0,1,1,1.51-1.46A1.48,1.48,0,0,1,23.68,26.05Zm-.39-2.77a.64.64,0,0,0-.65.63.65.65,0,0,0,.64.65.67.67,0,0,0,.65-.63A.65.65,0,0,0,23.29,23.28Z"/></g></g></g></svg>