<svg xmlns="http://www.w3.org/2000/svg" viewBox="0 0 29.99 30.99"><defs><style>.cls-1,.cls-4{fill:#fff;}.cls-1,.cls-5{stroke:#174193;stroke-miterlimit:10;}.cls-1{stroke-width:0.26px;}.cls-2{fill:#d21e18;}.cls-3,.cls-5{fill:#174193;}.cls-5{stroke-width:0.34px;}</style></defs><g id="Capa_2" data-name="Capa 2"><g id="Capa_1-2" data-name="Capa 1"><path class="cls-1" d="M.13.13H18a5.59,5.59,0,0,1,5.59,5.59h0V30.86H.13V.13Z"/><rect class="cls-2" x="4" y="20.47" width="15.76" height="1.33" rx="0.66"/><rect class="cls-2" x="4" y="23.95" width="15.76" height="1.33" rx="0.66"/><rect class="cls-2" x="4" y="16.83" width="15.76" height="1.33" rx="0.66"/><path class="cls-3" d="M15.81,5.26H7.94A2.21,2.21,0,0,0,5.72,7.48h0v3.26A2.24,2.24,0,0,0,7.94,13H10l.85.8,1,.93,1-.93.85-.8h2.1a2.21,2.21,0,0,0,2.22-2.22h0V7.48a2.21,2.21,0,0,0-2.2-2.22Z"/><path class="cls-4" d="M12.74,11.36H12V7.48H11v-.6l1.73-.17Z"/><circle class="cls-5" cx="23.59" cy="24.41" r="6.22"/><circle class="cls-4" cx="23.59" cy="24.41" r="5.39"/><g id="tNrt32"><path class="cls-2" d="M27.8,24.64a4.94,4.94,0,0,1-2.75,2.17,4.44,4.44,0,0,1-4.17-.71A4.61,4.61,0,0,1,19.71,25l-.2-.34v-.19a4.91,4.91,0,0,1,2.55-2.09,4.33,4.33,0,0,1,4,.38A5.11,5.11,0,0,1,27.48,24c.12.16.21.35.32.53Zm-4.14-2.1a3.48,3.48,0,0,0-1.28.22,5.1,5.1,0,0,0-2.22,1.58c-.12.15-.15.27,0,.41a8.43,8.43,0,0,0,.8.78,4,4,0,0,0,4.41.61,4.8,4.8,0,0,0,1.8-1.42c.1-.12.12-.23,0-.34a10.17,10.17,0,0,0-.81-.8A4.35,4.35,0,0,0,23.66,22.54Z"/><path class="cls-2" d="M23.64,26.05a1.51,1.51,0,1,1,1.51-1.47A1.49,1.49,0,0,1,23.64,26.05Zm-.38-2.77a.62.62,0,0,0-.65.62.64.64,0,0,0,1.28,0A.63.63,0,0,0,23.26,23.28Z"/></g></g></g></svg>