<svg xmlns="http://www.w3.org/2000/svg" viewBox="0 0 29.55 31.06"><defs><style>.cls-1,.cls-2,.cls-5{fill:#fff;}.cls-1,.cls-2,.cls-4{stroke:#174193;stroke-miterlimit:10;}.cls-1{stroke-width:0.26px;}.cls-2{stroke-width:0.29px;}.cls-3,.cls-4{fill:#174193;}.cls-4{stroke-width:0.34px;}.cls-6{fill:#d21e18;}</style></defs><g id="Capa_2" data-name="Capa 2"><g id="Capa_1-2" data-name="Capa 1"><path class="cls-1" d="M.13.13H18a5.59,5.59,0,0,1,5.59,5.59V30.86a0,0,0,0,1,0,0H.13a0,0,0,0,1,0,0V.13A0,0,0,0,1,.13.13Z"/><rect class="cls-2" x="9.38" y="4.64" width="4.92" height="4.56" rx="1.51"/><rect class="cls-2" x="2.78" y="4.64" width="4.92" height="4.56" rx="1.51"/><rect class="cls-2" x="15.87" y="4.64" width="4.92" height="4.56" rx="1.51"/><circle class="cls-3" cx="5.24" cy="6.92" r="1.4"/><circle class="cls-3" cx="11.85" cy="6.92" r="1.4"/><circle class="cls-3" cx="18.33" cy="6.92" r="1.4"/><rect class="cls-2" x="9.38" y="10.52" width="4.92" height="4.56" rx="1.51"/><rect class="cls-2" x="2.78" y="10.52" width="4.92" height="4.56" rx="1.51"/><rect class="cls-2" x="15.87" y="10.52" width="4.92" height="4.56" rx="1.51"/><circle class="cls-3" cx="5.24" cy="12.81" r="1.4"/><circle class="cls-3" cx="11.85" cy="12.81" r="1.4"/><circle class="cls-3" cx="18.33" cy="12.81" r="1.4"/><rect class="cls-2" x="9.38" y="16.3" width="4.92" height="4.56" rx="1.51"/><rect class="cls-2" x="2.78" y="16.3" width="4.92" height="4.56" rx="1.51"/><rect class="cls-2" x="15.87" y="16.3" width="4.92" height="4.56" rx="1.51"/><circle class="cls-3" cx="5.24" cy="18.58" r="1.4"/><circle class="cls-3" cx="11.85" cy="18.58" r="1.4"/><circle class="cls-3" cx="18.33" cy="18.58" r="1.4"/><rect class="cls-2" x="9.38" y="22.04" width="4.92" height="4.56" rx="1.51"/><rect class="cls-2" x="2.78" y="22.04" width="4.92" height="4.56" rx="1.51"/><rect class="cls-2" x="15.87" y="22.04" width="4.92" height="4.56" rx="1.51"/><circle class="cls-3" cx="5.24" cy="24.33" r="1.4"/><circle class="cls-3" cx="11.85" cy="24.33" r="1.4"/><circle class="cls-3" cx="18.33" cy="24.33" r="1.4"/><circle class="cls-4" cx="23.15" cy="24.66" r="6.22"/><circle class="cls-5" cx="23.15" cy="24.66" r="5.39"/><g id="tNrt32"><path class="cls-6" d="M27.36,24.65a4.82,4.82,0,0,1-2.75,2.16,4.39,4.39,0,0,1-4.17-.71A4.23,4.23,0,0,1,19.28,25a3,3,0,0,1-.2-.34v-.19a4.8,4.8,0,0,1,2.54-2.09,4.29,4.29,0,0,1,4,.38A4.83,4.83,0,0,1,27,24a3.55,3.55,0,0,1,.32.53Zm-4.14-2.11a3.66,3.66,0,0,0-1.27.23,5.13,5.13,0,0,0-2.23,1.58.25.25,0,0,0,0,.4c.27.26.51.56.8.79a4,4,0,0,0,4.41.61,4.92,4.92,0,0,0,1.81-1.42.23.23,0,0,0,0-.35c-.27-.26-.51-.56-.81-.8A4.47,4.47,0,0,0,23.22,22.54Z"/><path class="cls-6" d="M23.21,26.05a1.48,1.48,0,0,1-1.49-1.55,1.5,1.5,0,1,1,1.49,1.55Zm-.39-2.77a.64.64,0,0,0-.65.63.64.64,0,0,0,1.28,0A.64.64,0,0,0,22.82,23.28Z"/></g></g></g></svg>