<svg xmlns="http://www.w3.org/2000/svg" viewBox="0 0 32.06 31.9"><defs><style>.cls-1,.cls-4{fill:#fff;}.cls-1,.cls-3{stroke:#174193;stroke-miterlimit:10;}.cls-1{stroke-width:0.26px;}.cls-2,.cls-3{fill:#174193;}.cls-3{stroke-width:0.34px;}.cls-5{fill:#d21e18;}</style></defs><g id="Capa_2" data-name="Capa 2"><g id="Capa_1-2" data-name="Capa 1"><path class="cls-1" d="M.13.13H18a5.59,5.59,0,0,1,5.59,5.59V30.86a0,0,0,0,1,0,0H.13a0,0,0,0,1,0,0V.13A0,0,0,0,1,.13.13Z"/><g id="tNrt32"><path class="cls-2" d="M21,16.55A10.81,10.81,0,0,1,15,21.34c-3.34,1.19-6.4.39-9.23-1.57a10.19,10.19,0,0,1-2.57-2.46c-.17-.24-.3-.51-.45-.76v-.41a10.66,10.66,0,0,1,5.63-4.63,9.51,9.51,0,0,1,8.81.84,11,11,0,0,1,3.18,2.7A10.72,10.72,0,0,1,21,16.22ZM11.89,11.9a8,8,0,0,0-2.83.5,11.31,11.31,0,0,0-4.92,3.48c-.26.33-.32.6,0,.9A19.13,19.13,0,0,0,5.9,18.51c3,2.3,6.22,3.06,9.77,1.37a11,11,0,0,0,4-3.14.51.51,0,0,0,0-.77,21.23,21.23,0,0,0-1.78-1.77A9.68,9.68,0,0,0,11.89,11.9Z"/><path class="cls-2" d="M11.85,19.66a3.32,3.32,0,1,1,3.34-3.23A3.3,3.3,0,0,1,11.85,19.66ZM11,13.53a1.4,1.4,0,0,0-1.44,1.39A1.43,1.43,0,0,0,11,16.35,1.46,1.46,0,0,0,12.4,15,1.42,1.42,0,0,0,11,13.53Z"/></g><circle class="cls-3" cx="23.67" cy="25.51" r="6.22"/><circle class="cls-4" cx="23.67" cy="25.5" r="5.39"/><path class="cls-4" d="M25.05,25H24.2v-.84a.53.53,0,0,0-.51-.53h0a.53.53,0,0,0-.53.53V25H22.3a.53.53,0,1,0,0,1.06h.84v.85a.53.53,0,0,0,.53.53.53.53,0,0,0,.53-.53V26h.85a.53.53,0,0,0,0-1.06Z"/><path class="cls-5" d="M30.56,17.74a68.46,68.46,0,0,0-6.67,8.51l-1.87-2c-.78-.85-2,.41-1.26,1.25s1.74,1.89,2.6,2.84a.91.91,0,0,0,1.4-.18,65.72,65.72,0,0,1,7-9.13C32.59,18.16,31.33,16.9,30.56,17.74Z"/></g></g></svg>