<svg id="Capa_1" data-name="Capa 1" xmlns="http://www.w3.org/2000/svg" viewBox="0 0 23.75 30.99"><defs><style>.cls-1{fill:#fff;stroke:#174193;stroke-miterlimit:10;stroke-width:0.26px;}.cls-2{fill:#d21e18;}.cls-3{fill:#174193;}</style></defs><path class="cls-1" d="M.13.13H18a5.59,5.59,0,0,1,5.59,5.59V30.86a0,0,0,0,1,0,0H.13a0,0,0,0,1,0,0V.13A0,0,0,0,1,.13.13Z"/><rect class="cls-2" x="4" y="15.45" width="15.76" height="1.33" rx="0.66"/><rect class="cls-2" x="4" y="18.93" width="15.76" height="1.33" rx="0.66"/><rect class="cls-2" x="4" y="22.06" width="15.76" height="1.33" rx="0.66"/><rect class="cls-2" x="4" y="12.19" width="15.76" height="1.33" rx="0.66"/><rect class="cls-2" x="4" y="9.09" width="15.76" height="1.33" rx="0.66"/><rect class="cls-2" x="4" y="25.51" width="15.76" height="1.33" rx="0.66"/><circle class="cls-3" cx="11.88" cy="5.61" r="2.14"/></svg>