<svg id="Capa_1" data-name="Capa 1" xmlns="http://www.w3.org/2000/svg" viewBox="0 0 23.75 30.99"><defs><style>.cls-1,.cls-3{fill:#fff;}.cls-1{stroke:#174193;stroke-miterlimit:10;stroke-width:0.26px;}.cls-2{fill:#d21e18;}</style></defs><path class="cls-1" d="M.13.13H18a5.59,5.59,0,0,1,5.59,5.59V30.86a0,0,0,0,1,0,0H.13a0,0,0,0,1,0,0V.13A0,0,0,0,1,.13.13Z"/><rect class="cls-2" x="4.1" y="18.63" width="15.76" height="1.33" rx="0.66"/><circle class="cls-2" cx="12.07" cy="8.02" r="3.49"/><circle class="cls-3" cx="12.07" cy="8.02" r="2.42"/><path class="cls-2" d="M387.1,291.41l-1.2-1.32a.19.19,0,0,0-.35.1l-.28,1.76-1.4-4.72a.29.29,0,0,1,.12-.38l1.39-.41c.12,0,.26.08.32.25Z" transform="translate(-372.13 -275.64)"/><path class="cls-2" d="M382.52,291.6l-.28-1.74a.24.24,0,0,0-.43-.15l-1.29,1.21,1.58-4.62a.34.34,0,0,1,.39-.26l1.46.5a.34.34,0,0,1,.15.44Z" transform="translate(-372.13 -275.64)"/><path class="cls-2" d="M378.3,300.93h0l-.12.11-.13.09a1.59,1.59,0,0,1-.29.15,1.87,1.87,0,0,1-.62.1,2.15,2.15,0,0,1-.62-.08l-.25-.07a.4.4,0,0,1,0,.15.7.7,0,0,1-.05.37.51.51,0,0,1-.09.16.66.66,0,0,1-.14.15l0,0-.05,0-.12,0h0l0,0,0,0,0,0a.11.11,0,0,1,0-.05v-.06s0-.06,0-.09a.94.94,0,0,1,0-.16c0-.1,0-.2.08-.3s.07-.21.1-.31v0a.06.06,0,0,1,0-.07l0,0,.06-.17c.07-.2.13-.4.21-.6s.07-.19.11-.29l0-.07,0-.08a1.09,1.09,0,0,1,.08-.15.94.94,0,0,1,.1-.14l.13-.12.09,0a.14.14,0,0,1,.11,0H377l.06,0a.36.36,0,0,1,.07.1s0,.06,0,.1a.28.28,0,0,1,0,.09.24.24,0,0,1,0,.08.19.19,0,0,1,0,.08,1.59,1.59,0,0,1-.15.29,1.51,1.51,0,0,1-.18.26,2.43,2.43,0,0,1-.2.25,4.11,4.11,0,0,1-.29.3l-.07.19h0l.07,0,.29.09a2.32,2.32,0,0,0,.59.07,1.85,1.85,0,0,0,.58-.09,1.34,1.34,0,0,0,.49-.32h0a0,0,0,0,1,.08,0A.05.05,0,0,1,378.3,300.93Zm-2.45,1h0Zm.35-.52a.37.37,0,0,0,0-.15s0,0,0-.06h0l-.09.28a1.61,1.61,0,0,0-.09.29.8.8,0,0,0,0,.15h0a.2.2,0,0,0,.12-.08.27.27,0,0,0,.09-.12.44.44,0,0,0,.05-.15A.43.43,0,0,0,376.2,301.39Zm.12-.74,0,0,.11-.12a3.43,3.43,0,0,0,.36-.49,1.69,1.69,0,0,0,.12-.28.14.14,0,0,0,0-.07.15.15,0,0,0,0-.07v-.06a.08.08,0,0,0,0,0s0,0,0,0h0l0,0,0,0a.43.43,0,0,0-.09.1l-.07.12-.06.14,0,.07,0,.07c0,.09-.07.19-.11.29Z" transform="translate(-372.13 -275.64)"/><path class="cls-2" d="M380.56,300.93h0l-.12.11a.6.6,0,0,1-.13.09,1.51,1.51,0,0,1-.28.15,1.87,1.87,0,0,1-.62.1,2.27,2.27,0,0,1-.63-.08l-.24-.07a.8.8,0,0,1,0,.15,1.21,1.21,0,0,1,0,.19.58.58,0,0,1,0,.18l-.09.16a.71.71,0,0,1-.15.15l0,0-.05,0a.2.2,0,0,1-.11,0h0l0,0s0,0,0,0,0,0,0,0a.43.43,0,0,0,0-.05v-.06a.28.28,0,0,0,0-.09.94.94,0,0,0,0-.16l.09-.3.09-.31v0s0-.05,0-.07l0,0,.06-.17.21-.6.12-.29,0-.07,0-.08a1.09,1.09,0,0,1,.08-.15l.1-.14a.87.87,0,0,1,.14-.12l.08,0a.17.17,0,0,1,.12,0h.06l.05,0a.17.17,0,0,1,.07.1.3.3,0,0,1,0,.1v.09s0,.05,0,.08l0,.08a2.59,2.59,0,0,1-.14.29l-.18.26-.2.25c-.1.1-.19.21-.3.3l-.06.19h0l.08,0,.28.09a2.46,2.46,0,0,0,.6.07,2,2,0,0,0,.58-.09,1.31,1.31,0,0,0,.48-.32h0a0,0,0,0,1,.08,0A.06.06,0,0,1,380.56,300.93Zm-2.45,1h0Zm.36-.52a.37.37,0,0,0,0-.15l0-.06h0l-.09.28-.09.29,0,.15h0a.28.28,0,0,0,.12-.08.27.27,0,0,0,.09-.12.88.88,0,0,0,0-.15A.86.86,0,0,0,378.47,301.39Zm.12-.74,0,0,.1-.12a2.8,2.8,0,0,0,.36-.49,1.75,1.75,0,0,0,.13-.28.64.64,0,0,0,0-.07s0,0,0-.07a.13.13,0,0,0,0-.06.07.07,0,0,0,0,0s0,0,0,0h0l0,0,0,0a.39.39,0,0,0-.08.1.75.75,0,0,0-.07.12.84.84,0,0,0-.06.14l0,.07,0,.07c0,.09-.07.19-.1.29S378.63,300.53,378.59,300.65Z" transform="translate(-372.13 -275.64)"/><path class="cls-2" d="M382.86,300.94h0a5.32,5.32,0,0,1-.66.26l-.17.05-.18.05-.35.07-.17,0-.19,0H381l-.2,0-.05,0h0s0,0,0,0a.39.39,0,0,1-.08-.1.6.6,0,0,1,0-.12.48.48,0,0,1,0-.12v0l0,0a.09.09,0,0,1,0-.12h0l0-.05,0-.06.08-.1a.11.11,0,0,1,.16,0,.1.1,0,0,1,.05.1v0a.08.08,0,0,0,0,0v0l0,0,0,.05,0,0,0,.08s0,0,0,.07a.15.15,0,0,0,0,.11s0,0,0,0h0l.15,0h.17a2,2,0,0,0,.34,0l.35-.07.17,0,.17,0a4.51,4.51,0,0,0,.64-.26.06.06,0,1,1,.06.1Zm-2-.43a.12.12,0,0,1,0-.17l0-.06a.13.13,0,0,1,.16-.07.12.12,0,0,1,.06.16.33.33,0,0,1-.11.16.11.11,0,0,1-.07,0A.12.12,0,0,1,380.82,300.51Z" transform="translate(-372.13 -275.64)"/><path class="cls-2" d="M385.4,300.94h0a3,3,0,0,1-.46.26l-.25.11-.25.08-.26.07-.26,0-.27,0h-.27a1,1,0,0,1-.28-.07.33.33,0,0,1-.13-.07.34.34,0,0,1-.12-.12l0-.08s0,0,0,0v0h0a.86.86,0,0,1,0-.16,1,1,0,0,1,.05-.16l0-.07.05-.06.11-.11.07,0,.09,0h.11a.21.21,0,0,1,.1.06.16.16,0,0,1,.05.11.17.17,0,0,1,0,.1v.05l0,0-.06.07a.42.42,0,0,1-.14.09l-.16,0h0v.07l0,.09a.49.49,0,0,0,.15.13.9.9,0,0,0,.23.08l.12,0h.38l.25,0a1,1,0,0,0,.25-.06l.25-.08.23-.1a2,2,0,0,0,.44-.27.06.06,0,0,1,.08,0A.06.06,0,0,1,385.4,300.94Zm-2.33-.16,0,.08h0l.1,0a.16.16,0,0,0,.08-.06.05.05,0,0,0,0,0v0h0v0h-.07l0,0Z" transform="translate(-372.13 -275.64)"/><path class="cls-2" d="M387.69,300.94h0a6.16,6.16,0,0,1-.67.26l-.17.05-.18.05-.35.07-.17,0-.18,0h-.19l-.2,0-.05,0h0l0,0a.39.39,0,0,1-.08-.1.6.6,0,0,1,0-.12.48.48,0,0,1,0-.12v-.05a.08.08,0,0,1,0-.12h0l0-.05,0-.06.08-.1a.11.11,0,0,1,.16,0,.1.1,0,0,1,.05.1v0a.08.08,0,0,0,0,0v0l0,0,0,.05,0,0,0,.08,0,.07a.23.23,0,0,0,0,.11s0,0,0,0h0l.15,0H386a2.07,2.07,0,0,0,.35,0l.34-.07.17,0,.17,0a4.51,4.51,0,0,0,.64-.26.06.06,0,1,1,.06.1Zm-2-.43a.12.12,0,0,1,0-.17l0-.06a.14.14,0,0,1,.16-.07.12.12,0,0,1,.06.16.33.33,0,0,1-.11.16.11.11,0,0,1-.07,0A.12.12,0,0,1,385.65,300.51Z" transform="translate(-372.13 -275.64)"/><path class="cls-2" d="M390.17,301a5.31,5.31,0,0,1-.81.19,3,3,0,0,1-.42.05h-.43a.63.63,0,0,1-.22-.07l-.09-.07v0l0,0a.52.52,0,0,1-.11.19l0,.05,0,0-.06,0-.08,0h0l0,0,0,0a.25.25,0,0,1-.05-.08.27.27,0,0,1,0-.15.49.49,0,0,1,0-.12.13.13,0,0,1,0-.06.12.12,0,0,1,0-.17h0v0l0-.05v0h0l0,0h.13a.05.05,0,0,1,0,0h0v0h0s0,0,0,0v0s0,0,0,.06l0,.1,0,.11a.29.29,0,0,0,0,.09v.11h0l0,0,0,0a.35.35,0,0,0,0-.08l.05-.09s0-.08,0-.12a.57.57,0,0,1,0-.18.45.45,0,0,1,0-.11,0,0,0,0,0,0,0v0h.11a.07.07,0,0,1,0,.05.89.89,0,0,1,0,.23v0a.34.34,0,0,0,.12.12.64.64,0,0,0,.18.06h.4l.41,0a7.19,7.19,0,0,0,.8-.2h0a.06.06,0,0,1,.07,0A.06.06,0,0,1,390.17,301Zm-2.43-.27Zm.12.56h0Z" transform="translate(-372.13 -275.64)"/><path class="cls-2" d="M392.64,300.93l-.07.05-.07,0a.42.42,0,0,1-.14.06,1.63,1.63,0,0,1-.3.07h-.3l-.3,0a2,2,0,0,1-.58-.15l-.21-.1v.1h0v.05s0,0,0,.06a.61.61,0,0,1,0,.12.38.38,0,0,1-.08.11s0,0-.06,0a.11.11,0,0,1-.07,0h-.1l-.08,0a.34.34,0,0,1-.12-.12.44.44,0,0,1,0-.15V301s0-.05,0-.07l0-.06a.69.69,0,0,1,.05-.13.41.41,0,0,1,.07-.11l.06-.06.05,0,.06,0h0a.12.12,0,0,1,.13.1l.05,0a.31.31,0,0,1,.07.09,1.51,1.51,0,0,0,.31.16,2,2,0,0,0,.55.14,2.18,2.18,0,0,0,.57,0l.27-.06.13-.05a.1.1,0,0,0,.05,0l.06,0h0a.05.05,0,0,1,.08,0A.06.06,0,0,1,392.64,300.93Zm-2.38-.29Zm.3.23a.13.13,0,0,0,0-.06l-.08-.06-.07.09-.08.06,0,.11a.35.35,0,0,0,0,.15l0,0s0,0,0,0h0s0,0,.07,0l.06-.06a.26.26,0,0,0,.05-.09s0,0,0,0v0h0A.21.21,0,0,0,390.56,300.87Z" transform="translate(-372.13 -275.64)"/></svg>