<svg id="Capa_1" data-name="Capa 1" xmlns="http://www.w3.org/2000/svg" viewBox="0 0 23.75 30.99"><defs><style>.cls-1{fill:#fff;}.cls-1,.cls-4{stroke:#174193;stroke-miterlimit:10;stroke-width:0.26px;}.cls-2{fill:#d21e18;}.cls-3{fill:#174193;}.cls-4{fill:none;}</style></defs><path class="cls-1" d="M.13.13H18a5.59,5.59,0,0,1,5.59,5.59V30.86a0,0,0,0,1,0,0H.13a0,0,0,0,1,0,0V.13A0,0,0,0,1,.13.13Z"/><rect class="cls-2" x="4.13" y="4.01" width="15.49" height="9.18" rx="0.89"/><path class="cls-3" d="M384.75,295.06h-.65v-3.31h-.83v-.51l1.48-.14Z" transform="translate(-372.13 -275.64)"/><path class="cls-3" d="M385.29,303.41h-2.52V303l1.22-1.41a3.77,3.77,0,0,0,.42-.58,1.1,1.1,0,0,0,.11-.44.57.57,0,0,0-.14-.41.51.51,0,0,0-.4-.15.56.56,0,0,0-.46.19.75.75,0,0,0-.16.5h-.63v0a1.1,1.1,0,0,1,.33-.85,1.26,1.26,0,0,1,.93-.35,1.22,1.22,0,0,1,.88.3,1.05,1.05,0,0,1,.32.79,1.15,1.15,0,0,1-.18.62,7.2,7.2,0,0,1-.58.78l-.82.94v0h1.69Z" transform="translate(-372.13 -275.64)"/><line class="cls-4" x1="0.13" y1="21.37" x2="23.63" y2="21.37"/></svg>