<svg id="Capa_1" data-name="Capa 1" xmlns="http://www.w3.org/2000/svg" viewBox="0 0 29.75 31.14"><defs><style>.cls-1,.cls-3,.cls-5{fill:#fff;}.cls-1,.cls-2,.cls-5{stroke:#174193;stroke-miterlimit:10;}.cls-1{stroke-width:0.26px;}.cls-2,.cls-4{fill:#174193;}.cls-2{stroke-width:0.34px;}.cls-5{stroke-width:0.29px;}.cls-6{fill:#d21e18;}</style></defs><path class="cls-1" d="M.13.13H18a5.59,5.59,0,0,1,5.59,5.59V30.86a0,0,0,0,1,0,0H.13a0,0,0,0,1,0,0V.13A0,0,0,0,1,.13.13Z"/><circle class="cls-2" cx="23.35" cy="24.74" r="6.22"/><circle class="cls-3" cx="23.35" cy="24.74" r="5.39"/><rect class="cls-4" x="19.47" y="21.92" width="7.52" height="4.42" rx="0.51"/><rect class="cls-3" x="20.21" y="22.51" width="6.04" height="3.2" rx="0.39"/><rect class="cls-4" x="22.16" y="26.34" width="2.16" height="0.51"/><ellipse class="cls-4" cx="23.23" cy="27.01" rx="3.06" ry="0.24"/><rect class="cls-5" x="9.28" y="9.26" width="4.92" height="4.56" rx="1.51"/><rect class="cls-5" x="9.28" y="16.05" width="4.92" height="4.56" rx="1.51"/><path class="cls-6" d="M385.84,281.11a48.22,48.22,0,0,0-4.69,6l-1.32-1.43c-.54-.59-1.42.29-.88.89l1.83,2a.63.63,0,0,0,1-.13,46.67,46.67,0,0,1,5-6.41C387.26,281.41,386.38,280.52,385.84,281.11Z" transform="translate(-369.13 -275.56)"/><path class="cls-6" d="M385.84,287.9a48.22,48.22,0,0,0-4.69,6l-1.32-1.43c-.54-.59-1.42.29-.88.89l1.83,2a.63.63,0,0,0,1-.13,46.67,46.67,0,0,1,5-6.41C387.26,288.19,386.38,287.31,385.84,287.9Z" transform="translate(-369.13 -275.56)"/></svg>