<svg id="Capa_1" data-name="Capa 1" xmlns="http://www.w3.org/2000/svg" viewBox="0 0 33.79 30.99"><defs><style>.cls-1,.cls-3{fill:#fff;}.cls-1{stroke:#174193;stroke-miterlimit:10;stroke-width:0.26px;}.cls-2{fill:#d21e18;}.cls-4{fill:#174193;}</style></defs><path class="cls-1" d="M10.17.13h17.9a5.59,5.59,0,0,1,5.59,5.59V30.86a0,0,0,0,1,0,0H10.17a0,0,0,0,1,0,0V.13A0,0,0,0,1,10.17.13Z"/><rect class="cls-2" x="13.58" y="23.04" width="15.76" height="1.33" rx="0.66"/><rect class="cls-1" x="19" y="8.55" width="4.92" height="4.56" rx="1.51"/><rect class="cls-1" x="19" y="17.15" width="4.92" height="4.56" rx="1.51"/><path class="cls-3" d="M384.91,298.56h-1.15a1,1,0,0,0,.92-1,1,1,0,0,0-1-1H376l1.27-1.33a1.64,1.64,0,0,1-.11-1.09.78.78,0,0,1,0-.16v-1.46l-.13.1-2.52,2.14c-.69.42-2.34.64-3.09,1.19a3.93,3.93,0,0,1-1.82.89,4.24,4.24,0,0,1-.91.14h0a.81.81,0,0,0-.65.35,4.9,4.9,0,0,0-.7,2.88,6,6,0,0,0,.6,2.91.77.77,0,0,0,.78.43h0a7.6,7.6,0,0,1,1.07,0,11.78,11.78,0,0,1,2.74.5,5.1,5.1,0,0,0,1.3.18h5.27a.92.92,0,0,0,.95-1,.88.88,0,0,0-.28-.68,1,1,0,0,0-.67-.23h.65a1,1,0,0,0,.67-.28.94.94,0,0,0,.28-.68,1,1,0,0,0-1-1h5.14a1,1,0,0,0,.68-.28.92.92,0,0,0,.28-.68A1,1,0,0,0,384.91,298.56Z" transform="translate(-367.11 -275.64)"/><path class="cls-4" d="M384.91,298.32h-.23a1.2,1.2,0,0,0,.24-.72,1.2,1.2,0,0,0-1.2-1.19h-7.14l.84-.88a1.5,1.5,0,0,1-.22-.46l-1.35,1.41a.25.25,0,0,0,0,.26.23.23,0,0,0,.22.14h7.69a.72.72,0,0,1,.72.72.71.71,0,0,1-.68.72H378a.24.24,0,0,0,0,.48h6.93a.73.73,0,0,1,.73.72.75.75,0,0,1-.21.51.72.72,0,0,1-.52.21H378a.24.24,0,0,0,0,.48h5.62a.72.72,0,1,1,0,1.44H378a.24.24,0,0,0,0,.48h5a.79.79,0,0,1,.52.17.62.62,0,0,1,.19.5.68.68,0,0,1-.71.74h-9.1a4.47,4.47,0,0,1-1.23-.18,11.42,11.42,0,0,0-2.8-.5h-.31a7.65,7.65,0,0,0-.81.05.54.54,0,0,1-.54-.31,5.76,5.76,0,0,1-.57-2.8,4.69,4.69,0,0,1,.66-2.75.57.57,0,0,1,.45-.25h0a3.77,3.77,0,0,0,1-.15l.33-.09a3.76,3.76,0,0,0,1.56-.83,6.06,6.06,0,0,1,1.68-.66,7,7,0,0,0,1.4-.51l0,0,2.49-2.12v-.55a1.22,1.22,0,0,0-.29.17l-2.5,2.13a6.2,6.2,0,0,1-1.27.46,6.07,6.07,0,0,0-1.82.73,3.32,3.32,0,0,1-1.41.75l-.34.1a4,4,0,0,1-.84.13,1,1,0,0,0-.84.45,5.11,5.11,0,0,0-.75,3,6.2,6.2,0,0,0,.63,3,1,1,0,0,0,1,.55,7.35,7.35,0,0,1,1,0,11.54,11.54,0,0,1,2.69.49,5,5,0,0,0,1.36.19h9.06a1.16,1.16,0,0,0,1.19-1.21,1.23,1.23,0,0,0-.22-.72,1.13,1.13,0,0,0,.53-.3,1.23,1.23,0,0,0,.35-.85,1.14,1.14,0,0,0-.25-.72h.4a1.23,1.23,0,0,0,.85-.35,1.19,1.19,0,0,0,.35-.85A1.2,1.2,0,0,0,384.91,298.32Z" transform="translate(-367.11 -275.64)"/><rect class="cls-4" x="10.04" y="15.87" width="0.25" height="5.14"/><rect class="cls-2" x="13.58" y="14.54" width="15.76" height="1.33" rx="0.66"/><rect class="cls-2" x="13.58" y="5.38" width="15.76" height="1.33" rx="0.66"/></svg>